<svg width="23" height="59" viewBox="0 0 23 59" fill="none" xmlns="http://www.w3.org/2000/svg">
<path d="M11.5 0C7.08172 -1.93129e-07 3.5 3.58172 3.5 8C3.5 12.4183 7.08172 16 11.5 16C15.9183 16 19.5 12.4183 19.5 8C19.5 3.58172 15.9183 1.93129e-07 11.5 0ZM10.4393 58.0607C11.0251 58.6464 11.9749 58.6464 12.5607 58.0607L22.1066 48.5147C22.6924 47.9289 22.6924 46.9792 22.1066 46.3934C21.5208 45.8076 20.5711 45.8076 19.9853 46.3934L11.5 54.8787L3.01472 46.3934C2.42893 45.8076 1.47918 45.8076 0.893397 46.3934C0.30761 46.9792 0.30761 47.9289 0.893397 48.5147L10.4393 58.0607ZM10 8L10 57L13 57L13 8L10 8Z" fill="#94A3B8"/>
<circle cx="11.5" cy="8" r="4" fill="white"/>
</svg>
