<svg width="480" height="104" viewBox="0 0 480 104" fill="none" xmlns="http://www.w3.org/2000/svg">
<path d="M0.5 8.5C0.5 12.9183 4.08172 16.5 8.5 16.5C12.9183 16.5 16.5 12.9183 16.5 8.5C16.5 4.08172 12.9183 0.5 8.5 0.5C4.08172 0.5 0.5 4.08172 0.5 8.5ZM7 8.5V53H10V8.5H7Z" fill="#94A3B8"/>
<circle cx="8.5" cy="8" r="4" fill="white"/>
<path d="M463.5 8.5C463.5 12.9183 467.082 16.5 471.5 16.5C475.918 16.5 479.5 12.9183 479.5 8.5C479.5 4.08172 475.918 0.5 471.5 0.5C467.082 0.5 463.5 4.08172 463.5 8.5ZM470 8.5V53H473V8.5H470Z" fill="#94A3B8"/>
<circle cx="471.5" cy="8" r="4" fill="white"/>
<path d="M238.939 103.061C239.525 103.646 240.475 103.646 241.061 103.061L250.607 93.5147C251.192 92.9289 251.192 91.9792 250.607 91.3934C250.021 90.8076 249.071 90.8076 248.485 91.3934L240 99.8787L231.515 91.3934C230.929 90.8076 229.979 90.8076 229.393 91.3934C228.808 91.9792 228.808 92.9289 229.393 93.5147L238.939 103.061ZM238.5 53L238.5 102L241.5 102L241.5 53L238.5 53Z" fill="#94A3B8"/>
<path d="M472.5 53L7.5 53" stroke="#94A3B8" stroke-width="3"/>
</svg>
