<svg width="220" height="165" viewBox="0 0 220 165" fill="none" xmlns="http://www.w3.org/2000/svg">
<rect width="220" height="165" rx="6" fill="#F3F5F8"/>
<path d="M0 6C0 2.68629 2.68629 0 6 0H214C217.314 0 220 2.68629 220 6V24H0V6Z" fill="#E0E7EC"/>
<path fill-rule="evenodd" clip-rule="evenodd" d="M12 15C13.6569 15 15 13.6569 15 12C15 10.3431 13.6569 9 12 9C10.3431 9 9 10.3431 9 12C9 13.6569 10.3431 15 12 15ZM22 15C23.6569 15 25 13.6569 25 12C25 10.3431 23.6569 9 22 9C20.3431 9 19 10.3431 19 12C19 13.6569 20.3431 15 22 15ZM35 12C35 13.6569 33.6569 15 32 15C30.3431 15 29 13.6569 29 12C29 10.3431 30.3431 9 32 9C33.6569 9 35 10.3431 35 12Z" fill="#94A2AB"/>
<path d="M70 80H116V118H70V80Z" fill="#94A2AB"/>
<path d="M70 120.278H115.6V139H70V120.278ZM115.649 83H150V97.2154H115.649V83Z" fill="#94A2AB"/>
<path d="M115.232 98.2351H149.269V136H115.232V98.2351ZM70 48H151V79.1258H70V48Z" fill="white"/>
<path d="M148.411 42H72.5888C68.4166 42 65 45.4166 65 49.5888V144.843H156V49.5888C156 45.4166 152.583 42 148.411 42ZM123.107 70.3513C123.14 68.2241 123.14 66.1051 123.14 63.978C123.14 62.7871 123.23 61.5962 123.312 60.4135C123.444 58.3028 123.542 54.6891 126.162 54.3852C126.606 54.3359 127.066 54.3934 127.476 54.5495C127.78 54.6562 128.027 54.8533 128.281 55.0505C129.275 55.7978 129.784 57.5308 130.285 58.6642C130.811 59.8633 131.172 61.1363 131.714 62.3272C131.846 62.631 131.985 62.9267 132.125 63.2306C132.642 64.3476 133.381 65.3249 134.293 63.9616C135.09 62.7625 135.624 61.4073 136.248 60.1014C136.79 58.9434 137.365 57.7854 137.931 56.6273C138.194 56.0853 138.564 55.6007 138.991 55.2065C139.894 54.3852 141.627 54.3195 142.506 55.1819C143.286 55.9457 143.393 57.3172 143.492 58.4014C143.697 60.8981 143.73 63.4195 143.787 65.9245C143.812 66.5733 143.812 67.2221 143.82 67.8709C143.82 68.5855 143.878 69.4478 143.886 70.3431C143.886 71.4518 143.853 72.6263 143.426 73.6529C142.974 74.7124 142.202 75.1723 141.151 75.1312C140.831 75.123 140.527 75.0573 140.215 74.9752C139.894 74.8931 139.673 74.7452 139.426 74.4906C139.18 74.236 138.925 73.9978 138.843 73.6283C138.761 73.2833 138.621 72.9712 138.531 72.6181C138.35 71.805 138.309 70.9508 138.235 70.1131C138.194 69.6696 138.227 69.2261 138.096 68.799L137.866 68.4869C137.619 68.4212 137.471 68.4951 137.365 68.7333C137.209 69.07 137.061 69.4232 136.921 69.7764C136.691 70.3759 136.461 70.9755 136.207 71.5668C135.714 72.733 135.336 74.2442 134.121 74.737C133.644 74.9259 133.11 74.9013 132.642 74.7206C131.435 74.2442 130.918 72.4127 130.515 71.2301C130.318 70.6716 130.047 69.2179 129.53 68.914C128.922 68.5444 128.848 69.7846 128.831 70.1377C128.815 70.4827 128.716 70.8194 128.692 71.1644C128.585 72.5934 128.495 74.1621 127.213 74.9423C126.261 75.5172 124.405 75.5419 123.723 74.3921C123.025 73.2258 123.091 71.6818 123.107 70.3513ZM80.3912 72.2649C80.539 71.4682 80.7525 70.6716 80.9907 69.8831C81.4753 68.2898 82.0666 66.6965 82.5019 65.0949C82.9618 63.4195 83.2986 61.7194 83.857 60.0604C84.8426 57.0955 86.6248 53.1779 91.3637 54.5002C93.4005 55.0669 93.9672 56.9148 94.6243 58.3931C95.577 60.5285 95.9548 62.8774 96.5543 65.0949C96.9896 66.6965 97.5892 68.2816 98.0655 69.8831C98.353 70.8358 98.8868 72.2649 98.739 73.4476C98.624 74.3346 98.123 75.0737 96.8254 75.3448C95.7248 75.583 93.5237 75.3858 93.0227 74.4085C92.3082 73.0287 92.6449 71.4272 90.2632 71.1726C89.1462 71.0494 87.5283 71.4518 87.0683 72.3635C86.5838 73.3162 86.9533 74.4906 85.7214 75.1394C84.8919 75.5829 83.701 75.6487 82.7401 75.5255C80.5801 75.2298 80.0709 73.9075 80.3912 72.2649ZM112.159 129.666C112.159 131.004 111.058 132.097 109.728 132.097H77.4263C76.0875 132.097 74.9952 131.004 74.9952 129.666V125.74C74.9952 124.401 76.0875 123.309 77.4263 123.309H109.728C111.058 123.309 112.159 124.401 112.159 125.74V129.666ZM112.159 111.277C112.159 113.412 110.41 115.17 108.274 115.17H78.88C76.7364 115.17 74.9952 113.42 74.9952 111.277V88.732C74.9952 86.5966 76.7446 84.839 78.88 84.839H108.266C110.401 84.839 112.151 86.5884 112.151 88.732V111.277H112.159ZM118.639 60.0029C117.916 61.317 116.019 60.8653 114.795 60.9063C114.59 60.9145 114.393 60.9227 114.188 60.9638C113.966 61.0049 113.744 60.9638 113.531 61.0295C112.619 61.3088 112.865 62.4093 112.865 63.1403V66.4583C112.865 68.6348 113.013 70.8194 112.865 72.9959C112.791 73.9978 112.553 74.8356 111.436 75.238C110.763 75.4762 109.769 75.4598 109.022 75.3858C105.449 75.082 106.205 72.1417 106.18 69.9735C106.155 68.1255 106.155 66.294 106.081 64.4872C106.057 63.8055 106.04 63.1238 106.04 62.4422C106.04 61.9576 106.049 61.4237 105.572 61.1609C105.227 60.972 104.792 61.0049 104.414 61.0131C103.667 61.0131 102.911 60.9967 102.164 60.9474C101.219 60.8817 100.431 60.6599 100.045 59.6333C99.8231 59.0091 99.8477 58.081 99.9052 57.3994C100.201 54.0977 102.977 54.7958 105.014 54.7712C106.755 54.7466 108.48 54.7466 110.18 54.6809C111.748 54.6152 113.26 54.648 114.746 54.6891C115.387 54.7055 115.912 54.7466 116.545 54.8369C117.341 54.9519 118.261 54.8698 118.779 55.7978C119.198 56.537 119.181 57.4322 119.05 58.2453C118.968 58.8366 118.935 59.4773 118.639 60.0029ZM125.218 128.68C125.218 129.559 124.503 130.282 123.616 130.282H120.717C120.294 130.279 119.888 130.11 119.59 129.81C119.291 129.509 119.124 129.103 119.124 128.68V125.025C119.124 124.146 119.838 123.424 120.717 123.424H123.616C124.503 123.424 125.218 124.146 125.218 125.025V128.68ZM125.218 117.519C125.218 118.397 124.503 119.12 123.616 119.12H120.717C120.294 119.118 119.888 118.948 119.59 118.648C119.291 118.348 119.124 117.942 119.124 117.519V113.864C119.124 112.985 119.838 112.262 120.717 112.262H123.616C124.503 112.262 125.218 112.985 125.218 113.864V117.519ZM125.218 106.349C125.218 107.228 124.503 107.95 123.616 107.95H120.717C120.294 107.948 119.888 107.779 119.59 107.478C119.291 107.178 119.124 106.772 119.124 106.349V102.694C119.124 101.815 119.838 101.093 120.717 101.093H123.616C124.503 101.093 125.218 101.815 125.218 102.694V106.349ZM135.697 128.68C135.697 129.559 134.975 130.282 134.088 130.282H131.197C130.318 130.282 129.595 129.559 129.595 128.68V125.025C129.595 124.146 130.31 123.424 131.197 123.424H134.096C134.975 123.424 135.706 124.146 135.706 125.025V128.68H135.697ZM135.697 117.519C135.697 118.397 134.975 119.12 134.088 119.12H131.197C130.318 119.12 129.595 118.397 129.595 117.519V113.864C129.595 112.985 130.31 112.262 131.197 112.262H134.096C134.975 112.262 135.706 112.985 135.706 113.864V117.519H135.697ZM135.697 106.349C135.697 107.228 134.975 107.95 134.088 107.95H131.197C130.318 107.95 129.595 107.228 129.595 106.349V102.694C129.595 101.815 130.31 101.093 131.197 101.093H134.096C134.975 101.093 135.706 101.815 135.706 102.694V106.349H135.697ZM146.169 128.68C146.169 129.559 145.446 130.282 144.568 130.282H141.668C140.79 130.282 140.059 129.559 140.059 128.68V125.025C140.059 124.146 140.79 123.424 141.668 123.424H144.568C145.446 123.424 146.169 124.146 146.169 125.025V128.68ZM146.169 117.519C146.169 118.397 145.446 119.12 144.568 119.12H141.668C140.79 119.12 140.059 118.397 140.059 117.519V113.864C140.059 112.985 140.79 112.262 141.668 112.262H144.568C145.446 112.262 146.169 112.985 146.169 113.864V117.519ZM146.169 106.349C146.169 107.228 145.446 107.95 144.568 107.95H141.668C140.79 107.95 140.059 107.228 140.059 106.349V102.694C140.059 101.815 140.79 101.093 141.668 101.093H144.568C145.446 101.093 146.169 101.815 146.169 102.694V106.349ZM146.169 91.6394C146.169 92.5182 145.446 93.2409 144.568 93.2409H120.717C120.294 93.2387 119.888 93.069 119.59 92.7689C119.291 92.4688 119.124 92.0627 119.124 91.6394V88.1653C119.124 87.2865 119.838 86.5637 120.717 86.5637H144.576C145.455 86.5637 146.177 87.2865 146.177 88.1653V91.6394H146.169Z" fill="#E7EDF2"/>
<path d="M88.8259 67.5835L89.2119 67.682L89.4829 67.7642L89.8525 67.756L89.91 67.7642H90.411C91.528 67.4931 90.8463 66.3598 90.7313 65.7109L90.7149 65.6452L90.682 65.5385C90.5095 64.9307 90.3453 64.3229 90.1646 63.7234C90.025 63.5098 89.9511 63.2224 89.6143 63.2881C89.3844 63.3374 89.294 63.5755 89.2365 63.707L89.1626 63.7727C88.9983 64.6104 88.8259 65.4481 88.6288 66.2858L88.6123 66.368L88.5548 66.5733C88.522 66.8197 88.4974 67.0989 88.5795 67.3371L88.8259 67.5835Z" fill="#E7EDF2"/>
</svg>
