<svg width="221" height="165" viewBox="0 0 221 165" fill="none" xmlns="http://www.w3.org/2000/svg">
<rect x="0.5" width="220" height="165" rx="6" fill="#F3F5F8"/>
<path d="M0.5 6C0.5 2.68629 3.18629 0 6.5 0H214.5C217.814 0 220.5 2.68629 220.5 6V24H0.5V6Z" fill="#E0E7EC"/>
<path fill-rule="evenodd" clip-rule="evenodd" d="M12.5 15C14.1569 15 15.5 13.6569 15.5 12C15.5 10.3431 14.1569 9 12.5 9C10.8431 9 9.5 10.3431 9.5 12C9.5 13.6569 10.8431 15 12.5 15ZM22.5 15C24.1569 15 25.5 13.6569 25.5 12C25.5 10.3431 24.1569 9 22.5 9C20.8431 9 19.5 10.3431 19.5 12C19.5 13.6569 20.8431 15 22.5 15ZM35.5 12C35.5 13.6569 34.1569 15 32.5 15C30.8431 15 29.5 13.6569 29.5 12C29.5 10.3431 30.8431 9 32.5 9C34.1569 9 35.5 10.3431 35.5 12Z" fill="#94A2AB"/>
<path fill-rule="evenodd" clip-rule="evenodd" d="M29.6565 78.3129C38.5794 78.3129 45.8129 71.0794 45.8129 62.1565C45.8129 53.2335 38.5794 46 29.6565 46C20.7335 46 13.5 53.2335 13.5 62.1565C13.5 71.0794 20.7335 78.3129 29.6565 78.3129Z" fill="#E0E7EC"/>
<path d="M57.813 66.6565C57.813 65.5519 58.7084 64.6565 59.813 64.6565H173.813C174.918 64.6565 175.813 65.5519 175.813 66.6565V70.6565C175.813 71.7611 174.918 72.6565 173.813 72.6565H59.813C58.7084 72.6565 57.813 71.7611 57.813 70.6565V66.6565Z" fill="#E0E7EC"/>
<rect x="57.813" y="51.6565" width="90" height="8" rx="2" fill="#94A2AB"/>
<path fill-rule="evenodd" clip-rule="evenodd" d="M29.6565 127.313C38.5794 127.313 45.8129 120.079 45.8129 111.156C45.8129 102.233 38.5794 95 29.6565 95C20.7335 95 13.5 102.233 13.5 111.156C13.5 120.079 20.7335 127.313 29.6565 127.313Z" fill="#E0E7EC"/>
<path d="M57.813 115.656C57.813 114.552 58.7084 113.656 59.813 113.656H173.813C174.918 113.656 175.813 114.552 175.813 115.656V119.656C175.813 120.761 174.918 121.656 173.813 121.656H59.813C58.7084 121.656 57.813 120.761 57.813 119.656V115.656Z" fill="#E0E7EC"/>
<rect x="57.813" y="100.656" width="90" height="8" rx="2" fill="#94A2AB"/>
<rect x="165.453" y="138" width="38.5473" height="14" rx="7" fill="#649DFF"/>
<rect x="17.0454" y="138" width="134.916" height="14" rx="4" fill="white"/>
</svg>
