<svg width="220" height="165" viewBox="0 0 220 165" fill="none" xmlns="http://www.w3.org/2000/svg">
<rect width="220" height="165" rx="6" fill="#F3F5F8"/>
<path d="M0 6C0 2.68629 2.68629 0 6 0H214C217.314 0 220 2.68629 220 6V24H0V6Z" fill="#E0E7EC"/>
<path fill-rule="evenodd" clip-rule="evenodd" d="M12 15C13.6569 15 15 13.6569 15 12C15 10.3431 13.6569 9 12 9C10.3431 9 9 10.3431 9 12C9 13.6569 10.3431 15 12 15ZM22 15C23.6569 15 25 13.6569 25 12C25 10.3431 23.6569 9 22 9C20.3431 9 19 10.3431 19 12C19 13.6569 20.3431 15 22 15ZM35 12C35 13.6569 33.6569 15 32 15C30.3431 15 29 13.6569 29 12C29 10.3431 30.3431 9 32 9C33.6569 9 35 10.3431 35 12Z" fill="#94A2AB"/>
<path fill-rule="evenodd" clip-rule="evenodd" d="M33 152C44.0457 152 53 143.046 53 132C53 120.954 44.0457 112 33 112C21.9543 112 13 120.954 13 132C13 143.046 21.9543 152 33 152Z" fill="#E0E7EC"/>
<path fill-rule="evenodd" clip-rule="evenodd" d="M37.9212 126.865C37.9212 129.552 35.7133 131.73 32.9897 131.73C30.2661 131.73 28.0582 129.552 28.0582 126.865C28.0582 124.178 30.2661 122 32.9897 122C35.7133 122 37.9212 124.178 37.9212 126.865ZM24.0514 142.98C24.0514 138.11 28.0532 134.162 32.9897 134.162C37.9262 134.162 41.9281 138.11 41.9281 142.98H24.0514Z" fill="#C7D3DC"/>
<rect x="13" y="34" width="144" height="64" rx="4" fill="white"/>
<rect x="167" y="84" width="40" height="14" rx="7" fill="#649DFF"/>
<path fill-rule="evenodd" clip-rule="evenodd" d="M65 128C63.8954 128 63 128.895 63 130V134C63 135.105 63.8954 136 65 136H179C180.105 136 181 135.105 181 134V130C181 128.895 180.105 128 179 128H65ZM65 141C63.8954 141 63 141.895 63 143V147C63 148.105 63.8954 149 65 149H199C200.105 149 201 148.105 201 147V143C201 141.895 200.105 141 199 141H65Z" fill="#E0E7EC"/>
<rect x="63" y="115" width="90" height="8" rx="2" fill="#94A2AB"/>
</svg>
