<svg width="221" height="165" viewBox="0 0 221 165" fill="none" xmlns="http://www.w3.org/2000/svg">
<rect x="0.5" width="220" height="165" rx="6" fill="#F3F5F8"/>
<path d="M0.5 6C0.5 2.68629 3.18629 0 6.5 0H214.5C217.814 0 220.5 2.68629 220.5 6V24H0.5V6Z" fill="#E0E7EC"/>
<path fill-rule="evenodd" clip-rule="evenodd" d="M12.5 15C14.1569 15 15.5 13.6569 15.5 12C15.5 10.3431 14.1569 9 12.5 9C10.8431 9 9.5 10.3431 9.5 12C9.5 13.6569 10.8431 15 12.5 15ZM22.5 15C24.1569 15 25.5 13.6569 25.5 12C25.5 10.3431 24.1569 9 22.5 9C20.8431 9 19.5 10.3431 19.5 12C19.5 13.6569 20.8431 15 22.5 15ZM35.5 12C35.5 13.6569 34.1569 15 32.5 15C30.8431 15 29.5 13.6569 29.5 12C29.5 10.3431 30.8431 9 32.5 9C34.1569 9 35.5 10.3431 35.5 12Z" fill="#94A2AB"/>
<path fill-rule="evenodd" clip-rule="evenodd" d="M63.6565 66.3129C72.5794 66.3129 79.8129 59.0794 79.8129 50.1565C79.8129 41.2335 72.5794 34 63.6565 34C54.7335 34 47.5 41.2335 47.5 50.1565C47.5 59.0794 54.7335 66.3129 63.6565 66.3129Z" fill="#E0E7EC"/>
<rect x="87.466" y="52.7075" width="59.5238" height="6.80272" rx="2" fill="#E0E7EC"/>
<rect x="87.466" y="41.6531" width="85.034" height="6.80272" rx="2" fill="#94A2AB"/>
<path fill-rule="evenodd" clip-rule="evenodd" d="M63.6565 108.83C72.5794 108.83 79.8129 101.597 79.8129 92.6736C79.8129 83.7506 72.5794 76.5171 63.6565 76.5171C54.7335 76.5171 47.5 83.7506 47.5 92.6736C47.5 101.597 54.7335 108.83 63.6565 108.83Z" fill="#E0E7EC"/>
<rect x="87.466" y="95.2246" width="68.0272" height="6.80272" rx="2" fill="#E0E7EC"/>
<rect x="87.466" y="84.1702" width="85.034" height="6.80272" rx="2" fill="#94A2AB"/>
<path fill-rule="evenodd" clip-rule="evenodd" d="M63.6565 151.313C72.5794 151.313 79.8129 144.079 79.8129 135.156C79.8129 126.233 72.5794 119 63.6565 119C54.7335 119 47.5 126.233 47.5 135.156C47.5 144.079 54.7335 151.313 63.6565 151.313Z" fill="#E0E7EC"/>
<rect x="87.466" y="137.708" width="68.0272" height="6.80272" rx="2" fill="#E0E7EC"/>
<rect x="87.466" y="126.653" width="85.034" height="6.80272" rx="2" fill="#94A2AB"/>
</svg>
