<svg width="220" height="165" viewBox="0 0 220 165" fill="none" xmlns="http://www.w3.org/2000/svg">
<rect width="220" height="165" rx="6" fill="#F3F5F8"/>
<path d="M0 6C0 2.68629 2.68629 0 6 0H214C217.314 0 220 2.68629 220 6V24H0V6Z" fill="#E0E7EC"/>
<path fill-rule="evenodd" clip-rule="evenodd" d="M12 15C13.6569 15 15 13.6569 15 12C15 10.3431 13.6569 9 12 9C10.3431 9 9 10.3431 9 12C9 13.6569 10.3431 15 12 15ZM22 15C23.6569 15 25 13.6569 25 12C25 10.3431 23.6569 9 22 9C20.3431 9 19 10.3431 19 12C19 13.6569 20.3431 15 22 15ZM35 12C35 13.6569 33.6569 15 32 15C30.3431 15 29 13.6569 29 12C29 10.3431 30.3431 9 32 9C33.6569 9 35 10.3431 35 12Z" fill="#94A2AB"/>
<rect x="85" y="111" width="50" height="8" rx="2" fill="#E0E7EC"/>
<rect x="60" y="98" width="100" height="8" rx="2" fill="#94A2AB"/>
<rect x="85" y="133" width="50" height="16" rx="8" fill="#649DFF"/>
<path fill-rule="evenodd" clip-rule="evenodd" d="M110 90C124.912 90 137 77.9117 137 63C137 48.0883 124.912 36 110 36C95.0883 36 83 48.0883 83 63C83 77.9117 95.0883 90 110 90Z" fill="#C7D3DC"/>
<path fill-rule="evenodd" clip-rule="evenodd" d="M107.582 70.8286C108.285 71.5316 109.425 71.5316 110.128 70.8286L121.583 59.3735C122.286 58.6706 122.286 57.5309 121.583 56.8279C120.88 56.125 119.74 56.125 119.037 56.8279L108.855 67.0103L103.128 61.2827C102.425 60.5797 101.285 60.5797 100.582 61.2827C99.8791 61.9856 99.8791 63.1253 100.582 63.8283L107.582 70.8286Z" fill="white"/>
</svg>
