<svg width="220" height="165" viewBox="0 0 220 165" fill="none" xmlns="http://www.w3.org/2000/svg">
<rect width="220" height="165" rx="6" fill="#F3F5F8"/>
<path d="M0 6C0 2.68629 2.68629 0 6 0H214C217.314 0 220 2.68629 220 6V24H0V6Z" fill="#E0E7EC"/>
<path fill-rule="evenodd" clip-rule="evenodd" d="M12 15C13.6569 15 15 13.6569 15 12C15 10.3431 13.6569 9 12 9C10.3431 9 9 10.3431 9 12C9 13.6569 10.3431 15 12 15ZM22 15C23.6569 15 25 13.6569 25 12C25 10.3431 23.6569 9 22 9C20.3431 9 19 10.3431 19 12C19 13.6569 20.3431 15 22 15ZM35 12C35 13.6569 33.6569 15 32 15C30.3431 15 29 13.6569 29 12C29 10.3431 30.3431 9 32 9C33.6569 9 35 10.3431 35 12Z" fill="#94A2AB"/>
<path d="M68.498 56.9788C70.1544 58.281 71.4934 59.9435 72.4136 61.8405C73.3337 63.7375 73.8109 65.8193 73.8091 67.9282C73.8107 70.0374 73.3332 72.1193 72.4127 74.0163C71.4922 75.9133 70.1528 77.5757 68.4959 78.8777C66.8394 77.5755 65.5004 75.913 64.5803 74.016C63.6601 72.119 63.1829 70.0372 63.1848 67.9282C63.1829 65.8193 63.6601 63.7375 64.5803 61.8405C65.5004 59.9435 66.8394 58.281 68.4959 56.9788H68.498ZM66.718 55.7863C64.965 57.2855 63.5579 59.1479 62.5939 61.245C61.6299 63.3421 61.1321 65.6237 61.1348 67.9323C61.1323 70.2401 61.63 72.521 62.5936 74.6173C63.5572 76.7136 64.9637 78.5755 66.716 80.0743C64.5993 81.2643 62.2084 81.8787 59.7811 81.8566C57.3538 81.8344 54.9746 81.1764 52.8799 79.9479C50.7852 78.7195 49.048 76.9633 47.8411 74.8541C46.6341 72.7449 45.9994 70.3561 46 67.925C46.0006 65.494 46.6365 63.1055 47.8446 60.9969C49.0526 58.8883 50.7906 57.1331 52.8859 55.9057C54.9813 54.6783 57.3608 54.0214 59.7882 54.0005C62.2155 53.9796 64.606 54.5953 66.7221 55.7863H66.718ZM70.282 80.0743C72.0341 78.5754 73.4405 76.7135 74.4041 74.6172C75.3677 72.5209 75.8655 70.2401 75.8631 67.9323C75.8656 65.6236 75.3675 63.3418 74.4031 61.2447C73.4388 59.1476 72.0313 57.2853 70.2779 55.7863C72.394 54.5953 74.7845 53.9796 77.2118 54.0005C79.6392 54.0214 82.0187 54.6783 84.1141 55.9057C86.2094 57.1331 87.9474 58.8883 89.1554 60.9969C90.3635 63.1055 90.9994 65.494 91 67.925C91.0006 70.3561 90.3659 72.7449 89.1589 74.8541C87.952 76.9633 86.2148 78.7195 84.1201 79.9479C82.0254 81.1764 79.6462 81.8344 77.2189 81.8566C74.7916 81.8787 72.3987 81.2643 70.282 80.0743Z" fill="#94A2AB"/>
<path d="M52.5573 91.7731V89.2522C52.5573 88.2856 51.9572 87.6555 50.9285 87.6555C50.4143 87.6555 49.8571 87.8235 49.4713 88.3698C49.1715 87.9076 48.7429 87.6555 48.1001 87.6555C47.6713 87.6555 47.243 87.7814 46.9 88.2437V87.7395H46V91.7731H46.9V89.5462C46.9 88.832 47.2858 88.4957 47.8859 88.4957C48.4856 88.4957 48.7859 88.874 48.7859 89.5462V91.7731H49.6859V89.5462C49.6859 88.832 50.1142 88.4957 50.6714 88.4957C51.2715 88.4957 51.5714 88.874 51.5714 89.5462V91.7731H52.5573ZM65.8856 87.7395H64.4286V86.5211H63.5286V87.7395H62.7144V88.5377H63.5284V90.3866C63.5284 91.3111 63.9142 91.8571 64.9429 91.8571C65.3286 91.8571 65.757 91.7312 66.0572 91.5631L65.7999 90.8067C65.5428 90.9748 65.2429 91.0169 65.0286 91.0169C64.6 91.0169 64.4286 90.7648 64.4286 90.3445V88.5377H65.8856V87.7395ZM73.5143 87.6553C73.0001 87.6553 72.6573 87.9076 72.4429 88.2437V87.7395H71.5429V91.7731H72.4429V89.5042C72.4429 88.832 72.7428 88.4538 73.2999 88.4538C73.4714 88.4538 73.6857 88.4959 73.8571 88.5379L74.1142 87.6976C73.9428 87.6555 73.6857 87.6555 73.5143 87.6555V87.6553ZM61.9858 88.0756C61.557 87.7814 60.9571 87.6555 60.3142 87.6555C59.2858 87.6555 58.6001 88.1596 58.6001 88.958C58.6001 89.6304 59.1144 90.0084 60.0144 90.1345L60.4429 90.1766C60.9144 90.2605 61.1715 90.3866 61.1715 90.5968C61.1715 90.8908 60.8287 91.1009 60.2285 91.1009C59.6286 91.1009 59.1571 90.8908 58.8571 90.6808L58.4285 91.353C58.9 91.6891 59.5429 91.8571 60.1856 91.8571C61.3856 91.8571 62.0715 91.3111 62.0715 90.5547C62.0715 89.8403 61.5143 89.4621 60.6571 89.3362L60.2285 89.2941C59.8428 89.252 59.5429 89.1681 59.5429 88.9161C59.5429 88.6219 59.8428 88.4538 60.3142 88.4538C60.8287 88.4538 61.3429 88.6638 61.6 88.7899L61.9858 88.0756ZM85.9001 87.6555C85.3857 87.6555 85.0428 87.9076 84.8285 88.2437V87.7395H83.9285V91.7731H84.8285V89.5042C84.8285 88.832 85.1286 88.4538 85.6855 88.4538C85.8571 88.4538 86.0715 88.4959 86.2429 88.5379L86.5 87.6976C86.3286 87.6555 86.0715 87.6555 85.9001 87.6555ZM74.4143 89.7563C74.4143 90.9748 75.2713 91.8571 76.6001 91.8571C77.2 91.8571 77.6285 91.7312 78.057 91.3951L77.6285 90.6808C77.2857 90.9329 76.9429 91.0588 76.5571 91.0588C75.8285 91.0588 75.3143 90.5547 75.3143 89.7563C75.3143 89.0001 75.8285 88.4958 76.5571 88.4538C76.9429 88.4538 77.2857 88.5798 77.6285 88.832L78.057 88.1177C77.6285 87.7814 77.2 87.6555 76.6001 87.6555C75.2713 87.6555 74.4143 88.5379 74.4143 89.7563ZM82.7286 89.7563V87.7395H81.8286V88.2437C81.5286 87.8657 81.1 87.6555 80.5429 87.6555C79.3858 87.6555 78.4858 88.5379 78.4858 89.7563C78.4858 90.9748 79.3858 91.8571 80.5429 91.8571C81.1428 91.8571 81.5715 91.6472 81.8286 91.269V91.7731H82.7286V89.7563ZM79.4285 89.7563C79.4285 89.042 79.9 88.4538 80.6713 88.4538C81.3999 88.4538 81.9143 89.0001 81.9143 89.7563C81.9143 90.4706 81.3999 91.0588 80.6713 91.0588C79.9 91.0167 79.4285 90.4706 79.4285 89.7563ZM68.6715 87.6555C67.4714 87.6555 66.6142 88.4957 66.6142 89.7563C66.6142 91.0169 67.4713 91.8571 68.7143 91.8571C69.3142 91.8571 69.9143 91.6891 70.3858 91.3111L69.9571 90.6808C69.6143 90.9329 69.1857 91.1009 68.7572 91.1009C68.2 91.1009 67.6429 90.8488 67.5142 90.1343H70.5572V89.7984C70.6002 88.4957 69.8288 87.6555 68.6715 87.6555ZM68.6715 88.4117C69.2285 88.4117 69.6145 88.748 69.7 89.3783H67.5572C67.6429 88.832 68.0286 88.4117 68.6715 88.4117ZM91 89.7563V86.1429H90.1V88.2437C89.7999 87.8657 89.3714 87.6555 88.8142 87.6555C87.6571 87.6555 86.7571 88.5379 86.7571 89.7563C86.7571 90.9748 87.6571 91.8571 88.8142 91.8571C89.4144 91.8571 89.8429 91.6472 90.1 91.269V91.7731H91V89.7563ZM87.7001 89.7563C87.7001 89.042 88.1714 88.4538 88.9429 88.4538C89.6715 88.4538 90.1857 89.0001 90.1857 89.7563C90.1857 90.4706 89.6715 91.0588 88.9429 91.0588C88.1714 91.0167 87.7001 90.4706 87.7001 89.7563ZM57.6142 89.7563V87.7395H56.7142V88.2437C56.4142 87.8657 55.9857 87.6555 55.4285 87.6555C54.2714 87.6555 53.3714 88.5379 53.3714 89.7563C53.3714 90.9748 54.2714 91.8571 55.4285 91.8571C56.0286 91.8571 56.4571 91.6472 56.7142 91.269V91.7731H57.6142V89.7563ZM54.2714 89.7563C54.2714 89.042 54.7428 88.4538 55.5142 88.4538C56.2428 88.4538 56.7572 89.0001 56.7572 89.7563C56.7572 90.4706 56.2428 91.0588 55.5142 91.0588C54.7428 91.0167 54.2714 90.4706 54.2714 89.7563Z" fill="#94A2AB"/>
<path d="M170.034 83.611L169.408 80.4216H162.39L161.273 83.5884L155.648 83.5997C159.263 74.7742 161.949 68.2394 163.699 63.9896C164.157 62.8783 164.97 62.3113 166.167 62.3198C167.083 62.3283 168.576 62.3283 170.651 62.3226L175 83.6025L170.034 83.611ZM163.97 76.0528H168.493L166.804 68.0579L163.97 76.0528ZM127.709 62.317L133.365 62.3226L124.622 83.6139L118.896 83.6082C117.456 77.9844 116.034 72.3558 114.63 66.7226C114.351 65.6 113.798 64.8146 112.735 64.4432C111.164 63.9086 109.585 63.3973 108 62.9095L108 62.3226H117.037C118.6 62.3226 119.513 63.0909 119.806 64.6672C120.102 66.2463 120.844 70.2693 122.039 76.7275L127.709 62.317ZM141.137 62.3226L136.668 83.611L131.283 83.6025L135.749 62.317L141.137 62.3226ZM152.053 61.9286C153.663 61.9286 155.693 62.4389 156.86 62.9095L155.916 67.3208C154.861 66.8899 153.125 66.3087 151.664 66.3286C149.543 66.3654 148.231 67.2698 148.231 68.1373C148.231 69.5492 150.509 70.2608 152.854 71.803C155.528 73.5608 155.883 75.1399 155.849 76.8579C155.813 80.4159 152.854 83.9286 146.612 83.9286C143.764 83.886 142.737 83.6451 140.414 82.8059L141.397 78.2018C143.761 79.2054 144.763 79.5257 146.785 79.5257C148.636 79.5257 150.224 78.7659 150.238 77.442C150.249 76.5007 149.68 76.0329 147.603 74.8706C145.526 73.7054 142.611 72.0951 142.65 68.8546C142.698 64.7097 146.564 61.9286 152.053 61.9286Z" fill="#94A2AB"/>
<rect x="94" y="122" width="40" height="14" rx="7" fill="#649DFF"/>
</svg>
