<svg width="220" height="165" viewBox="0 0 220 165" fill="none" xmlns="http://www.w3.org/2000/svg">
<rect width="220" height="165" rx="6" fill="#F3F5F8"/>
<path d="M0 6C0 2.68629 2.68629 0 6 0H214C217.314 0 220 2.68629 220 6V24H0V6Z" fill="#E0E7EC"/>
<path fill-rule="evenodd" clip-rule="evenodd" d="M12 15C13.6569 15 15 13.6569 15 12C15 10.3431 13.6569 9 12 9C10.3431 9 9 10.3431 9 12C9 13.6569 10.3431 15 12 15ZM22 15C23.6569 15 25 13.6569 25 12C25 10.3431 23.6569 9 22 9C20.3431 9 19 10.3431 19 12C19 13.6569 20.3431 15 22 15ZM35 12C35 13.6569 33.6569 15 32 15C30.3431 15 29 13.6569 29 12C29 10.3431 30.3431 9 32 9C33.6569 9 35 10.3431 35 12Z" fill="#94A2AB"/>
<path fill-rule="evenodd" clip-rule="evenodd" d="M15 93C13.8954 93 13 93.8954 13 95V99C13 100.105 13.8954 101 15 101H201C202.105 101 203 100.105 203 99V95C203 93.8954 202.105 93 201 93H15ZM15 106C13.8954 106 13 106.895 13 108V112C13 113.105 13.8954 114 15 114H163C164.105 114 165 113.105 165 112V108C165 106.895 164.105 106 163 106H15ZM13 133C13 131.895 13.8954 131 15 131H201C202.105 131 203 131.895 203 133V137C203 138.105 202.105 139 201 139H15C13.8954 139 13 138.105 13 137V133ZM15 144C13.8954 144 13 144.895 13 146V150C13 151.105 13.8954 152 15 152H144C145.105 152 146 151.105 146 150V146C146 144.895 145.105 144 144 144H15Z" fill="#E0E7EC"/>
<rect x="13" y="34" width="194" height="51" rx="4" fill="#E0E7EC"/>
<path fill-rule="evenodd" clip-rule="evenodd" d="M52 49C50.8954 49 50 49.8954 50 51V55C50 56.1046 50.8954 57 52 57H168C169.105 57 170 56.1046 170 55V51C170 49.8954 169.105 49 168 49H52ZM64 62C62.8954 62 62 62.8954 62 64V68C62 69.1046 62.8954 70 64 70H156C157.105 70 158 69.1046 158 68V64C158 62.8954 157.105 62 156 62H64Z" fill="#94A2AB"/>
</svg>
