<svg width="87" height="86" viewBox="0 0 87 86" fill="none" xmlns="http://www.w3.org/2000/svg">
<rect x="2" y="1.5" width="83" height="83" rx="41.5" stroke="#016FD2" stroke-width="3"/>
<rect x="6.46295" y="5.96289" width="74.0741" height="74.0741" rx="37.037" fill="#016FD2"/>
<path d="M40.1283 25.1067V35.5028C40.1287 35.7299 40.0712 35.9534 39.961 36.1522C39.8508 36.351 39.6917 36.5185 39.4986 36.6388L22.8951 46.9903C22.7027 47.1103 22.544 47.2771 22.4338 47.475C22.3237 47.673 22.2657 47.8955 22.2654 48.1219V50.1267C22.2654 50.33 22.3119 50.5305 22.4012 50.7131C22.4906 50.8957 22.6205 51.0556 22.7811 51.1806C22.9417 51.3056 23.1287 51.3924 23.328 51.4345C23.5273 51.4765 23.7336 51.4726 23.9312 51.4232L38.4626 47.7967C38.6601 47.7473 38.8664 47.7434 39.0657 47.7854C39.265 47.8275 39.452 47.9143 39.6126 48.0393C39.7732 48.1643 39.9032 48.3242 39.9925 48.5068C40.0819 48.6894 40.1283 48.8899 40.1283 49.0932V55.6867C40.1281 55.8771 40.0871 56.0651 40.0082 56.2384C39.9293 56.4116 39.8141 56.5661 39.6705 56.6914L34.8476 60.9015C33.8249 61.797 34.631 63.4654 35.9685 63.2226L43.2386 61.9061C43.3966 61.8775 43.5585 61.8775 43.7165 61.9061L50.9867 63.2226C52.3241 63.4676 53.1302 61.797 52.1075 60.9037L47.2846 56.6936C47.1407 56.5681 47.0254 56.4133 46.9465 56.2396C46.8675 56.0659 46.8267 55.8774 46.8268 55.6867V49.0932C46.8269 48.8902 46.8733 48.6899 46.9626 48.5075C47.0518 48.3251 47.1815 48.1653 47.3418 48.0404C47.5021 47.9154 47.6889 47.8286 47.8879 47.7863C48.0869 47.7441 48.2929 47.7477 48.4903 47.7967L63.0262 51.4232C63.2236 51.4722 63.4297 51.4758 63.6287 51.4336C63.8277 51.3913 64.0144 51.3045 64.1747 51.1795C64.3351 51.0546 64.4648 50.8948 64.554 50.7124C64.6432 50.53 64.6896 50.3297 64.6897 50.1267V48.1219C64.6894 47.8955 64.6314 47.673 64.5213 47.475C64.4112 47.2771 64.2524 47.1103 64.06 46.9903L47.4565 36.6366C47.2638 36.5164 47.1048 36.3493 46.9947 36.1509C46.8845 35.9526 46.8268 35.7295 46.8268 35.5028V25.1067C46.8268 24.2205 46.474 23.3707 45.8459 22.744C45.2178 22.1174 44.3658 21.7654 43.4776 21.7654C42.5893 21.7654 41.7374 22.1174 41.1093 22.744C40.4811 23.3707 40.1283 24.2205 40.1283 25.1067Z" fill="white"/>
</svg>
