<svg width="221" height="165" viewBox="0 0 221 165" fill="none" xmlns="http://www.w3.org/2000/svg">
<rect x="0.833313" width="220" height="165" rx="6" fill="#F3F5F8"/>
<path d="M0.833313 6C0.833313 2.68629 3.5196 0 6.83331 0H214.833C218.147 0 220.833 2.68629 220.833 6V24H0.833313V6Z" fill="#E0E7EC"/>
<path fill-rule="evenodd" clip-rule="evenodd" d="M12.8333 15C14.4902 15 15.8333 13.6569 15.8333 12C15.8333 10.3431 14.4902 9 12.8333 9C11.1765 9 9.83331 10.3431 9.83331 12C9.83331 13.6569 11.1765 15 12.8333 15ZM22.8333 15C24.4902 15 25.8333 13.6569 25.8333 12C25.8333 10.3431 24.4902 9 22.8333 9C21.1765 9 19.8333 10.3431 19.8333 12C19.8333 13.6569 21.1765 15 22.8333 15ZM35.8333 12C35.8333 13.6569 34.4902 15 32.8333 15C31.1765 15 29.8333 13.6569 29.8333 12C29.8333 10.3431 31.1765 9 32.8333 9C34.4902 9 35.8333 10.3431 35.8333 12Z" fill="#94A2AB"/>
<rect x="13.8333" y="37" width="88" height="8" rx="2" fill="#94A2AB"/>
<rect x="13.8333" y="53" width="120" height="14" rx="4" fill="white"/>
<rect x="13.8333" y="74" width="120" height="14" rx="4" fill="white"/>
<rect x="13.8333" y="95" width="57" height="14" rx="4" fill="white"/>
<rect x="77.8333" y="95" width="56" height="14" rx="4" fill="white"/>
<rect x="13.8333" y="116" width="120" height="14" rx="4" fill="white"/>
<rect x="13.8333" y="137" width="40" height="14" rx="7" fill="#649DFF"/>
<path fill-rule="evenodd" clip-rule="evenodd" d="M151.833 55C151.833 53.8954 152.729 53 153.833 53H197.833C198.938 53 199.833 53.8954 199.833 55V59C199.833 60.1046 198.938 61 197.833 61H153.833C152.729 61 151.833 60.1046 151.833 59V55ZM151.833 68C151.833 66.8954 152.729 66 153.833 66H201.833C202.938 66 203.833 66.8954 203.833 68V72C203.833 73.1046 202.938 74 201.833 74H153.833C152.729 74 151.833 73.1046 151.833 72V68ZM153.833 79C152.729 79 151.833 79.8954 151.833 81V85C151.833 86.1046 152.729 87 153.833 87H199.833C200.938 87 201.833 86.1046 201.833 85V81C201.833 79.8954 200.938 79 199.833 79H153.833ZM151.833 94C151.833 92.8954 152.729 92 153.833 92H202.833C203.938 92 204.833 92.8954 204.833 94V98C204.833 99.1046 203.938 100 202.833 100H153.833C152.729 100 151.833 99.1046 151.833 98V94ZM153.833 105C152.729 105 151.833 105.895 151.833 107V111C151.833 112.105 152.729 113 153.833 113H195.833C196.938 113 197.833 112.105 197.833 111V107C197.833 105.895 196.938 105 195.833 105H153.833Z" fill="#E0E7EC"/>
</svg>
