<svg width="221" height="165" viewBox="0 0 221 165" fill="none" xmlns="http://www.w3.org/2000/svg">
<rect x="0.5" width="220" height="165" rx="6" fill="#F3F5F8"/>
<rect x="13.5" y="36" width="60" height="36" rx="4" fill="#E0E7EC"/>
<path fill-rule="evenodd" clip-rule="evenodd" d="M50.4006 49.7046C51.6886 49.7046 52.7328 48.6514 52.7328 47.3523C52.7328 46.0532 51.6886 45 50.4006 45C49.1125 45 48.0683 46.0532 48.0683 47.3523C48.0683 48.6514 49.1125 49.7046 50.4006 49.7046ZM43.9455 63.9488H30.5236C29.7389 63.9488 29.2599 63.0862 29.6748 62.4201L38.6256 48.0485C39.0108 47.4301 39.9039 47.414 40.305 48.0222C41.7049 50.1449 44.5764 54.5067 47.0462 58.3079L49.6391 54.1203C50.0156 53.5123 50.89 53.4845 51.3044 54.0673L57.2172 62.3841C57.6853 63.0425 57.2224 63.9555 56.4146 63.9635L50.6847 64.0198L43.9455 63.9488Z" fill="#94A2AB"/>
<path fill-rule="evenodd" clip-rule="evenodd" d="M81.5 43.5C80.3954 43.5 79.5 44.3954 79.5 45.5V49.5C79.5 50.6046 80.3954 51.5 81.5 51.5H193.5C194.605 51.5 195.5 50.6046 195.5 49.5V45.5C195.5 44.3954 194.605 43.5 193.5 43.5H81.5ZM81.5 56.5C80.3954 56.5 79.5 57.3954 79.5 58.5V62.5C79.5 63.6046 80.3954 64.5 81.5 64.5H165.5C166.605 64.5 167.5 63.6046 167.5 62.5V58.5C167.5 57.3954 166.605 56.5 165.5 56.5H81.5Z" fill="#E0E7EC"/>
<rect x="13.5" y="77" width="60" height="36" rx="4" fill="#E0E7EC"/>
<path fill-rule="evenodd" clip-rule="evenodd" d="M50.4006 90.7046C51.6886 90.7046 52.7328 89.6514 52.7328 88.3523C52.7328 87.0532 51.6886 86 50.4006 86C49.1125 86 48.0683 87.0532 48.0683 88.3523C48.0683 89.6514 49.1125 90.7046 50.4006 90.7046ZM43.9455 104.949H30.5236C29.7389 104.949 29.2599 104.086 29.6748 103.42L38.6256 89.0485C39.0108 88.4301 39.9039 88.414 40.305 89.0222C41.7049 91.1449 44.5764 95.5067 47.0462 99.3079L49.6391 95.1203C50.0156 94.5123 50.89 94.4845 51.3044 95.0673L57.2172 103.384C57.6853 104.043 57.2224 104.956 56.4146 104.963L50.6847 105.02L43.9455 104.949Z" fill="#94A2AB"/>
<path fill-rule="evenodd" clip-rule="evenodd" d="M81.5 84.5C80.3954 84.5 79.5 85.3954 79.5 86.5V90.5C79.5 91.6046 80.3954 92.5 81.5 92.5H193.5C194.605 92.5 195.5 91.6046 195.5 90.5V86.5C195.5 85.3954 194.605 84.5 193.5 84.5H81.5ZM81.5 97.5C80.3954 97.5 79.5 98.3954 79.5 99.5V103.5C79.5 104.605 80.3954 105.5 81.5 105.5H175.5C176.605 105.5 177.5 104.605 177.5 103.5V99.5C177.5 98.3954 176.605 97.5 175.5 97.5H81.5Z" fill="#E0E7EC"/>
<rect x="13.5" y="118" width="60" height="36" rx="4" fill="#E0E7EC"/>
<path fill-rule="evenodd" clip-rule="evenodd" d="M50.4006 131.705C51.6886 131.705 52.7328 130.651 52.7328 129.352C52.7328 128.053 51.6886 127 50.4006 127C49.1125 127 48.0683 128.053 48.0683 129.352C48.0683 130.651 49.1125 131.705 50.4006 131.705ZM43.9455 145.949H30.5236C29.7389 145.949 29.2599 145.086 29.6748 144.42L38.6256 130.049C39.0108 129.43 39.9039 129.414 40.305 130.022C41.7049 132.145 44.5764 136.507 47.0462 140.308L49.6391 136.12C50.0156 135.512 50.89 135.484 51.3044 136.067L57.2172 144.384C57.6853 145.043 57.2224 145.956 56.4146 145.963L50.6847 146.02L43.9455 145.949Z" fill="#94A2AB"/>
<path fill-rule="evenodd" clip-rule="evenodd" d="M81.5 125.5C80.3954 125.5 79.5 126.395 79.5 127.5V131.5C79.5 132.605 80.3954 133.5 81.5 133.5H193.5C194.605 133.5 195.5 132.605 195.5 131.5V127.5C195.5 126.395 194.605 125.5 193.5 125.5H81.5ZM81.5 138.5C80.3954 138.5 79.5 139.395 79.5 140.5V144.5C79.5 145.605 80.3954 146.5 81.5 146.5H147.5C148.605 146.5 149.5 145.605 149.5 144.5V140.5C149.5 139.395 148.605 138.5 147.5 138.5H81.5Z" fill="#E0E7EC"/>
<path d="M0.5 6C0.5 2.68629 3.18629 0 6.5 0H214.5C217.814 0 220.5 2.68629 220.5 6V24H0.5V6Z" fill="#E0E7EC"/>
<path fill-rule="evenodd" clip-rule="evenodd" d="M12.5 15C14.1569 15 15.5 13.6569 15.5 12C15.5 10.3431 14.1569 9 12.5 9C10.8431 9 9.5 10.3431 9.5 12C9.5 13.6569 10.8431 15 12.5 15ZM22.5 15C24.1569 15 25.5 13.6569 25.5 12C25.5 10.3431 24.1569 9 22.5 9C20.8431 9 19.5 10.3431 19.5 12C19.5 13.6569 20.8431 15 22.5 15ZM35.5 12C35.5 13.6569 34.1569 15 32.5 15C30.8431 15 29.5 13.6569 29.5 12C29.5 10.3431 30.8431 9 32.5 9C34.1569 9 35.5 10.3431 35.5 12Z" fill="#94A2AB"/>
</svg>
