<svg width="87" height="86" viewBox="0 0 87 86" fill="none" xmlns="http://www.w3.org/2000/svg">
<rect x="6.46297" y="5.96301" width="74.0741" height="74.0741" rx="37.037" fill="#F37721"/>
<rect x="2" y="1.5" width="83" height="83" rx="41.5" stroke="#F37721" stroke-width="3"/>
<path d="M56.2407 21.7655H31.3519C30.2517 21.7655 29.1966 22.2025 28.4187 22.9805C27.6407 23.7584 27.2037 24.8135 27.2037 25.9137V59.0988C27.2037 60.199 27.6407 61.2541 28.4187 62.032C29.1966 62.8099 30.2517 63.247 31.3519 63.247H56.2407C57.3409 63.247 58.396 62.8099 59.1739 62.032C59.9519 61.2541 60.3889 60.199 60.3889 59.0988V25.9137C60.3889 24.8135 59.9519 23.7584 59.1739 22.9805C58.396 22.2025 57.3409 21.7655 56.2407 21.7655Z" fill="white" stroke="#F37721" stroke-width="3" stroke-linecap="round" stroke-linejoin="round"/>
<path d="M37.574 50.8025L38.2958 50.3048C41.3343 48.2037 46.2603 48.2037 49.2967 50.3048L50.0185 50.8025M35.5 32.1359H35.5207H35.5ZM52.0926 32.1359H52.1133H52.0926ZM43.7963 32.1359H43.817H43.7963ZM43.7963 40.4322H43.817H43.7963ZM52.0926 40.4322H52.1133H52.0926ZM35.5 40.4322H35.5207H35.5ZM39.6481 63.247V49.7655V63.247ZM47.9444 49.7655V63.247V49.7655Z" fill="white"/>
<path d="M37.574 50.8025L38.2958 50.3048C41.3343 48.2037 46.2603 48.2037 49.2967 50.3048L50.0185 50.8025M35.5 32.1359H35.5207M52.0926 32.1359H52.1133M43.7963 32.1359H43.817M43.7963 40.4322H43.817M52.0926 40.4322H52.1133M35.5 40.4322H35.5207M39.6481 63.247V49.7655M47.9444 49.7655V63.247" stroke="#F37721" stroke-width="3" stroke-linecap="round" stroke-linejoin="round"/>
</svg>
