<svg width="220" height="165" viewBox="0 0 220 165" fill="none" xmlns="http://www.w3.org/2000/svg">
<rect width="220" height="165" rx="6" fill="#F3F5F8"/>
<path d="M0 6C0 2.68629 2.68629 0 6 0H214C217.314 0 220 2.68629 220 6V24H0V6Z" fill="#E0E7EC"/>
<path fill-rule="evenodd" clip-rule="evenodd" d="M12 15C13.6569 15 15 13.6569 15 12C15 10.3431 13.6569 9 12 9C10.3431 9 9 10.3431 9 12C9 13.6569 10.3431 15 12 15ZM22 15C23.6569 15 25 13.6569 25 12C25 10.3431 23.6569 9 22 9C20.3431 9 19 10.3431 19 12C19 13.6569 20.3431 15 22 15ZM35 12C35 13.6569 33.6569 15 32 15C30.3431 15 29 13.6569 29 12C29 10.3431 30.3431 9 32 9C33.6569 9 35 10.3431 35 12Z" fill="#94A2AB"/>
<path d="M152.995 125.25C158.88 125.25 163.695 120.412 163.695 114.5V60.75C163.695 54.8375 158.88 50 152.995 50H67.3991C61.5143 50 56.6995 54.8375 56.6995 60.75V114.5C56.6995 120.412 61.5143 125.25 67.3991 125.25H51.3498C48.4074 125.25 46 127.669 46 130.625C46 133.581 48.4074 136 51.3498 136H169.045C171.987 136 174.394 133.581 174.394 130.625C174.394 127.669 171.987 125.25 169.045 125.25H152.995ZM72.7488 60.75H147.646C150.588 60.75 152.995 63.1687 152.995 66.125V109.125C152.995 112.081 150.588 114.5 147.646 114.5H72.7488C69.8065 114.5 67.3991 112.081 67.3991 109.125V66.125C67.3991 63.1687 69.8065 60.75 72.7488 60.75Z" fill="#E7EDF2"/>
<path d="M110.197 70.5915L94.4507 79.2435V82.7042H125.944V79.2435M117.656 86.165V98.2777H122.629V86.165M94.4507 106.93H125.944V101.738H94.4507M107.711 86.165V98.2777H112.683V86.165M97.7658 86.165V98.2777H102.738V86.165H97.7658Z" fill="#94A2AB"/>
</svg>
