<svg width="220" height="165" viewBox="0 0 220 165" fill="none" xmlns="http://www.w3.org/2000/svg">
<rect width="220" height="165" rx="6" fill="#F3F5F8"/>
<path fill-rule="evenodd" clip-rule="evenodd" d="M131.056 41.8999C136.044 41.8999 140.088 37.8929 140.088 32.9499C140.088 28.007 136.044 24 131.056 24C126.068 24 122.024 28.007 122.024 32.9499C122.024 37.8929 126.068 41.8999 131.056 41.8999ZM153.328 72.9387L147.566 48.8863C146.557 44.6902 142.304 42.0544 138.085 43.0899C134.373 43.9967 132.569 46.5668 131.838 48.3756C131.656 48.8261 131.34 49.6123 130.947 50.5913L130.947 50.5914C129.477 54.2509 126.925 60.6034 126.213 62.18C125.897 62.8735 125.229 63.239 125.093 63.3C124.327 63.6397 116.659 66.8752 116.659 66.8752V66.8893C115.896 67.2411 115.249 67.8035 114.795 68.5104C114.341 69.2173 114.098 70.0391 114.095 70.8793C114.095 73.323 116.096 75.3051 118.563 75.3051C119.095 75.3051 119.601 75.1949 120.077 75.0263V75.0427L130.257 70.8113C131.653 70.16 132.335 69.3353 133.029 68.1334C133.319 67.6273 134.202 65.5093 134.922 63.7709L141.065 89.461L141.058 129.267C141.046 133.222 143.778 136.446 147.77 136.46C151.767 136.474 154.656 133.281 154.682 129.319L154.722 82.3362C154.717 80.1268 153.838 74.8763 153.328 72.9387ZM111.026 81.099H111.035L97.0364 53.0144L97.0341 53.0403C96.511 51.9603 95.6937 51.0496 94.6762 50.4134C93.6587 49.7772 92.4823 49.4413 91.2822 49.4439H78.3798C74.8584 49.4416 72 52.2718 72 55.7628V136.46H111.75V84.2667C111.746 83.1702 111.499 82.0882 111.026 81.099ZM95.5381 92.9316L85.8627 95.3659H96.3461C96.9262 95.3659 97.3613 95.4972 97.6513 95.7596C97.9414 96.0151 98.0864 96.357 98.0864 96.7851C98.0864 97.1995 97.9448 97.5379 97.6617 97.8003C97.3716 98.0628 96.9331 98.194 96.3461 98.194H84.3296C83.6666 98.194 83.2211 98.0213 82.9932 97.676C82.7584 97.3307 82.641 96.8646 82.641 96.2775V95.3245C82.641 94.7513 82.6928 94.3369 82.7964 94.0814C82.9 93.819 83.0865 93.6256 83.3558 93.5013C83.6251 93.377 84.0637 93.2354 84.6714 93.0766L92.9897 90.8701L84.6714 88.6636C84.0637 88.5048 83.6251 88.3632 83.3558 88.2389C83.0865 88.1146 82.9 87.9247 82.7964 87.6692C82.6928 87.4067 82.641 86.9889 82.641 86.4157V85.4627C82.641 84.8757 82.7584 84.4095 82.9932 84.0642C83.2211 83.7189 83.6666 83.5462 84.3296 83.5462H96.3461C96.9262 83.5462 97.3613 83.6775 97.6513 83.9399C97.9414 84.1954 98.0864 84.5407 98.0864 84.9758C98.0864 85.3832 97.9414 85.7182 97.6513 85.9806C97.3613 86.2431 96.9262 86.3743 96.3461 86.3743H85.8627L95.5381 88.8086C96.1665 88.9675 96.6292 89.0987 96.9262 89.2023C97.2162 89.299 97.4821 89.482 97.7238 89.7513C97.9656 90.0207 98.0864 90.3936 98.0864 90.8701C98.0864 91.2292 98.007 91.5331 97.8482 91.7817C97.6962 92.0303 97.4994 92.2237 97.2577 92.3618C97.016 92.4999 96.7501 92.6104 96.46 92.6933C96.1631 92.7693 95.8558 92.8487 95.5381 92.9316ZM85.179 104.813V101.457C85.179 100.932 85.0651 100.539 84.8372 100.276C84.6023 100.014 84.295 99.8825 83.9152 99.8825C83.5354 99.8825 83.228 100.014 82.9932 100.276C82.7584 100.532 82.641 100.925 82.641 101.457V111.236C82.641 111.74 82.755 112.127 82.9829 112.396C83.2108 112.659 83.5215 112.79 83.9152 112.79C84.295 112.79 84.6023 112.662 84.8372 112.407C85.0651 112.151 85.179 111.761 85.179 111.236V107.88H96.2114C96.8399 107.88 97.3095 107.738 97.6203 107.455C97.931 107.165 98.0864 106.792 98.0864 106.336C98.0864 105.887 97.9345 105.521 97.6306 105.238C97.3198 104.955 96.8468 104.813 96.2114 104.813H85.179ZM94.2018 115.732L96.1078 115.007C96.3426 114.91 96.6154 114.796 96.9262 114.665C97.2301 114.527 97.458 114.399 97.6099 114.282C97.7549 114.164 97.8689 114.019 97.9517 113.847C98.0415 113.674 98.0864 113.467 98.0864 113.225C98.0864 112.811 97.9414 112.458 97.6513 112.168C97.3544 111.871 97.0298 111.723 96.6776 111.723C96.3392 111.723 95.7971 111.878 95.0512 112.189L85.2515 116.157C84.7612 116.343 84.371 116.498 84.0809 116.623C83.784 116.74 83.5077 116.889 83.2522 117.068C82.9967 117.241 82.7895 117.472 82.6307 117.762C82.4649 118.045 82.382 118.401 82.382 118.829C82.382 119.251 82.4649 119.606 82.6307 119.896C82.7895 120.179 83.0001 120.411 83.2626 120.59C83.525 120.763 83.8565 120.929 84.257 121.088C84.6507 121.239 84.9891 121.371 85.2722 121.481L95.1341 125.366C95.5277 125.525 95.835 125.639 96.056 125.708C96.277 125.777 96.4911 125.811 96.6983 125.811C97.0574 125.811 97.3785 125.663 97.6617 125.366C97.9448 125.069 98.0864 124.727 98.0864 124.34C98.0864 123.884 97.9552 123.556 97.6928 123.356C97.4234 123.156 96.9089 122.914 96.1493 122.631L94.2018 121.906V115.732ZM85.6244 118.85L91.8917 116.561V121.098L85.6244 118.85Z" fill="#94A2AB"/>
</svg>
