<svg width="708" height="200" viewBox="0 0 708 200" fill="none" xmlns="http://www.w3.org/2000/svg">
<circle cx="28" cy="28" r="4" fill="white"/>
<rect x="20" y="20" width="16" height="16" rx="8" stroke="#D7D7D7" stroke-width="1.33333"/>
<path d="M53.7422 29.2578H55.8906C55.8333 30.0182 55.6224 30.6927 55.2578 31.2812C54.8932 31.8646 54.3854 32.3229 53.7344 32.6562C53.0833 32.9896 52.2943 33.1562 51.3672 33.1562C50.6536 33.1562 50.0104 33.0312 49.4375 32.7812C48.8698 32.526 48.3828 32.1641 47.9766 31.6953C47.5755 31.2214 47.2682 30.6536 47.0547 29.9922C46.8411 29.3255 46.7344 28.5781 46.7344 27.75V26.8828C46.7344 26.0547 46.8438 25.3073 47.0625 24.6406C47.2812 23.974 47.5938 23.4062 48 22.9375C48.4115 22.4635 48.9036 22.099 49.4766 21.8438C50.0547 21.5885 50.7005 21.4609 51.4141 21.4609C52.3411 21.4609 53.125 21.6328 53.7656 21.9766C54.4062 22.3151 54.9036 22.7812 55.2578 23.375C55.612 23.9688 55.8255 24.651 55.8984 25.4219H53.75C53.7083 24.9427 53.6042 24.5365 53.4375 24.2031C53.276 23.8698 53.0312 23.6172 52.7031 23.4453C52.3802 23.2682 51.9505 23.1797 51.4141 23.1797C50.9974 23.1797 50.6302 23.2578 50.3125 23.4141C50 23.5703 49.7396 23.8047 49.5312 24.1172C49.3229 24.4245 49.1667 24.8099 49.0625 25.2734C48.9583 25.7318 48.9062 26.263 48.9062 26.8672V27.75C48.9062 28.3281 48.9531 28.8464 49.0469 29.3047C49.1406 29.763 49.2865 30.151 49.4844 30.4688C49.6823 30.7865 49.9375 31.0286 50.25 31.1953C50.5625 31.362 50.9349 31.4453 51.3672 31.4453C51.8932 31.4453 52.3203 31.362 52.6484 31.1953C52.9818 31.0286 53.2344 30.7839 53.4062 30.4609C53.5833 30.138 53.6953 29.737 53.7422 29.2578ZM59.4609 26.2734V33H57.3984V24.5469H59.3516L59.4609 26.2734ZM62.0312 24.4922L62 26.4141C61.8854 26.3932 61.7552 26.3776 61.6094 26.3672C61.4688 26.3568 61.3359 26.3516 61.2109 26.3516C60.8932 26.3516 60.6146 26.3958 60.375 26.4844C60.1354 26.5677 59.9349 26.6901 59.7734 26.8516C59.6172 27.013 59.4974 27.2109 59.4141 27.4453C59.3307 27.6745 59.2839 27.9349 59.2734 28.2266L58.8281 28.1719C58.8281 27.6354 58.8828 27.138 58.9922 26.6797C59.1016 26.2214 59.2604 25.8203 59.4688 25.4766C59.6771 25.1328 59.9375 24.8672 60.25 24.6797C60.5677 24.487 60.9323 24.3906 61.3438 24.3906C61.4583 24.3906 61.5807 24.401 61.7109 24.4219C61.8464 24.4375 61.9531 24.4609 62.0312 24.4922ZM66.8047 33.1562C66.1641 33.1562 65.5885 33.0521 65.0781 32.8438C64.5677 32.6354 64.1328 32.3464 63.7734 31.9766C63.4193 31.6016 63.1458 31.1667 62.9531 30.6719C62.7656 30.1719 62.6719 29.6354 62.6719 29.0625V28.75C62.6719 28.099 62.7656 27.5078 62.9531 26.9766C63.1406 26.4401 63.4062 25.9792 63.75 25.5938C64.0938 25.2083 64.5052 24.9115 64.9844 24.7031C65.4635 24.4948 65.9922 24.3906 66.5703 24.3906C67.1693 24.3906 67.6979 24.4922 68.1562 24.6953C68.6146 24.8932 68.9974 25.1745 69.3047 25.5391C69.612 25.9036 69.8438 26.3411 70 26.8516C70.1562 27.3568 70.2344 27.9167 70.2344 28.5312V29.3984H63.6094V27.9766H68.2031V27.8203C68.1927 27.4922 68.1302 27.1927 68.0156 26.9219C67.901 26.6458 67.724 26.4271 67.4844 26.2656C67.2448 26.099 66.9349 26.0156 66.5547 26.0156C66.2474 26.0156 65.9792 26.0833 65.75 26.2188C65.526 26.349 65.3385 26.5365 65.1875 26.7812C65.0417 27.0208 64.9323 27.3073 64.8594 27.6406C64.7865 27.974 64.75 28.3438 64.75 28.75V29.0625C64.75 29.4167 64.7969 29.7448 64.8906 30.0469C64.9896 30.349 65.1328 30.612 65.3203 30.8359C65.513 31.0547 65.7422 31.2266 66.0078 31.3516C66.2786 31.4714 66.5859 31.5312 66.9297 31.5312C67.362 31.5312 67.7526 31.4479 68.1016 31.2812C68.4557 31.1094 68.763 30.8568 69.0234 30.5234L70.0625 31.6016C69.8854 31.862 69.6458 32.112 69.3438 32.3516C69.0469 32.5911 68.6875 32.7865 68.2656 32.9375C67.8438 33.0833 67.3568 33.1562 66.8047 33.1562ZM76.6875 31.2031V21H78.7656V33H76.8906L76.6875 31.2031ZM71.2578 28.875V28.7109C71.2578 28.0651 71.3307 27.4792 71.4766 26.9531C71.6276 26.4219 71.8464 25.9661 72.1328 25.5859C72.4193 25.2057 72.7656 24.9115 73.1719 24.7031C73.5833 24.4948 74.0495 24.3906 74.5703 24.3906C75.0755 24.3906 75.5156 24.4922 75.8906 24.6953C76.2708 24.8984 76.5938 25.1875 76.8594 25.5625C77.1302 25.9375 77.3464 26.3828 77.5078 26.8984C77.6693 27.4089 77.7865 27.9714 77.8594 28.5859V29.0312C77.7865 29.6302 77.6693 30.1797 77.5078 30.6797C77.3464 31.1797 77.1302 31.6172 76.8594 31.9922C76.5938 32.362 76.2708 32.6484 75.8906 32.8516C75.5104 33.0547 75.0651 33.1562 74.5547 33.1562C74.0391 33.1562 73.5755 33.0495 73.1641 32.8359C72.7578 32.6224 72.4115 32.3229 72.125 31.9375C71.8438 31.5521 71.6276 31.099 71.4766 30.5781C71.3307 30.0573 71.2578 29.4896 71.2578 28.875ZM73.3281 28.7109V28.875C73.3281 29.2396 73.3594 29.5807 73.4219 29.8984C73.4844 30.2161 73.5859 30.4974 73.7266 30.7422C73.8672 30.9818 74.0469 31.1693 74.2656 31.3047C74.4896 31.4401 74.7604 31.5078 75.0781 31.5078C75.4844 31.5078 75.8177 31.4193 76.0781 31.2422C76.3438 31.0599 76.5495 30.8125 76.6953 30.5C76.8411 30.1823 76.9349 29.8255 76.9766 29.4297V28.2031C76.9557 27.8906 76.901 27.6016 76.8125 27.3359C76.7292 27.0703 76.6094 26.8411 76.4531 26.6484C76.3021 26.4557 76.1146 26.3047 75.8906 26.1953C75.6667 26.0859 75.401 26.0312 75.0938 26.0312C74.776 26.0312 74.5052 26.1016 74.2812 26.2422C74.0573 26.3776 73.875 26.5677 73.7344 26.8125C73.5938 27.0573 73.4896 27.3411 73.4219 27.6641C73.3594 27.987 73.3281 28.3359 73.3281 28.7109ZM82.8203 24.5469V33H80.75V24.5469H82.8203ZM80.6094 22.3359C80.6094 22.0286 80.7135 21.7734 80.9219 21.5703C81.1354 21.3672 81.4219 21.2656 81.7812 21.2656C82.1406 21.2656 82.4245 21.3672 82.6328 21.5703C82.8464 21.7734 82.9531 22.0286 82.9531 22.3359C82.9531 22.638 82.8464 22.8906 82.6328 23.0938C82.4245 23.2969 82.1406 23.3984 81.7812 23.3984C81.4219 23.3984 81.1354 23.2969 80.9219 23.0938C80.7135 22.8906 80.6094 22.638 80.6094 22.3359ZM88.7891 24.5469V26.0312H83.9453V24.5469H88.7891ZM85.2422 22.4688H87.3125V30.5625C87.3125 30.8125 87.3464 31.0052 87.4141 31.1406C87.4818 31.276 87.5833 31.3672 87.7188 31.4141C87.8542 31.4609 88.0156 31.4844 88.2031 31.4844C88.3385 31.4844 88.4635 31.4766 88.5781 31.4609C88.6927 31.4453 88.7891 31.4297 88.8672 31.4141L88.875 32.9609C88.7031 33.0182 88.5078 33.0651 88.2891 33.1016C88.0755 33.138 87.8333 33.1562 87.5625 33.1562C87.099 33.1562 86.6927 33.0781 86.3438 32.9219C85.9948 32.7604 85.724 32.5026 85.5312 32.1484C85.3385 31.7891 85.2422 31.3151 85.2422 30.7266V22.4688ZM100.961 29.2578H103.109C103.052 30.0182 102.841 30.6927 102.477 31.2812C102.112 31.8646 101.604 32.3229 100.953 32.6562C100.302 32.9896 99.513 33.1562 98.5859 33.1562C97.8724 33.1562 97.2292 33.0312 96.6562 32.7812C96.0885 32.526 95.6016 32.1641 95.1953 31.6953C94.7943 31.2214 94.487 30.6536 94.2734 29.9922C94.0599 29.3255 93.9531 28.5781 93.9531 27.75V26.8828C93.9531 26.0547 94.0625 25.3073 94.2812 24.6406C94.5 23.974 94.8125 23.4062 95.2188 22.9375C95.6302 22.4635 96.1224 22.099 96.6953 21.8438C97.2734 21.5885 97.9193 21.4609 98.6328 21.4609C99.5599 21.4609 100.344 21.6328 100.984 21.9766C101.625 22.3151 102.122 22.7812 102.477 23.375C102.831 23.9688 103.044 24.651 103.117 25.4219H100.969C100.927 24.9427 100.823 24.5365 100.656 24.2031C100.495 23.8698 100.25 23.6172 99.9219 23.4453C99.599 23.2682 99.1693 23.1797 98.6328 23.1797C98.2161 23.1797 97.849 23.2578 97.5312 23.4141C97.2188 23.5703 96.9583 23.8047 96.75 24.1172C96.5417 24.4245 96.3854 24.8099 96.2812 25.2734C96.1771 25.7318 96.125 26.263 96.125 26.8672V27.75C96.125 28.3281 96.1719 28.8464 96.2656 29.3047C96.3594 29.763 96.5052 30.151 96.7031 30.4688C96.901 30.7865 97.1562 31.0286 97.4688 31.1953C97.7812 31.362 98.1536 31.4453 98.5859 31.4453C99.112 31.4453 99.5391 31.362 99.8672 31.1953C100.201 31.0286 100.453 30.7839 100.625 30.4609C100.802 30.138 100.914 29.737 100.961 29.2578ZM109.273 31.2031V27.3047C109.273 27.0182 109.224 26.7708 109.125 26.5625C109.026 26.3542 108.875 26.1927 108.672 26.0781C108.469 25.9635 108.211 25.9062 107.898 25.9062C107.622 25.9062 107.38 25.9531 107.172 26.0469C106.969 26.1406 106.812 26.2734 106.703 26.4453C106.594 26.612 106.539 26.8047 106.539 27.0234H104.469C104.469 26.6745 104.552 26.3438 104.719 26.0312C104.885 25.7135 105.122 25.4323 105.43 25.1875C105.742 24.9375 106.115 24.7422 106.547 24.6016C106.984 24.4609 107.474 24.3906 108.016 24.3906C108.656 24.3906 109.227 24.5 109.727 24.7188C110.232 24.9323 110.628 25.2552 110.914 25.6875C111.206 26.1198 111.352 26.6641 111.352 27.3203V31.0078C111.352 31.4297 111.378 31.7917 111.43 32.0938C111.487 32.3906 111.57 32.6484 111.68 32.8672V33H109.578C109.479 32.7865 109.404 32.5156 109.352 32.1875C109.299 31.8542 109.273 31.526 109.273 31.2031ZM109.562 27.8516L109.578 29.0781H108.273C107.951 29.0781 107.667 29.112 107.422 29.1797C107.177 29.2422 106.977 29.3359 106.82 29.4609C106.664 29.5807 106.547 29.7266 106.469 29.8984C106.391 30.0651 106.352 30.2552 106.352 30.4688C106.352 30.6771 106.398 30.8646 106.492 31.0312C106.591 31.1979 106.732 31.3307 106.914 31.4297C107.102 31.5234 107.32 31.5703 107.57 31.5703C107.935 31.5703 108.253 31.4974 108.523 31.3516C108.794 31.2005 109.005 31.0182 109.156 30.8047C109.307 30.5911 109.388 30.388 109.398 30.1953L109.992 31.0859C109.919 31.2995 109.81 31.526 109.664 31.7656C109.518 32.0052 109.331 32.2292 109.102 32.4375C108.872 32.6458 108.596 32.8177 108.273 32.9531C107.951 33.0885 107.576 33.1562 107.148 33.1562C106.602 33.1562 106.112 33.0469 105.68 32.8281C105.247 32.6094 104.906 32.3099 104.656 31.9297C104.406 31.5495 104.281 31.1172 104.281 30.6328C104.281 30.1849 104.365 29.7891 104.531 29.4453C104.698 29.1016 104.945 28.8125 105.273 28.5781C105.602 28.3385 106.008 28.1589 106.492 28.0391C106.982 27.9141 107.542 27.8516 108.172 27.8516H109.562ZM115.273 26.2734V33H113.211V24.5469H115.164L115.273 26.2734ZM117.844 24.4922L117.812 26.4141C117.698 26.3932 117.568 26.3776 117.422 26.3672C117.281 26.3568 117.148 26.3516 117.023 26.3516C116.706 26.3516 116.427 26.3958 116.188 26.4844C115.948 26.5677 115.747 26.6901 115.586 26.8516C115.43 27.013 115.31 27.2109 115.227 27.4453C115.143 27.6745 115.096 27.9349 115.086 28.2266L114.641 28.1719C114.641 27.6354 114.695 27.138 114.805 26.6797C114.914 26.2214 115.073 25.8203 115.281 25.4766C115.49 25.1328 115.75 24.8672 116.062 24.6797C116.38 24.487 116.745 24.3906 117.156 24.3906C117.271 24.3906 117.393 24.401 117.523 24.4219C117.659 24.4375 117.766 24.4609 117.844 24.4922ZM123.891 31.2031V21H125.969V33H124.094L123.891 31.2031ZM118.461 28.875V28.7109C118.461 28.0651 118.534 27.4792 118.68 26.9531C118.831 26.4219 119.049 25.9661 119.336 25.5859C119.622 25.2057 119.969 24.9115 120.375 24.7031C120.786 24.4948 121.253 24.3906 121.773 24.3906C122.279 24.3906 122.719 24.4922 123.094 24.6953C123.474 24.8984 123.797 25.1875 124.062 25.5625C124.333 25.9375 124.549 26.3828 124.711 26.8984C124.872 27.4089 124.99 27.9714 125.062 28.5859V29.0312C124.99 29.6302 124.872 30.1797 124.711 30.6797C124.549 31.1797 124.333 31.6172 124.062 31.9922C123.797 32.362 123.474 32.6484 123.094 32.8516C122.714 33.0547 122.268 33.1562 121.758 33.1562C121.242 33.1562 120.779 33.0495 120.367 32.8359C119.961 32.6224 119.615 32.3229 119.328 31.9375C119.047 31.5521 118.831 31.099 118.68 30.5781C118.534 30.0573 118.461 29.4896 118.461 28.875ZM120.531 28.7109V28.875C120.531 29.2396 120.562 29.5807 120.625 29.8984C120.688 30.2161 120.789 30.4974 120.93 30.7422C121.07 30.9818 121.25 31.1693 121.469 31.3047C121.693 31.4401 121.964 31.5078 122.281 31.5078C122.688 31.5078 123.021 31.4193 123.281 31.2422C123.547 31.0599 123.753 30.8125 123.898 30.5C124.044 30.1823 124.138 29.8255 124.18 29.4297V28.2031C124.159 27.8906 124.104 27.6016 124.016 27.3359C123.932 27.0703 123.812 26.8411 123.656 26.6484C123.505 26.4557 123.318 26.3047 123.094 26.1953C122.87 26.0859 122.604 26.0312 122.297 26.0312C121.979 26.0312 121.708 26.1016 121.484 26.2422C121.26 26.3776 121.078 26.5677 120.938 26.8125C120.797 27.0573 120.693 27.3411 120.625 27.6641C120.562 27.987 120.531 28.3359 120.531 28.7109ZM136.711 21.625L132.414 33.9766H130.844L135.141 21.625H136.711ZM145.453 33H143L143.016 31.3125H145.453C146.115 31.3125 146.669 31.1667 147.117 30.875C147.565 30.5781 147.904 30.1536 148.133 29.6016C148.362 29.0443 148.477 28.3776 148.477 27.6016V27.0156C148.477 26.4167 148.411 25.888 148.281 25.4297C148.151 24.9714 147.958 24.5859 147.703 24.2734C147.453 23.9609 147.143 23.724 146.773 23.5625C146.404 23.401 145.979 23.3203 145.5 23.3203H142.953V21.625H145.5C146.26 21.625 146.953 21.7526 147.578 22.0078C148.208 22.263 148.753 22.6302 149.211 23.1094C149.674 23.5833 150.029 24.151 150.273 24.8125C150.523 25.474 150.648 26.2135 150.648 27.0312V27.6016C150.648 28.4141 150.523 29.1536 150.273 29.8203C150.029 30.4818 149.674 31.0495 149.211 31.5234C148.753 31.9974 148.206 32.362 147.57 32.6172C146.935 32.8724 146.229 33 145.453 33ZM144.203 21.625V33H142.055V21.625H144.203ZM156.117 33.1562C155.477 33.1562 154.901 33.0521 154.391 32.8438C153.88 32.6354 153.445 32.3464 153.086 31.9766C152.732 31.6016 152.458 31.1667 152.266 30.6719C152.078 30.1719 151.984 29.6354 151.984 29.0625V28.75C151.984 28.099 152.078 27.5078 152.266 26.9766C152.453 26.4401 152.719 25.9792 153.062 25.5938C153.406 25.2083 153.818 24.9115 154.297 24.7031C154.776 24.4948 155.305 24.3906 155.883 24.3906C156.482 24.3906 157.01 24.4922 157.469 24.6953C157.927 24.8932 158.31 25.1745 158.617 25.5391C158.924 25.9036 159.156 26.3411 159.312 26.8516C159.469 27.3568 159.547 27.9167 159.547 28.5312V29.3984H152.922V27.9766H157.516V27.8203C157.505 27.4922 157.443 27.1927 157.328 26.9219C157.214 26.6458 157.036 26.4271 156.797 26.2656C156.557 26.099 156.247 26.0156 155.867 26.0156C155.56 26.0156 155.292 26.0833 155.062 26.2188C154.839 26.349 154.651 26.5365 154.5 26.7812C154.354 27.0208 154.245 27.3073 154.172 27.6406C154.099 27.974 154.062 28.3438 154.062 28.75V29.0625C154.062 29.4167 154.109 29.7448 154.203 30.0469C154.302 30.349 154.445 30.612 154.633 30.8359C154.826 31.0547 155.055 31.2266 155.32 31.3516C155.591 31.4714 155.898 31.5312 156.242 31.5312C156.674 31.5312 157.065 31.4479 157.414 31.2812C157.768 31.1094 158.076 30.8568 158.336 30.5234L159.375 31.6016C159.198 31.862 158.958 32.112 158.656 32.3516C158.359 32.5911 158 32.7865 157.578 32.9375C157.156 33.0833 156.669 33.1562 156.117 33.1562ZM160.922 21H162.992V31.1328L162.789 33H160.922V21ZM168.43 28.6875V28.8516C168.43 29.4818 168.359 30.0599 168.219 30.5859C168.083 31.112 167.878 31.5677 167.602 31.9531C167.326 32.3333 166.982 32.6302 166.57 32.8438C166.164 33.0521 165.688 33.1562 165.141 33.1562C164.62 33.1562 164.167 33.0547 163.781 32.8516C163.401 32.6484 163.081 32.362 162.82 31.9922C162.56 31.6172 162.352 31.1771 162.195 30.6719C162.039 30.1615 161.922 29.6042 161.844 29V28.5547C161.922 27.9453 162.039 27.388 162.195 26.8828C162.352 26.3776 162.56 25.9375 162.82 25.5625C163.081 25.1875 163.401 24.8984 163.781 24.6953C164.161 24.4922 164.609 24.3906 165.125 24.3906C165.677 24.3906 166.159 24.4974 166.57 24.7109C166.987 24.9193 167.331 25.2161 167.602 25.6016C167.878 25.9818 168.083 26.4349 168.219 26.9609C168.359 27.4818 168.43 28.0573 168.43 28.6875ZM166.359 28.8516V28.6875C166.359 28.3281 166.331 27.9896 166.273 27.6719C166.216 27.349 166.122 27.0651 165.992 26.8203C165.862 26.5755 165.685 26.3828 165.461 26.2422C165.237 26.1016 164.956 26.0312 164.617 26.0312C164.294 26.0312 164.018 26.0859 163.789 26.1953C163.565 26.3047 163.378 26.4557 163.227 26.6484C163.081 26.8411 162.966 27.0677 162.883 27.3281C162.805 27.5885 162.753 27.8698 162.727 28.1719V29.3906C162.763 29.7917 162.849 30.1536 162.984 30.4766C163.12 30.7943 163.32 31.0469 163.586 31.2344C163.857 31.4219 164.206 31.5156 164.633 31.5156C164.966 31.5156 165.245 31.4505 165.469 31.3203C165.693 31.1849 165.87 30.9974 166 30.7578C166.13 30.513 166.221 30.2292 166.273 29.9062C166.331 29.5833 166.359 29.2318 166.359 28.8516ZM172.117 24.5469V33H170.047V24.5469H172.117ZM169.906 22.3359C169.906 22.0286 170.01 21.7734 170.219 21.5703C170.432 21.3672 170.719 21.2656 171.078 21.2656C171.438 21.2656 171.721 21.3672 171.93 21.5703C172.143 21.7734 172.25 22.0286 172.25 22.3359C172.25 22.638 172.143 22.8906 171.93 23.0938C171.721 23.2969 171.438 23.3984 171.078 23.3984C170.719 23.3984 170.432 23.2969 170.219 23.0938C170.01 22.8906 169.906 22.638 169.906 22.3359ZM178.086 24.5469V26.0312H173.242V24.5469H178.086ZM174.539 22.4688H176.609V30.5625C176.609 30.8125 176.643 31.0052 176.711 31.1406C176.779 31.276 176.88 31.3672 177.016 31.4141C177.151 31.4609 177.312 31.4844 177.5 31.4844C177.635 31.4844 177.76 31.4766 177.875 31.4609C177.99 31.4453 178.086 31.4297 178.164 31.4141L178.172 32.9609C178 33.0182 177.805 33.0651 177.586 33.1016C177.372 33.138 177.13 33.1562 176.859 33.1562C176.396 33.1562 175.99 33.0781 175.641 32.9219C175.292 32.7604 175.021 32.5026 174.828 32.1484C174.635 31.7891 174.539 31.3151 174.539 30.7266V22.4688Z" fill="#51585E"/>
<rect x="0.5" y="0.5" width="707" height="55" rx="5.1" stroke="#DEE2E6"/>
<circle cx="28" cy="100" r="4" fill="white"/>
<rect x="20" y="92" width="16" height="16" rx="8" stroke="#D7D7D7" stroke-width="1.33333"/>
<path d="M51.6094 95.3516L48.3672 105H46.0938L50.3438 93.625H51.7969L51.6094 95.3516ZM54.3203 105L51.0625 95.3516L50.8672 93.625H52.3281L56.6016 105H54.3203ZM54.1719 100.773V102.469H48.0703V100.773H54.1719ZM61.6719 93.625V105H59.5312V93.625H61.6719ZM65.2031 93.625V95.3203H56.0391V93.625H65.2031ZM67.5703 93.625H69.4297L72.5391 102.188L75.6406 93.625H77.5078L73.2812 105H71.7891L67.5703 93.625ZM66.6328 93.625H68.4531L68.7812 101.492V105H66.6328V93.625ZM76.6172 93.625H78.4453V105H76.2969V101.492L76.6172 93.625ZM86.3203 98.8594L88.3906 97.5C88.7188 97.2812 88.9453 97.0703 89.0703 96.8672C89.1953 96.6641 89.2578 96.4193 89.2578 96.1328C89.2578 95.8776 89.1589 95.6406 88.9609 95.4219C88.7682 95.1979 88.4948 95.0859 88.1406 95.0859C87.8906 95.0859 87.6797 95.1432 87.5078 95.2578C87.3359 95.3724 87.2057 95.526 87.1172 95.7188C87.0339 95.9062 86.9922 96.1146 86.9922 96.3438C86.9922 96.5781 87.0521 96.8177 87.1719 97.0625C87.2969 97.3073 87.4635 97.5651 87.6719 97.8359C87.8854 98.1016 88.1224 98.3906 88.3828 98.7031L93.75 105H91.3906L87 99.8906C86.6302 99.4323 86.3021 99.0104 86.0156 98.625C85.7292 98.2396 85.5052 97.8672 85.3438 97.5078C85.1875 97.1432 85.1094 96.7682 85.1094 96.3828C85.1094 95.7891 85.2344 95.2734 85.4844 94.8359C85.7344 94.3984 86.0859 94.0599 86.5391 93.8203C86.9974 93.5807 87.5339 93.4609 88.1484 93.4609C88.7318 93.4609 89.2344 93.5807 89.6562 93.8203C90.0833 94.0547 90.4141 94.3672 90.6484 94.7578C90.8828 95.1484 91 95.5755 91 96.0391C91 96.3932 90.9349 96.7214 90.8047 97.0234C90.6745 97.3203 90.4948 97.5938 90.2656 97.8438C90.0365 98.0885 89.7708 98.3203 89.4688 98.5391L87.0312 100.289C86.7969 100.487 86.6198 100.682 86.5 100.875C86.3854 101.062 86.3073 101.237 86.2656 101.398C86.2292 101.56 86.2109 101.711 86.2109 101.852C86.2109 102.169 86.2786 102.456 86.4141 102.711C86.5547 102.961 86.7526 103.161 87.0078 103.312C87.2682 103.458 87.5755 103.531 87.9297 103.531C88.362 103.531 88.7786 103.435 89.1797 103.242C89.5807 103.049 89.9401 102.776 90.2578 102.422C90.5807 102.068 90.8359 101.646 91.0234 101.156C91.2161 100.661 91.3125 100.117 91.3125 99.5234H93.0781C93.0781 100.091 93.0234 100.63 92.9141 101.141C92.8047 101.646 92.6276 102.115 92.3828 102.547C92.138 102.979 91.8177 103.365 91.4219 103.703C91.3854 103.734 91.3411 103.776 91.2891 103.828C91.2422 103.88 91.2005 103.922 91.1641 103.953C90.6901 104.359 90.1771 104.664 89.625 104.867C89.0781 105.065 88.4818 105.164 87.8359 105.164C87.0755 105.164 86.4193 105.026 85.8672 104.75C85.3151 104.474 84.888 104.094 84.5859 103.609C84.2891 103.125 84.1406 102.57 84.1406 101.945C84.1406 101.482 84.2318 101.078 84.4141 100.734C84.6016 100.385 84.8594 100.062 85.1875 99.7656C85.5156 99.4635 85.8932 99.1615 86.3203 98.8594ZM103.484 93.625V105H101.344V93.625H103.484ZM107.016 93.625V95.3203H97.8516V93.625H107.016ZM109.805 98.2734V105H107.742V96.5469H109.695L109.805 98.2734ZM112.375 96.4922L112.344 98.4141C112.229 98.3932 112.099 98.3776 111.953 98.3672C111.812 98.3568 111.68 98.3516 111.555 98.3516C111.237 98.3516 110.958 98.3958 110.719 98.4844C110.479 98.5677 110.279 98.6901 110.117 98.8516C109.961 99.013 109.841 99.2109 109.758 99.4453C109.674 99.6745 109.628 99.9349 109.617 100.227L109.172 100.172C109.172 99.6354 109.227 99.138 109.336 98.6797C109.445 98.2214 109.604 97.8203 109.812 97.4766C110.021 97.1328 110.281 96.8672 110.594 96.6797C110.911 96.487 111.276 96.3906 111.688 96.3906C111.802 96.3906 111.924 96.401 112.055 96.4219C112.19 96.4375 112.297 96.4609 112.375 96.4922ZM117.898 103.203V99.3047C117.898 99.0182 117.849 98.7708 117.75 98.5625C117.651 98.3542 117.5 98.1927 117.297 98.0781C117.094 97.9635 116.836 97.9062 116.523 97.9062C116.247 97.9062 116.005 97.9531 115.797 98.0469C115.594 98.1406 115.438 98.2734 115.328 98.4453C115.219 98.612 115.164 98.8047 115.164 99.0234H113.094C113.094 98.6745 113.177 98.3438 113.344 98.0312C113.51 97.7135 113.747 97.4323 114.055 97.1875C114.367 96.9375 114.74 96.7422 115.172 96.6016C115.609 96.4609 116.099 96.3906 116.641 96.3906C117.281 96.3906 117.852 96.5 118.352 96.7188C118.857 96.9323 119.253 97.2552 119.539 97.6875C119.831 98.1198 119.977 98.6641 119.977 99.3203V103.008C119.977 103.43 120.003 103.792 120.055 104.094C120.112 104.391 120.195 104.648 120.305 104.867V105H118.203C118.104 104.786 118.029 104.516 117.977 104.188C117.924 103.854 117.898 103.526 117.898 103.203ZM118.188 99.8516L118.203 101.078H116.898C116.576 101.078 116.292 101.112 116.047 101.18C115.802 101.242 115.602 101.336 115.445 101.461C115.289 101.581 115.172 101.727 115.094 101.898C115.016 102.065 114.977 102.255 114.977 102.469C114.977 102.677 115.023 102.865 115.117 103.031C115.216 103.198 115.357 103.331 115.539 103.43C115.727 103.523 115.945 103.57 116.195 103.57C116.56 103.57 116.878 103.497 117.148 103.352C117.419 103.201 117.63 103.018 117.781 102.805C117.932 102.591 118.013 102.388 118.023 102.195L118.617 103.086C118.544 103.299 118.435 103.526 118.289 103.766C118.143 104.005 117.956 104.229 117.727 104.438C117.497 104.646 117.221 104.818 116.898 104.953C116.576 105.089 116.201 105.156 115.773 105.156C115.227 105.156 114.737 105.047 114.305 104.828C113.872 104.609 113.531 104.31 113.281 103.93C113.031 103.549 112.906 103.117 112.906 102.633C112.906 102.185 112.99 101.789 113.156 101.445C113.323 101.102 113.57 100.812 113.898 100.578C114.227 100.339 114.633 100.159 115.117 100.039C115.607 99.9141 116.167 99.8516 116.797 99.8516H118.188ZM123.859 98.3516V105H121.797V96.5469H123.734L123.859 98.3516ZM123.531 100.469H122.922C122.927 99.8542 123.01 99.2969 123.172 98.7969C123.333 98.2969 123.56 97.8672 123.852 97.5078C124.148 97.1484 124.5 96.8724 124.906 96.6797C125.312 96.487 125.766 96.3906 126.266 96.3906C126.672 96.3906 127.039 96.4479 127.367 96.5625C127.695 96.6771 127.977 96.8594 128.211 97.1094C128.451 97.3594 128.633 97.6875 128.758 98.0938C128.888 98.4948 128.953 98.9896 128.953 99.5781V105H126.875V99.5625C126.875 99.1771 126.818 98.8724 126.703 98.6484C126.594 98.4245 126.432 98.2656 126.219 98.1719C126.01 98.0781 125.753 98.0312 125.445 98.0312C125.128 98.0312 124.849 98.0964 124.609 98.2266C124.375 98.3516 124.177 98.526 124.016 98.75C123.859 98.974 123.74 99.2318 123.656 99.5234C123.573 99.8151 123.531 100.13 123.531 100.469ZM135.422 102.688C135.422 102.51 135.375 102.352 135.281 102.211C135.188 102.07 135.01 101.943 134.75 101.828C134.495 101.708 134.12 101.596 133.625 101.492C133.188 101.398 132.784 101.281 132.414 101.141C132.044 101 131.727 100.831 131.461 100.633C131.195 100.43 130.987 100.193 130.836 99.9219C130.69 99.6458 130.617 99.3281 130.617 98.9688C130.617 98.6198 130.693 98.2917 130.844 97.9844C130.995 97.6719 131.214 97.3984 131.5 97.1641C131.786 96.9245 132.135 96.737 132.547 96.6016C132.958 96.4609 133.422 96.3906 133.938 96.3906C134.656 96.3906 135.273 96.5078 135.789 96.7422C136.31 96.9766 136.708 97.2995 136.984 97.7109C137.26 98.1172 137.398 98.5755 137.398 99.0859H135.336C135.336 98.862 135.284 98.6589 135.18 98.4766C135.081 98.2943 134.927 98.1484 134.719 98.0391C134.51 97.9245 134.247 97.8672 133.93 97.8672C133.643 97.8672 133.401 97.9141 133.203 98.0078C133.01 98.1016 132.865 98.224 132.766 98.375C132.667 98.526 132.617 98.6927 132.617 98.875C132.617 99.0104 132.643 99.1328 132.695 99.2422C132.753 99.3464 132.844 99.4427 132.969 99.5312C133.094 99.6198 133.263 99.7005 133.477 99.7734C133.695 99.8464 133.964 99.9167 134.281 99.9844C134.911 100.109 135.461 100.276 135.93 100.484C136.404 100.688 136.773 100.958 137.039 101.297C137.305 101.635 137.438 102.068 137.438 102.594C137.438 102.969 137.357 103.312 137.195 103.625C137.034 103.932 136.799 104.201 136.492 104.43C136.185 104.659 135.818 104.839 135.391 104.969C134.964 105.094 134.482 105.156 133.945 105.156C133.169 105.156 132.513 105.018 131.977 104.742C131.44 104.461 131.034 104.107 130.758 103.68C130.482 103.247 130.344 102.799 130.344 102.336H132.32C132.336 102.664 132.424 102.927 132.586 103.125C132.747 103.323 132.951 103.466 133.195 103.555C133.445 103.638 133.708 103.68 133.984 103.68C134.297 103.68 134.56 103.638 134.773 103.555C134.987 103.466 135.148 103.349 135.258 103.203C135.367 103.052 135.422 102.88 135.422 102.688ZM141.711 105H139.633V95.7656C139.633 95.1302 139.755 94.5964 140 94.1641C140.245 93.7266 140.594 93.3958 141.047 93.1719C141.5 92.9479 142.034 92.8359 142.648 92.8359C142.852 92.8359 143.044 92.849 143.227 92.875C143.414 92.901 143.599 92.9375 143.781 92.9844L143.742 94.5547C143.643 94.5286 143.534 94.5104 143.414 94.5C143.299 94.4896 143.172 94.4844 143.031 94.4844C142.75 94.4844 142.51 94.5339 142.312 94.6328C142.115 94.7318 141.964 94.8776 141.859 95.0703C141.76 95.2578 141.711 95.4896 141.711 95.7656V105ZM143.422 96.5469V98.0312H138.359V96.5469H143.422ZM148.305 105.156C147.664 105.156 147.089 105.052 146.578 104.844C146.068 104.635 145.633 104.346 145.273 103.977C144.919 103.602 144.646 103.167 144.453 102.672C144.266 102.172 144.172 101.635 144.172 101.062V100.75C144.172 100.099 144.266 99.5078 144.453 98.9766C144.641 98.4401 144.906 97.9792 145.25 97.5938C145.594 97.2083 146.005 96.9115 146.484 96.7031C146.964 96.4948 147.492 96.3906 148.07 96.3906C148.669 96.3906 149.198 96.4922 149.656 96.6953C150.115 96.8932 150.497 97.1745 150.805 97.5391C151.112 97.9036 151.344 98.3411 151.5 98.8516C151.656 99.3568 151.734 99.9167 151.734 100.531V101.398H145.109V99.9766H149.703V99.8203C149.693 99.4922 149.63 99.1927 149.516 98.9219C149.401 98.6458 149.224 98.4271 148.984 98.2656C148.745 98.099 148.435 98.0156 148.055 98.0156C147.747 98.0156 147.479 98.0833 147.25 98.2188C147.026 98.349 146.839 98.5365 146.688 98.7812C146.542 99.0208 146.432 99.3073 146.359 99.6406C146.286 99.974 146.25 100.344 146.25 100.75V101.062C146.25 101.417 146.297 101.745 146.391 102.047C146.49 102.349 146.633 102.612 146.82 102.836C147.013 103.055 147.242 103.227 147.508 103.352C147.779 103.471 148.086 103.531 148.43 103.531C148.862 103.531 149.253 103.448 149.602 103.281C149.956 103.109 150.263 102.857 150.523 102.523L151.562 103.602C151.385 103.862 151.146 104.112 150.844 104.352C150.547 104.591 150.188 104.786 149.766 104.938C149.344 105.083 148.857 105.156 148.305 105.156ZM155.18 98.2734V105H153.117V96.5469H155.07L155.18 98.2734ZM157.75 96.4922L157.719 98.4141C157.604 98.3932 157.474 98.3776 157.328 98.3672C157.188 98.3568 157.055 98.3516 156.93 98.3516C156.612 98.3516 156.333 98.3958 156.094 98.4844C155.854 98.5677 155.654 98.6901 155.492 98.8516C155.336 99.013 155.216 99.2109 155.133 99.4453C155.049 99.6745 155.003 99.9349 154.992 100.227L154.547 100.172C154.547 99.6354 154.602 99.138 154.711 98.6797C154.82 98.2214 154.979 97.8203 155.188 97.4766C155.396 97.1328 155.656 96.8672 155.969 96.6797C156.286 96.487 156.651 96.3906 157.062 96.3906C157.177 96.3906 157.299 96.401 157.43 96.4219C157.565 96.4375 157.672 96.4609 157.75 96.4922Z" fill="#51585E"/>
<rect x="0.5" y="72.5" width="707" height="55" rx="5.1" stroke="#DEE2E6"/>
<circle cx="28" cy="172" r="4" fill="white"/>
<rect x="20" y="164" width="16" height="16" rx="8" stroke="#D7D7D7" stroke-width="1.33333"/>
<path d="M56.2969 171.023V171.609C56.2969 172.469 56.1823 173.242 55.9531 173.93C55.724 174.612 55.3984 175.193 54.9766 175.672C54.5547 176.151 54.0521 176.518 53.4688 176.773C52.8854 177.029 52.237 177.156 51.5234 177.156C50.8203 177.156 50.1745 177.029 49.5859 176.773C49.0026 176.518 48.4974 176.151 48.0703 175.672C47.6432 175.193 47.3125 174.612 47.0781 173.93C46.8438 173.242 46.7266 172.469 46.7266 171.609V171.023C46.7266 170.159 46.8438 169.385 47.0781 168.703C47.3125 168.021 47.6406 167.44 48.0625 166.961C48.4844 166.477 48.987 166.107 49.5703 165.852C50.1589 165.596 50.8047 165.469 51.5078 165.469C52.2214 165.469 52.8698 165.596 53.4531 165.852C54.0365 166.107 54.5391 166.477 54.9609 166.961C55.388 167.44 55.7161 168.021 55.9453 168.703C56.1797 169.385 56.2969 170.159 56.2969 171.023ZM54.125 171.609V171.008C54.125 170.388 54.0677 169.844 53.9531 169.375C53.8385 168.901 53.6693 168.503 53.4453 168.18C53.2214 167.857 52.9453 167.615 52.6172 167.453C52.2891 167.286 51.9193 167.203 51.5078 167.203C51.0911 167.203 50.7214 167.286 50.3984 167.453C50.0807 167.615 49.8099 167.857 49.5859 168.18C49.362 168.503 49.1901 168.901 49.0703 169.375C48.9557 169.844 48.8984 170.388 48.8984 171.008V171.609C48.8984 172.224 48.9557 172.768 49.0703 173.242C49.1901 173.716 49.362 174.117 49.5859 174.445C49.8151 174.768 50.0911 175.013 50.4141 175.18C50.737 175.346 51.1068 175.43 51.5234 175.43C51.9401 175.43 52.3099 175.346 52.6328 175.18C52.9557 175.013 53.2266 174.768 53.4453 174.445C53.6693 174.117 53.8385 173.716 53.9531 173.242C54.0677 172.768 54.125 172.224 54.125 171.609ZM59.9844 170.352V177H57.9219V168.547H59.8594L59.9844 170.352ZM59.6562 172.469H59.0469C59.0521 171.854 59.1354 171.297 59.2969 170.797C59.4583 170.297 59.6849 169.867 59.9766 169.508C60.2734 169.148 60.625 168.872 61.0312 168.68C61.4375 168.487 61.8906 168.391 62.3906 168.391C62.7969 168.391 63.1641 168.448 63.4922 168.562C63.8203 168.677 64.1016 168.859 64.3359 169.109C64.5755 169.359 64.7578 169.688 64.8828 170.094C65.013 170.495 65.0781 170.99 65.0781 171.578V177H63V171.562C63 171.177 62.9427 170.872 62.8281 170.648C62.7188 170.424 62.5573 170.266 62.3438 170.172C62.1354 170.078 61.8776 170.031 61.5703 170.031C61.2526 170.031 60.974 170.096 60.7344 170.227C60.5 170.352 60.3021 170.526 60.1406 170.75C59.9844 170.974 59.8646 171.232 59.7812 171.523C59.6979 171.815 59.6562 172.13 59.6562 172.469ZM69.0859 165V177H67.0156V165H69.0859ZM73.2422 168.547V177H71.1719V168.547H73.2422ZM71.0312 166.336C71.0312 166.029 71.1354 165.773 71.3438 165.57C71.5573 165.367 71.8438 165.266 72.2031 165.266C72.5625 165.266 72.8464 165.367 73.0547 165.57C73.2682 165.773 73.375 166.029 73.375 166.336C73.375 166.638 73.2682 166.891 73.0547 167.094C72.8464 167.297 72.5625 167.398 72.2031 167.398C71.8438 167.398 71.5573 167.297 71.3438 167.094C71.1354 166.891 71.0312 166.638 71.0312 166.336ZM77.2344 170.352V177H75.1719V168.547H77.1094L77.2344 170.352ZM76.9062 172.469H76.2969C76.3021 171.854 76.3854 171.297 76.5469 170.797C76.7083 170.297 76.9349 169.867 77.2266 169.508C77.5234 169.148 77.875 168.872 78.2812 168.68C78.6875 168.487 79.1406 168.391 79.6406 168.391C80.0469 168.391 80.4141 168.448 80.7422 168.562C81.0703 168.677 81.3516 168.859 81.5859 169.109C81.8255 169.359 82.0078 169.688 82.1328 170.094C82.263 170.495 82.3281 170.99 82.3281 171.578V177H80.25V171.562C80.25 171.177 80.1927 170.872 80.0781 170.648C79.9688 170.424 79.8073 170.266 79.5938 170.172C79.3854 170.078 79.1276 170.031 78.8203 170.031C78.5026 170.031 78.224 170.096 77.9844 170.227C77.75 170.352 77.5521 170.526 77.3906 170.75C77.2344 170.974 77.1146 171.232 77.0312 171.523C76.9479 171.815 76.9062 172.13 76.9062 172.469ZM87.9453 177.156C87.3047 177.156 86.7292 177.052 86.2188 176.844C85.7083 176.635 85.2734 176.346 84.9141 175.977C84.5599 175.602 84.2865 175.167 84.0938 174.672C83.9062 174.172 83.8125 173.635 83.8125 173.062V172.75C83.8125 172.099 83.9062 171.508 84.0938 170.977C84.2812 170.44 84.5469 169.979 84.8906 169.594C85.2344 169.208 85.6458 168.911 86.125 168.703C86.6042 168.495 87.1328 168.391 87.7109 168.391C88.3099 168.391 88.8385 168.492 89.2969 168.695C89.7552 168.893 90.138 169.174 90.4453 169.539C90.7526 169.904 90.9844 170.341 91.1406 170.852C91.2969 171.357 91.375 171.917 91.375 172.531V173.398H84.75V171.977H89.3438V171.82C89.3333 171.492 89.2708 171.193 89.1562 170.922C89.0417 170.646 88.8646 170.427 88.625 170.266C88.3854 170.099 88.0755 170.016 87.6953 170.016C87.388 170.016 87.1198 170.083 86.8906 170.219C86.6667 170.349 86.4792 170.536 86.3281 170.781C86.1823 171.021 86.0729 171.307 86 171.641C85.9271 171.974 85.8906 172.344 85.8906 172.75V173.062C85.8906 173.417 85.9375 173.745 86.0312 174.047C86.1302 174.349 86.2734 174.612 86.4609 174.836C86.6536 175.055 86.8828 175.227 87.1484 175.352C87.4193 175.471 87.7266 175.531 88.0703 175.531C88.5026 175.531 88.8932 175.448 89.2422 175.281C89.5964 175.109 89.9036 174.857 90.1641 174.523L91.2031 175.602C91.026 175.862 90.7865 176.112 90.4844 176.352C90.1875 176.591 89.8281 176.786 89.4062 176.938C88.9844 177.083 88.4974 177.156 87.9453 177.156ZM101.258 171.93H98.3516L98.3359 170.414H100.828C101.255 170.414 101.612 170.354 101.898 170.234C102.185 170.115 102.401 169.94 102.547 169.711C102.698 169.482 102.773 169.203 102.773 168.875C102.773 168.51 102.703 168.214 102.562 167.984C102.427 167.755 102.214 167.589 101.922 167.484C101.63 167.375 101.26 167.32 100.812 167.32H99.0469V177H96.8984V165.625H100.812C101.458 165.625 102.034 165.688 102.539 165.812C103.049 165.932 103.482 166.12 103.836 166.375C104.19 166.63 104.458 166.951 104.641 167.336C104.828 167.721 104.922 168.18 104.922 168.711C104.922 169.18 104.812 169.612 104.594 170.008C104.38 170.398 104.049 170.716 103.602 170.961C103.159 171.206 102.596 171.346 101.914 171.383L101.258 171.93ZM101.164 177H97.7188L98.6172 175.312H101.164C101.591 175.312 101.943 175.242 102.219 175.102C102.5 174.961 102.708 174.768 102.844 174.523C102.984 174.273 103.055 173.987 103.055 173.664C103.055 173.31 102.992 173.003 102.867 172.742C102.747 172.482 102.555 172.281 102.289 172.141C102.029 172 101.685 171.93 101.258 171.93H99.0234L99.0391 170.414H101.883L102.375 171C103.031 171.005 103.565 171.135 103.977 171.391C104.393 171.646 104.701 171.974 104.898 172.375C105.096 172.776 105.195 173.208 105.195 173.672C105.195 174.401 105.036 175.013 104.719 175.508C104.406 176.003 103.948 176.375 103.344 176.625C102.745 176.875 102.018 177 101.164 177ZM111.555 175.203V171.305C111.555 171.018 111.505 170.771 111.406 170.562C111.307 170.354 111.156 170.193 110.953 170.078C110.75 169.964 110.492 169.906 110.18 169.906C109.904 169.906 109.661 169.953 109.453 170.047C109.25 170.141 109.094 170.273 108.984 170.445C108.875 170.612 108.82 170.805 108.82 171.023H106.75C106.75 170.674 106.833 170.344 107 170.031C107.167 169.714 107.404 169.432 107.711 169.188C108.023 168.938 108.396 168.742 108.828 168.602C109.266 168.461 109.755 168.391 110.297 168.391C110.938 168.391 111.508 168.5 112.008 168.719C112.513 168.932 112.909 169.255 113.195 169.688C113.487 170.12 113.633 170.664 113.633 171.32V175.008C113.633 175.43 113.659 175.792 113.711 176.094C113.768 176.391 113.852 176.648 113.961 176.867V177H111.859C111.76 176.786 111.685 176.516 111.633 176.188C111.581 175.854 111.555 175.526 111.555 175.203ZM111.844 171.852L111.859 173.078H110.555C110.232 173.078 109.948 173.112 109.703 173.18C109.458 173.242 109.258 173.336 109.102 173.461C108.945 173.581 108.828 173.727 108.75 173.898C108.672 174.065 108.633 174.255 108.633 174.469C108.633 174.677 108.68 174.865 108.773 175.031C108.872 175.198 109.013 175.331 109.195 175.43C109.383 175.523 109.602 175.57 109.852 175.57C110.216 175.57 110.534 175.497 110.805 175.352C111.076 175.201 111.286 175.018 111.438 174.805C111.589 174.591 111.669 174.388 111.68 174.195L112.273 175.086C112.201 175.299 112.091 175.526 111.945 175.766C111.799 176.005 111.612 176.229 111.383 176.438C111.154 176.646 110.878 176.818 110.555 176.953C110.232 177.089 109.857 177.156 109.43 177.156C108.883 177.156 108.393 177.047 107.961 176.828C107.529 176.609 107.188 176.31 106.938 175.93C106.688 175.549 106.562 175.117 106.562 174.633C106.562 174.185 106.646 173.789 106.812 173.445C106.979 173.102 107.227 172.812 107.555 172.578C107.883 172.339 108.289 172.159 108.773 172.039C109.263 171.914 109.823 171.852 110.453 171.852H111.844ZM117.516 170.352V177H115.453V168.547H117.391L117.516 170.352ZM117.188 172.469H116.578C116.583 171.854 116.667 171.297 116.828 170.797C116.99 170.297 117.216 169.867 117.508 169.508C117.805 169.148 118.156 168.872 118.562 168.68C118.969 168.487 119.422 168.391 119.922 168.391C120.328 168.391 120.695 168.448 121.023 168.562C121.352 168.677 121.633 168.859 121.867 169.109C122.107 169.359 122.289 169.688 122.414 170.094C122.544 170.495 122.609 170.99 122.609 171.578V177H120.531V171.562C120.531 171.177 120.474 170.872 120.359 170.648C120.25 170.424 120.089 170.266 119.875 170.172C119.667 170.078 119.409 170.031 119.102 170.031C118.784 170.031 118.505 170.096 118.266 170.227C118.031 170.352 117.833 170.526 117.672 170.75C117.516 170.974 117.396 171.232 117.312 171.523C117.229 171.815 117.188 172.13 117.188 172.469ZM126.492 164.992V177H124.43V164.992H126.492ZM131.789 168.547L128.109 172.68L126.117 174.703L125.461 173.102L127 171.164L129.297 168.547H131.789ZM129.68 177L127.062 173.062L128.438 171.727L132.07 177H129.68ZM135.07 168.547V177H133V168.547H135.07ZM132.859 166.336C132.859 166.029 132.964 165.773 133.172 165.57C133.385 165.367 133.672 165.266 134.031 165.266C134.391 165.266 134.674 165.367 134.883 165.57C135.096 165.773 135.203 166.029 135.203 166.336C135.203 166.638 135.096 166.891 134.883 167.094C134.674 167.297 134.391 167.398 134.031 167.398C133.672 167.398 133.385 167.297 133.172 167.094C132.964 166.891 132.859 166.638 132.859 166.336ZM139.062 170.352V177H137V168.547H138.938L139.062 170.352ZM138.734 172.469H138.125C138.13 171.854 138.214 171.297 138.375 170.797C138.536 170.297 138.763 169.867 139.055 169.508C139.352 169.148 139.703 168.872 140.109 168.68C140.516 168.487 140.969 168.391 141.469 168.391C141.875 168.391 142.242 168.448 142.57 168.562C142.898 168.677 143.18 168.859 143.414 169.109C143.654 169.359 143.836 169.688 143.961 170.094C144.091 170.495 144.156 170.99 144.156 171.578V177H142.078V171.562C142.078 171.177 142.021 170.872 141.906 170.648C141.797 170.424 141.635 170.266 141.422 170.172C141.214 170.078 140.956 170.031 140.648 170.031C140.331 170.031 140.052 170.096 139.812 170.227C139.578 170.352 139.38 170.526 139.219 170.75C139.062 170.974 138.943 171.232 138.859 171.523C138.776 171.815 138.734 172.13 138.734 172.469ZM151.352 168.547H153.227V176.742C153.227 177.508 153.06 178.156 152.727 178.688C152.398 179.224 151.938 179.63 151.344 179.906C150.75 180.188 150.06 180.328 149.273 180.328C148.935 180.328 148.568 180.281 148.172 180.188C147.781 180.094 147.404 179.945 147.039 179.742C146.68 179.544 146.38 179.286 146.141 178.969L147.07 177.75C147.352 178.078 147.669 178.326 148.023 178.492C148.378 178.664 148.76 178.75 149.172 178.75C149.589 178.75 149.943 178.672 150.234 178.516C150.531 178.365 150.758 178.141 150.914 177.844C151.076 177.552 151.156 177.193 151.156 176.766V170.477L151.352 168.547ZM145.641 172.875V172.711C145.641 172.065 145.719 171.479 145.875 170.953C146.031 170.422 146.255 169.966 146.547 169.586C146.844 169.206 147.201 168.911 147.617 168.703C148.039 168.495 148.513 168.391 149.039 168.391C149.596 168.391 150.065 168.492 150.445 168.695C150.831 168.898 151.148 169.188 151.398 169.562C151.654 169.938 151.852 170.383 151.992 170.898C152.138 171.409 152.25 171.971 152.328 172.586V173.031C152.255 173.63 152.138 174.18 151.977 174.68C151.82 175.18 151.612 175.617 151.352 175.992C151.091 176.362 150.768 176.648 150.383 176.852C149.997 177.055 149.544 177.156 149.023 177.156C148.503 177.156 148.034 177.049 147.617 176.836C147.201 176.622 146.844 176.323 146.547 175.938C146.255 175.552 146.031 175.099 145.875 174.578C145.719 174.057 145.641 173.49 145.641 172.875ZM147.703 172.711V172.875C147.703 173.24 147.74 173.581 147.812 173.898C147.885 174.216 147.997 174.497 148.148 174.742C148.299 174.982 148.49 175.169 148.719 175.305C148.948 175.44 149.221 175.508 149.539 175.508C149.966 175.508 150.315 175.419 150.586 175.242C150.862 175.06 151.07 174.812 151.211 174.5C151.357 174.182 151.451 173.826 151.492 173.43V172.203C151.466 171.891 151.409 171.602 151.32 171.336C151.237 171.07 151.12 170.841 150.969 170.648C150.818 170.456 150.625 170.305 150.391 170.195C150.156 170.086 149.878 170.031 149.555 170.031C149.242 170.031 148.969 170.102 148.734 170.242C148.5 170.378 148.307 170.568 148.156 170.812C148.005 171.057 147.891 171.341 147.812 171.664C147.74 171.987 147.703 172.336 147.703 172.711Z" fill="#51585E"/>
<rect x="0.5" y="144.5" width="707" height="55" rx="5.1" stroke="#DEE2E6"/>
</svg>
