<svg width="220" height="165" viewBox="0 0 220 165" fill="none" xmlns="http://www.w3.org/2000/svg">
<rect width="220" height="165" rx="6" fill="#F3F5F8"/>
<path d="M0 6C0 2.68629 2.68629 0 6 0H214C217.314 0 220 2.68629 220 6V24H0V6Z" fill="#E0E7EC"/>
<path fill-rule="evenodd" clip-rule="evenodd" d="M12 15C13.6569 15 15 13.6569 15 12C15 10.3431 13.6569 9 12 9C10.3431 9 9 10.3431 9 12C9 13.6569 10.3431 15 12 15ZM22 15C23.6569 15 25 13.6569 25 12C25 10.3431 23.6569 9 22 9C20.3431 9 19 10.3431 19 12C19 13.6569 20.3431 15 22 15ZM35 12C35 13.6569 33.6569 15 32 15C30.3431 15 29 13.6569 29 12C29 10.3431 30.3431 9 32 9C33.6569 9 35 10.3431 35 12Z" fill="#94A2AB"/>
<path fill-rule="evenodd" clip-rule="evenodd" d="M15 93C13.8954 93 13 93.8954 13 95V99C13 100.105 13.8954 101 15 101H201C202.105 101 203 100.105 203 99V95C203 93.8954 202.105 93 201 93H15ZM15 106C13.8954 106 13 106.895 13 108V112C13 113.105 13.8954 114 15 114H163C164.105 114 165 113.105 165 112V108C165 106.895 164.105 106 163 106H15ZM13 133C13 131.895 13.8954 131 15 131H201C202.105 131 203 131.895 203 133V137C203 138.105 202.105 139 201 139H15C13.8954 139 13 138.105 13 137V133ZM15 144C13.8954 144 13 144.895 13 146V150C13 151.105 13.8954 152 15 152H144C145.105 152 146 151.105 146 150V146C146 144.895 145.105 144 144 144H15Z" fill="#E0E7EC"/>
<rect x="37" y="33" width="31" height="50" rx="3" fill="#E0E7EC"/>
<path d="M53.5125 48.44C55.4965 48.44 57.0085 49.168 58.0485 50.624C59.1045 52.08 59.6325 54.176 59.6325 56.912C59.6325 59.632 59.1045 61.728 58.0485 63.2C57.0085 64.672 55.4965 65.408 53.5125 65.408C51.5285 65.408 50.0085 64.672 48.9525 63.2C47.9125 61.728 47.3925 59.632 47.3925 56.912C47.3925 54.176 47.9125 52.08 48.9525 50.624C50.0085 49.168 51.5285 48.44 53.5125 48.44ZM53.5125 51.248C52.9685 51.248 52.5365 51.424 52.2165 51.776C51.8965 52.128 51.6565 52.712 51.4965 53.528C51.3525 54.344 51.2805 55.472 51.2805 56.912C51.2805 58.352 51.3525 59.488 51.4965 60.32C51.6565 61.136 51.8965 61.72 52.2165 62.072C52.5365 62.424 52.9685 62.6 53.5125 62.6C54.0565 62.6 54.4885 62.432 54.8085 62.096C55.1285 61.744 55.3605 61.16 55.5045 60.344C55.6645 59.512 55.7445 58.368 55.7445 56.912C55.7445 55.456 55.6645 54.32 55.5045 53.504C55.3605 52.672 55.1285 52.088 54.8085 51.752C54.4885 51.416 54.0565 51.248 53.5125 51.248Z" fill="#94A2AB"/>
<rect x="72" y="33" width="31" height="50" rx="3" fill="#E0E7EC"/>
<path d="M87.0128 48.44C88.1808 48.44 89.1808 48.648 90.0128 49.064C90.8608 49.48 91.5008 50.04 91.9328 50.744C92.3808 51.448 92.6048 52.224 92.6048 53.072C92.6048 53.936 92.4288 54.76 92.0768 55.544C91.7248 56.328 91.1008 57.232 90.2048 58.256C89.3088 59.264 88.0048 60.544 86.2928 62.096H92.9408L92.5568 65H81.9968V62.312C83.9648 60.376 85.3968 58.92 86.2928 57.944C87.1888 56.952 87.8128 56.128 88.1648 55.472C88.5328 54.816 88.7168 54.144 88.7168 53.456C88.7168 52.8 88.5248 52.288 88.1408 51.92C87.7728 51.536 87.2688 51.344 86.6288 51.344C86.0528 51.344 85.5408 51.48 85.0928 51.752C84.6448 52.008 84.1728 52.432 83.6768 53.024L81.4448 51.248C82.1168 50.368 82.9168 49.68 83.8448 49.184C84.7888 48.688 85.8448 48.44 87.0128 48.44Z" fill="#94A2AB"/>
<path fill-rule="evenodd" clip-rule="evenodd" d="M111 52C111 53.1046 110.105 54 109 54C107.895 54 107 53.1046 107 52C107 50.8954 107.895 50 109 50C110.105 50 111 50.8954 111 52ZM111 64C111 65.1046 110.105 66 109 66C107.895 66 107 65.1046 107 64C107 62.8954 107.895 62 109 62C110.105 62 111 62.8954 111 64Z" fill="#E0E7EC"/>
<rect x="116" y="33" width="31" height="50" rx="3" fill="#E0E7EC"/>
<path d="M138.271 58.664V61.496H136.447V65H132.751L132.727 61.496H125.887V58.976L130.495 48.368L133.711 49.568L129.799 58.664H132.775L133.183 54.824H136.447V58.664H138.271Z" fill="#94A2AB"/>
<rect x="151" y="33" width="31" height="50" rx="3" fill="#E0E7EC"/>
<path d="M169.035 56.288C170.123 56.816 170.931 57.44 171.459 58.16C171.987 58.864 172.251 59.68 172.251 60.608C172.251 61.488 171.995 62.296 171.483 63.032C170.987 63.752 170.259 64.328 169.299 64.76C168.339 65.192 167.211 65.408 165.915 65.408C164.651 65.408 163.547 65.2 162.603 64.784C161.675 64.352 160.963 63.784 160.467 63.08C159.971 62.36 159.723 61.56 159.723 60.68C159.723 58.872 160.731 57.528 162.747 56.648C161.163 55.72 160.371 54.44 160.371 52.808C160.371 51.944 160.611 51.184 161.091 50.528C161.571 49.872 162.235 49.36 163.083 48.992C163.947 48.624 164.923 48.44 166.011 48.44C167.659 48.44 169.003 48.816 170.043 49.568C171.099 50.304 171.627 51.32 171.627 52.616C171.627 53.336 171.411 54.016 170.979 54.656C170.563 55.28 169.915 55.824 169.035 56.288ZM166.035 51.008C165.427 51.008 164.939 51.168 164.571 51.488C164.219 51.808 164.043 52.264 164.043 52.856C164.043 53.4 164.195 53.848 164.499 54.2C164.819 54.536 165.323 54.848 166.011 55.136L166.515 55.328C167.059 54.976 167.435 54.608 167.643 54.224C167.851 53.824 167.955 53.352 167.955 52.808C167.955 52.264 167.787 51.832 167.451 51.512C167.131 51.176 166.659 51.008 166.035 51.008ZM166.035 62.696C166.803 62.696 167.395 62.504 167.811 62.12C168.243 61.72 168.459 61.208 168.459 60.584C168.459 59.928 168.275 59.416 167.907 59.048C167.539 58.664 166.891 58.304 165.963 57.968L165.171 57.68C164.083 58.288 163.539 59.224 163.539 60.488C163.539 61.16 163.763 61.696 164.211 62.096C164.659 62.496 165.267 62.696 166.035 62.696Z" fill="#94A2AB"/>
</svg>
