<svg width="221" height="165" viewBox="0 0 221 165" fill="none" xmlns="http://www.w3.org/2000/svg">
<rect x="0.5" width="220" height="165" rx="6" fill="#F3F5F8"/>
<path d="M0.5 6C0.5 2.68629 3.18629 0 6.5 0H214.5C217.814 0 220.5 2.68629 220.5 6V24H0.5V6Z" fill="#E0E7EC"/>
<path fill-rule="evenodd" clip-rule="evenodd" d="M12.5 15C14.1569 15 15.5 13.6569 15.5 12C15.5 10.3431 14.1569 9 12.5 9C10.8431 9 9.5 10.3431 9.5 12C9.5 13.6569 10.8431 15 12.5 15ZM22.5 15C24.1569 15 25.5 13.6569 25.5 12C25.5 10.3431 24.1569 9 22.5 9C20.8431 9 19.5 10.3431 19.5 12C19.5 13.6569 20.8431 15 22.5 15ZM35.5 12C35.5 13.6569 34.1569 15 32.5 15C30.8431 15 29.5 13.6569 29.5 12C29.5 10.3431 30.8431 9 32.5 9C34.1569 9 35.5 10.3431 35.5 12Z" fill="#94A2AB"/>
<path d="M114.833 87.1667H119.5C120.119 87.1667 120.712 87.4125 121.15 87.8501C121.588 88.2877 121.833 88.8812 121.833 89.5C121.833 90.1188 121.588 90.7123 121.15 91.1499C120.712 91.5875 120.119 91.8333 119.5 91.8333H114.833L110.167 100H106.667L109 91.8333H104.333L102 94.1667H98.5L100.833 89.5L98.5 84.8333H102L104.333 87.1667H109L106.667 79H110.167L114.833 87.1667Z" stroke="#94A2AB" stroke-width="2" stroke-linecap="round" stroke-linejoin="round"/>
<rect x="20.5" y="36" width="180" height="14" rx="7" fill="white"/>
<path d="M150.5 36H193.5C197.366 36 200.5 39.134 200.5 43C200.5 46.866 197.366 50 193.5 50H150.5V36Z" fill="#649DFF"/>
<path fill-rule="evenodd" clip-rule="evenodd" d="M67.5 124C66.3954 124 65.5 124.895 65.5 126V130C65.5 131.105 66.3954 132 67.5 132H153.5C154.605 132 155.5 131.105 155.5 130V126C155.5 124.895 154.605 124 153.5 124H67.5ZM87.5 137C86.3954 137 85.5 137.895 85.5 139V143C85.5 144.105 86.3954 145 87.5 145H133.5C134.605 145 135.5 144.105 135.5 143V139C135.5 137.895 134.605 137 133.5 137H87.5Z" fill="#E0E7EC"/>
</svg>
