<svg width="221" height="165" viewBox="0 0 221 165" fill="none" xmlns="http://www.w3.org/2000/svg">
<rect x="0.5" width="220" height="165" rx="6" fill="#F3F5F8"/>
<path d="M0.5 6C0.5 2.68629 3.18629 0 6.5 0H214.5C217.814 0 220.5 2.68629 220.5 6V24H0.5V6Z" fill="#E0E7EC"/>
<path fill-rule="evenodd" clip-rule="evenodd" d="M12.5 15C14.1569 15 15.5 13.6569 15.5 12C15.5 10.3431 14.1569 9 12.5 9C10.8431 9 9.5 10.3431 9.5 12C9.5 13.6569 10.8431 15 12.5 15ZM22.5 15C24.1569 15 25.5 13.6569 25.5 12C25.5 10.3431 24.1569 9 22.5 9C20.8431 9 19.5 10.3431 19.5 12C19.5 13.6569 20.8431 15 22.5 15ZM35.5 12C35.5 13.6569 34.1569 15 32.5 15C30.8431 15 29.5 13.6569 29.5 12C29.5 10.3431 30.8431 9 32.5 9C34.1569 9 35.5 10.3431 35.5 12Z" fill="#94A2AB"/>
<path fill-rule="evenodd" clip-rule="evenodd" d="M99.7179 84.1067C99.7179 84.0478 99.6692 84 99.609 84C99.5488 84 99.5 84.0478 99.5 84.1067V99.8933C99.5 99.9522 99.5488 100 99.609 100C99.6692 100 99.7179 99.9522 99.7179 99.8933V95.84H121.282V99.8933C121.282 99.9522 121.331 100 121.391 100C121.451 100 121.5 99.9522 121.5 99.8933V90.4013C121.5 89.8512 121.331 89.0284 120.825 88.3401C120.315 87.6464 119.465 87.0964 118.124 87.0964H110.5C110.44 87.0964 110.391 87.1442 110.391 87.2031V95.6267H99.7179V84.1067ZM121.282 90.4014V95.6267H110.609V87.3098H118.124C119.394 87.3098 120.178 87.8259 120.648 88.4648C121.122 89.1091 121.282 89.8854 121.282 90.4014Z" stroke="#94A2AB" stroke-width="2" stroke-linecap="round" stroke-linejoin="round"/>
<path fill-rule="evenodd" clip-rule="evenodd" d="M105.051 88.2667C103.852 88.2667 102.872 89.226 102.872 90.4C102.872 91.574 103.852 92.5333 105.051 92.5333C106.251 92.5333 107.231 91.574 107.231 90.4C107.231 89.226 106.251 88.2667 105.051 88.2667ZM103.09 90.4C103.09 89.3438 103.972 88.48 105.051 88.48C106.13 88.48 107.013 89.3438 107.013 90.4C107.013 91.4562 106.13 92.32 105.051 92.32C103.972 92.32 103.09 91.4562 103.09 90.4Z" stroke="#94A2AB" stroke-width="2" stroke-linecap="round" stroke-linejoin="round"/>
<rect x="20.5" y="36" width="180" height="14" rx="7" fill="white"/>
<path d="M150.5 36H193.5C197.366 36 200.5 39.134 200.5 43C200.5 46.866 197.366 50 193.5 50H150.5V36Z" fill="#649DFF"/>
<path fill-rule="evenodd" clip-rule="evenodd" d="M67.5 124C66.3954 124 65.5 124.895 65.5 126V130C65.5 131.105 66.3954 132 67.5 132H153.5C154.605 132 155.5 131.105 155.5 130V126C155.5 124.895 154.605 124 153.5 124H67.5ZM87.5 137C86.3954 137 85.5 137.895 85.5 139V143C85.5 144.105 86.3954 145 87.5 145H133.5C134.605 145 135.5 144.105 135.5 143V139C135.5 137.895 134.605 137 133.5 137H87.5Z" fill="#E0E7EC"/>
</svg>
