<svg width="220" height="165" viewBox="0 0 220 165" fill="none" xmlns="http://www.w3.org/2000/svg">
<rect width="220" height="165" rx="6" fill="#F3F5F8"/>
<path d="M0 6C0 2.68629 2.68629 0 6 0H214C217.314 0 220 2.68629 220 6V24H0V6Z" fill="#E0E7EC"/>
<path fill-rule="evenodd" clip-rule="evenodd" d="M12 15C13.6569 15 15 13.6569 15 12C15 10.3431 13.6569 9 12 9C10.3431 9 9 10.3431 9 12C9 13.6569 10.3431 15 12 15ZM22 15C23.6569 15 25 13.6569 25 12C25 10.3431 23.6569 9 22 9C20.3431 9 19 10.3431 19 12C19 13.6569 20.3431 15 22 15ZM35 12C35 13.6569 33.6569 15 32 15C30.3431 15 29 13.6569 29 12C29 10.3431 30.3431 9 32 9C33.6569 9 35 10.3431 35 12Z" fill="#94A2AB"/>
<rect x="20" y="36" width="180" height="14" rx="7" fill="white"/>
<path d="M150 36H193C196.866 36 200 39.134 200 43C200 46.866 196.866 50 193 50H150V36Z" fill="#649DFF"/>
<rect x="20" y="62" width="130" height="54" rx="4" fill="white"/>
<path fill-rule="evenodd" clip-rule="evenodd" d="M31 85C29.8954 85 29 85.8954 29 87V91C29 92.1046 29.8954 93 31 93H91C92.1046 93 93 92.1046 93 91V87C93 85.8954 92.1046 85 91 85H31ZM31 98C29.8954 98 29 98.8954 29 100V104C29 105.105 29.8954 106 31 106H94C95.1046 106 96 105.105 96 104V100C96 98.8954 95.1046 98 94 98H31Z" fill="#E0E7EC"/>
<rect x="29" y="72" width="73" height="8" rx="2" fill="#E0E7EC"/>
<path fill-rule="evenodd" clip-rule="evenodd" d="M114 80C116.209 80 118 78.2091 118 76C118 73.7909 116.209 72 114 72C111.791 72 110 73.7909 110 76C110 78.2091 111.791 80 114 80Z" fill="#C7D3DC"/>
<rect x="120" y="72" width="12.8" height="8" rx="4" fill="#E0E7EC"/>
<path fill-rule="evenodd" clip-rule="evenodd" d="M138.8 80C141.009 80 142.8 78.2091 142.8 76C142.8 73.7909 141.009 72 138.8 72C136.591 72 134.8 73.7909 134.8 76C134.8 78.2091 136.591 80 138.8 80Z" fill="#C7D3DC"/>
<path fill-rule="evenodd" clip-rule="evenodd" d="M114 93C116.209 93 118 91.2091 118 89C118 86.7909 116.209 85 114 85C111.791 85 110 86.7909 110 89C110 91.2091 111.791 93 114 93Z" fill="#C7D3DC"/>
<rect x="120" y="85" width="12.8" height="8" rx="4" fill="#E0E7EC"/>
<path fill-rule="evenodd" clip-rule="evenodd" d="M138.8 93C141.009 93 142.8 91.2091 142.8 89C142.8 86.7909 141.009 85 138.8 85C136.591 85 134.8 86.7909 134.8 89C134.8 91.2091 136.591 93 138.8 93Z" fill="#C7D3DC"/>
<path fill-rule="evenodd" clip-rule="evenodd" d="M114 106C116.209 106 118 104.209 118 102C118 99.7909 116.209 98 114 98C111.791 98 110 99.7909 110 102C110 104.209 111.791 106 114 106Z" fill="#C7D3DC"/>
<rect x="120" y="98" width="12.8" height="8" rx="4" fill="#E0E7EC"/>
<path fill-rule="evenodd" clip-rule="evenodd" d="M138.8 106C141.009 106 142.8 104.209 142.8 102C142.8 99.7909 141.009 98 138.8 98C136.591 98 134.8 99.7909 134.8 102C134.8 104.209 136.591 106 138.8 106Z" fill="#C7D3DC"/>
</svg>
