<svg width="221" height="165" viewBox="0 0 221 165" fill="none" xmlns="http://www.w3.org/2000/svg">
<rect x="0.5" width="220" height="165" rx="6" fill="#F3F5F8"/>
<path d="M0.5 6C0.5 2.68629 3.18629 0 6.5 0H214.5C217.814 0 220.5 2.68629 220.5 6V24H0.5V6Z" fill="#E0E7EC"/>
<path fill-rule="evenodd" clip-rule="evenodd" d="M12.5 15C14.1569 15 15.5 13.6569 15.5 12C15.5 10.3431 14.1569 9 12.5 9C10.8431 9 9.5 10.3431 9.5 12C9.5 13.6569 10.8431 15 12.5 15ZM22.5 15C24.1569 15 25.5 13.6569 25.5 12C25.5 10.3431 24.1569 9 22.5 9C20.8431 9 19.5 10.3431 19.5 12C19.5 13.6569 20.8431 15 22.5 15ZM35.5 12C35.5 13.6569 34.1569 15 32.5 15C30.8431 15 29.5 13.6569 29.5 12C29.5 10.3431 30.8431 9 32.5 9C34.1569 9 35.5 10.3431 35.5 12Z" fill="#94A2AB"/>
<rect x="167.5" y="96" width="40" height="16" rx="8" fill="#649DFF"/>
<path fill-rule="evenodd" clip-rule="evenodd" d="M55.5 94C54.3954 94 53.5 94.8954 53.5 96V100C53.5 101.105 54.3954 102 55.5 102H141.5C142.605 102 143.5 101.105 143.5 100V96C143.5 94.8954 142.605 94 141.5 94H55.5ZM55.5 107C54.3954 107 53.5 107.895 53.5 109V113C53.5 114.105 54.3954 115 55.5 115H132.5C133.605 115 134.5 114.105 134.5 113V109C134.5 107.895 133.605 107 132.5 107H55.5Z" fill="#E0E7EC"/>
<rect x="167.5" y="136" width="40" height="16" rx="8" fill="#649DFF"/>
<path fill-rule="evenodd" clip-rule="evenodd" d="M55.5 134C54.3954 134 53.5 134.895 53.5 136V140C53.5 141.105 54.3954 142 55.5 142H141.5C142.605 142 143.5 141.105 143.5 140V136C143.5 134.895 142.605 134 141.5 134H55.5ZM55.5 147C54.3954 147 53.5 147.895 53.5 149V153C53.5 154.105 54.3954 155 55.5 155H132.5C133.605 155 134.5 154.105 134.5 153V149C134.5 147.895 133.605 147 132.5 147H55.5Z" fill="#E0E7EC"/>
<rect x="13.5" y="129" width="30" height="30" rx="4" fill="#E0E7EC"/>
<rect x="13.5" y="89" width="30" height="30" rx="4" fill="#E0E7EC"/>
<rect x="13.5" y="33" width="194" height="50" rx="4" fill="#E0E7EC"/>
<path fill-rule="evenodd" clip-rule="evenodd" d="M117.401 53.7046C118.689 53.7046 119.733 52.6514 119.733 51.3523C119.733 50.0532 118.689 49 117.401 49C116.113 49 115.068 50.0532 115.068 51.3523C115.068 52.6514 116.113 53.7046 117.401 53.7046ZM110.945 67.9488H97.5236C96.7389 67.9488 96.2599 67.0862 96.6748 66.4201L105.626 52.0485C106.011 51.4301 106.904 51.414 107.305 52.0222C108.705 54.1449 111.576 58.5067 114.046 62.3079L116.639 58.1203C117.016 57.5123 117.89 57.4845 118.304 58.0673L124.217 66.3841C124.685 67.0425 124.222 67.9555 123.415 67.9635L117.685 68.0198L110.945 67.9488Z" fill="#94A2AB"/>
</svg>
