<svg width="220" height="165" viewBox="0 0 220 165" fill="none" xmlns="http://www.w3.org/2000/svg">
<rect width="220" height="165" rx="6" fill="#F3F5F8"/>
<path d="M0 6C0 2.68629 2.68629 0 6 0H214C217.314 0 220 2.68629 220 6V24H0V6Z" fill="#E0E7EC"/>
<path fill-rule="evenodd" clip-rule="evenodd" d="M12 15C13.6569 15 15 13.6569 15 12C15 10.3431 13.6569 9 12 9C10.3431 9 9 10.3431 9 12C9 13.6569 10.3431 15 12 15ZM22 15C23.6569 15 25 13.6569 25 12C25 10.3431 23.6569 9 22 9C20.3431 9 19 10.3431 19 12C19 13.6569 20.3431 15 22 15ZM35 12C35 13.6569 33.6569 15 32 15C30.3431 15 29 13.6569 29 12C29 10.3431 30.3431 9 32 9C33.6569 9 35 10.3431 35 12Z" fill="#94A2AB"/>
<path fill-rule="evenodd" clip-rule="evenodd" d="M13 55C13 53.8954 13.8954 53 15 53H91C92.1046 53 93 53.8954 93 55V59C93 60.1046 92.1046 61 91 61H15C13.8954 61 13 60.1046 13 59V55ZM13 68C13 66.8954 13.8954 66 15 66H101C102.105 66 103 66.8954 103 68V72C103 73.1046 102.105 74 101 74H15C13.8954 74 13 73.1046 13 72V68ZM15 92C13.8954 92 13 92.8954 13 94V98C13 99.1046 13.8954 100 15 100H111C112.105 100 113 99.1046 113 98V94C113 92.8954 112.105 92 111 92H15ZM13 107C13 105.895 13.8954 105 15 105H81C82.1046 105 83 105.895 83 107V111C83 112.105 82.1046 113 81 113H15C13.8954 113 13 112.105 13 111V107ZM15 118C13.8954 118 13 118.895 13 120V124C13 125.105 13.8954 126 15 126H101C102.105 126 103 125.105 103 124V120C103 118.895 102.105 118 101 118H15ZM13 133C13 131.895 13.8954 131 15 131H111C112.105 131 113 131.895 113 133V137C113 138.105 112.105 139 111 139H15C13.8954 139 13 138.105 13 137V133ZM15 144C13.8954 144 13 144.895 13 146V150C13 151.105 13.8954 152 15 152H81C82.1046 152 83 151.105 83 150V146C83 144.895 82.1046 144 81 144H15Z" fill="#E0E7EC"/>
<rect x="13" y="40" width="100" height="8" rx="2" fill="#94A2AB"/>
<path fill-rule="evenodd" clip-rule="evenodd" d="M139 53C137.895 53 137 53.8954 137 55V59C137 60.1046 137.895 61 139 61H205C206.105 61 207 60.1046 207 59V55C207 53.8954 206.105 53 205 53H139ZM139 66C137.895 66 137 66.8954 137 68V72C137 73.1046 137.895 74 139 74H185C186.105 74 187 73.1046 187 72V68C187 66.8954 186.105 66 185 66H139ZM137 81C137 79.8954 137.895 79 139 79H195C196.105 79 197 79.8954 197 81V85C197 86.1046 196.105 87 195 87H139C137.895 87 137 86.1046 137 85V81ZM139 92C137.895 92 137 92.8954 137 94V98C137 99.1046 137.895 100 139 100H175C176.105 100 177 99.1046 177 98V94C177 92.8954 176.105 92 175 92H139Z" fill="#E0E7EC"/>
</svg>
