<svg width="44" height="16" viewBox="0 0 44 16" fill="none" xmlns="http://www.w3.org/2000/svg">
<path fill-rule="evenodd" clip-rule="evenodd" d="M8.60754 15.9792V9.27686H15.7524L16.5191 10.2822L17.3163 9.27686H43.1974V15.5222C43.1974 15.5222 42.5228 15.9792 41.7255 15.9792H27.405L26.5464 14.9129V15.9792H23.7253V14.1817C23.7253 14.1817 23.3266 14.4255 22.4987 14.4255H21.5481V15.9792H17.255L16.4884 14.9738L15.6911 15.9792H8.60754Z" fill="white"/>
<path fill-rule="evenodd" clip-rule="evenodd" d="M0.266663 4.25008L1.86123 0.533325H4.65172L5.57167 2.63542V0.533325H9.03678L9.58875 2.05658L10.1101 0.533325H25.6264V1.29495C25.6264 1.29495 26.4544 0.533325 27.773 0.533325L32.802 0.56379L33.6913 2.63542V0.56379H36.5737L37.371 1.75193V0.56379H40.2842V7.26613H37.371L36.6044 6.07798V7.26613H32.342L31.9127 6.19985H30.7781L30.3488 7.26613H27.4663C26.301 7.26613 25.5651 6.53496 25.5651 6.53496V7.26613H21.272L20.4134 6.19985V7.26613H4.25308L3.82378 6.19985H2.68918L2.25987 7.26613H0.266663L0.266663 4.25008Z" fill="white"/>
<path fill-rule="evenodd" clip-rule="evenodd" d="M2.44386 1.35596L0.266663 6.35224H1.67724L2.07588 5.34689H4.40641L4.80505 6.35224H6.24629L4.09976 1.35596H2.44386ZM3.24114 2.51363L3.94643 4.28061H2.53586L3.24114 2.51363Z" fill="#0A73B7"/>
<path fill-rule="evenodd" clip-rule="evenodd" d="M6.3996 6.35224V1.35596H8.42347L9.58873 4.58526L10.7233 1.35596H12.7165V6.35224H11.4593V2.66596L10.11 6.35224H9.0061L7.65685 2.66596V6.35224H6.3996Z" fill="#0A73B7"/>
<path fill-rule="evenodd" clip-rule="evenodd" d="M13.5752 6.35224V1.35596H17.6843V2.4527H14.8631V3.33619H17.6229V4.37201H14.8631V5.28596H17.6843V6.35224H13.5752Z" fill="#0A73B7"/>
<path fill-rule="evenodd" clip-rule="evenodd" d="M18.4202 1.35596V6.38271H19.6775V4.61573H20.1988L21.7014 6.38271H23.2346L21.5787 4.52433C22.2533 4.4634 22.9586 3.88457 22.9586 2.97061C22.9586 1.90433 22.1307 1.35596 21.1801 1.35596H18.4202ZM19.6775 2.48317H21.1187C21.456 2.48317 21.7014 2.75735 21.7014 3.00108C21.7014 3.33619 21.364 3.51898 21.1187 3.51898H19.6468L19.6775 2.48317Z" fill="#0A73B7"/>
<path fill-rule="evenodd" clip-rule="evenodd" d="M24.7985 6.35224H23.5106V1.35596H24.7985V6.35224Z" fill="#0A73B7"/>
<path fill-rule="evenodd" clip-rule="evenodd" d="M27.8649 6.35219H27.5889C26.2397 6.35219 25.4117 5.28591 25.4117 3.85405C25.4117 2.39172 26.209 1.32544 27.9263 1.32544H29.3062V2.51358H27.8649C27.1903 2.51358 26.6997 3.06195 26.6997 3.85405C26.6997 4.82893 27.2516 5.22498 28.0489 5.22498H28.3862L27.8649 6.35219Z" fill="#0A73B7"/>
<path fill-rule="evenodd" clip-rule="evenodd" d="M30.5941 1.35596L28.4169 6.38271H29.8275L30.2262 5.37736H32.5567L32.9553 6.38271H34.3966L32.25 1.35596H30.5941ZM31.3914 2.51363L32.0967 4.28061H30.6861L31.3914 2.51363Z" fill="#0A73B7"/>
<path fill-rule="evenodd" clip-rule="evenodd" d="M34.5499 6.35224V1.35596H36.1752L38.2297 4.49387V1.35596H39.487V6.35224H37.9231L35.8378 3.12294V6.35224H34.5499Z" fill="#0A73B7"/>
<path fill-rule="evenodd" clip-rule="evenodd" d="M9.46606 15.1262V10.1299H13.5751V11.2266H10.7233V12.1101H13.5138V13.1459H10.7233V14.0599H13.5751V15.1262H9.46606Z" fill="#0A73B7"/>
<path fill-rule="evenodd" clip-rule="evenodd" d="M29.6435 15.1262V10.1299H33.7526V11.2266H30.9007V12.1101H33.6606V13.1459H30.9007V14.0599H33.7526V15.1262H29.6435Z" fill="#0A73B7"/>
<path fill-rule="evenodd" clip-rule="evenodd" d="M13.7285 15.1262L15.7524 12.6585L13.6978 10.1299H15.2924L16.519 11.6836L17.7456 10.1299H19.2481L17.2243 12.628L19.2481 15.1262H17.6536L16.4576 13.6029L15.2924 15.1262H13.7285Z" fill="#0A73B7"/>
<path fill-rule="evenodd" clip-rule="evenodd" d="M19.4014 10.1299V15.1566H20.6893V13.542H22.0079C23.1425 13.542 23.9705 12.9631 23.9705 11.8055C23.9705 10.861 23.2959 10.1299 22.1613 10.1299H19.4014ZM20.6893 11.2571H22.0999C22.4679 11.2571 22.7132 11.4704 22.7132 11.8359C22.7132 12.171 22.4679 12.4148 22.0999 12.4148H20.72V11.2571H20.6893Z" fill="#0A73B7"/>
<path fill-rule="evenodd" clip-rule="evenodd" d="M24.5225 10.1299V15.1566H25.7797V13.3897H26.3317L27.8343 15.1566H29.3675L27.7116 13.2983C28.3862 13.2373 29.0915 12.6585 29.0915 11.7445C29.0915 10.6783 28.2636 10.1299 27.313 10.1299H24.5225ZM25.8104 11.2266H27.2516C27.5889 11.2266 27.8343 11.5008 27.8343 11.7445C27.8343 12.0797 27.4969 12.2624 27.2516 12.2624H25.7797V11.2266H25.8104Z" fill="#0A73B7"/>
<path fill-rule="evenodd" clip-rule="evenodd" d="M34.3353 15.1261V14.0294H36.8498C37.2178 14.0294 37.3711 13.8161 37.3711 13.6029C37.3711 13.3896 37.2178 13.1763 36.8498 13.1763H35.7152C34.7339 13.1763 34.1819 12.567 34.1819 11.6836C34.1819 10.8915 34.6726 10.0994 36.1752 10.0994H38.6283L38.107 11.2266H35.9912C35.5925 11.2266 35.4699 11.4398 35.4699 11.6531C35.4699 11.8663 35.6232 12.0796 35.9298 12.0796H37.1258C38.2297 12.0796 38.7203 12.6889 38.7203 13.5115C38.7203 14.395 38.199 15.0957 37.0644 15.0957L34.3353 15.1261Z" fill="#0A73B7"/>
<path fill-rule="evenodd" clip-rule="evenodd" d="M38.9656 15.1261V14.0294H41.3881C41.7561 14.0294 41.9094 13.8161 41.9094 13.6029C41.9094 13.3896 41.7561 13.1763 41.3881 13.1763H40.3455C39.3642 13.1763 38.8123 12.567 38.8123 11.6836C38.8123 10.8915 39.3029 10.0994 40.8055 10.0994H43.228L42.7067 11.2266H40.6215C40.2228 11.2266 40.1002 11.4398 40.1002 11.6531C40.1002 11.8663 40.2535 12.0796 40.5601 12.0796H41.6334C42.7373 12.0796 43.228 12.6889 43.228 13.5115C43.228 14.395 42.7067 15.0957 41.5721 15.0957L38.9656 15.1261Z" fill="#0A73B7"/>
</svg>
