<svg width="37" height="15" viewBox="0 0 37 15" fill="none" xmlns="http://www.w3.org/2000/svg">
<path fill-rule="evenodd" clip-rule="evenodd" d="M34.2588 10.3025H33.7003H33.1417L31.1246 14.5538H32.2418L32.6762 13.5918H33.7313H34.7864L35.2518 14.5538H36.4L34.2588 10.3025ZM33.7003 12.8781H32.9865L33.6692 11.2955L33.7003 11.3265L34.3829 12.9091H33.7003V12.8781Z" fill="white"/>
<path fill-rule="evenodd" clip-rule="evenodd" d="M3.41347 12.2885C3.63069 12.1954 3.81688 12.0713 3.94101 11.9162C4.09616 11.73 4.15823 11.5748 4.15823 11.3576C4.15823 11.1714 4.09616 11.0162 4.00307 10.8611C3.87894 10.7059 3.75482 10.6128 3.59966 10.5197C3.41347 10.3956 3.25831 10.3335 3.04109 10.3025C2.82387 10.2715 2.51356 10.2715 2.11014 10.2715H0V14.5538H1.79983H2.07911C2.57562 14.5538 2.88593 14.5538 3.04109 14.5228C3.32038 14.4918 3.56863 14.4297 3.75482 14.3056C3.94101 14.1815 4.06513 14.0573 4.18926 13.8711C4.31338 13.685 4.37545 13.4988 4.37545 13.3126C4.37545 13.0643 4.28235 12.8471 4.1272 12.6299C3.94101 12.5058 3.72379 12.3816 3.41347 12.2885ZM1.0861 11.0162H1.70673H2.11014H2.60665C2.79284 11.0473 2.88593 11.0783 2.97903 11.1714C3.07212 11.2645 3.13419 11.3886 3.13419 11.4817C3.13419 11.6369 3.07212 11.73 2.97903 11.8231C2.8549 11.9162 2.73078 11.9472 2.54459 11.9782C2.45149 11.9782 2.32737 11.9782 2.11014 12.0093C2.01705 12.0093 1.89292 12.0093 1.79983 12.0093H1.0861V11.0162ZM3.13419 13.6539C3.04109 13.747 2.91696 13.8091 2.76181 13.8401C2.66871 13.8401 2.45149 13.8401 2.07911 13.8401C2.04808 13.8401 2.04808 13.8401 2.01705 13.8401H1.0861V12.6919H1.92396H2.11014C2.48252 12.6919 2.76181 12.723 2.8549 12.754C3.01006 12.8161 3.10315 12.8781 3.19625 12.9712C3.25831 13.0643 3.28934 13.1884 3.28934 13.2815C3.28934 13.4367 3.25831 13.5608 3.13419 13.6539Z" fill="white"/>
<path fill-rule="evenodd" clip-rule="evenodd" d="M6.33046 12.6609H8.93711V11.9782H6.33046V11.0162H9.15433V10.3025H5.27539V14.5538H9.24743V13.8401H6.33046V12.6609Z" fill="white"/>
<path fill-rule="evenodd" clip-rule="evenodd" d="M13.5918 13.0643C13.4367 12.9091 13.2815 12.816 13.0333 12.6919C13.4987 12.6299 13.8091 12.5057 14.0573 12.3195C14.2745 12.1023 14.3987 11.823 14.3987 11.5127C14.3987 11.2955 14.3366 11.0472 14.1814 10.83C14.0263 10.6128 13.8401 10.5197 13.5918 10.4266C13.3436 10.3335 12.9091 10.3025 12.3816 10.3025H12.2575H10.1473V14.5538H11.2334V12.785H11.4507C11.6679 12.785 11.8541 12.785 11.9782 12.816C12.1023 12.8781 12.1954 12.9402 12.2885 13.0333C12.4126 13.1264 12.5678 13.3125 12.8471 13.6539L13.5918 14.5848H14.8641L14.2125 13.778C13.9332 13.4056 13.747 13.1574 13.5918 13.0643ZM12.2575 12.1023C12.1644 12.1023 12.0713 12.1023 11.9782 12.1023H11.2334V11.0162H12.0403H12.2575H12.785C12.9712 11.0472 13.0953 11.1093 13.1884 11.2024C13.2815 11.2955 13.3436 11.4196 13.3436 11.5438C13.3436 11.6989 13.3126 11.761 13.2195 11.8541C13.1574 11.9472 13.0333 12.0092 12.9402 12.0403C12.8471 12.0713 12.5988 12.1023 12.2575 12.1023Z" fill="white"/>
<path fill-rule="evenodd" clip-rule="evenodd" d="M18.5878 12.1953C18.3706 12.0712 17.9672 11.9781 17.4397 11.885C16.9432 11.7919 16.6018 11.6988 16.4777 11.6057C16.3536 11.5437 16.2915 11.4506 16.2915 11.3885C16.2915 11.2644 16.3536 11.1713 16.4777 11.1092C16.6639 11.0161 16.8811 10.9541 17.1914 10.9541C17.4707 10.9541 17.719 11.0161 17.8741 11.1092C18.0293 11.2023 18.0913 11.3575 18.1534 11.5747L19.2085 11.5437C19.2085 11.1713 19.0223 10.861 18.6809 10.6127C18.3706 10.3955 17.8741 10.2404 17.1914 10.2404C16.819 10.2404 16.4777 10.3024 16.1674 10.4265C15.8881 10.5196 15.6709 10.6438 15.5157 10.861C15.3295 11.0472 15.2985 11.2334 15.2985 11.4816C15.2985 11.7919 15.4537 12.1022 15.764 12.3195C15.9812 12.5057 16.4156 12.6298 16.9432 12.7539C17.3776 12.847 17.6569 12.9091 17.781 12.9401C17.9982 13.0022 18.0913 13.0642 18.1534 13.1573C18.2465 13.2194 18.2775 13.3125 18.2775 13.3745C18.2775 13.5607 18.1844 13.6849 18.0293 13.809C17.8431 13.9331 17.6259 13.9952 17.2845 13.9952C16.9742 13.9952 16.6949 13.9021 16.5398 13.778C16.3225 13.6228 16.2294 13.4366 16.1674 13.1573L15.1123 13.2194C15.2054 13.7159 15.3916 14.0572 15.764 14.3365C16.1053 14.5848 16.6329 14.7089 17.2845 14.7089C17.75 14.7089 18.1224 14.6468 18.4327 14.5227C18.712 14.4296 18.9602 14.2745 19.1154 14.0572C19.3016 13.84 19.3326 13.6228 19.3326 13.3745C19.3326 13.1263 19.2705 12.878 19.1154 12.6918C19.0223 12.4746 18.8671 12.3195 18.5878 12.1953Z" fill="white"/>
<path fill-rule="evenodd" clip-rule="evenodd" d="M22.3427 10.3025H21.7841L19.7671 14.5538H20.8842L21.3187 13.5919H22.3427H23.3978L23.8633 14.5538H25.0114L22.9323 10.2715H22.3427V10.3025ZM22.3427 12.8781H21.629L22.3117 11.2955L22.3427 11.3266L23.0254 12.9092H22.3427V12.8781Z" fill="white"/>
<path fill-rule="evenodd" clip-rule="evenodd" d="M28.0835 13.1884L27.1215 10.3025H25.5389V14.5538H26.5319V11.2024L27.556 14.5538H28.549L29.6041 11.2024V14.5538H30.566V10.3025H28.9834L28.0835 13.1884Z" fill="white"/>
<path fill-rule="evenodd" clip-rule="evenodd" d="M35.6863 9.12327V0H34.6002L34.6313 9.12327H35.6863Z" fill="white"/>
<path fill-rule="evenodd" clip-rule="evenodd" d="M8.06822 9.46462H9.21639V6.64075H4.37547V6.67178H4.3134L2.48254 9.46462H4.15825L5.12023 7.88201H8.06822V9.46462Z" fill="white"/>
<path fill-rule="evenodd" clip-rule="evenodd" d="M33.9485 9.12324L33.9795 0.341309L28.3318 9.0922L28.1766 9.30942H28.3318H29.6351L32.7383 4.25128V9.12324H33.9485Z" fill="white"/>
<path fill-rule="evenodd" clip-rule="evenodd" d="M5.15121 5.3374L4.7478 5.98906H5.15121H7.23033H9.21635V0.0310059H8.53365L7.23033 2.11012L5.15121 5.3374ZM8.09921 3.13416V5.05812H7.23033L6.64073 5.08915L7.85096 3.13416H8.09921Z" fill="white"/>
<path fill-rule="evenodd" clip-rule="evenodd" d="M5.15128 4.12717L7.23039 0.93092L7.81999 0.0310059H7.23039H6.39254L5.15128 1.95496L0.682739 8.81293V9.46459H1.61369L5.15128 4.12717Z" fill="white"/>
<path fill-rule="evenodd" clip-rule="evenodd" d="M11.2024 0.0310059H9.83704L9.8991 9.46459H11.2024V0.0310059Z" fill="white"/>
<path fill-rule="evenodd" clip-rule="evenodd" d="M14.8331 9.5887L15.2365 8.93704L18.8052 2.91692H21.1946H21.6911L22.591 1.67566L21.1946 1.70669L18.1225 1.73772L15.2365 6.2373L13.0643 9.5887H14.8331Z" fill="white"/>
<path fill-rule="evenodd" clip-rule="evenodd" d="M15.2365 5.02714L17.3466 1.73779H15.2365L12.0402 1.76882L11.6058 2.54461L11.6679 2.88596H15.2365H15.2985L15.2365 2.97905L11.5127 8.81298V9.58877H12.2264L15.2365 5.02714Z" fill="white"/>
<path fill-rule="evenodd" clip-rule="evenodd" d="M15.2364 1.11711L21.1945 1.08608H23.0254L23.8011 0.0310059H21.1945H15.2364H13.0332L12.4436 1.11711H15.2364Z" fill="white"/>
<path fill-rule="evenodd" clip-rule="evenodd" d="M26.1596 7.29239L26.5941 6.64072V0.0310059H26.4389L26.1596 0.496479L21.1946 8.1923L20.3257 9.52666H21.1946H21.8462L25.2907 4.18923V8.65778L26.1596 7.29239Z" fill="white"/>
<path fill-rule="evenodd" clip-rule="evenodd" d="M25.6941 0.0310059H24.4218L21.1946 4.93399L18.5569 8.90603L18.5879 9.52666H19.4568L21.1946 6.95104L25.6941 0.0310059Z" fill="white"/>
<path fill-rule="evenodd" clip-rule="evenodd" d="M28.4869 4.99608L28.3318 5.2133L27.8663 5.89599L26.1596 8.59574L25.6941 9.30946H26.1596H27.3698L27.8663 8.50264L28.3318 7.81995L33.452 0H31.9314L28.4869 5.36846V4.99608Z" fill="white"/>
<path fill-rule="evenodd" clip-rule="evenodd" d="M27.8663 4.65471L28.3318 3.97201L28.487 3.75479V0.0310059H28.3318H27.8663H27.2767L27.3078 5.52359L27.8663 4.65471Z" fill="white"/>
</svg>
