<svg width="718" height="134" viewBox="0 0 718 134" fill="none" xmlns="http://www.w3.org/2000/svg">
<path d="M195.78 0H4.22C1.88936 0 0 1.88936 0 4.22V129.78C0 132.111 1.88936 134 4.22 134H195.78C198.111 134 200 132.111 200 129.78V4.22C200 1.88936 198.111 0 195.78 0Z" fill="#0056A7"/>
<path fill-rule="evenodd" clip-rule="evenodd" d="M104.47 95.3298C68.81 97.3298 5.86004 91.6298 6.22004 64.0598C6.60004 35.1998 68.2 24.7798 96 25.4198V21.0498L104 25.1798L112 29.3098L104 33.4398L96 37.5598V33.1898C69.38 33.2498 13.63 41.7698 13.4 65.9998C13.21 86.0998 68.05 91.9998 104.47 95.3298Z" fill="#F58220" stroke="white" stroke-miterlimit="2.61"/>
<path fill-rule="evenodd" clip-rule="evenodd" d="M96.9999 37.6599C132.66 35.6599 195.61 41.3499 195.25 68.9199C194.87 97.7899 133.25 108.2 105.44 107.57V111.93L97.4399 107.81L89.4399 103.68L97.4399 99.5499L105.44 95.4199V99.7899C132.09 99.7299 187.84 91.2099 188.07 66.9799C188.26 46.8899 133.43 40.9999 96.9999 37.6599Z" fill="#F58220" stroke="white" stroke-miterlimit="2.61"/>
<path fill-rule="evenodd" clip-rule="evenodd" d="M32.4599 53.0702H44.7899C46.5868 52.9914 48.3823 53.2561 50.0799 53.8502C51.2228 54.3291 52.195 55.141 52.8699 56.1802C53.5805 57.33 53.9706 58.6489 53.9999 60.0002C54.1088 61.8358 53.602 63.6552 52.5599 65.1702C51.5859 66.6331 50.1912 67.7663 48.5599 68.4202C46.3373 69.174 43.9951 69.5129 41.6499 69.4202H37.8599L36.1499 78.9602H27.6899L30.9999 61.1002H28.9999L32.4199 53.1002L32.4599 53.0702ZM38.8299 64.2602H41.6599C42.8282 64.3175 43.9738 63.9237 44.8599 63.1602C45.24 62.8351 45.5403 62.4271 45.738 61.9677C45.9356 61.5083 46.0252 61.0097 45.9999 60.5102C45.9999 59.0002 44.9999 58.1902 43.2699 58.1902H39.9999L38.8299 64.2602Z" fill="white"/>
<path fill-rule="evenodd" clip-rule="evenodd" d="M81.46 78.9198H72.18L66.35 68.9998L64.44 78.8798H57L60.44 61.0498H58.26L62.03 53.0498H74.63C77.4 53.0498 79.43 53.7498 80.69 55.1498C81.3348 55.895 81.7861 56.7875 82.0042 57.7485C82.2222 58.7095 82.2001 59.7094 81.94 60.6598C81.6815 62.0751 81.1297 63.4206 80.32 64.6098C79.54 65.7498 76.57 68.0798 74.49 68.2798L81.49 78.8998L81.46 78.9198ZM67.46 63.4998H70.63C71.4606 63.5306 72.2818 63.3149 72.99 62.8798C73.3049 62.6668 73.5705 62.3888 73.7689 62.0645C73.9672 61.7402 74.0938 61.3771 74.14 60.9998C74.46 59.3498 73.68 58.5298 71.78 58.5298H68.37L67.46 63.4998Z" fill="white"/>
<path fill-rule="evenodd" clip-rule="evenodd" d="M99.22 53.0698L94.62 78.9198H86.75L89.94 60.9998H88L91.36 53.0698H99.22Z" fill="white"/>
<path fill-rule="evenodd" clip-rule="evenodd" d="M100.55 78.9198L108.42 59.1998H106.13L110.87 53.0698H119.46L122.45 66.4798L131.67 53.0698H139.95L139.94 78.9198H131.98L131.94 63.9198L121.75 79.0898L118.33 78.9198L114.2 63.9198L108.53 78.9198H100.55Z" fill="white"/>
<path fill-rule="evenodd" clip-rule="evenodd" d="M173.79 78.9198H164.88L164.47 74.6898H154.88L152.59 78.9198H142.79L155.47 59.1998H153L159.43 53.0698H169.13L173.81 78.9198H173.79ZM163.89 69.2098L162.99 59.7898H162.91L157.85 69.2098H163.89Z" fill="white"/>
<path d="M494 0H215C212.791 0 211 1.79086 211 4V130C211 132.209 212.791 134 215 134H494C496.209 134 498 132.209 498 130V4C498 1.79086 496.209 0 494 0Z" fill="#2E3192"/>
<path fill-rule="evenodd" clip-rule="evenodd" d="M468.76 79.16H476V16H468.56L468.76 79.16Z" fill="white"/>
<path fill-rule="evenodd" clip-rule="evenodd" d="M421.89 48.19L418.07 54.22L417.87 16.21H421.89H425.11H426.12V41.95L425.11 43.56L421.89 48.19Z" fill="white"/>
<path fill-rule="evenodd" clip-rule="evenodd" d="M410.02 75.54L406.81 80.37H410.02H418.47L421.89 74.94L425.11 70.11L460.51 16H450.05L426.12 53.22V50.6L425.11 52.01L421.89 56.84L410.02 75.54Z" fill="white"/>
<path fill-rule="evenodd" clip-rule="evenodd" d="M375.63 50.2L357.53 77.55L357.73 81.98H363.76L375.63 64.08L406.81 16.21H397.96L375.63 50.2Z" fill="white"/>
<path fill-rule="evenodd" clip-rule="evenodd" d="M375.63 81.98H369.6L375.63 72.73L410.02 19.42L412.04 16.21H413.04V61.87L410.02 66.49L403.99 75.94V44.97L380.26 81.98H375.63Z" fill="white"/>
<path fill-rule="evenodd" clip-rule="evenodd" d="M334.4 23.65H315.09L319.31 16.21H334.4H375.63H393.73L388.3 23.45H375.63L334.4 23.65Z" fill="white"/>
<path fill-rule="evenodd" clip-rule="evenodd" d="M334.4 50.8001L313.68 82.3801H308.65V76.9501L334.4 36.5201L334.8 35.9201H334.4H309.86L309.25 33.5101L312.27 28.2801L334.4 28.0801H349.08L334.4 50.8001Z" fill="white"/>
<path fill-rule="evenodd" clip-rule="evenodd" d="M334.4 59.2499L319.51 82.3799H331.58L334.4 77.7599L359.14 36.1199H375.63H379.05L385.29 27.6699L375.63 27.8699L354.51 28.0799L334.4 59.2499Z" fill="white"/>
<path fill-rule="evenodd" clip-rule="evenodd" d="M297.59 81.58H306.64V16.21H297.19L297.59 81.58Z" fill="white"/>
<path fill-rule="evenodd" clip-rule="evenodd" d="M264.6 44.57L240.26 81.58H233.63V76.95L264.6 29.48L273.25 16.21H279.08H283.11L279.08 22.44L264.6 44.57Z" fill="white"/>
<path fill-rule="evenodd" clip-rule="evenodd" d="M264.58 53.02L261.77 57.44H292.77V16.21H288.13L279.13 30.69L264.58 53.02ZM279.06 51.02L275.06 51.22L283.51 37.75H285.12V51L279.06 51.02Z" fill="white"/>
<path fill-rule="evenodd" clip-rule="evenodd" d="M425.11 78.9599L464.13 18.4199L463.93 79.1599H455.68V45.3699L434.16 80.3699H425.11H424.11L425.11 78.9599Z" fill="white"/>
<path fill-rule="evenodd" clip-rule="evenodd" d="M462.12 105.11H467.12L462.12 94.2503V94.0503L457.29 105.11H462.12ZM229 87.2103H243.48C245.629 87.1518 247.779 87.2186 249.92 87.4103C251.287 87.573 252.595 88.0561 253.74 88.8203C254.823 89.4473 255.785 90.2635 256.58 91.2303C257.211 92.2614 257.556 93.4418 257.58 94.6503C257.604 96.0551 257.101 97.418 256.17 98.4703C255.285 99.7058 254.027 100.624 252.58 101.09C254.449 101.5 256.175 102.401 257.58 103.7C258.751 104.963 259.392 106.628 259.37 108.35C259.342 109.714 258.922 111.04 258.16 112.17C257.368 113.358 256.348 114.378 255.16 115.17C253.61 115.984 251.907 116.464 250.16 116.58C247.954 116.794 245.735 116.861 243.52 116.78H229V87.2103ZM243.48 92.2103H236.48V99.0503H243.48C244.473 98.9017 245.476 98.8315 246.48 98.8403C247.545 98.7492 248.573 98.4065 249.48 97.8403C249.8 97.5244 250.054 97.1474 250.225 96.7317C250.397 96.316 250.484 95.8701 250.48 95.4203C250.444 94.5822 250.086 93.7903 249.48 93.2103C248.735 92.6076 247.817 92.2574 246.86 92.2103H243.48ZM243.48 103.87H236.48V111.72H248.11C249.088 111.609 250.003 111.185 250.72 110.51C251.081 110.185 251.36 109.779 251.534 109.326C251.708 108.872 251.772 108.383 251.72 107.9C251.736 107.118 251.528 106.348 251.12 105.68C250.41 105.086 249.591 104.634 248.71 104.35C246.985 104.037 245.232 103.903 243.48 103.95V103.87ZM265.58 116.78V87.2103H292.36V92.2103H272.85V98.8403H290.95V103.67H272.85V111.72H292.96V116.72L265.58 116.78ZM313.88 92.2403H306.64V99.6803H313.88C315.434 99.7397 316.989 99.6053 318.51 99.2803C319.297 99.1228 320.005 98.6947 320.51 98.0703C320.798 97.7839 321.02 97.4372 321.158 97.0551C321.296 96.673 321.348 96.2649 321.31 95.8603C321.314 95.4105 321.227 94.9646 321.055 94.5489C320.884 94.1332 320.63 93.7562 320.31 93.4403C319.51 92.7693 318.528 92.3515 317.49 92.2403H313.88ZM313.88 106.11C313.222 105.53 312.476 105.058 311.67 104.71C310.473 104.519 309.26 104.452 308.05 104.51H306.64V116.78H299.2V87.2103H314.69C318.51 87.2103 321.32 87.4103 323.13 88.0103C324.718 88.5247 326.112 89.5078 327.13 90.8303C328.214 92.1215 328.787 93.7652 328.74 95.4503C328.75 96.5068 328.54 97.5538 328.123 98.5247C327.706 99.4957 327.092 100.369 326.32 101.09C324.71 102.49 322.5 103.3 319.32 103.7C320.728 104.367 322.015 105.262 323.13 106.35C324.716 107.793 326.135 109.41 327.36 111.17L331.78 116.81H322.93L317.7 110.35C316.56 108.826 315.281 107.41 313.88 106.12V106.11ZM333.79 107.11L341.03 106.71C341.328 108.401 342.267 109.913 343.65 110.93C345.218 111.902 347.036 112.396 348.88 112.35C350.705 112.482 352.528 112.06 354.11 111.14C354.647 110.841 355.096 110.407 355.413 109.881C355.731 109.355 355.906 108.755 355.92 108.14C355.937 107.825 355.872 107.51 355.73 107.227C355.588 106.945 355.374 106.705 355.11 106.53C354.431 105.77 353.508 105.272 352.5 105.12C351.7 104.92 349.68 104.52 346.67 103.91C342.84 103.11 340.03 102.1 338.42 100.91C337.444 100.278 336.639 99.4133 336.077 98.3945C335.515 97.3756 335.214 96.2337 335.2 95.0703C335.159 94.2935 335.282 93.5169 335.559 92.7901C335.836 92.0634 336.262 91.4027 336.81 90.8503C337.899 89.3715 339.463 88.3123 341.24 87.8503C343.478 87.0151 345.852 86.6047 348.24 86.6403C352.86 86.6403 356.24 87.6403 358.49 89.2603C359.6 89.9278 360.517 90.8725 361.152 92.0015C361.786 93.1305 362.117 94.4052 362.11 95.7003L354.87 95.9003C354.629 94.6147 353.916 93.4658 352.87 92.6803C351.442 91.9538 349.851 91.6093 348.25 91.6803C346.528 91.6208 344.816 91.9632 343.25 92.6803C342.897 92.8858 342.601 93.1766 342.39 93.526C342.179 93.8754 342.058 94.2723 342.04 94.6803C342.068 95.0358 342.197 95.3759 342.411 95.661C342.625 95.9461 342.916 96.1643 343.25 96.2903C344.05 97.0903 346.47 97.7003 349.88 98.2903C352.565 98.7591 355.195 99.4996 357.73 100.5C359.284 101.166 360.656 102.195 361.73 103.5C362.681 104.901 363.173 106.564 363.138 108.257C363.102 109.951 362.54 111.591 361.53 112.95C360.264 114.467 358.587 115.585 356.7 116.17C354.125 117.039 351.417 117.449 348.7 117.38C344.27 117.38 340.7 116.58 338.24 114.76C337.03 113.846 336.014 112.7 335.254 111.388C334.493 110.076 334.002 108.625 333.81 107.12L333.79 107.11ZM383.68 94.2503L383.48 94.0503L378.65 105.11H388.5L383.68 94.2503ZM383.68 110.14H376.43L373.43 116.78H365.78L379.86 87.2103H387.51L401.99 116.78H394.15L390.93 110.14H383.68ZM405.8 116.78V87.2103H416.66L423.3 107.35L429.74 87.2403H440.58V116.81H433.94V93.4403L426.7 116.78H419.7L412.7 93.4403V116.78H405.8ZM462.12 94.0503V87.2103H466.12L480.61 116.78H472.58L469.36 110.14H455.08L452.08 116.78H444.24L458.32 87.2103H462.14L462.12 94.0503Z" fill="white"/>
<path fill-rule="evenodd" clip-rule="evenodd" d="M259.35 62.0401L292.8 61.8701V81.5101H284.85V70.5901H264.47L257.76 81.5801H246.1L258.77 62.0701L259.35 62.0801V62.0401Z" fill="white"/>
<path d="M714 0H513C510.791 0 509 1.79086 509 4V130C509 132.209 510.791 134 513 134H714C716.209 134 718 132.209 718 130V4C718 1.79086 716.209 0 714 0Z" fill="white"/>
<path d="M611.113 4.00195H616.94C616.954 4.02701 616.963 4.05461 616.966 4.08309C616.968 4.11157 616.965 4.14034 616.957 4.16766C616.948 4.19499 616.935 4.2203 616.916 4.24207C616.897 4.26384 616.875 4.28162 616.849 4.29434C614.977 4.57174 613.075 4.57174 611.204 4.29434C611.178 4.28143 611.156 4.26354 611.137 4.24174C611.119 4.21995 611.105 4.19468 611.097 4.16742C611.088 4.14017 611.085 4.11149 611.088 4.08307C611.091 4.05465 611.099 4.02707 611.113 4.00195Z" fill="#FFE861"/>
<path d="M611.113 4.00195C611.117 4.05892 611.113 4.1163 611.1 4.1719C610.606 4.56114 610.082 4.48256 609.548 4.28337C609.525 4.26999 609.504 4.25198 609.488 4.23041C609.471 4.20884 609.46 4.18417 609.453 4.15787C609.446 4.13158 609.445 4.10421 609.449 4.07742C609.453 4.05062 609.463 4.02495 609.477 4.00195H611.113Z" fill="#FFF4B6"/>
<path d="M616.949 4.1719C616.936 4.1164 616.931 4.05902 616.935 4.00195L618.574 4.00195C618.588 4.02492 618.597 4.05055 618.602 4.07728C618.606 4.10402 618.604 4.1313 618.597 4.15745C618.59 4.18361 618.578 4.20811 618.562 4.22944C618.545 4.25077 618.525 4.2685 618.501 4.28155C617.966 4.48256 617.441 4.56297 616.949 4.1719Z" fill="#FFF4B6"/>
<path d="M609.477 4.00183C609.477 4.053 609.468 4.10234 609.465 4.1535C609.044 4.51899 608.621 4.51899 608.201 4.1535C608.201 4.10234 608.201 4.05117 608.201 4L609.477 4.00183Z" fill="#FFFDEA"/>
<path d="M618.583 4.15363L618.572 4.00195H619.847C619.847 4.05312 619.847 4.10429 619.847 4.15546C619.426 4.52094 619.004 4.52277 618.583 4.15363Z" fill="#FFFDEA"/>
<path d="M618.583 4.15332H619.849C631.967 4.71982 643.835 6.69343 655.361 10.5493C666.184 14.1767 676.286 19.1948 685.239 26.3655C693.704 33.1434 700.486 41.2352 704.347 51.5309C705.928 55.6962 706.824 60.0918 707 64.5457V68.7652C706.599 77.5478 703.594 85.4258 698.699 92.6276C693.31 100.555 686.299 106.785 678.289 111.92C667.568 118.794 655.862 123.25 643.489 126.044C638.423 127.184 633.294 128.019 628.129 128.545C624.611 128.911 621.076 129.063 617.538 129.209C614.259 129.344 611.001 129.233 607.74 129.106C603.395 128.924 599.061 128.522 594.757 127.9C587.467 126.89 580.28 125.233 573.282 122.95C562.872 119.54 553.129 114.811 544.367 108.164C537.139 102.693 531.016 96.213 526.624 88.1961C523.721 82.8875 521.843 77.2462 521.235 71.2012C520.053 59.4545 523.378 48.9853 530.159 39.5065C535.658 31.8313 542.688 25.8009 550.647 20.8175C560.413 14.7139 570.996 10.584 582.153 7.83008C587.427 6.54127 592.774 5.57824 598.166 4.94642C601.495 4.54987 604.848 4.31962 608.201 4.15515H609.464L611.103 4.17342H616.953L618.583 4.15332Z" fill="#FEDA00"/>
<path d="M541.397 95.8218C535.85 89.7694 531.874 82.8472 530.179 74.7609C527.556 62.2486 530.909 51.1488 538.385 41.0981C539.324 39.8353 540.281 38.5799 541.426 37.4907C541.992 37.1856 542.61 37.2806 543.211 37.2806C571.511 37.2806 599.812 37.2806 628.113 37.2806C647.053 37.2806 665.993 37.2806 684.933 37.2806C685.505 37.2806 686.091 37.1984 686.627 37.4907C691.207 42.4138 694.694 48.0167 696.756 54.4291C700.812 67.0382 698.614 78.7629 691.475 89.6982C690.074 91.898 688.456 93.9502 686.645 95.8236C686.115 96.1398 685.527 96.0539 684.957 96.0557C672.013 96.0557 659.07 96.0557 646.128 96.0557C611.845 96.0557 577.563 96.0557 543.282 96.0557C542.639 96.0539 541.989 96.1562 541.397 95.8218Z" fill="#201A17"/>
<path d="M541.397 95.8222C541.761 95.8112 542.125 95.793 542.49 95.793H685.541C685.906 95.793 686.27 95.8131 686.634 95.824C685.328 97.5071 683.771 98.9471 682.194 100.358C670.927 110.443 657.587 116.388 643.094 120.015C637.192 121.474 631.185 122.461 625.128 122.967C620.242 123.417 615.334 123.572 610.43 123.433C594.637 122.897 579.417 119.807 565.061 113.004C556.502 108.947 548.742 103.729 542.207 96.7926C541.918 96.4856 541.566 96.2297 541.397 95.8222Z" fill="#ED1E25"/>
<path d="M686.621 37.4838C686.257 37.5039 685.893 37.5404 685.538 37.5404H542.51C542.145 37.5404 541.781 37.5039 541.417 37.4838C544.367 34.0281 547.791 31.1006 551.444 28.4253C560.732 21.6017 571.113 17.0734 582.171 14.0417C588.467 12.3303 594.896 11.1529 601.389 10.5221C606.445 9.99768 611.529 9.78834 616.611 9.89529C632.657 10.2973 648.126 13.3674 662.733 20.233C671.373 24.2971 679.193 29.5528 685.791 36.5207C686.088 36.8277 686.348 37.1621 686.621 37.4838Z" fill="#007EC4"/>
<path d="M668.839 49.2087C673.21 49.2087 676.967 49.7185 680.429 51.535C685.121 53.9983 687.714 57.9492 688.415 63.1665C688.889 66.6678 688.761 70.1545 687.616 73.5133C685.986 78.2956 682.589 81.4351 677.863 82.9153C671.932 84.7738 665.88 84.7318 660.045 82.5681C654.21 80.4044 651.061 75.9419 650.222 69.8164C649.796 66.7098 649.901 63.6251 650.832 60.6227C652.628 54.8261 656.727 51.4966 662.44 49.9817C664.528 49.4311 666.681 49.171 668.839 49.2087Z" fill="white"/>
<path d="M579.966 83.5381C576.057 83.5381 572.242 83.5271 568.425 83.5527C567.957 83.5527 567.807 83.3535 567.685 82.9789C567.21 81.5169 566.691 80.066 566.247 78.5931C566.105 78.1234 565.901 77.9754 565.429 77.9772C561.49 77.9919 557.552 77.9919 553.613 77.9772C553.118 77.9772 552.94 78.1728 552.805 78.6095C552.359 80.055 551.865 81.4859 551.406 82.9259C551.277 83.3261 551.138 83.5618 550.621 83.5582C546.926 83.5271 543.229 83.5417 539.485 83.5417C539.51 82.9588 539.814 82.5001 540.013 82.0195C544.367 71.5009 548.727 60.9835 553.094 50.4674C553.291 49.9904 553.506 49.7729 554.067 49.7784C557.823 49.8077 561.58 49.8077 565.336 49.7784C565.837 49.7784 566.065 49.9191 566.263 50.3924C570.776 61.3033 575.3 72.2105 579.834 83.1141C579.88 83.2219 579.904 83.3371 579.966 83.5381Z" fill="white"/>
<path d="M630.574 49.7899C636.092 49.7899 641.608 49.8136 647.124 49.7661C647.96 49.7661 648.102 50.0073 648.084 50.7694C648.033 52.9878 648.044 55.2082 648.084 57.4266C648.093 58.0443 647.902 58.1759 647.315 58.1704C644.037 58.1448 640.759 58.1887 637.496 58.1375C636.633 58.1247 636.343 58.2691 636.348 59.2339C636.398 67.0151 636.361 74.798 636.398 82.5792C636.398 83.4052 636.177 83.566 635.401 83.555C632.189 83.5075 628.976 83.5075 625.762 83.555C624.999 83.566 624.755 83.4271 624.759 82.5865C624.797 74.7432 624.759 66.9018 624.802 59.0585C624.802 58.2709 624.578 58.1302 623.85 58.1448C620.515 58.1868 617.181 58.1448 613.848 58.1759C613.278 58.1759 613.063 58.0644 613.074 57.4449C613.112 55.1351 613.116 52.8234 613.074 50.5135C613.063 49.8739 613.294 49.7826 613.846 49.7917C619.419 49.7972 624.997 49.7899 630.574 49.7899Z" fill="white"/>
<path d="M583.62 66.5854C583.62 61.2658 583.631 55.9462 583.604 50.6266C583.604 49.9688 583.724 49.7604 584.431 49.7714C587.709 49.8153 590.978 49.8098 594.252 49.7714C594.935 49.7714 595.154 49.9048 595.152 50.6449C595.121 58.426 595.132 66.209 595.132 73.9901C595.132 75.167 595.132 75.167 596.35 75.167C601.632 75.167 606.898 75.1816 612.172 75.1505C612.901 75.1505 613.158 75.2657 613.136 76.0642C613.074 78.312 613.09 80.5633 613.136 82.8129C613.147 83.4305 612.954 83.5438 612.378 83.5438C603.043 83.5256 593.707 83.5256 584.371 83.5438C583.686 83.5438 583.609 83.3063 583.613 82.716C583.628 77.3471 583.62 71.9672 583.62 66.5854Z" fill="white"/>
<path d="M661.604 67.7622C661.496 66.0069 661.643 64.2452 662.039 62.5322C663.054 58.4497 666.45 56.8526 669.896 57.1669C674.354 57.5726 676.578 59.9975 676.998 64.5295C677.212 66.6747 677.076 68.8405 676.596 70.9419C675.867 74.1143 673.627 75.9929 670.38 76.2305C668.344 76.3785 666.39 76.1299 664.667 74.9202C662.633 73.493 661.99 71.3476 661.693 69.0341C661.637 68.6138 661.631 68.1862 661.604 67.7622Z" fill="#201A17"/>
<path d="M563.615 70.6094C561.02 70.6094 558.543 70.6003 556.066 70.6094C555.474 70.6094 555.625 70.3426 555.744 69.9899C556.991 66.2766 558.23 62.5597 559.543 58.6289C560.932 62.7077 562.253 66.5891 563.615 70.6094Z" fill="#201A17"/>
</svg>
