<svg width="37" height="12" viewBox="0 0 37 12" fill="none" xmlns="http://www.w3.org/2000/svg">
<path d="M11.8739 2.65456C11.7699 2.21215 11.6399 1.76973 11.5099 1.35334L11.4839 1.27527L11.4059 1.24925C9.63793 0.468514 7.92193 0.052124 6.23193 0.052124V0.468514C7.81793 0.468514 9.45593 0.85888 11.1459 1.58756C11.2759 1.97793 11.3799 2.39432 11.4839 2.78469C11.5879 3.20108 11.6659 3.64349 11.7179 4.05988C12.0299 6.21991 11.8479 8.37993 11.1459 10.54C9.55993 11.2426 7.94793 11.5809 6.36193 11.5809C6.30993 11.5809 6.28393 11.5809 6.23193 11.5809V11.9973H6.36193C8.02593 11.9973 9.71593 11.633 11.4059 10.8783L11.4839 10.8522L11.5099 10.7742C11.9779 9.31681 12.2379 7.88547 12.2639 6.4281V5.75147C12.2639 5.17893 12.2119 4.60639 12.1079 4.03386C12.0819 3.51337 11.9779 3.09698 11.8739 2.65456Z" fill="white"/>
<path d="M1.57795 10.4878C0.875951 8.92637 0.589951 7.41695 0.615951 5.93356C0.641951 4.45017 0.979951 2.96678 1.57795 1.53544C3.05995 0.780732 4.61995 0.41639 6.20595 0.41639H6.23195V0H6.20595C4.51595 0 2.90395 0.390366 1.31795 1.19712L1.21395 1.30122C0.589951 2.83666 0.225951 4.3721 0.199951 5.93356V6.01163V6.11573C0.199951 7.62515 0.537951 9.16059 1.21395 10.7221L1.31795 10.8261C2.95595 11.5548 4.59395 11.9192 6.23195 11.9452V11.5288C4.67195 11.5028 3.11195 11.1645 1.57795 10.4878Z" fill="white"/>
<path d="M4.43788 3.1489C4.46388 4.26795 5.65988 4.84049 5.97188 5.88146C6.30988 6.97449 6.25788 8.17161 6.33588 9.31668C6.43988 8.19764 6.33588 7.02654 6.69988 5.95954C7.03788 4.91856 8.36388 4.18988 8.28588 3.07083C8.20788 2.13395 7.47988 1.27515 6.30988 1.27515C5.06188 1.27515 4.41188 2.26407 4.43788 3.1489Z" fill="white"/>
<path d="M7.03791 6.21981C6.75191 7.05259 6.75191 8.0155 6.80391 9.00442C7.24591 8.79623 7.53191 8.48394 8.02591 8.35381C8.85791 8.11959 9.53391 8.53598 10.2619 8.0155C10.6259 7.75525 10.5739 6.9485 10.4699 6.50608C9.87191 7.05259 8.98791 7.57308 7.66191 7.72923C7.97391 7.49501 8.15591 7.13067 8.64991 7.07862C9.68991 7.00055 10.3139 6.24584 10.4439 5.59523C10.5999 4.78847 9.61191 4.00774 8.96191 4.18991C7.97391 4.47618 7.32391 5.28293 7.03791 6.21981Z" fill="white"/>
<path d="M4.67189 8.37981C5.13989 8.50994 5.42589 8.82223 5.86789 9.03042C5.91989 8.0415 5.91989 7.07859 5.63389 6.24581C5.32189 5.28291 4.69789 4.47615 3.73589 4.21591C3.05989 4.03374 2.09789 4.81447 2.25389 5.62123C2.38389 6.27184 3.03389 7.02655 4.04789 7.10462C4.51589 7.15667 4.72389 7.52101 5.03589 7.75523C3.68389 7.62511 2.82589 7.10462 2.22789 6.53208C2.14989 7.00052 2.07189 7.78125 2.43589 8.0415C3.16389 8.53596 3.83989 8.11957 4.67189 8.37981Z" fill="white"/>
<path d="M4.69797 10.0194C4.64597 9.99338 4.59397 9.96736 4.48997 9.96736H4.41197L4.09997 9.88928L3.94397 10.8001L4.12597 10.8262L4.20397 10.4358H4.25597C4.30797 10.4358 4.33397 10.4618 4.33397 10.4618C4.35997 10.4618 4.35997 10.4878 4.38597 10.5139C4.38597 10.5399 4.41197 10.5659 4.43797 10.5919C4.43797 10.618 4.46397 10.644 4.46397 10.644L4.56797 10.8782L4.77597 10.9303L4.67197 10.7481C4.64597 10.67 4.61997 10.618 4.59397 10.5919C4.56797 10.5659 4.54197 10.5399 4.51597 10.5139C4.59397 10.5139 4.67197 10.4878 4.69797 10.4618C4.74997 10.4358 4.77597 10.3837 4.77597 10.3057C4.77597 10.2536 4.77597 10.2016 4.77597 10.1495C4.74997 10.0715 4.72397 10.0454 4.69797 10.0194ZM4.59397 10.2536C4.59397 10.2796 4.56797 10.3057 4.56797 10.3317C4.54197 10.3577 4.54197 10.3577 4.51597 10.3577C4.48997 10.3577 4.46397 10.3577 4.41197 10.3577C4.38597 10.3577 4.38597 10.3577 4.35997 10.3577L4.22997 10.3317L4.25597 10.0975L4.41197 10.1235C4.48997 10.1235 4.51597 10.1495 4.54197 10.1495C4.56797 10.1495 4.59397 10.1756 4.61997 10.2016C4.64597 10.2276 4.61997 10.2276 4.59397 10.2536Z" fill="white"/>
<path d="M6.30992 10.1494C6.28392 10.1494 6.23192 10.1234 6.12792 10.1234C6.12792 10.1234 6.10192 10.1234 6.07592 10.1234H5.78992L5.76392 11.0343H5.94592V10.696H6.07592H6.12792H6.28392C6.30992 10.696 6.36192 10.6699 6.38792 10.6439C6.41392 10.6179 6.43992 10.5919 6.46592 10.5658C6.49192 10.5138 6.49192 10.4878 6.49192 10.4097C6.49192 10.3316 6.49192 10.2796 6.43992 10.2275C6.38792 10.1755 6.36192 10.1755 6.30992 10.1494ZM6.28392 10.4878C6.25792 10.5138 6.25792 10.5138 6.23192 10.5398C6.20592 10.5398 6.17992 10.5398 6.15392 10.5398C6.12792 10.5398 6.10192 10.5398 6.07592 10.5398H5.97192V10.2796H6.04992H6.12792H6.20592C6.23192 10.2796 6.25792 10.3056 6.28392 10.3316C6.30992 10.3576 6.30992 10.3837 6.30992 10.4097C6.30992 10.4617 6.28392 10.4617 6.28392 10.4878Z" fill="white"/>
<path d="M5.42601 10.6179C5.42601 10.696 5.426 10.7481 5.4 10.7741C5.4 10.8001 5.374 10.8261 5.348 10.8522C5.322 10.8782 5.27 10.8782 5.218 10.8782C5.166 10.8782 5.14 10.8522 5.088 10.8261C5.062 10.8001 5.036 10.7741 5.036 10.722C5.036 10.696 5.036 10.644 5.036 10.5659L5.088 10.0714L4.906 10.0454L4.88 10.5399V10.7741C4.88 10.8001 4.90601 10.8522 4.93201 10.8782C4.95801 10.9042 4.984 10.9302 5.036 10.9563C5.088 10.9823 5.14 11.0083 5.218 11.0083H5.4C5.452 11.0083 5.478 10.9823 5.53 10.9302C5.556 10.9042 5.58201 10.8522 5.58201 10.8261C5.60801 10.7741 5.608 10.696 5.608 10.5919L5.66 10.1235L5.478 10.0975L5.42601 10.6179Z" fill="white"/>
<path d="M3.39803 9.91531C3.45003 9.88929 3.52803 9.86326 3.60603 9.88929C3.65803 9.88929 3.68403 9.94134 3.73603 9.96736C3.76203 9.99339 3.78803 10.0454 3.78803 10.0975H3.97003C3.97003 10.0194 3.94403 9.94134 3.89203 9.86326C3.84003 9.78519 3.76203 9.75917 3.65803 9.73314C3.58003 9.70712 3.50203 9.70712 3.42403 9.73314C3.34603 9.75917 3.26803 9.78519 3.21603 9.83724C3.16403 9.91531 3.11203 9.99339 3.08603 10.0715C3.06003 10.1495 3.06003 10.2276 3.08603 10.3317C3.11203 10.4098 3.13803 10.4878 3.19003 10.5399C3.24203 10.5919 3.32003 10.644 3.42403 10.67C3.50203 10.696 3.58003 10.696 3.65803 10.696C3.73603 10.696 3.81403 10.67 3.84003 10.644L3.94403 10.2797L3.55403 10.1756L3.52803 10.3317L3.73603 10.3838L3.65803 10.4878C3.63203 10.4878 3.58003 10.5139 3.55403 10.5139C3.50203 10.5139 3.47603 10.5139 3.42403 10.5139C3.34603 10.4878 3.29403 10.4618 3.26803 10.3838C3.24203 10.3057 3.24203 10.2276 3.26803 10.1235C3.29403 10.0194 3.32003 9.94134 3.39803 9.91531Z" fill="white"/>
<path d="M9.03991 9.78516L8.85791 9.83721L8.72791 10.8261L8.90991 10.7741L8.93591 10.5399L9.06591 10.5138L9.27391 10.4618L9.40391 10.644L9.58591 10.5919L9.03991 9.83721V9.78516ZM9.06591 10.3317L8.93591 10.3577L8.96191 9.99335L9.03991 10.1235L9.16991 10.3056L9.06591 10.3317Z" fill="white"/>
<path d="M7.53196 10.5139C7.58396 10.4879 7.60996 10.4619 7.60996 10.4359C7.63596 10.4098 7.63596 10.3578 7.63596 10.3057C7.63596 10.2537 7.60996 10.2277 7.60996 10.2016C7.58396 10.1756 7.55796 10.1496 7.53196 10.1236C7.50596 10.0975 7.45396 10.0975 7.42796 10.0975C7.40196 10.0975 7.34996 10.0975 7.27196 10.0975C7.27196 10.0975 7.27196 10.0975 7.24596 10.0975L6.88196 10.1236L6.95996 11.0344L7.27196 11.0084C7.37596 11.0084 7.45396 10.9824 7.50596 10.9824C7.55796 10.9824 7.58396 10.9563 7.63596 10.9303C7.66196 10.9043 7.68796 10.8783 7.71396 10.8262C7.71396 10.7742 7.73996 10.7481 7.73996 10.6961C7.73996 10.644 7.71396 10.592 7.68796 10.566C7.63596 10.5399 7.60996 10.5399 7.53196 10.5139ZM7.11596 10.2797H7.21996H7.29796H7.37596C7.40196 10.2797 7.42796 10.2797 7.45396 10.3057C7.47996 10.3057 7.47996 10.3318 7.47996 10.3838C7.47996 10.4098 7.47996 10.4359 7.45396 10.4619C7.42796 10.4879 7.40196 10.4879 7.37596 10.5139C7.37596 10.5139 7.32396 10.5139 7.29796 10.5139C7.29796 10.5139 7.27196 10.5139 7.24596 10.5139H7.11596V10.2797ZM7.53196 10.8002C7.53196 10.8262 7.50596 10.8262 7.47996 10.8522C7.45396 10.8522 7.42796 10.8522 7.34996 10.8783H7.29796H7.16796L7.14196 10.644H7.29796H7.45396C7.47996 10.644 7.50596 10.6701 7.50596 10.6701C7.53196 10.6961 7.53196 10.7221 7.53196 10.7481C7.55796 10.7742 7.53196 10.7742 7.53196 10.8002Z" fill="white"/>
<path d="M8.36392 10.67C8.33792 10.7221 8.31192 10.7481 8.25992 10.7481C8.18192 10.7481 8.12992 10.7481 8.07792 10.696C8.02592 10.644 7.99992 10.5659 7.97392 10.4618C7.94792 10.3577 7.97392 10.2797 7.99992 10.2276C8.02592 10.1756 8.07792 10.1495 8.15592 10.1235C8.20792 10.1235 8.23392 10.1235 8.28592 10.1495C8.31192 10.1756 8.36392 10.2016 8.36392 10.2536L8.54592 10.1756C8.51992 10.0975 8.46792 10.0454 8.41592 10.0194C8.33792 9.96736 8.23392 9.94134 8.12992 9.96736C7.99992 9.99339 7.89592 10.0454 7.84392 10.1495C7.76592 10.2536 7.76592 10.3838 7.79192 10.5139C7.81792 10.67 7.86992 10.7481 7.97392 10.8262C8.05192 10.9042 8.18192 10.9042 8.28592 10.9042C8.38992 10.8782 8.46792 10.8522 8.51992 10.8001C8.57192 10.7481 8.59792 10.644 8.62392 10.5659L8.44192 10.5399C8.41592 10.5919 8.38992 10.644 8.36392 10.67Z" fill="white"/>
<path d="M24.458 6.29789C24.614 4.94463 27.24 3.79955 29.034 5.07475L29.164 4.78848L30.074 2.65448L29.164 2.16001L28.228 1.63953L28.072 2.13399C26.98 2.21206 24.094 1.22314 22.3 5.64728C22.144 6.03765 22.04 6.48006 21.988 6.89646C21.962 7.20875 21.962 7.52104 21.988 7.83333C22.196 9.49889 23.6 10.9302 27.214 10.5399L28.15 8.0155C25.394 8.84828 24.328 7.72924 24.458 6.29789Z" fill="white"/>
<path d="M36.6 10.4878L35.846 1.95178H32.934H31.894L30.75 4.08578H31.166L29.138 8.43186L28.228 10.3837H29.138H30.958L31.53 8.82222H32.934H33.688V10.4878H36.6ZM32.934 7.13064H32.18L32.934 5.64725L33.688 4.16386V7.13064H32.934Z" fill="white"/>
<path d="M21.9619 3.95578C22.0139 3.72156 22.0139 3.46131 21.9619 3.25312C21.8319 2.52444 21.2599 1.92587 20.1939 1.89985L18.7119 1.87383L16.1639 1.82178L14.9679 4.13795L15.4879 4.0859L14.0579 10.3838H18.1659C18.3479 10.3838 18.5299 10.3578 18.6859 10.3318C20.6619 9.96741 22.5599 7.62522 20.6619 5.77749C21.3899 5.38712 21.8579 4.68446 21.9619 3.95578ZM18.7119 8.27583C18.6079 8.3539 18.5039 8.37993 18.3739 8.37993H16.8919L17.3859 6.48014H18.5039C18.5819 6.48014 18.6599 6.48014 18.7119 6.50617C19.5959 6.66232 19.2839 7.88546 18.7119 8.27583ZM19.0759 5.20495H18.7119H17.6719L18.0879 3.51336H18.7119H19.3099C19.9859 3.51336 19.9079 5.20495 19.0759 5.20495Z" fill="white"/>
</svg>
