<svg width="42" height="13" viewBox="0 0 42 13" fill="none" xmlns="http://www.w3.org/2000/svg">
<path fill-rule="evenodd" clip-rule="evenodd" d="M14.606 0.429436C15.0765 0.752965 15.5765 1.25297 15.5765 1.75297V10.2824C15.5765 10.753 15.1354 11.4294 14.7236 11.6941H19.0765C21.8707 11.5765 23.5765 10.5765 23.7824 8.42944C23.9295 6.92944 23.1354 5.78238 21.1942 5.13532C22.1648 4.78238 22.6648 3.95885 22.7236 2.87061C22.8118 0.958847 20.606 0.429436 19.1942 0.429436H14.606ZM17.3118 4.98826V1.42944H18.6354C20.1354 1.42944 20.8707 2.16473 20.8707 3.28238C20.8707 4.40002 19.8413 4.98826 18.5765 4.98826H17.3118ZM18.7236 10.6059H17.3118V5.98826H18.9295C21.3118 5.98826 22.0471 7.42944 21.9295 8.60591C21.7824 9.78238 20.7824 10.6059 18.7236 10.6059ZM27.606 0.429436H25.253C25.7824 1.01767 26.0177 1.31179 26.0177 2.22355V9.98826C26.0177 10.8706 25.6354 11.4294 25.0471 11.8118H28.1942C27.7236 11.5177 27.2236 10.9588 27.2236 9.95885V3.10591C28.8118 5.22355 30.4001 7.3412 31.9883 9.45885C32.9001 10.6353 33.9295 11.6353 35.1354 12.4V2.16473C35.1354 1.13532 35.5471 0.752966 36.106 0.400024H33.0471C33.606 0.811789 33.9001 1.28238 33.9001 2.10591V8.95885L27.606 0.429436ZM37.8118 11.8118C38.4589 11.4 38.7824 10.9 38.7824 10.253V2.13532C38.7824 1.16473 38.5177 0.958848 37.9589 0.429436H41.5765C40.9589 0.782377 40.5177 1.48826 40.5177 2.13532V10.253C40.5177 10.8706 40.9001 11.4588 41.4001 11.8412L37.8118 11.8118Z" fill="white"/>
<path fill-rule="evenodd" clip-rule="evenodd" d="M0.400024 0.429443H3.90002C3.72355 0.752973 3.5765 1.45885 3.92944 3.01768C4.25297 4.42944 5.16473 5.90003 6.10591 7.04709L4.92944 8.01768L0.400024 2.37062L0.400024 0.429443ZM5.51767 0.429443H11.6647V1.92944C11.1941 1.66474 10.3118 1.37062 9.04708 1.90003C6.98826 2.72356 6.81179 5.13533 6.81179 5.13533C5.66473 3.72356 4.92944 1.48827 5.51767 0.429443ZM11.6647 3.90003V8.34121C10.253 8.87062 8.31179 7.48827 7.81179 5.84121C7.10591 3.45886 8.78238 2.60591 9.98826 2.84121C10.8706 3.01768 11.4 3.54709 11.6647 3.90003ZM11.6647 9.04709V11.6647H7.90002L8.66473 11.0471C8.16473 11.1059 7.19414 10.8706 6.72355 10.2824L5.40002 8.60591L6.60591 7.60591C7.3412 8.42944 8.0765 9.01768 8.45885 9.19415C9.31179 9.60591 10.2824 9.78238 11.6647 9.04709ZM5.78238 11.6941H1.66473L4.22355 9.5765C4.42944 9.84121 4.63532 10.1059 4.8412 10.3412C5.22355 10.8118 5.51767 11.2824 5.78238 11.6941ZM0.458848 11.6941H0.400024V4.75297C1.37061 5.98827 2.63532 7.54709 3.75297 8.95886L0.458848 11.6941Z" fill="white"/>
</svg>
