<svg width="39" height="16" viewBox="0 0 39 16" fill="none" xmlns="http://www.w3.org/2000/svg">
<path fill-rule="evenodd" clip-rule="evenodd" d="M0 2.20072C0 0.975001 0.975001 0 2.20072 0H13.1207C14.3464 0 15.3214 0.975001 15.3214 2.20072V13.1207C15.3214 14.3464 14.3464 15.3214 13.1207 15.3214H2.20072C0.975001 15.3214 0 14.3464 0 13.1207L0 2.20072ZM2.67429 13.8172C2.03357 13.8172 1.50429 13.2879 1.50429 12.6472V2.70214C1.50429 2.06143 2.03357 1.53214 2.67429 1.53214H4.01143C5.76643 1.53214 7.07572 3.315 5.96143 4.42929L2.67429 7.71643L5.48786 10.6414C6.85286 12.0622 5.265 13.845 3.76072 13.845C3.73286 13.8172 2.67429 13.8172 2.67429 13.8172ZM6.90858 1.53214H8.05072C9.80572 1.53214 11.115 3.315 10.0007 4.42929L6.71358 7.71643L12.7307 13.845H6.40715C7.77215 13.845 8.63572 11.5607 7.15929 10.0286L4.93072 7.71643L7.52143 5.04215C8.91429 3.59357 7.88358 1.755 6.90858 1.53214ZM13.8172 12.6472L8.94215 7.71643L11.5329 5.04215C12.9257 3.59357 11.9229 1.755 10.9479 1.53214H12.6472C13.2879 1.53214 13.8172 2.06143 13.8172 2.70214V12.6472Z" fill="white"/>
<path fill-rule="evenodd" clip-rule="evenodd" d="M21.868 8.4129V10.53H22.8151C23.2887 10.53 23.6787 10.4465 23.9294 10.2515C24.1801 10.0565 24.3194 9.80576 24.3194 9.44362C24.3194 9.10933 24.208 8.83076 23.9851 8.66362C23.7622 8.49647 23.4001 8.4129 22.9544 8.4129H21.868ZM21.868 4.81933V6.82504H22.5922C23.0937 6.82504 23.4837 6.74147 23.7344 6.57433C23.9851 6.40719 24.1244 6.15647 24.1244 5.79433C24.1244 5.4879 24.013 5.23719 23.7622 5.07004C23.5394 4.9029 23.1772 4.81933 22.7315 4.81933H21.868ZM19.528 3.20361H23.2051C24.2915 3.20361 25.0994 3.39861 25.6565 3.78861C26.2137 4.17861 26.4644 4.76361 26.4644 5.54362C26.4644 6.0729 26.3251 6.49076 26.0465 6.82504C25.768 7.15933 25.3501 7.41004 24.793 7.57719C25.4058 7.68862 25.8794 7.93933 26.2137 8.30147C26.548 8.66362 26.7151 9.13719 26.7151 9.72219C26.7151 10.5579 26.4087 11.1986 25.8237 11.5886C25.2108 12.0065 24.2915 12.2015 23.038 12.2015H19.528V3.20361Z" fill="white"/>
<path fill-rule="evenodd" clip-rule="evenodd" d="M30.4478 4.76361V7.07576H31.2835C31.8128 7.07576 32.2028 6.99219 32.4535 6.79719C32.7042 6.60219 32.8435 6.32362 32.8435 5.96147C32.8435 5.54362 32.7042 5.26504 32.4256 5.07004C32.1471 4.87504 31.6735 4.79147 31.0606 4.79147L30.4478 4.76361ZM28.1078 3.20361H31.6735C32.8714 3.20361 33.7349 3.39861 34.3199 3.78861C34.9049 4.17861 35.1835 4.76361 35.1835 5.54362C35.1835 6.12862 35.0442 6.60219 34.7378 6.99219C34.4314 7.35433 33.9856 7.60505 33.4285 7.74433C33.9021 7.91147 34.2921 8.4129 34.5706 9.22076L35.6292 12.2015H33.1499L32.3699 9.75005C32.2306 9.36005 32.0635 9.08147 31.8406 8.94219C31.6178 8.8029 31.2835 8.71933 30.8099 8.71933H30.4756V12.2293H28.1356L28.1078 3.20361Z" fill="white"/>
<path fill-rule="evenodd" clip-rule="evenodd" d="M36.6043 3.20361H39V12.1736H36.6043V3.20361Z" fill="white"/>
</svg>
