<svg width="77" height="12" viewBox="0 0 77 12" fill="none" xmlns="http://www.w3.org/2000/svg">
<path d="M0.599976 0H12.6V12H0.599976V0Z" fill="white"/>
<path d="M8.6 2.27026H2.22162L5.03243 5.99999H11.4108L8.6 2.27026Z" fill="#E1251B"/>
<path d="M11.4108 6H5.03243L2.22162 9.78378H8.6L11.4108 6Z" fill="#7A303F"/>
<path d="M21.681 8.05411C21.1946 8.43248 20.654 8.59465 20.0594 8.59465C18.6 8.59465 17.5189 7.45951 17.5189 6.00005C17.5189 4.54059 18.654 3.40546 20.0594 3.40546C20.654 3.40546 21.1946 3.62167 21.681 3.946L22.7621 2.86492C22.0054 2.21627 21.0324 1.83789 20.0594 1.83789C17.7351 1.83789 15.8432 3.72978 15.8432 6.00005C15.8432 8.27032 17.7351 10.1622 20.0594 10.1622C21.0324 10.1622 22.0054 9.78384 22.7621 9.13519L21.681 8.05411ZM24.3297 9.946H25.8973V2.10816H24.3297V9.946ZM32.1675 7.13519C32.1135 7.02708 29.4108 2.10816 29.4108 2.10816H27.8432V10.0001H29.4108C29.4108 10.0001 29.4108 5.51356 29.4108 5.29735C29.5189 5.51356 32.1675 10.0541 32.1675 10.0541C32.1675 10.0541 34.7621 5.51356 34.8702 5.29735V10.0001H36.4378V2.05411H34.8702C34.9243 2.05411 32.2216 7.02708 32.1675 7.13519ZM43.0324 5.946C43.3567 5.72978 43.9513 5.18924 43.9513 4.32438C43.9513 2.97302 43.0324 2.10816 41.5189 2.10816H38.3297V10.0001H41.627C43.1405 10.0001 44.0594 9.13519 44.0594 7.72978C44.0594 6.6487 43.4648 6.10816 43.0324 5.946ZM39.9513 3.51357H41.4108C42.0054 3.51357 42.3837 3.83789 42.3837 4.37843C42.3837 4.91897 42.0054 5.2433 41.4108 5.2433C41.4108 5.2433 40.0054 5.2433 39.9513 5.2433V3.51357ZM41.5189 8.54059C41.5189 8.54059 40.0054 8.54059 39.9513 8.54059V6.70276H41.5189C42.2216 6.70276 42.4919 7.18924 42.4919 7.62167C42.4919 8.0541 42.2216 8.54059 41.5189 8.54059Z" fill="white"/>
<path d="M50.2216 9.94609H47.1406V2.0542H50.1135C51.4649 2.0542 52.4379 2.81096 52.4379 4.16231C52.4379 4.97312 51.9514 5.62177 51.3027 5.89204C52.0595 6.16231 52.6 6.81096 52.6 7.78393C52.6 9.18934 51.6271 9.94609 50.2216 9.94609ZM50.0595 2.81096H48.0054V5.51366H50.0595C50.9243 5.51366 51.6271 5.08123 51.6271 4.16231C51.6271 3.24339 50.9243 2.81096 50.0595 2.81096ZM50.1676 6.32447H48.0054V9.18933H50.1676C51.1406 9.18933 51.7352 8.64879 51.7352 7.72987C51.7352 6.86501 51.1406 6.32447 50.1676 6.32447Z" fill="white"/>
<path d="M54.2217 9.94599H53.3027L56.7081 2.10815H57.4649L60.8703 9.94599H59.9514L59.0865 7.89194H55.0865L54.2217 9.94599ZM55.3568 7.13518H58.7622L57.0865 3.02707L55.3568 7.13518Z" fill="white"/>
<path d="M67.573 8.7568V2.16221H68.3838V10H67.4108L62.7622 3.24329V9.94599H61.9514V2.10815H62.9243L67.573 8.7568Z" fill="white"/>
<path d="M71.1405 5.51356H71.2486L74.9243 2.10815H76.0594L72.1135 5.67572L76.2757 9.94599H75.0865L71.2486 5.89194H71.1405V9.94599H70.3297V2.10815H71.1405V5.51356Z" fill="white"/>
</svg>
