<svg width="167" height="22" viewBox="0 0 167 22" fill="none" xmlns="http://www.w3.org/2000/svg">
<g clip-path="url(#clip0_206_297)">
<path d="M26.6288 20.9861V21.0389H26.6778C26.687 21.0391 26.696 21.0367 26.7041 21.0322C26.7072 21.0299 26.7098 21.0269 26.7115 21.0234C26.7133 21.0198 26.7141 21.0159 26.7139 21.012C26.7141 21.0081 26.7133 21.0043 26.7115 21.0009C26.7098 20.9974 26.7072 20.9945 26.7041 20.9923C26.6961 20.9876 26.687 20.9852 26.6778 20.9856L26.6288 20.9861ZM26.6783 20.9488C26.6993 20.9475 26.7201 20.9536 26.7372 20.9659C26.744 20.9716 26.7494 20.9787 26.753 20.9868C26.7566 20.995 26.7582 21.0038 26.7578 21.0127C26.7581 21.0203 26.7568 21.0279 26.7539 21.035C26.7511 21.0421 26.7468 21.0484 26.7412 21.0537C26.7281 21.0652 26.7116 21.0721 26.6942 21.0734L26.7599 21.1486H26.7093L26.6489 21.0739H26.6293V21.1486H26.587V20.9489L26.6783 20.9488ZM26.6652 21.2174C26.6874 21.2177 26.7093 21.2132 26.7297 21.2042C26.7493 21.1958 26.7671 21.1836 26.7822 21.1685C26.7974 21.1534 26.8095 21.1354 26.8178 21.1157C26.8351 21.0739 26.8351 21.0269 26.8178 20.9851C26.8093 20.9654 26.7973 20.9475 26.7822 20.9323C26.7671 20.9172 26.7493 20.905 26.7297 20.8965C26.7092 20.8881 26.6873 20.8839 26.6652 20.8841C26.6427 20.8839 26.6203 20.8881 26.5995 20.8965C26.5794 20.9049 26.5612 20.917 26.5457 20.9323C26.5225 20.9562 26.5068 20.9865 26.5005 21.0194C26.4943 21.0522 26.4978 21.0862 26.5106 21.117C26.5186 21.1368 26.5306 21.1548 26.5457 21.1698C26.5612 21.1851 26.5794 21.1972 26.5995 21.2056C26.6202 21.2145 26.6426 21.219 26.6652 21.2188M26.6652 20.8361C26.7229 20.8361 26.7784 20.8588 26.8196 20.8994C26.8394 20.919 26.8552 20.9422 26.8661 20.9679C26.8773 20.9943 26.8831 21.0227 26.8831 21.0514C26.8831 21.0801 26.8773 21.1085 26.8661 21.1348C26.855 21.1604 26.8392 21.1836 26.8196 21.2033C26.7994 21.2227 26.7759 21.2384 26.7503 21.2495C26.7234 21.261 26.6944 21.2668 26.6652 21.2667C26.6356 21.2669 26.6062 21.261 26.579 21.2495C26.553 21.2386 26.5294 21.223 26.5092 21.2033C26.4896 21.1829 26.474 21.1589 26.4633 21.1326C26.4521 21.1062 26.4463 21.0778 26.4463 21.0491C26.4463 21.0205 26.4521 20.9921 26.4633 20.9657C26.4742 20.94 26.49 20.9167 26.5098 20.8972C26.5297 20.8772 26.5535 20.8615 26.5796 20.851C26.6069 20.8395 26.6362 20.8337 26.6658 20.8339M6.54532 20.0651C6.54532 19.6845 6.79366 19.3718 7.19956 19.3718C7.58745 19.3718 7.84919 19.671 7.84919 20.0651C7.84919 20.4593 7.58745 20.7585 7.19956 20.7585C6.79366 20.7585 6.54532 20.4458 6.54532 20.0651ZM8.29135 20.0651V18.9818H7.82239V19.2457C7.67364 19.0507 7.44803 18.9284 7.14121 18.9284C6.53678 18.9284 6.06243 19.4045 6.06243 20.0657C6.06243 20.7269 6.53651 21.2029 7.14121 21.2029C7.4479 21.2029 7.67364 21.0805 7.82239 20.8856V21.1486H8.29083L8.29135 20.0651ZM24.137 20.0651C24.137 19.6845 24.3854 19.3718 24.7914 19.3718C25.1797 19.3718 25.441 19.671 25.441 20.0651C25.441 20.4593 25.1797 20.7585 24.7914 20.7585C24.3855 20.7585 24.137 20.4458 24.137 20.0651ZM25.8836 20.0651V18.1123H25.4142V19.2457C25.2655 19.0507 25.0399 18.9284 24.7331 18.9284C24.1286 18.9284 23.6543 19.4045 23.6543 20.0657C23.6543 20.7269 24.1284 21.2029 24.7331 21.2029C25.0399 21.2029 25.2655 21.0805 25.4142 20.8856V21.1486H25.8836V20.0651ZM14.1118 19.3495C14.414 19.3495 14.6081 19.5397 14.6576 19.8747H13.5386C13.5887 19.562 13.7777 19.3495 14.1118 19.3495ZM14.1213 18.9272C13.4892 18.9272 13.0471 19.389 13.0471 20.0645C13.0471 20.7531 13.507 21.2017 14.1527 21.2017C14.4775 21.2017 14.775 21.1203 15.0367 20.8983L14.8069 20.5493C14.6261 20.6944 14.3959 20.7758 14.1795 20.7758C13.8772 20.7758 13.6021 20.6353 13.5344 20.2454H15.1358C15.1404 20.1868 15.1451 20.1277 15.1451 20.0643C15.1404 19.3892 14.7249 18.9272 14.1213 18.9272ZM19.783 20.0643C19.783 19.6837 20.0313 19.371 20.4372 19.371C20.8251 19.371 21.0869 19.6702 21.0869 20.0643C21.0869 20.4585 20.8251 20.7577 20.4372 20.7577C20.0313 20.7577 19.783 20.445 19.783 20.0643ZM21.5289 20.0643V18.9818H21.0602V19.2457C20.9109 19.0507 20.6858 18.9284 20.379 18.9284C19.7746 18.9284 19.3002 19.4045 19.3002 20.0657C19.3002 20.7269 19.7743 21.2029 20.379 21.2029C20.6858 21.2029 20.9109 21.0805 21.0602 20.8856V21.1486H21.529L21.5289 20.0643ZM17.1346 20.0643C17.1346 20.7213 17.5901 21.2016 18.2852 21.2016C18.61 21.2016 18.8264 21.129 19.0604 20.9434L18.8352 20.5627C18.6591 20.6898 18.4743 20.7577 18.2702 20.7577C17.8958 20.7531 17.6206 20.4813 17.6206 20.0643C17.6206 19.6474 17.8958 19.3757 18.2702 19.371C18.4737 19.371 18.6586 19.4389 18.8352 19.566L19.0604 19.1853C18.826 18.9997 18.6096 18.9271 18.2852 18.9271C17.5901 18.9271 17.1346 19.4072 17.1346 20.0643ZM23.1803 18.9271C22.9098 18.9271 22.7336 19.0542 22.6118 19.2444V18.9818H22.147V21.1474H22.6165V19.9335C22.6165 19.5751 22.7698 19.376 23.0764 19.376C23.1768 19.3745 23.2764 19.393 23.3697 19.4305L23.5142 18.9866C23.4104 18.9456 23.2753 18.9271 23.1803 18.9271ZM10.6099 19.154C10.3843 19.0047 10.0734 18.9275 9.73044 18.9275C9.18408 18.9275 8.83232 19.1905 8.83232 19.6207C8.83232 19.9738 9.0942 20.1917 9.57644 20.2596L9.79798 20.2913C10.0551 20.3276 10.1765 20.3955 10.1765 20.5179C10.1765 20.6853 10.0057 20.7808 9.68497 20.7808C9.36015 20.7808 9.12574 20.6766 8.96767 20.5543L8.74731 20.9215C9.00446 21.1118 9.32928 21.2025 9.68103 21.2025C10.3038 21.2025 10.6648 20.908 10.6648 20.4957C10.6648 20.115 10.3807 19.9159 9.91137 19.848L9.69036 19.8158C9.48735 19.7894 9.32468 19.7483 9.32468 19.6032C9.32468 19.4448 9.47802 19.3496 9.7353 19.3496C10.0106 19.3496 10.277 19.4538 10.4076 19.5352L10.6107 19.1546L10.6099 19.154ZM16.6609 18.9279C16.3904 18.9279 16.2142 19.0549 16.0929 19.2452V18.9818H15.6281V21.1474H16.0971V19.9335C16.0971 19.5751 16.2505 19.376 16.557 19.376C16.6574 19.3745 16.7571 19.393 16.8503 19.4305L16.9948 18.9866C16.891 18.9456 16.7559 18.9279 16.6609 18.9279ZM12.659 18.9818H11.8922V18.3249H11.4181V18.9818H10.9807V19.4123H11.4181V20.4002C11.4181 20.9026 11.6123 21.2019 12.1671 21.2019C12.3706 21.2019 12.605 21.1385 12.7538 21.0344L12.6183 20.6312C12.4784 20.7126 12.325 20.7536 12.2031 20.7536C11.9687 20.7536 11.8922 20.6085 11.8922 20.3912V19.4127H12.659V18.9818ZM5.64773 21.1479V19.7888C5.64773 19.277 5.32291 18.9326 4.79928 18.928C4.524 18.9234 4.24005 19.0094 4.04124 19.3133C3.8925 19.0732 3.65808 18.928 3.32853 18.928C3.09819 18.928 2.8731 18.996 2.6969 19.2496V18.9818H2.22754V21.1474H2.70057V19.9466C2.70057 19.5707 2.90819 19.371 3.2288 19.371C3.54022 19.371 3.69776 19.5748 3.69776 19.9419V21.1471H4.17185V19.9464C4.17185 19.5705 4.38827 19.3707 4.69955 19.3707C5.01977 19.3707 5.17259 19.5746 5.17259 19.9416V21.1468L5.64773 21.1479Z" fill="#0B2254"/>
<path d="M26.8959 13.944V13.6274H26.8138L26.7188 13.8447L26.6243 13.6274H26.5419V13.944H26.6003V13.7055L26.6891 13.9113H26.7495L26.8384 13.7049V13.944H26.8959ZM26.3749 13.944V13.6816H26.48V13.6282H26.2114V13.6816H26.3166V13.944H26.3749Z" fill="#F79410"/>
<path d="M17.5619 15.3024H10.4551V2.47705H17.5621L17.5619 15.3024Z" fill="#FF5F00"/>
<path d="M10.9056 8.89005C10.9056 6.28843 12.1187 3.97089 14.0077 2.47736C12.5778 1.34518 10.8093 0.730705 8.98836 0.733407C4.50278 0.733407 0.866699 4.3852 0.866699 8.89005C0.866699 13.3949 4.50278 17.0467 8.98836 17.0467C10.8094 17.0494 12.5779 16.4349 14.0079 15.3027C12.119 13.8095 10.9056 11.4918 10.9056 8.89005Z" fill="#EB001B"/>
<path d="M27.1499 8.89005C27.1499 13.3949 23.5138 17.0467 19.0282 17.0467C17.2071 17.0494 15.4383 16.4349 14.0081 15.3027C15.8976 13.8092 17.1107 11.4918 17.1107 8.89005C17.1107 6.2883 15.8976 3.97089 14.0081 2.47737C15.4382 1.34522 17.207 0.730753 19.0281 0.733407C23.5137 0.733407 27.1499 4.38521 27.1499 8.89005Z" fill="#F79E1B"/>
</g>
<g clip-path="url(#clip1_206_297)">
<path fill-rule="evenodd" clip-rule="evenodd" d="M72.8275 5.59131H70.5471C69.8464 5.59131 69.3116 5.78878 68.9981 6.49225L64.6279 16.4519H67.7135C67.7135 16.4519 68.2237 15.1067 68.3405 14.8167H72.1145C72.2067 15.1931 72.471 16.4519 72.471 16.4519H75.2L72.8275 5.59131ZM49.1509 5.59131L46.2558 12.9901L45.9546 11.4906C45.426 9.75043 43.7357 7.88068 41.8733 6.93655L44.5163 16.4334H47.6326L52.2733 5.59131H49.1509ZM51.6156 16.4334L53.4658 5.5728H56.4223L54.5721 16.4334H51.6156ZM65.2672 5.84432L64.8615 8.19539L64.5911 8.07815C64.0563 7.856 63.3556 7.64619 62.3844 7.65853C61.235 7.65853 60.7003 8.13986 60.7003 8.60266C60.7003 9.11484 61.3272 9.44189 62.3537 9.93556C64.0563 10.7131 64.8431 11.6572 64.8308 12.8852C64.8 15.1437 62.8024 16.6 59.6984 16.6C58.3707 16.5877 57.1045 16.3285 56.4161 16.0138L56.8218 13.5887L57.209 13.7676C58.1802 14.1749 58.8071 14.3353 59.9811 14.3353C60.8294 14.3353 61.739 14.0083 61.739 13.274C61.7513 12.7926 61.3641 12.4656 60.2147 11.9287C59.096 11.4042 57.6208 10.5341 57.6331 8.97908C57.6454 6.86867 59.6922 5.40002 62.618 5.40002C63.7551 5.39385 64.6833 5.63451 65.2672 5.84432ZM69.1887 12.5828C69.4284 11.9657 70.3688 9.55914 70.3688 9.55914C70.3381 9.58999 70.6086 8.92972 70.7561 8.52862L70.9528 9.45424C70.9528 9.45424 71.5182 12.046 71.6412 12.5828H69.1887Z" fill="#005BAC"/>
<path fill-rule="evenodd" clip-rule="evenodd" d="M43.5882 5.57275H38.8308L38.8 5.81341C42.4818 6.71435 44.9466 8.88647 45.9608 11.4905L44.9159 6.50455C44.7376 5.81341 44.2275 5.60361 43.5882 5.57275Z" fill="#F6AC1A"/>
</g>
<g clip-path="url(#clip2_206_297)">
<path fill-rule="evenodd" clip-rule="evenodd" d="M94.6074 18.9792V12.2769H101.752L102.519 13.2822L103.316 12.2769H129.197V18.5222C129.197 18.5222 128.523 18.9792 127.725 18.9792H113.405L112.546 17.9129V18.9792H109.725V17.1817C109.725 17.1817 109.326 17.4255 108.499 17.4255H107.548V18.9792H103.255L102.488 17.9738L101.691 18.9792H94.6074Z" fill="white"/>
<path fill-rule="evenodd" clip-rule="evenodd" d="M86.2666 7.24996L87.8612 3.5332H90.6517L91.5716 5.6353V3.5332H95.0367L95.5887 5.05646L96.11 3.5332H111.626V4.29483C111.626 4.29483 112.454 3.5332 113.773 3.5332L118.802 3.56367L119.691 5.6353V3.56367H122.574L123.371 4.75181V3.56367H126.284V10.266H123.371L122.604 9.07786V10.266H118.342L117.913 9.19973H116.778L116.349 10.266H113.466C112.301 10.266 111.565 9.53484 111.565 9.53484V10.266H107.272L106.413 9.19973V10.266H90.253L89.8237 9.19973H88.6891L88.2598 10.266H86.2666V7.24996Z" fill="white"/>
<path fill-rule="evenodd" clip-rule="evenodd" d="M88.4438 4.35596L86.2666 9.35224H87.6772L88.0758 8.34689H90.4063L90.805 9.35224H92.2462L90.0997 4.35596H88.4438ZM89.2411 5.51363L89.9464 7.28061H88.5358L89.2411 5.51363Z" fill="#0A73B7"/>
<path fill-rule="evenodd" clip-rule="evenodd" d="M92.3997 9.35224V4.35596H94.4235L95.5888 7.58526L96.7234 4.35596H98.7166V9.35224H97.4594V5.66596L96.1101 9.35224H95.0062L93.6569 5.66596V9.35224H92.3997Z" fill="#0A73B7"/>
<path fill-rule="evenodd" clip-rule="evenodd" d="M99.5752 9.35224V4.35596H103.684V5.4527H100.863V6.33619H103.623V7.37201H100.863V8.28596H103.684V9.35224H99.5752Z" fill="#0A73B7"/>
<path fill-rule="evenodd" clip-rule="evenodd" d="M104.42 4.35596V9.38271H105.677V7.61573H106.199L107.701 9.38271H109.235L107.579 7.52433C108.253 7.4634 108.959 6.88457 108.959 5.97061C108.959 4.90433 108.131 4.35596 107.18 4.35596H104.42ZM105.677 5.48317H107.119C107.456 5.48317 107.701 5.75735 107.701 6.00108C107.701 6.33619 107.364 6.51898 107.119 6.51898H105.647L105.677 5.48317Z" fill="#0A73B7"/>
<path fill-rule="evenodd" clip-rule="evenodd" d="M110.798 9.35224H109.51V4.35596H110.798V9.35224Z" fill="#0A73B7"/>
<path fill-rule="evenodd" clip-rule="evenodd" d="M113.865 9.35243H113.589C112.24 9.35243 111.412 8.28615 111.412 6.85429C111.412 5.39196 112.209 4.32568 113.926 4.32568H115.306V5.51382H113.865C113.19 5.51382 112.7 6.06219 112.7 6.85429C112.7 7.82917 113.252 8.22522 114.049 8.22522H114.386L113.865 9.35243Z" fill="#0A73B7"/>
<path fill-rule="evenodd" clip-rule="evenodd" d="M116.594 4.35596L114.417 9.38271H115.828L116.226 8.37736H118.557L118.955 9.38271H120.397L118.25 4.35596H116.594ZM117.391 5.51363L118.097 7.28061H116.686L117.391 5.51363Z" fill="#0A73B7"/>
<path fill-rule="evenodd" clip-rule="evenodd" d="M120.55 9.35224V4.35596H122.175L124.23 7.49387V4.35596H125.487V9.35224H123.923L121.838 6.12294V9.35224H120.55Z" fill="#0A73B7"/>
<path fill-rule="evenodd" clip-rule="evenodd" d="M95.4661 18.1262V13.1299H99.5751V14.2266H96.7233V15.1101H99.5138V16.1459H96.7233V17.0599H99.5751V18.1262H95.4661Z" fill="#0A73B7"/>
<path fill-rule="evenodd" clip-rule="evenodd" d="M115.644 18.1262V13.1299H119.753V14.2266H116.901V15.1101H119.661V16.1459H116.901V17.0599H119.753V18.1262H115.644Z" fill="#0A73B7"/>
<path fill-rule="evenodd" clip-rule="evenodd" d="M99.7285 18.1262L101.752 15.6585L99.6978 13.1299H101.292L102.519 14.6836L103.746 13.1299H105.248L103.224 15.628L105.248 18.1262H103.654L102.458 16.6029L101.292 18.1262H99.7285Z" fill="#0A73B7"/>
<path fill-rule="evenodd" clip-rule="evenodd" d="M105.401 13.1299V18.1566H106.689V16.542H108.008C109.142 16.542 109.97 15.9631 109.97 14.8055C109.97 13.861 109.296 13.1299 108.161 13.1299H105.401ZM106.689 14.2571H108.1C108.468 14.2571 108.713 14.4704 108.713 14.8359C108.713 15.171 108.468 15.4148 108.1 15.4148H106.72V14.2571H106.689Z" fill="#0A73B7"/>
<path fill-rule="evenodd" clip-rule="evenodd" d="M110.522 13.1299V18.1566H111.78V16.3897H112.332L113.834 18.1566H115.367L113.712 16.2983C114.386 16.2373 115.091 15.6585 115.091 14.7445C115.091 13.6783 114.264 13.1299 113.313 13.1299H110.522ZM111.81 14.2266H113.252C113.589 14.2266 113.834 14.5008 113.834 14.7445C113.834 15.0797 113.497 15.2624 113.252 15.2624H111.78V14.2266H111.81Z" fill="#0A73B7"/>
<path fill-rule="evenodd" clip-rule="evenodd" d="M120.335 18.1263V17.0296H122.85C123.218 17.0296 123.371 16.8163 123.371 16.6031C123.371 16.3898 123.218 16.1765 122.85 16.1765H121.715C120.734 16.1765 120.182 15.5672 120.182 14.6838C120.182 13.8917 120.673 13.0996 122.175 13.0996H124.628L124.107 14.2268H121.991C121.592 14.2268 121.47 14.44 121.47 14.6533C121.47 14.8665 121.623 15.0798 121.93 15.0798H123.126C124.23 15.0798 124.72 15.6891 124.72 16.5117C124.72 17.3952 124.199 18.0959 123.064 18.0959L120.335 18.1263Z" fill="#0A73B7"/>
<path fill-rule="evenodd" clip-rule="evenodd" d="M124.966 18.1263V17.0296H127.388C127.756 17.0296 127.909 16.8163 127.909 16.6031C127.909 16.3898 127.756 16.1765 127.388 16.1765H126.345C125.364 16.1765 124.812 15.5672 124.812 14.6838C124.812 13.8917 125.303 13.0996 126.805 13.0996H129.228L128.707 14.2268H126.621C126.223 14.2268 126.1 14.44 126.1 14.6533C126.1 14.8665 126.253 15.0798 126.56 15.0798H127.633C128.737 15.0798 129.228 15.6891 129.228 16.5117C129.228 17.3952 128.707 18.0959 127.572 18.0959L124.966 18.1263Z" fill="#0A73B7"/>
</g>
<g clip-path="url(#clip3_206_297)">
<mask id="mask0_206_297" style="mask-type:luminance" maskUnits="userSpaceOnUse" x="140" y="0" width="27" height="22">
<path d="M166.719 0.733398H140.067V21.2667H166.719V0.733398Z" fill="white"/>
</mask>
<g mask="url(#mask0_206_297)">
<path d="M166.719 17.1267C166.719 19.4052 164.864 21.2672 162.579 21.2672H140.067V4.8739C140.067 2.59543 141.921 0.733398 144.207 0.733398H166.719V17.1267Z" fill="white"/>
<path d="M159.388 12.9206H161.096C161.147 12.9206 161.257 12.906 161.308 12.906C161.636 12.8404 161.914 12.5484 161.914 12.1392C161.914 11.7452 161.636 11.4526 161.308 11.3725C161.257 11.3579 161.162 11.3579 161.096 11.3579H159.388V12.9206Z" fill="url(#paint0_linear_206_297)"/>
<path d="M160.907 2.12061C159.278 2.12061 157.942 3.4423 157.942 5.08517V8.16685H162.126C162.221 8.16685 162.338 8.16686 162.418 8.18144C163.36 8.23245 164.061 8.72178 164.061 9.56872C164.061 10.233 163.586 10.8102 162.71 10.9196V10.9487C163.674 11.0143 164.404 11.5546 164.404 12.3797C164.404 13.2777 163.586 13.8623 162.513 13.8623H157.92V19.8867H162.272C163.9 19.8867 165.237 18.565 165.237 16.9221V2.12061H160.907Z" fill="url(#paint1_linear_206_297)"/>
<path d="M161.703 9.75873C161.703 9.36467 161.425 9.10908 161.097 9.05754C161.067 9.05754 160.98 9.04297 160.936 9.04297H159.388V10.474H160.936C160.987 10.474 161.082 10.474 161.097 10.4594C161.425 10.4157 161.703 10.1528 161.703 9.75873Z" fill="url(#paint2_linear_206_297)"/>
<path d="M144.514 2.12061C142.885 2.12061 141.549 3.4423 141.549 5.08517V12.4016C142.382 12.8107 143.243 13.0658 144.105 13.0658C145.135 13.0658 145.682 12.4453 145.682 11.5978V8.15125H148.224V11.5833C148.224 12.9195 147.391 14.0075 144.573 14.0075C142.864 14.0075 141.528 13.6353 141.528 13.6353V19.871H145.88C147.508 19.871 148.844 18.5494 148.844 16.9065V2.12061H144.514Z" fill="url(#paint3_linear_206_297)"/>
<path d="M152.706 2.12061C151.078 2.12061 149.742 3.4423 149.742 5.08517V8.96278C150.494 8.32771 151.794 7.91856 153.897 8.02059C155.021 8.0716 156.226 8.37821 156.226 8.37821V9.63431C155.62 9.3277 154.905 9.05025 153.977 8.98466C152.378 8.86805 151.422 9.64889 151.422 11.0221C151.422 12.4094 152.386 13.1908 153.977 13.0596C154.905 12.994 155.62 12.7019 156.226 12.4099V13.666C156.226 13.666 155.036 13.9726 153.897 14.0236C151.794 14.1184 150.494 13.717 149.742 13.0814V19.909H154.094C155.722 19.909 157.058 18.5874 157.058 16.9445V2.12061H152.706Z" fill="url(#paint4_linear_206_297)"/>
</g>
</g>
<defs>
<linearGradient id="paint0_linear_206_297" x1="157.935" y1="12.1393" x2="165.256" y2="12.1393" gradientUnits="userSpaceOnUse">
<stop stop-color="#007940"/>
<stop offset="0.2285" stop-color="#00873F"/>
<stop offset="0.7433" stop-color="#40A737"/>
<stop offset="1" stop-color="#5CB531"/>
</linearGradient>
<linearGradient id="paint1_linear_206_297" x1="157.935" y1="11.0035" x2="165.252" y2="11.0035" gradientUnits="userSpaceOnUse">
<stop stop-color="#007940"/>
<stop offset="0.2285" stop-color="#00873F"/>
<stop offset="0.7433" stop-color="#40A737"/>
<stop offset="1" stop-color="#5CB531"/>
</linearGradient>
<linearGradient id="paint2_linear_206_297" x1="157.935" y1="9.75859" x2="165.256" y2="9.75859" gradientUnits="userSpaceOnUse">
<stop stop-color="#007940"/>
<stop offset="0.2285" stop-color="#00873F"/>
<stop offset="0.7433" stop-color="#40A737"/>
<stop offset="1" stop-color="#5CB531"/>
</linearGradient>
<linearGradient id="paint3_linear_206_297" x1="141.546" y1="10.9959" x2="148.98" y2="10.9959" gradientUnits="userSpaceOnUse">
<stop stop-color="#1F286F"/>
<stop offset="0.4751" stop-color="#004E94"/>
<stop offset="0.8261" stop-color="#0066B1"/>
<stop offset="1" stop-color="#006FBC"/>
</linearGradient>
<linearGradient id="paint4_linear_206_297" x1="149.701" y1="11.0149" x2="156.922" y2="11.0149" gradientUnits="userSpaceOnUse">
<stop stop-color="#6C2C2F"/>
<stop offset="0.1735" stop-color="#882730"/>
<stop offset="0.5731" stop-color="#BE1833"/>
<stop offset="0.8585" stop-color="#DC0436"/>
<stop offset="1" stop-color="#E60039"/>
</linearGradient>
<clipPath id="clip0_206_297">
<rect width="28" height="22" fill="white"/>
</clipPath>
<clipPath id="clip1_206_297">
<rect width="38" height="12" fill="white" transform="translate(38 5)"/>
</clipPath>
<clipPath id="clip2_206_297">
<rect width="44" height="16" fill="white" transform="translate(86 3)"/>
</clipPath>
<clipPath id="clip3_206_297">
<rect width="27" height="22" fill="white" transform="translate(140)"/>
</clipPath>
</defs>
</svg>
