<svg width="27" height="22" viewBox="0 0 27 22" fill="none" xmlns="http://www.w3.org/2000/svg">
<g clip-path="url(#clip0_257_29996)">
<path d="M26.7191 17.1266C26.7191 19.4051 24.8643 21.2671 22.5786 21.2671H0.0665894V4.87378C0.0665894 2.59531 1.92133 0.733276 4.20709 0.733276H26.7191V17.1266Z" fill="white"/>
<path d="M19.3876 12.9205H21.096C21.1471 12.9205 21.2569 12.9059 21.3079 12.9059C21.6364 12.8403 21.9138 12.5483 21.9138 12.1391C21.9138 11.7451 21.6364 11.4525 21.3079 11.3724C21.2569 11.3578 21.1616 11.3578 21.096 11.3578H19.3876V12.9205Z" fill="url(#paint0_linear_257_29996)"/>
<path d="M20.9065 2.12061C19.2782 2.12061 17.942 3.4423 17.942 5.08517V8.16686H22.1262C22.2209 8.16686 22.3381 8.16686 22.4182 8.18144C23.3604 8.23245 24.0611 8.72178 24.0611 9.56872C24.0611 10.233 23.5864 10.8102 22.7103 10.9196V10.9487C23.6743 11.0143 24.4042 11.5546 24.4042 12.3797C24.4042 13.2777 23.5864 13.8623 22.513 13.8623H17.9201V19.8867H22.272C23.9003 19.8867 25.2365 18.565 25.2365 16.9221V2.12061H20.9065Z" fill="url(#paint1_linear_257_29996)"/>
<path d="M21.7025 9.75873C21.7025 9.36467 21.425 9.10908 21.0966 9.05754C21.0674 9.05754 20.98 9.04297 20.9357 9.04297H19.3876V10.474H20.9357C20.9867 10.474 21.082 10.474 21.0966 10.4594C21.425 10.4157 21.7025 10.1528 21.7025 9.75873Z" fill="url(#paint2_linear_257_29996)"/>
<path d="M4.51368 2.12061C2.88538 2.12061 1.54911 3.4423 1.54911 5.08517V12.4016C2.38148 12.8107 3.243 13.0658 4.10504 13.0658C5.1347 13.0658 5.68233 12.4453 5.68233 11.5978V8.15125H8.22368V11.5833C8.22368 12.9195 7.39131 14.0075 4.5725 14.0075C2.86404 14.0075 1.52777 13.6353 1.52777 13.6353V19.871H5.87962C7.50792 19.871 8.84419 18.5494 8.84419 16.9065V2.12061H4.51368Z" fill="url(#paint3_linear_257_29996)"/>
<path d="M12.7062 2.12061C11.0779 2.12061 9.74164 3.4423 9.74164 5.08517V8.96279C10.4938 8.32772 11.7937 7.91856 13.8967 8.02059C15.0211 8.0716 16.2262 8.37821 16.2262 8.37821V9.63431C15.6203 9.3277 14.9045 9.05025 13.9774 8.98466C12.3783 8.86805 11.4215 9.64889 11.4215 11.0221C11.4215 12.4094 12.3855 13.1908 13.9774 13.0596C14.9045 12.994 15.6203 12.7019 16.2262 12.4099V13.666C16.2262 13.666 15.0362 13.9726 13.8967 14.0236C11.7937 14.1184 10.4938 13.717 9.74164 13.0814V19.909H14.0935C15.7218 19.909 17.0581 18.5874 17.0581 16.9445V2.12061H12.7062Z" fill="url(#paint4_linear_257_29996)"/>
</g>
<defs>
<linearGradient id="paint0_linear_257_29996" x1="17.9353" y1="12.1392" x2="25.2561" y2="12.1392" gradientUnits="userSpaceOnUse">
<stop stop-color="#007940"/>
<stop offset="0.2285" stop-color="#00873F"/>
<stop offset="0.7433" stop-color="#40A737"/>
<stop offset="1" stop-color="#5CB531"/>
</linearGradient>
<linearGradient id="paint1_linear_257_29996" x1="17.9352" y1="11.0035" x2="25.2518" y2="11.0035" gradientUnits="userSpaceOnUse">
<stop stop-color="#007940"/>
<stop offset="0.2285" stop-color="#00873F"/>
<stop offset="0.7433" stop-color="#40A737"/>
<stop offset="1" stop-color="#5CB531"/>
</linearGradient>
<linearGradient id="paint2_linear_257_29996" x1="17.9354" y1="9.75859" x2="25.2562" y2="9.75859" gradientUnits="userSpaceOnUse">
<stop stop-color="#007940"/>
<stop offset="0.2285" stop-color="#00873F"/>
<stop offset="0.7433" stop-color="#40A737"/>
<stop offset="1" stop-color="#5CB531"/>
</linearGradient>
<linearGradient id="paint3_linear_257_29996" x1="1.54553" y1="10.9959" x2="8.97971" y2="10.9959" gradientUnits="userSpaceOnUse">
<stop stop-color="#1F286F"/>
<stop offset="0.4751" stop-color="#004E94"/>
<stop offset="0.8261" stop-color="#0066B1"/>
<stop offset="1" stop-color="#006FBC"/>
</linearGradient>
<linearGradient id="paint4_linear_257_29996" x1="9.70139" y1="11.0149" x2="16.9221" y2="11.0149" gradientUnits="userSpaceOnUse">
<stop stop-color="#6C2C2F"/>
<stop offset="0.1735" stop-color="#882730"/>
<stop offset="0.5731" stop-color="#BE1833"/>
<stop offset="0.8585" stop-color="#DC0436"/>
<stop offset="1" stop-color="#E60039"/>
</linearGradient>
<clipPath id="clip0_257_29996">
<rect width="26.6525" height="20.5333" fill="white" transform="translate(0.0665894 0.733276)"/>
</clipPath>
</defs>
</svg>
