<svg width="39" height="12" viewBox="0 0 39 12" fill="none" xmlns="http://www.w3.org/2000/svg">
<path d="M0.427323 8.10576C0.427323 7.55978 0.427323 7.0957 0.400024 6.68622H1.43738L1.49198 7.39599H1.51927C1.76496 7.01381 2.20174 6.57703 2.99341 6.57703C3.62128 6.57703 4.11266 6.93191 4.33105 7.47789H4.35835C4.52214 7.2049 4.71323 7.01381 4.95892 6.87731C5.23191 6.68622 5.53219 6.57703 5.91438 6.57703C6.70604 6.57703 7.525 7.123 7.525 8.65173V11.4908H6.35116V8.84282C6.35116 8.05116 6.07817 7.55978 5.50489 7.55978C5.09541 7.55978 4.79513 7.86007 4.65863 8.21495C4.63133 8.32415 4.60403 8.48794 4.60403 8.62443V11.5181H3.43019V8.70633C3.43019 8.02386 3.1572 7.55978 2.61122 7.55978C2.14715 7.55978 1.84686 7.91467 1.73766 8.24225C1.68307 8.35145 1.65577 8.48794 1.65577 8.62443V11.4635H0.427323V8.10576Z" fill="white"/>
<path d="M12.1385 10.317C12.1385 10.7538 12.1658 11.1633 12.2204 11.4635H11.1284L11.0465 10.9176H11.0192C10.7189 11.2997 10.2276 11.5454 9.5997 11.5454C8.64424 11.5454 8.09827 10.8357 8.09827 10.1259C8.09827 8.92475 9.16292 8.29688 10.9373 8.32418V8.24228C10.9373 7.9147 10.8008 7.39602 9.95458 7.39602C9.4905 7.39602 8.99913 7.53252 8.67154 7.75091L8.42585 6.95924C8.78074 6.74085 9.40861 6.52246 10.173 6.52246C11.7017 6.52246 12.1658 7.50522 12.1658 8.54257V10.317H12.1385ZM10.9373 9.14314C10.0911 9.11584 9.27211 9.30694 9.27211 10.044C9.27211 10.5081 9.5724 10.7265 9.95458 10.7265C10.446 10.7265 10.8008 10.3989 10.91 10.0713C10.9373 9.9894 10.9373 9.88021 10.9373 9.79831V9.14314Z" fill="white"/>
<path d="M12.9848 8.10576C12.9848 7.55978 12.9848 7.0957 12.9575 6.68622H14.0222L14.0768 7.39599H14.1041C14.3225 7.01381 14.8411 6.57703 15.6328 6.57703C16.4791 6.57703 17.3526 7.123 17.3526 8.65173V11.4908H16.1515V8.78823C16.1515 8.10576 15.9058 7.58708 15.2233 7.58708C14.7319 7.58708 14.4044 7.94196 14.2679 8.29685C14.2406 8.40604 14.2133 8.54254 14.2133 8.67903V11.4908H12.9848V8.10576Z" fill="white"/>
<path d="M22.594 4.74805V10.1259C22.594 10.6173 22.6213 11.1633 22.6213 11.4908H21.5293L21.4747 10.7265H21.4474C21.1744 11.2725 20.5739 11.6 19.8914 11.6C18.7449 11.6 17.844 10.6173 17.844 9.14315C17.844 7.53252 18.8268 6.57706 20.0006 6.57706C20.6558 6.57706 21.1471 6.85005 21.3382 7.20494H21.3655V4.74805H22.594ZM21.3655 8.67907C21.3655 8.56987 21.3655 8.46068 21.3382 8.35148C21.229 7.88741 20.8469 7.50522 20.3009 7.50522C19.5092 7.50522 19.0997 8.18769 19.0997 9.08855C19.0997 9.96211 19.5365 10.6173 20.3009 10.6173C20.7923 10.6173 21.229 10.2897 21.3382 9.77102C21.3655 9.66183 21.3655 9.55263 21.3655 9.41614V8.67907Z" fill="white"/>
<path d="M23.4402 11.4636V6.68628H24.6686V11.4909H23.4402V11.4636Z" fill="white"/>
<path d="M25.5148 8.21501C25.5148 7.55984 25.5148 7.09576 25.4875 6.65898H26.5522L26.5795 7.58714H26.6068C26.8525 6.90467 27.3985 6.65898 27.9171 6.65898C28.0263 6.65898 28.1082 6.63168 28.1901 6.65898V7.75093C28.0809 7.72364 27.9717 7.72364 27.8352 7.72364C27.262 7.72364 26.8525 8.10582 26.7433 8.65179C26.716 8.76099 26.716 8.89748 26.716 9.03398V11.5182H25.5148V8.21501Z" fill="white"/>
<path d="M28.7634 11.4636V6.68628H29.9919V11.4909H28.7634V11.4636Z" fill="white"/>
<path d="M37.6083 1.58137C37.0077 0.898901 36.3525 1.19919 35.8612 1.44488C35.6428 1.55407 34.0867 2.42763 34.0867 2.42763C33.2405 2.78252 32.5853 2.40033 32.3123 2.07275C32.285 2.04545 32.2577 2.01815 32.2577 1.96355L32.2031 1.85436C32.1212 1.69057 32.012 1.52677 31.8482 1.33568C31.7664 1.25378 31.6845 1.14459 31.6026 1.06269C31.0293 0.462121 30.1011 0.0526392 28.5451 0.817005C27.808 1.25379 25.4057 2.61872 25.4057 2.61872C24.5049 3.00091 23.8224 2.53683 23.604 2.20924L23.5767 2.18194L23.5494 2.12735L23.3856 1.88166C23.331 1.77246 23.2491 1.66327 23.1672 1.55407C23.0853 1.47217 23.0034 1.36298 22.9216 1.28108C22.3483 0.707809 21.4201 0.298328 19.8641 1.0081C18.9359 1.52677 16.752 2.78252 16.752 2.78252C15.8512 3.30119 15.1687 3.68338 15.1687 3.68338L15.9877 4.69343C16.3425 5.02102 16.9704 5.56699 17.9805 5.10291L20.7649 3.49228C23.1399 2.18194 24.3138 3.43769 24.8325 4.25665C24.8598 4.28395 24.8598 4.31125 24.8871 4.33855C24.9144 4.36584 24.8871 4.36584 24.9144 4.36584L24.969 4.47504C25.2146 4.85722 25.6241 5.10291 26.0882 5.10291C26.3612 5.10291 26.525 5.02102 26.798 4.85722L29.4733 3.30119C31.8755 1.99085 33.0767 3.30119 33.5681 4.14745C33.5954 4.22935 33.65 4.28395 33.7046 4.33855C33.9503 4.69343 34.3051 4.91182 34.7419 4.88452C35.0422 4.88452 35.3698 4.69343 35.3971 4.66613L38.6183 2.80982C38.6183 2.86441 38.2908 2.37303 37.6083 1.58137Z" fill="url(#paint0_linear_257_29917)"/>
<defs>
<linearGradient id="paint0_linear_257_29917" x1="17.1335" y1="7.73372" x2="42.1857" y2="-3.83597" gradientUnits="userSpaceOnUse">
<stop stop-color="#FCB813"/>
<stop offset="0.2247" stop-color="#FFCA05"/>
<stop offset="0.3933" stop-color="#F9A51A"/>
<stop offset="0.5281" stop-color="#FFCA05"/>
<stop offset="0.6461" stop-color="#F9A51A"/>
<stop offset="0.6535" stop-color="#FAAA17"/>
<stop offset="0.6872" stop-color="#FDBC0D"/>
<stop offset="0.723" stop-color="#FEC707"/>
<stop offset="0.764" stop-color="#FFCA05"/>
<stop offset="0.7974" stop-color="#FFCA05"/>
<stop offset="1" stop-color="#FFCA05"/>
</linearGradient>
</defs>
</svg>
