<svg width="28" height="22" viewBox="0 0 28 22" fill="none" xmlns="http://www.w3.org/2000/svg">
<path d="M26.6287 20.9861V21.0389H26.6777C26.6869 21.0391 26.6959 21.0367 26.704 21.0322C26.7071 21.0299 26.7097 21.0269 26.7114 21.0234C26.7132 21.0198 26.714 21.0159 26.7138 21.012C26.714 21.0081 26.7132 21.0043 26.7114 21.0009C26.7097 20.9974 26.7071 20.9945 26.704 20.9923C26.696 20.9876 26.6869 20.9852 26.6777 20.9856H26.6287V20.9861ZM26.6782 20.9488C26.6992 20.9475 26.72 20.9536 26.7371 20.9659C26.7439 20.9716 26.7493 20.9787 26.7529 20.9868C26.7565 20.995 26.7581 21.0038 26.7577 21.0127C26.758 21.0203 26.7567 21.0279 26.7538 21.035C26.751 21.0421 26.7467 21.0484 26.7411 21.0537C26.728 21.0652 26.7115 21.0721 26.6941 21.0734L26.7598 21.1486H26.7092L26.6488 21.0739H26.6292V21.1486H26.5869V20.9489H26.6789L26.6782 20.9488ZM26.6651 21.2174C26.6873 21.2177 26.7092 21.2132 26.7296 21.2042C26.7492 21.1958 26.767 21.1836 26.7821 21.1685C26.7973 21.1534 26.8094 21.1354 26.8177 21.1157C26.835 21.0739 26.835 21.0269 26.8177 20.9851C26.8092 20.9654 26.7972 20.9475 26.7821 20.9323C26.767 20.9172 26.7492 20.905 26.7296 20.8965C26.7091 20.8881 26.6872 20.8839 26.6651 20.8841C26.6426 20.8839 26.6202 20.8881 26.5994 20.8965C26.5793 20.9049 26.5611 20.917 26.5456 20.9323C26.5224 20.9562 26.5067 20.9865 26.5004 21.0194C26.4942 21.0522 26.4977 21.0862 26.5105 21.117C26.5185 21.1368 26.5305 21.1548 26.5456 21.1698C26.5611 21.1851 26.5793 21.1972 26.5994 21.2056C26.6201 21.2145 26.6425 21.219 26.6651 21.2188M26.6651 20.8361C26.7228 20.8361 26.7783 20.8588 26.8195 20.8994C26.8393 20.919 26.8551 20.9422 26.866 20.9679C26.8772 20.9943 26.883 21.0227 26.883 21.0514C26.883 21.0801 26.8772 21.1085 26.866 21.1348C26.8549 21.1604 26.8391 21.1836 26.8195 21.2033C26.7993 21.2227 26.7758 21.2384 26.7502 21.2495C26.7233 21.261 26.6943 21.2668 26.6651 21.2667C26.6355 21.2669 26.6061 21.261 26.5789 21.2495C26.5529 21.2386 26.5293 21.223 26.5091 21.2033C26.4895 21.1829 26.4739 21.1589 26.4632 21.1326C26.452 21.1062 26.4462 21.0778 26.4462 21.0491C26.4462 21.0205 26.452 20.9921 26.4632 20.9657C26.4741 20.94 26.4899 20.9167 26.5097 20.8972C26.5296 20.8772 26.5534 20.8615 26.5795 20.851C26.6068 20.8395 26.6361 20.8337 26.6657 20.8339M6.5452 20.0651C6.5452 19.6845 6.79354 19.3718 7.19944 19.3718C7.58733 19.3718 7.84907 19.671 7.84907 20.0651C7.84907 20.4593 7.58733 20.7585 7.19944 20.7585C6.79354 20.7585 6.5452 20.4458 6.5452 20.0651ZM8.29123 20.0651V18.9818H7.82227V19.2457C7.67352 19.0507 7.44791 18.9284 7.14109 18.9284C6.53666 18.9284 6.06231 19.4045 6.06231 20.0657C6.06231 20.7269 6.53639 21.2029 7.14109 21.2029C7.44778 21.2029 7.67352 21.0805 7.82227 20.8856V21.1486H8.29071V20.0651H8.29123ZM24.1369 20.0651C24.1369 19.6845 24.3853 19.3718 24.7913 19.3718C25.1796 19.3718 25.4409 19.671 25.4409 20.0651C25.4409 20.4593 25.1796 20.7585 24.7913 20.7585C24.3854 20.7585 24.1369 20.4458 24.1369 20.0651ZM25.8835 20.0651V18.1123H25.4141V19.2457C25.2654 19.0507 25.0398 18.9284 24.733 18.9284C24.1285 18.9284 23.6542 19.4045 23.6542 20.0657C23.6542 20.7269 24.1283 21.2029 24.733 21.2029C25.0398 21.2029 25.2654 21.0805 25.4141 20.8856V21.1486H25.8835V20.0651ZM14.1117 19.3495C14.4139 19.3495 14.608 19.5397 14.6575 19.8747H13.5385C13.5886 19.562 13.7777 19.3495 14.1118 19.3495M14.1212 18.9272C13.4891 18.9272 13.047 19.389 13.047 20.0645C13.047 20.7531 13.5069 21.2017 14.1526 21.2017C14.4774 21.2017 14.7749 21.1203 15.0366 20.8983L14.8068 20.5493C14.626 20.6944 14.3958 20.7758 14.1794 20.7758C13.8771 20.7758 13.602 20.6353 13.5343 20.2454H15.1357C15.1403 20.1868 15.145 20.1277 15.145 20.0643C15.1403 19.3892 14.7245 18.9271 14.1209 18.9271M19.7829 20.0643C19.7829 19.6837 20.0312 19.371 20.4371 19.371C20.825 19.371 21.0868 19.6702 21.0868 20.0643C21.0868 20.4585 20.825 20.7577 20.4371 20.7577C20.0312 20.7577 19.7828 20.445 19.7828 20.0643M21.5288 20.0643V18.9818H21.0601V19.2457C20.9108 19.0507 20.6857 18.9284 20.3789 18.9284C19.7745 18.9284 19.3001 19.4045 19.3001 20.0657C19.3001 20.7269 19.7742 21.2029 20.3789 21.2029C20.6857 21.2029 20.9108 21.0805 21.0601 20.8856V21.1486H21.5289V20.0651L21.5288 20.0643ZM17.1345 20.0643C17.1345 20.7213 17.59 21.2016 18.2851 21.2016C18.6099 21.2016 18.8263 21.129 19.0603 20.9434L18.8351 20.5627C18.659 20.6898 18.4742 20.7577 18.2701 20.7577C17.8957 20.7531 17.6205 20.4813 17.6205 20.0643C17.6205 19.6474 17.8957 19.3757 18.2701 19.371C18.4736 19.371 18.6585 19.4389 18.8351 19.566L19.0603 19.1853C18.8259 18.9997 18.6095 18.9271 18.2851 18.9271C17.59 18.9271 17.1345 19.4072 17.1345 20.0643ZM23.1802 18.9271C22.9097 18.9271 22.7335 19.0542 22.6117 19.2444V18.9818H22.1469V21.1474H22.6164V19.9335C22.6164 19.5751 22.7697 19.376 23.0763 19.376C23.1767 19.3745 23.2763 19.393 23.3696 19.4305L23.5141 18.9866C23.4103 18.9456 23.275 18.9275 23.18 18.9275M10.6098 19.154C10.3842 19.0047 10.0733 18.9275 9.73032 18.9275C9.18396 18.9275 8.8322 19.1905 8.8322 19.6207C8.8322 19.9738 9.09408 20.1917 9.57632 20.2596L9.79786 20.2913C10.055 20.3276 10.1764 20.3955 10.1764 20.5179C10.1764 20.6853 10.0056 20.7808 9.68485 20.7808C9.36003 20.7808 9.12562 20.6766 8.96755 20.5543L8.74719 20.9215C9.00434 21.1118 9.32916 21.2025 9.68091 21.2025C10.3037 21.2025 10.6647 20.908 10.6647 20.4957C10.6647 20.115 10.3806 19.9159 9.91125 19.848L9.69024 19.8158C9.48723 19.7894 9.32456 19.7483 9.32456 19.6032C9.32456 19.4448 9.4779 19.3496 9.73518 19.3496C10.0105 19.3496 10.2769 19.4538 10.4075 19.5352L10.6106 19.1546L10.6098 19.154ZM16.6608 18.9279C16.3903 18.9279 16.2141 19.0549 16.0928 19.2452V18.9818H15.628V21.1474H16.097V19.9335C16.097 19.5751 16.2504 19.376 16.5569 19.376C16.6573 19.3745 16.757 19.393 16.8502 19.4305L16.9947 18.9866C16.8909 18.9456 16.7556 18.9275 16.6606 18.9275M12.6589 18.9818H11.8921V18.3249H11.418V18.9818H10.9806V19.4123H11.418V20.4002C11.418 20.9026 11.6122 21.2019 12.167 21.2019C12.3705 21.2019 12.6049 21.1385 12.7537 21.0344L12.6182 20.6312C12.4783 20.7126 12.3249 20.7536 12.203 20.7536C11.9686 20.7536 11.8921 20.6085 11.8921 20.3912V19.4127H12.6589V18.9818ZM5.64761 21.1479V19.7888C5.64761 19.277 5.32279 18.9326 4.79916 18.928C4.52388 18.9234 4.23993 19.0094 4.04112 19.3133C3.89238 19.0732 3.65796 18.928 3.32841 18.928C3.09807 18.928 2.87298 18.996 2.69678 19.2496V18.9818H2.22742V21.1474H2.70045V19.9466C2.70045 19.5707 2.90807 19.371 3.22868 19.371C3.5401 19.371 3.69764 19.5748 3.69764 19.9419V21.1471H4.17173V19.9464C4.17173 19.5705 4.38815 19.3707 4.69943 19.3707C5.01965 19.3707 5.17247 19.5746 5.17247 19.9416V21.1468L5.64761 21.1479Z" fill="#0B2254"/>
<path d="M26.896 13.9442V13.6276H26.8139L26.7189 13.8449L26.6244 13.6276H26.542V13.9442H26.6004V13.7057L26.6892 13.9115H26.7496L26.8385 13.7051V13.9442H26.8963H26.896ZM26.375 13.9442V13.6818H26.4801V13.6284H26.2115V13.6818H26.3167V13.9442H26.3745H26.375Z" fill="#F79410"/>
<path d="M17.5618 15.3024H10.455V2.47705H17.562L17.5618 15.3024Z" fill="#FF5F00"/>
<path d="M10.9055 8.88993C10.9055 6.28831 12.1186 3.97077 14.0076 2.47724C12.5777 1.34506 10.8092 0.730583 8.9883 0.733285C4.50272 0.733285 0.866638 4.38508 0.866638 8.88993C0.866638 13.3948 4.50272 17.0466 8.9883 17.0466C10.8093 17.0493 12.5778 16.4348 14.0078 15.3026C12.1189 13.8094 10.9055 11.4917 10.9055 8.88993Z" fill="#EB001B"/>
<path d="M27.1498 8.89005C27.1498 13.3949 23.5137 17.0467 19.0281 17.0467C17.207 17.0494 15.4382 16.4349 14.008 15.3027C15.8975 13.8092 17.1106 11.4918 17.1106 8.89005C17.1106 6.2883 15.8975 3.97089 14.008 2.47737C15.4381 1.34522 17.2069 0.730753 19.028 0.733407C23.5136 0.733407 27.1496 4.38521 27.1496 8.89005" fill="#F79E1B"/>
</svg>
