<?xml version="1.0" encoding="UTF-8"?>
<!DOCTYPE svg PUBLIC "-//W3C//DTD SVG 1.1//EN" "http://www.w3.org/Graphics/SVG/1.1/DTD/svg11.dtd">
<!-- Creator: CorelDRAW X5 -->
<svg xmlns="http://www.w3.org/2000/svg" xml:space="preserve" width="135.467mm" height="36.9146mm" style="shape-rendering:geometricPrecision; text-rendering:geometricPrecision; image-rendering:optimizeQuality; fill-rule:evenodd; clip-rule:evenodd"
viewBox="0 0 13547 3691"
 xmlns:xlink="http://www.w3.org/1999/xlink"
 xmlns:svg="http://www.w3.org/2000/svg">
 <defs>
  <style type="text/css">
   <![CDATA[
    .fil1 {fill:black;fill-rule:nonzero}
    .fil0 {fill:#FFC60A;fill-rule:nonzero}
   ]]>
  </style>
 </defs>
 <g id="Layer_x0020_1">
  <metadata id="CorelCorpID_0Corel-Layer"/>
 </g>
 <g id="Layer_x0020_1_0">
  <metadata id="CorelCorpID_1Corel-Layer"/>
  <g id="_403215536">
   <polygon class="fil0" points="0,-2 0,3693 13547,3693 13547,-2 "/>
   <g>
    <path class="fil1" d="M8161 2560c-181,0 -361,-33 -468,-74l0 -1453 378 0 0 484c49,-16 131,-33 197,-33 320,0 542,181 542,493 8,402 -230,583 -649,583zm33 -829l0 0c-41,0 -90,8 -123,25l0 550c25,8 66,16 107,16 156,0 246,-107 246,-304 8,-181 -74,-287 -230,-287z"/>
    <path class="fil1" d="M9450 2560c-394,0 -583,-123 -583,-345 0,-271 337,-337 706,-353l0 -41c0,-82 -66,-123 -197,-123 -123,0 -263,33 -353,66l-90 -213c107,-33 263,-82 493,-82 337,0 509,115 509,386l0 624c-99,49 -287,82 -484,82zm123 -493l0 0c-205,8 -361,25 -361,148 0,82 82,131 222,131 49,0 115,-8 140,-16 0,0 0,-263 0,-263z"/>
    <path class="fil1" d="M10772 2535l0 -673c0,-82 -49,-140 -181,-140 -74,0 -131,25 -131,25l0 788 -378 0 0 -977c140,-41 304,-82 517,-82 386,0 558,131 558,353l0 706 -386 0z"/>
    <polygon class="fil1" points="12052,2535 11675,2018 11667,2018 11667,2535 11289,2535 11289,1033 11667,1033 11667,1944 11675,1944 12020,1501 12447,1501 12061,1985 12479,2535 "/>
    <polygon class="fil1" points="6987,2954 6593,2954 6782,2544 6314,1509 6724,1509 6979,2240 7225,1509 7635,1509 "/>
    <polygon class="fil1" points="5016,1156 4573,1156 4277,2010 3990,1156 3547,1156 3350,2535 3711,2535 3826,1583 4163,2535 4401,2535 4737,1583 4852,2535 5213,2535 "/>
    <path class="fil1" d="M5846 2560c-394,0 -583,-123 -583,-345 0,-271 337,-337 706,-353l0 -41c0,-82 -66,-123 -197,-123 -123,0 -263,33 -353,66l-90 -205c107,-33 296,-82 493,-82 337,0 509,115 509,386l0 624c-99,41 -287,74 -484,74zm123 -493l0 0c-205,8 -361,25 -361,148 0,82 82,131 222,131 49,0 115,-8 140,-16 0,0 0,-263 0,-263z"/>
   </g>
   <g>
    <path class="fil1" d="M1847 688c-640,0 -1158,517 -1158,1158 0,640 517,1158 1158,1158 640,0 1158,-517 1158,-1158 0,-640 -517,-1158 -1158,-1158zm0 2217l0 0c-583,0 -1059,-476 -1059,-1059 0,-583 476,-1059 1059,-1059 583,0 1059,476 1059,1059 0,583 -476,1059 -1059,1059z"/>
    <path class="fil1" d="M1388 1788c-82,-25 -156,74 -197,148 16,-98 140,-254 197,-148z"/>
    <path class="fil1" d="M1207 1796c25,-99 90,-131 131,-99 -49,8 -90,33 -131,99z"/>
    <path class="fil1" d="M1420 1944c41,-33 41,-90 -25,-107 -49,-16 -156,74 -164,172 33,-49 156,-148 189,-66z"/>
    <path class="fil1" d="M2077 2199c8,-123 -115,-181 -140,-312 -25,-131 189,-337 57,-542 255,205 57,328 181,493 -49,-16 -99,-57 -115,-82 -66,98 181,222 16,443z"/>
    <path class="fil1" d="M1675 1189c33,0 82,25 57,41 -74,66 -164,41 -238,107 25,-74 164,-90 181,-148z"/>
    <path class="fil1" d="M1897 1287c33,-33 0,-82 -115,-90 123,57 -74,74 -82,181 -66,25 -115,-16 -148,16 -33,25 -66,8 -57,-25 -41,16 -33,74 8,90 8,0 16,8 8,16 -41,41 -57,74 -16,107 25,-41 33,-57 57,-82 25,16 66,8 123,-57l8 0c-49,156 -164,181 -197,172 25,33 172,57 189,-8 41,-148 189,-213 66,-213 25,-41 131,-82 156,-107zm-312 181l0 0c-8,0 -16,-16 -16,-33 8,33 41,16 25,-25 8,0 25,0 57,0 -33,16 -49,57 -66,57z"/>
    <path class="fil1" d="M1962 1205c57,41 90,66 131,115 8,-66 -33,-189 -82,-222 -25,-16 -57,74 -49,107z"/>
    <path class="fil1" d="M1002 1714c41,-99 131,-222 287,-312 33,-90 25,-156 394,-296 8,-57 8,-123 25,-123 16,0 74,25 107,82 16,0 33,0 41,-8 8,-33 33,-123 57,-164 25,-41 82,-49 148,8 66,57 115,82 213,197 82,33 205,82 312,213 -49,-33 -99,-41 -148,-49 90,74 148,205 99,394 -16,-172 -148,-246 -222,-304 41,148 -140,99 -197,-16 16,8 41,8 49,0 -8,-222 -115,-353 -156,-394 -57,-49 -90,74 -115,164 -8,33 -33,49 -66,49 8,-8 16,-41 16,-49 -90,8 -197,66 -263,90 -164,74 -205,115 -238,238 -131,57 -279,213 -345,279z"/>
    <path class="fil1" d="M1823 1682c16,16 123,181 0,394 33,-156 -57,-443 -164,-296 74,33 99,90 74,148 -33,-57 -107,-115 -181,-90 -33,16 -82,16 -123,-41 -49,-66 33,-156 -107,-148 164,-82 115,82 197,99 90,25 107,-33 131,-74 25,-33 74,-57 123,-25 25,-74 -8,-189 57,-246 25,-25 107,-16 148,16 -57,0 -123,74 -156,263z"/>
    <path class="fil1" d="M2660 1402c82,287 57,575 -25,739 8,-107 -82,-255 -41,-435 -172,172 99,583 -296,854 57,-99 82,-328 66,-419 25,8 41,33 57,57 33,-107 41,-263 -25,-419 25,0 66,25 90,41 8,-238 -164,-263 -197,-328 0,74 82,131 99,222 -57,-25 -99,-33 -131,-25 41,33 140,222 115,378 -41,-33 -82,-49 -123,-57 49,82 74,287 8,386 0,-25 -8,-82 -33,-107 -33,115 -123,164 -181,181 74,-82 66,-222 -49,-263 -99,-33 -230,33 -287,279 -74,25 -296,-25 -164,-172 82,25 287,-107 271,-205 -16,-131 -140,-181 -238,-181 -123,0 -197,115 -296,164 -82,-16 -107,-25 -148,-131 -8,-66 66,-115 66,-181 -57,16 -74,-74 -189,16 -8,-16 8,-57 8,-57 -41,41 -49,82 -49,90 16,41 49,74 107,115 66,181 140,197 205,205 8,16 66,82 131,90 -8,-33 -16,-131 -8,-148 148,-148 255,-57 263,-16 -131,25 -41,304 -255,181 -8,25 0,99 33,140 25,189 263,140 337,172 -8,-181 90,-320 181,-304 90,8 107,156 -41,287 33,16 197,-8 279,-66 8,49 -49,181 -123,279 591,-156 878,-837 583,-1363zm-1585 509l0 0c-33,-25 -74,-66 -82,-90 8,-8 33,-33 66,-41 25,-8 41,8 33,16 0,8 -25,8 -33,25 -8,25 16,33 25,49 8,8 16,25 -8,41zm205 205l0 0c8,-16 41,-41 49,-41 -8,49 8,107 8,107 0,0 -49,-33 -57,-66zm328 49l0 0c16,0 33,16 41,8 16,-8 0,-57 -8,-66 16,0 74,0 66,25 -8,49 -41,74 -123,107 16,-16 16,-49 25,-74zm-164 181l0 0c-8,-8 -33,-33 -25,-66 25,16 66,25 66,25 0,0 -16,33 -41,41z"/>
   </g>
  </g>
 </g>
</svg>
