<svg width="63" height="12" viewBox="0 0 63 12" fill="none" xmlns="http://www.w3.org/2000/svg">
<path d="M19.9406 9.58244L21.6989 4.70332L22.3142 9.58244H24.2043L23.1934 2.4176H20.8637L19.3252 6.72529L17.7868 2.4176H15.5011L14.4461 9.58244H16.3362L16.9516 4.70332L18.7098 9.58244H19.9406Z" fill="black"/>
<path d="M29.8747 4.26379L32.3362 9.58247L31.3692 11.6924H33.4791L36.8198 4.26379H34.6659L33.3472 8.00006L32.0725 4.26379H29.8747Z" fill="black"/>
<path d="M62.1385 9.58247L59.9407 6.72532L61.9627 4.26379H59.6769L57.8747 6.59346V1.80225H55.9407V9.58247H57.8747V6.90115L59.8967 9.58247H62.1385Z" fill="black"/>
<path d="M37.1274 9.31873C37.1274 9.31873 38.1824 9.71433 39.6329 9.71433C41.0835 9.71433 42.9736 9.27477 42.9736 6.76928C42.9736 4.26379 40.4681 4.17587 40.1604 4.17587C39.589 4.17587 39.2373 4.30774 39.1055 4.39565V1.80225H37.1274V9.31873ZM39.1494 8.3517V5.53851C39.545 5.40664 40.9956 5.05499 40.9956 6.85719C40.9956 8.7473 39.5011 8.43961 39.1494 8.3517Z" fill="black"/>
<path d="M44.0725 5.58241C46.9297 4.74724 46.9297 5.75823 46.9297 5.8901V6.06592C44.6 6.06592 43.2374 6.76922 43.2374 7.95603C43.2374 9.1868 44.5121 9.71427 46.2264 9.71427C47.9407 9.71427 48.8198 9.31867 48.8198 9.31867C48.8198 9.31867 48.8198 7.16482 48.8198 5.97801C48.8198 4.7912 48.0725 4.04395 46.2264 4.04395C44.4242 4.04395 43.633 4.48351 43.633 4.48351L44.0725 5.58241ZM45.0396 7.95603C45.0396 7.16482 46.4901 7.12087 46.8857 7.12087V8.48351C46.4901 8.52746 45.0396 8.65933 45.0396 7.95603Z" fill="black"/>
<path d="M25.3033 5.58241C28.1604 4.74724 28.1604 5.75823 28.1604 5.8901V6.06592C25.8308 6.06592 24.4681 6.76922 24.4681 7.95603C24.4681 9.1868 25.7429 9.71427 27.4572 9.71427C29.1714 9.71427 30.0506 9.31867 30.0506 9.31867C30.0506 9.31867 30.0506 7.16482 30.0506 5.97801C30.0506 4.7912 29.3033 4.04395 27.4572 4.04395C25.611 4.04395 24.8637 4.48351 24.8637 4.48351L25.3033 5.58241ZM26.3143 7.95603C26.3143 7.16482 27.7648 7.12087 28.1604 7.12087V8.48351C27.7209 8.52746 26.3143 8.65933 26.3143 7.95603Z" fill="black"/>
<path d="M53.2154 9.58241H55.1934V6.19779C55.1934 4.43955 53.9187 4.04395 52.3802 4.04395C50.8417 4.04395 49.567 4.48351 49.567 4.48351V9.58241H51.545V5.53845C53.0835 5.09889 53.2154 5.84614 53.2154 6.19779V9.58241Z" fill="black"/>
<path d="M6.578 0.483516C9.61096 0.483516 12.0725 2.94505 12.0725 5.97802C12.0725 9.01099 9.61096 11.4725 6.578 11.4725C3.54503 11.4725 1.08349 9.01099 1.08349 5.97802C1.08349 2.94505 3.54503 0.483516 6.578 0.483516ZM6.578 0C3.28129 0 0.599976 2.68132 0.599976 6.02198C0.599976 9.31868 3.28129 12 6.578 12C9.8747 12 12.556 9.31868 12.556 6.02198C12.6 2.68132 9.91866 0 6.578 0Z" fill="#231F20"/>
<path d="M4.02853 3.91207C4.02853 3.91207 4.1604 3.42855 4.38018 3.25273C4.556 3.07691 5.2593 2.59339 6.31424 2.24174C6.44611 2.19778 6.57798 2.24174 6.57798 2.24174V2.32965C6.57798 2.41756 6.49007 2.46152 6.49007 2.46152C6.70985 2.50548 6.84171 2.32965 6.88567 2.15383C6.92963 1.978 7.06149 1.27471 7.28127 1.27471C7.89666 1.31866 8.33622 3.29669 8.29226 3.3846C8.24831 3.42855 8.02853 3.3846 8.02853 3.3846C8.42413 3.99998 8.90765 3.99998 9.03952 3.86811C9.17138 3.7802 9.08347 3.47251 9.08347 3.47251C10.2703 4.17581 10.2263 5.05493 10.2263 5.05493C10.578 3.64833 9.74281 3.03295 9.74281 3.03295C10.0505 3.03295 10.4461 3.20877 10.4461 3.20877C9.91864 2.50548 8.90765 2.15383 8.90765 2.15383C8.90765 2.15383 7.67688 0.791191 7.28127 0.835147C6.97358 0.879104 6.7538 1.49449 6.66589 1.89009C6.62193 1.89009 6.53402 1.89009 6.40215 1.89009C6.31424 1.80218 5.96259 1.36262 5.78677 1.49449C5.74281 1.53844 5.69886 1.93405 5.69886 2.10987C5.08347 2.32965 4.11644 2.76921 3.89666 3.12086C3.72083 3.42855 3.67688 3.64833 3.67688 3.64833C3.67688 3.64833 2.44611 4.43954 2.18237 5.27471C2.22633 5.31866 3.01754 4.35163 4.02853 3.91207Z" fill="black"/>
<path d="M7.89666 3.25277C7.89666 2.63739 7.58896 2.10991 7.41314 2.10991C7.23732 2.06596 7.19336 2.68134 7.19336 2.68134C7.63292 2.94508 7.89666 3.25277 7.89666 3.25277Z" fill="black"/>
<path d="M4.95164 3.16481C4.6879 3.29668 4.81977 3.42855 4.81977 3.42855C4.81977 3.42855 4.77582 3.29668 5.08351 3.20877C5.61098 3.0769 6.0945 2.90108 6.0945 2.76921C6.0945 2.63734 5.74285 2.59338 5.74285 2.59338C5.7868 2.72525 5.17142 2.98899 4.95164 3.16481Z" fill="black"/>
<path d="M4.77576 4.57142C4.77576 4.57142 4.90762 4.21977 5.03949 4.17581C5.03949 4.17581 5.21532 4.21977 5.34718 4.17581C5.4351 4.13186 5.65488 3.86812 5.74279 3.86812C5.74279 3.86812 5.52301 4.7912 4.68784 4.74724C4.68784 4.74724 5.30323 5.09889 5.61092 4.83515C5.91861 4.57142 5.69883 4.39559 6.09444 3.99999C6.49004 3.60438 6.22631 3.60438 6.22631 3.60438L6.09444 3.56043C6.09444 3.56043 6.13839 3.47252 6.27026 3.42856C6.40213 3.3846 7.01751 3.07691 7.06147 2.90109C7.06147 2.72526 6.57795 2.54944 6.35817 2.54944C6.35817 2.54944 6.57795 2.63735 6.57795 2.76922C6.57795 2.90109 5.91861 3.16482 5.91861 3.51647C5.91861 3.51647 5.69883 3.51647 5.52301 3.51647C5.34718 3.47252 5.17136 3.51647 4.99554 3.60438C4.81971 3.73625 4.81971 3.47252 4.81971 3.42856C4.81971 3.42856 4.46806 3.64834 4.90762 3.91208C4.90762 3.91208 4.7318 4.0879 4.7318 4.13186C4.64389 4.26373 4.55598 4.52746 4.77576 4.57142ZM5.17136 3.99999C5.25927 3.99999 5.30323 3.95603 5.30323 3.86812C5.30323 3.82416 5.30323 3.78021 5.25927 3.78021H5.56696C5.52301 3.78021 5.47905 3.82416 5.39114 3.95603C5.25927 4.0879 5.17136 3.99999 5.17136 3.99999Z" fill="black"/>
<path d="M4.2044 5.75827C4.2044 5.75827 4.2044 5.45058 3.89671 5.49453C3.41319 5.6264 3.23737 6.50552 3.23737 6.50552C3.76484 5.45058 4.2044 5.75827 4.2044 5.75827Z" fill="black"/>
<path d="M4.38019 6.54945C4.64393 6.10989 4.33623 5.84616 3.89667 6.06594C3.45711 6.28572 3.3692 6.85714 3.3692 6.85714C4.20437 5.93407 4.38019 6.54945 4.38019 6.54945Z" fill="black"/>
<path d="M3.28131 5.71424C3.589 5.23072 3.94065 5.23073 3.94065 5.23073C3.54505 4.92303 3.28131 5.71424 3.28131 5.71424Z" fill="black"/>
<path d="M8.38016 5.97804C8.38016 5.97804 8.07246 5.7143 8.11642 5.18683C8.16038 4.70331 8.24829 3.91211 7.41312 3.42859C7.41312 3.42859 7.76477 3.95606 7.6329 4.48353C7.50104 5.01101 7.06148 5.89013 7.10543 6.19782C7.19334 6.85716 7.85268 6.98903 7.80873 7.86815C7.80873 7.86815 8.20433 7.38463 8.11642 6.8132C8.02851 6.24178 7.54499 6.022 7.76477 5.53848C7.76477 5.53848 8.02851 5.93408 8.38016 5.97804Z" fill="black"/>
<path d="M10.8417 3.60437C10.8417 3.60437 11.589 5.62635 10.7538 7.42855C10.7538 7.42855 10.7978 7.16481 10.578 6.63734C10.3582 6.06591 10.4461 5.36261 10.5341 5.23074C10.5341 5.23074 10.1384 5.62635 10.1384 6.32965C10.1824 6.98899 10.3582 8.92305 8.95163 9.62635C8.95163 9.62635 9.47911 8.65932 9.25933 7.56041C9.25933 7.56041 9.43515 7.64833 9.52306 7.86811C9.52306 7.86811 9.87471 6.90107 9.39119 5.6703C9.39119 5.6703 9.65493 5.71426 9.83075 5.84613C9.83075 5.84613 10.0066 4.96701 9.03955 4.39558C8.77581 4.26371 8.81977 4.1758 8.81977 4.1758C8.81977 4.1758 8.73185 4.35162 8.90768 4.5714C9.0835 4.74723 9.30328 5.14283 9.25933 5.36261C9.25933 5.36261 8.99559 5.18679 8.59999 5.23074C8.59999 5.23074 9.34724 5.84613 9.21537 7.16481C9.21537 7.16481 9.03955 6.94503 8.55603 6.85712C8.55603 6.85712 9.0835 7.86811 8.59999 8.83514C8.59999 8.83514 8.55603 8.48349 8.42416 8.26371C8.42416 8.26371 8.29229 8.96701 7.45713 9.23074C7.45713 9.23074 8.16042 8.39558 7.32526 7.95602C6.53405 7.51646 5.83075 8.48349 5.69889 9.31866C5.69889 9.31866 4.77581 9.40657 4.64394 9.01096C4.55603 8.61536 4.81976 8.48349 4.81976 8.48349C4.81976 8.48349 4.95163 8.5714 5.30328 8.43953C5.65493 8.30767 6.31427 7.86811 6.27031 7.34063C6.1824 6.81316 5.39119 6.28569 4.73185 6.50547C4.07251 6.72525 3.72086 7.29668 3.36922 7.29668C3.01757 7.29668 2.62196 6.7692 2.66592 6.50547C2.79779 6.15382 3.01757 6.06591 3.10548 5.62635C3.10548 5.62635 2.97361 5.62635 2.92965 5.58239C2.84174 5.53844 2.62196 5.45052 2.53405 5.49448C2.40218 5.53844 2.13845 5.71426 2.13845 5.6703C2.13845 5.62635 2.1824 5.45052 2.1824 5.45052C2.1824 5.45052 1.87471 5.75822 1.91867 5.89008C1.96262 6.02195 2.22636 6.32964 2.49009 6.50547C2.49009 6.50547 2.53405 6.90107 2.8857 7.25272C3.10548 7.4725 3.2813 7.51646 3.45713 7.4725C3.54504 7.56041 3.76482 7.91206 4.16042 7.95602C4.16042 7.95602 4.07251 7.51646 4.16042 7.16481C4.16042 7.16481 4.20438 7.16481 4.20438 7.12085C4.24834 7.0769 4.99559 6.3736 5.52306 7.03294C5.52306 7.03294 5.25932 7.12085 5.17141 7.42855C5.0835 7.73624 5.03954 8.48349 4.20438 7.99997C4.20438 7.99997 4.11647 8.43953 4.3802 8.70327C4.3802 8.70327 4.33625 9.18679 4.86372 9.40657C5.39119 9.6703 5.74284 9.45052 6.09449 9.62635C6.09449 9.62635 6.05053 8.92305 6.35823 8.52745C6.66592 8.08789 7.06152 7.95602 7.23735 8.13184C7.41317 8.30767 7.54504 8.92305 6.79779 9.53844C6.79779 9.53844 7.67691 9.6703 8.29229 9.18679C8.29229 9.18679 8.20438 9.978 7.63295 10.6813C9.83075 10.1978 11.4571 8.26371 11.4571 5.93404C11.4571 5.14283 11.2373 4.30767 10.8417 3.60437ZM2.57801 6.32965C2.44614 6.32965 2.22636 5.978 2.1824 5.93404C2.13845 5.84613 2.40218 5.71426 2.49009 5.71426C2.57801 5.6703 2.66592 5.71426 2.66592 5.75822C2.66592 5.80217 2.49009 5.89008 2.49009 5.93404C2.44614 5.978 2.62196 6.10986 2.66592 6.15382C2.70987 6.19778 2.70987 6.32965 2.57801 6.32965ZM3.67691 7.38459C3.72086 7.38459 3.76482 7.34063 3.76482 7.29668C3.85273 7.25272 3.89669 7.20877 3.94064 7.20877V7.69228C3.9846 7.73624 3.76482 7.60437 3.67691 7.38459ZM5.39119 7.69228C5.39119 7.69228 5.65493 7.69228 5.65493 7.64833C5.65493 7.60437 5.56702 7.29668 5.56702 7.29668C5.56702 7.29668 5.91867 7.34063 5.91867 7.42855C5.91867 7.51646 5.74284 7.82415 5.34724 7.99997C5.30328 7.99997 5.39119 7.78019 5.39119 7.69228ZM4.55603 8.5714C4.46812 8.52745 4.42416 8.26371 4.42416 8.26371C4.51207 8.35162 4.73185 8.35162 4.73185 8.35162C4.59998 8.48349 4.59998 8.61536 4.55603 8.5714Z" fill="black"/>
<path d="M7.32524 3.78018C7.32524 3.78018 6.75381 3.47249 6.49007 3.78018C6.27029 4.08788 6.40216 4.61535 6.27029 4.967C5.9626 4.70326 5.567 5.14282 5.47909 5.31865C5.39117 5.45051 5.30326 5.49447 5.30326 5.49447C4.59996 5.62634 4.77579 5.05491 4.51205 4.92304C4.29227 4.74722 3.89667 5.01096 3.89667 5.01096C4.29227 4.92304 4.38018 5.18678 4.38018 5.31865C4.38018 5.40656 4.4681 5.75821 4.55601 5.93403C4.64392 6.10986 5.08348 5.97799 5.43513 6.02194C5.78678 6.0659 6.00656 6.50546 6.00656 6.50546C6.22634 5.97799 5.65491 5.75821 5.65491 5.75821C5.65491 5.75821 5.83073 5.45051 6.00656 5.53843C6.62194 5.89007 6.49007 7.29667 6.49007 7.29667C7.01755 6.28568 6.79777 5.67029 6.49007 5.31865C6.53403 4.92304 6.70985 3.91205 7.32524 3.78018Z" fill="black"/>
</svg>
