<?xml version="1.0" encoding="UTF-8" standalone="no"?>
<!-- Created with Inkscape (http://www.inkscape.org/) -->

<svg
   xmlns:dc="http://purl.org/dc/elements/1.1/"
   xmlns:cc="http://creativecommons.org/ns#"
   xmlns:rdf="http://www.w3.org/1999/02/22-rdf-syntax-ns#"
   xmlns:svg="http://www.w3.org/2000/svg"
   xmlns="http://www.w3.org/2000/svg"
   xmlns:sodipodi="http://sodipodi.sourceforge.net/DTD/sodipodi-0.dtd"
   xmlns:inkscape="http://www.inkscape.org/namespaces/inkscape"
   width="264.58334mm"
   height="32.838383mm"
   viewBox="0 0 264.58334 32.838383"
   version="1.1"
   id="svg2813"
   inkscape:version="0.92.4 (5da689c313, 2019-01-14)"
   sodipodi:docname="Logo Panin Bank.svg">
  <defs
     id="defs2807" />
  <sodipodi:namedview
     id="base"
     pagecolor="#ffffff"
     bordercolor="#666666"
     borderopacity="1.0"
     inkscape:pageopacity="0.0"
     inkscape:pageshadow="2"
     inkscape:zoom="1"
     inkscape:cx="721.82543"
     inkscape:cy="-101.77286"
     inkscape:document-units="mm"
     inkscape:current-layer="layer1"
     showgrid="false"
     fit-margin-top="0"
     fit-margin-left="0"
     fit-margin-right="0"
     fit-margin-bottom="0"
     inkscape:window-width="1920"
     inkscape:window-height="1001"
     inkscape:window-x="-9"
     inkscape:window-y="-9"
     inkscape:window-maximized="1" />
  <metadata
     id="metadata2810">
    <rdf:RDF>
      <cc:Work
         rdf:about="">
        <dc:format>image/svg+xml</dc:format>
        <dc:type
           rdf:resource="http://purl.org/dc/dcmitype/StillImage" />
        <dc:title></dc:title>
      </cc:Work>
    </rdf:RDF>
  </metadata>
  <g
     inkscape:label="Layer 1"
     inkscape:groupmode="layer"
     id="layer1"
     transform="translate(277.99419,3.689701)">
    <g
       id="g3461"
       transform="matrix(3.8259427,0,0,3.8259427,785.59569,-82.372512)">
      <g
         transform="matrix(0.35277777,0,0,-0.35277777,-276.31847,27.92242)"
         id="g1241">
        <path
           inkscape:connector-curvature="0"
           id="path1243"
           style="fill:#007dc5;fill-opacity:1;fill-rule:nonzero;stroke:none"
           d="M 0,0 V -0.019 C -0.006,-0.463 -0.314,-0.616 -0.718,-0.614 H -1.061 V -1.351 H -1.54 v 1.946 h 0.836 c 0.36,0 0.669,-0.111 0.702,-0.525 L 0,0.035 Z m -0.492,-0.013 -0.001,0.015 c 0.004,0.182 -0.159,0.171 -0.295,0.178 h -0.273 v -0.379 h 0.268 c 0.12,0.006 0.296,-0.011 0.299,0.156 l 0.001,0.014 z M 1.936,-1.351 H 1.416 L 1.284,-0.96 H 0.643 L 0.51,-1.351 H 0.003 l 0.718,1.946 h 0.505 z m -0.785,0.787 -0.184,0.56 -0.186,-0.56 z M 3.935,-1.351 H 3.494 l -0.74,1.196 V -1.351 H 2.296 v 1.946 h 0.459 l 0.721,-1.192 v 1.192 h 0.459 z m 0.978,0 H 4.434 v 1.947 h 0.479 z m 2.138,0 h -0.44 l -0.74,1.196 V -1.351 H 5.413 v 1.946 h 0.459 l 0.72,-1.192 v 1.192 h 0.459 z m 5.769,0 h -0.519 l -0.132,0.391 h -0.641 l -0.132,-0.391 h -0.507 l 0.717,1.946 h 0.506 z m -0.783,0.787 -0.185,0.56 -0.186,-0.56 z m 2.783,-0.787 h -0.441 l -0.739,1.196 v -1.196 h -0.458 v 1.946 h 0.458 l 0.721,-1.192 v 1.192 h 0.459 z m 2.361,0 h -0.609 l -0.62,0.867 -0.145,-0.14 v -0.727 h -0.479 v 1.946 h 0.479 v -0.673 l 0.728,0.673 h 0.623 l -0.842,-0.742" />
      </g>
      <g
         transform="matrix(0.35277777,0,0,-0.35277777,-273.1858,27.716045)"
         id="g1245">
        <path
           inkscape:connector-curvature="0"
           id="path1247"
           style="fill:#007dc5;fill-opacity:1;fill-rule:evenodd;stroke:none"
           d="m 0,0 h 0.97 c 0.183,-0.001 0.318,-0.037 0.407,-0.107 0.089,-0.07 0.149,-0.147 0.178,-0.231 0.009,-0.027 0.016,-0.054 0.02,-0.081 0.005,-0.026 0.007,-0.053 0.007,-0.078 0,-0.091 -0.015,-0.162 -0.046,-0.215 C 1.506,-0.766 1.472,-0.805 1.437,-0.832 1.419,-0.846 1.401,-0.858 1.385,-0.866 1.368,-0.875 1.352,-0.884 1.339,-0.891 1.46,-0.936 1.542,-1.001 1.584,-1.087 1.625,-1.173 1.647,-1.263 1.647,-1.357 1.647,-1.435 1.631,-1.508 1.599,-1.577 1.567,-1.645 1.526,-1.705 1.474,-1.755 1.472,-1.757 1.47,-1.758 1.469,-1.759 1.468,-1.761 1.467,-1.762 1.467,-1.763 1.411,-1.813 1.343,-1.853 1.262,-1.883 1.183,-1.912 1.043,-1.927 0.846,-1.927 H 0 Z m 0.475,-1.594 h 0.42 c 0.083,-0.002 0.148,0.02 0.194,0.065 0.047,0.044 0.069,0.117 0.069,0.215 0,0.083 -0.025,0.142 -0.075,0.178 C 1.033,-1.1 0.979,-1.08 0.92,-1.079 H 0.475 Z m 0,0.84 h 0.388 c 0.064,-0.002 0.119,0.014 0.165,0.047 0.045,0.033 0.067,0.088 0.067,0.165 0,0.08 -0.021,0.135 -0.065,0.164 -0.043,0.031 -0.103,0.046 -0.178,0.046 H 0.475" />
      </g>
      <g
         transform="matrix(0.35277777,0,0,-0.35277777,-277.21456,20.565601)"
         id="g1249">
        <path
           inkscape:connector-curvature="0"
           id="path1251"
           style="fill:#007dc5;fill-opacity:1;fill-rule:evenodd;stroke:none"
           d="m 0,0 h 20.72 l 0.108,-0.003 0.113,-0.008 c 1.085,-0.113 1.931,-1.008 1.988,-2.097 l 0.002,-0.108 v -19.898 c 0,-1.088 -0.805,-2.025 -1.88,-2.19 l -0.11,-0.015 -0.113,-0.008 -0.108,-0.003 H 0 c -1.092,0.002 -2.017,0.808 -2.185,1.884 l -0.014,0.111 -0.009,0.113 -0.002,0.108 v 19.898 l 0.002,0.108 0.009,0.113 0.014,0.111 0.019,0.109 0.026,0.107 0.03,0.106 c 0.055,0.177 0.126,0.333 0.222,0.491 l 0.057,0.091 0.062,0.086 0.066,0.084 c 0.294,0.359 0.706,0.624 1.156,0.74 l 0.107,0.025 0.109,0.019 0.111,0.015 0.113,0.008 z m 0.008,-0.608 h 20.705 l 0.084,-0.003 0.082,-0.006 c 0.786,-0.081 1.404,-0.734 1.443,-1.522 l 0.003,-0.085 v -19.882 c 0.001,-0.792 -0.583,-1.477 -1.366,-1.597 l -0.08,-0.011 -0.082,-0.006 -0.084,-0.002 H 0.008 c -0.793,-0.002 -1.472,0.587 -1.593,1.368 l -0.01,0.081 -0.007,0.082 -0.002,0.085 v 19.882 l 0.002,0.085 0.007,0.082 0.01,0.08 0.014,0.08 0.018,0.077 0.022,0.077 c 0.038,0.123 0.095,0.246 0.161,0.356 l 0.042,0.065 0.045,0.064 0.048,0.061 c 0.212,0.259 0.515,0.455 0.84,0.537 l 0.077,0.019 0.08,0.014 0.08,0.01 0.081,0.006" />
      </g>
      <g
         transform="matrix(0.35277777,0,0,-0.35277777,-273.74495,21.144139)"
         id="g1253">
        <path
           inkscape:connector-curvature="0"
           id="path1255"
           style="fill:#007dc5;fill-opacity:1;fill-rule:evenodd;stroke:none"
           d="m 0,0 c -2.151,-0.262 -3.826,-2.106 -3.826,-4.331 0,-2.402 1.955,-4.361 4.352,-4.361 2.396,0 4.351,1.959 4.351,4.361 0,2.225 -1.675,4.069 -3.826,4.331 0.299,-0.18 0.501,-0.509 0.501,-0.883 0,-0.567 -0.462,-1.029 -1.026,-1.029 -0.566,0 -1.027,0.462 -1.027,1.029 0,0.374 0.202,0.703 0.501,0.883" />
      </g>
      <g
         transform="matrix(0.35277777,0,0,-0.35277777,-273.87301,24.755173)"
         id="g1257">
        <path
           inkscape:connector-curvature="0"
           id="path1259"
           style="fill:#007dc5;fill-opacity:1;fill-rule:evenodd;stroke:none"
           d="M 0,0 C 0.283,-0.49 0.913,-0.66 1.402,-0.377 1.891,-0.093 2.06,0.538 1.777,1.029 1.494,1.519 0.865,1.689 0.376,1.406 -0.114,1.122 -0.283,0.491 0,0" />
      </g>
      <g
         transform="matrix(0.35277777,0,0,-0.35277777,-276.42959,26.44922)"
         id="g1261">
        <path
           inkscape:connector-curvature="0"
           id="path1263"
           style="fill:#007dc5;fill-opacity:1;fill-rule:evenodd;stroke:none"
           d="M 0,0 C 1.301,-1.736 3.732,-2.268 5.654,-1.157 7.729,0.045 8.445,2.722 7.247,4.803 6.048,6.884 3.378,7.601 1.302,6.399 -0.619,5.287 -1.375,2.91 -0.526,0.913 c 0.007,0.35 0.19,0.689 0.513,0.876 C 0.476,2.072 1.106,1.903 1.389,1.412 1.671,0.922 1.502,0.291 1.013,0.007 0.69,-0.18 0.306,-0.17 0,0" />
      </g>
      <g
         transform="matrix(0.35277777,0,0,-0.35277777,-270.68993,26.44922)"
         id="g1265">
        <path
           inkscape:connector-curvature="0"
           id="path1267"
           style="fill:#007dc5;fill-opacity:1;fill-rule:evenodd;stroke:none"
           d="m 0,0 c -1.301,-1.736 -3.732,-2.268 -5.654,-1.157 -2.075,1.202 -2.791,3.879 -1.593,5.96 1.199,2.081 3.869,2.798 5.945,1.596 C 0.619,5.287 1.375,2.91 0.525,0.913 0.519,1.263 0.336,1.602 0.013,1.789 -0.476,2.072 -1.105,1.903 -1.388,1.412 -1.671,0.922 -1.502,0.291 -1.014,0.007 -0.69,-0.18 -0.306,-0.17 0,0" />
      </g>
      <g
         transform="matrix(0.35277777,0,0,-0.35277777,-243.34186,21.919554)"
         id="g1269">
        <path
           inkscape:connector-curvature="0"
           id="path1271"
           style="fill:#007dc5;fill-opacity:1;fill-rule:evenodd;stroke:none"
           d="m 0,0 c 0,-0.787 -0.406,-1.455 -1.219,-2.004 -0.713,-0.476 -1.516,-0.713 -2.408,-0.713 -0.931,0 -1.753,0.228 -2.467,0.685 -0.792,0.513 -1.189,1.181 -1.189,2.003 0,0.843 0.387,1.529 1.16,2.06 0.713,0.457 1.545,0.686 2.496,0.686 0.912,0 1.725,-0.238 2.438,-0.714 C -0.397,1.472 0,0.805 0,0" />
      </g>
      <g
         transform="matrix(0.35277777,0,0,-0.35277777,-215.34153,20.961048)"
         id="g1273">
        <path
           inkscape:connector-curvature="0"
           id="path1275"
           style="fill:#007dc5;fill-opacity:1;fill-rule:evenodd;stroke:none"
           d="m 0,0 h 6.17 v -11.21 l 4.509,5.218 h 7.429 l -5.653,-5.516 5.977,-10.229 h -6.807 l -3.188,6.316 -2.267,-2.222 v -4.094 H 0" />
      </g>
      <g
         transform="matrix(0.35277777,0,0,-0.35277777,-221.97058,23.192385)"
         id="g1277">
        <path
           inkscape:connector-curvature="0"
           id="path1279"
           style="fill:#007dc5;fill-opacity:1;fill-rule:evenodd;stroke:none"
           d="m 0,0 h 5.497 v -2.523 c 0.821,1.024 1.653,1.752 2.493,2.192 0.842,0.44 1.866,0.663 3.073,0.663 1.633,0 2.909,-0.49 3.835,-1.46 0.92,-0.97 1.38,-2.468 1.38,-4.497 v -9.787 h -5.927 v 8.466 c 0,0.964 -0.178,1.648 -0.534,2.048 -0.362,0.406 -0.861,0.604 -1.51,0.604 -0.712,0 -1.296,-0.272 -1.737,-0.812 C 6.125,-5.645 5.903,-6.619 5.903,-8.02 v -7.392 H 0" />
      </g>
      <g
         transform="matrix(0.35277777,0,0,-0.35277777,-233.95233,28.629387)"
         id="g1281">
        <path
           inkscape:connector-curvature="0"
           id="path1283"
           style="fill:#007dc5;fill-opacity:1;fill-rule:evenodd;stroke:none"
           d="M 0,0 H -6.646 V 21.737 H 0 v -0.782 c 0.987,0.538 2.231,0.781 4.045,0.781 4.074,0 7.693,-1.661 7.705,-5.153 0.012,-3.01 -1.716,-4.097 -4.049,-4.255 2.95,-0.343 5.645,-2.159 5.645,-5.224 C 13.346,1.97 9.938,0 4.133,0 2.315,0 1.315,0.246 0,0.715 Z m 0,17.476 v -3.717 c 1.93,-0.077 5.721,-0.324 5.721,2.125 0,2.437 -3.979,2.315 -5.721,1.592 M 0,9.583 V 4.152 C 0.731,3.928 1.495,3.805 2.424,3.805 4.462,3.805 6.876,4.727 6.811,6.85 6.708,10.208 2.557,9.706 0,9.583" />
      </g>
      <g
         transform="matrix(0.35277777,0,0,-0.35277777,-226.63681,24.975306)"
         id="g1285">
        <path
           inkscape:connector-curvature="0"
           id="path1287"
           style="fill:#007dc5;fill-opacity:1;fill-rule:evenodd;stroke:none"
           d="m 0,0 -5.596,0.599 c 0.211,0.995 0.516,1.779 0.914,2.349 0.398,0.57 0.968,1.064 1.719,1.484 0.536,0.305 1.278,0.54 2.216,0.705 0.939,0.164 1.955,0.25 3.051,0.25 1.754,0 3.169,-0.1 4.23,-0.301 C 7.6,4.886 8.484,4.463 9.197,3.832 10.288,2.866 10.91,1.1 10.91,-0.331 V -10.357 H 5.414 v 1.748 c -1.206,-1.055 -3.58,-1.753 -5.856,-1.748 -2.897,0.006 -5.635,1.137 -5.615,3.957 0.008,1.183 0.339,2.153 1.022,2.912 0.682,0.765 1.935,1.329 3.767,1.699 2.201,0.45 3.626,0.765 4.279,0.944 0.649,0.181 1.341,0.421 2.068,0.71 0,0.734 -0.147,1.244 -0.441,1.539 -0.3,0.29 -0.821,0.44 -1.573,0.44 C 2.108,1.844 1.39,1.684 0.909,1.374 0.535,1.129 0.231,0.669 0,0 M 5.079,-3.133 C 4.273,-3.409 3.434,-3.651 2.564,-3.861 1.375,-4.16 0.618,-4.46 0.304,-4.749 c -0.329,-0.303 -0.49,-0.644 -0.49,-1.026 0,-0.439 0.161,-0.794 0.481,-1.074 0.323,-0.276 0.795,-0.416 1.419,-0.416 0.653,0 1.258,0.15 1.823,0.449 0.56,0.303 0.958,0.672 1.194,1.101 0.236,0.434 0.348,0.999 0.348,1.691" />
      </g>
      <g
         transform="matrix(0.35277777,0,0,-0.35277777,-252.23683,23.192385)"
         id="g1289">
        <path
           inkscape:connector-curvature="0"
           id="path1291"
           style="fill:#d71920;fill-opacity:1;fill-rule:evenodd;stroke:none"
           d="m 0,0 h 5.497 v -2.523 c 0.821,1.024 1.652,1.751 2.493,2.191 0.841,0.44 1.866,0.663 3.073,0.663 1.633,0 2.909,-0.49 3.835,-1.459 0.919,-0.969 1.38,-2.468 1.38,-4.497 v -9.784 H 10.35 v 8.463 c 0,0.966 -0.178,1.648 -0.534,2.049 -0.361,0.406 -0.861,0.604 -1.509,0.604 -0.713,0 -1.296,-0.273 -1.737,-0.812 C 6.125,-5.644 5.902,-6.619 5.902,-8.019 v -7.39 H 0" />
      </g>
      <g
         transform="matrix(0.35277777,0,0,-0.35277777,-242.7693,23.192385)"
         id="g1293">
        <path
           inkscape:connector-curvature="0"
           id="path1295"
           style="fill:#d71920;fill-opacity:1;fill-rule:evenodd;stroke:none"
           d="m 0,0 h 5.497 v -2.523 c 0.821,1.024 1.652,1.751 2.493,2.191 0.841,0.44 1.866,0.663 3.073,0.663 1.633,0 2.909,-0.49 3.835,-1.459 0.92,-0.969 1.38,-2.468 1.38,-4.497 v -9.784 h -5.927 v 8.463 c 0,0.966 -0.179,1.648 -0.535,2.049 -0.361,0.406 -0.861,0.604 -1.509,0.604 -0.712,0 -1.296,-0.273 -1.737,-0.812 C 6.125,-5.644 5.903,-6.619 5.903,-8.019 v -7.39 H 0" />
      </g>
      <path
         inkscape:connector-curvature="0"
         id="path1297"
         style="fill:#d71920;fill-opacity:1;fill-rule:nonzero;stroke:none;stroke-width:0.35277775"
         d="m -245.76428,28.628294 h 2.26484 v -5.435953 h -2.26484 z" />
      <g
         transform="matrix(0.35277777,0,0,-0.35277777,-259.19569,23.59807)"
         id="g1299">
        <path
           inkscape:connector-curvature="0"
           id="path1301"
           style="fill:#d71920;fill-opacity:1;fill-rule:evenodd;stroke:none"
           d="m 0,0 c 0.032,-6.912 -6.377,-9.187 -11.976,-6.974 v -7.285 h -6.645 v 21.73 h 6.645 v -0.78 c 1.237,0.521 2.284,0.799 3.945,0.78 C -3.422,7.421 -0.025,5.319 0,0 m -11.976,2.768 v -5.719 c 2.793,-1.094 5.892,-0.529 5.974,3.283 0.054,2.545 -2.94,4.207 -5.974,2.436" />
      </g>
      <g
         transform="matrix(0.35277777,0,0,-0.35277777,-256.81589,24.975306)"
         id="g1303">
        <path
           inkscape:connector-curvature="0"
           id="path1305"
           style="fill:#d71920;fill-opacity:1;fill-rule:evenodd;stroke:none"
           d="m 0,0 -5.595,0.6 c 0.211,0.994 0.515,1.778 0.914,2.348 0.397,0.569 0.967,1.063 1.718,1.483 0.536,0.305 1.279,0.54 2.216,0.705 0.939,0.165 1.955,0.25 3.051,0.25 1.754,0 3.169,-0.1 4.23,-0.3 C 7.601,4.886 8.485,4.462 9.197,3.832 10.288,2.865 10.911,1.1 10.911,-0.331 V -10.354 H 5.414 v 1.747 c -1.206,-1.054 -3.58,-1.753 -5.856,-1.747 -2.896,0.006 -5.635,1.136 -5.615,3.955 0.008,1.183 0.339,2.153 1.022,2.912 0.682,0.765 1.935,1.329 3.767,1.699 2.201,0.45 3.626,0.765 4.28,0.944 0.648,0.18 1.341,0.42 2.068,0.709 0,0.735 -0.147,1.244 -0.442,1.539 -0.3,0.289 -0.821,0.44 -1.572,0.44 -0.958,0 -1.675,-0.16 -2.157,-0.47 C 0.535,1.129 0.231,0.669 0,0 M 5.08,-3.132 C 4.274,-3.408 3.434,-3.65 2.565,-3.86 1.375,-4.158 0.619,-4.458 0.305,-4.747 c -0.33,-0.304 -0.491,-0.644 -0.491,-1.026 0,-0.44 0.161,-0.794 0.481,-1.074 0.324,-0.276 0.796,-0.416 1.42,-0.416 0.653,0 1.257,0.149 1.822,0.448 0.56,0.304 0.958,0.672 1.194,1.102 0.236,0.434 0.349,0.999 0.349,1.69" />
      </g>
    </g>
  </g>
</svg>
