<svg width="726" height="180" viewBox="0 0 726 180" fill="none" xmlns="http://www.w3.org/2000/svg">
<path d="M609.5 4.7998L632.3 16.1998L636.6 11.1998L611.3 1.2998L609.5 4.7998Z" fill="#B0182A"/>
<path d="M636.6 11.2002L643.4 16.2002L674.1 4.6002L670.3 0.700195L636.6 11.2002Z" fill="#EA5B67"/>
<path d="M587 60.7999L594.4 64.0999L610.3 42.8999L605.2 39.3999L587 60.7999Z" fill="#1DBBEE"/>
<path d="M565.5 59.3999L565.3 63.0999L586.6 67.0999L587 60.7999L565.5 59.3999Z" fill="#00758E"/>
<path d="M679.8 37.3999L725.9 58.5999L726 64.5999L650.4 179.1L646.9 180L646.4 179.8L645.4 177.2L675.8 39.6999L679.8 37.3999Z" fill="#78B94D"/>
<path d="M695.3 67.2001L646.9 180L650.4 179.1L726 64.6001L695.3 67.2001Z" fill="#5D9131"/>
<path d="M675.8 39.7001L645.3 177.2L646.4 179.8L686.6 62.4001L675.8 39.6001V39.7001Z" fill="#177D3B"/>
<path d="M693.6 59.0001L695.3 67.2001L726 64.6001L725.9 58.6001L693.6 59.0001Z" fill="#A2C964"/>
<path d="M675.8 39.6999L686.6 62.3999L693.6 58.9999L679.8 37.3999L675.8 39.6999Z" fill="#458C34"/>
<path d="M609.5 4.8002L611.3 1.3002L670.3 0.700195L674.1 4.6002L645.8 99.0002L644 100L642 98.8002L609.5 4.8002Z" fill="#E5233E"/>
<path d="M642 98.7998L644 99.9998L632.3 16.1998L609.5 4.7998L642 98.7998Z" fill="#76191C"/>
<path d="M643.4 16.2001L644 100H644.1L645.8 99.0001L674.1 4.6001L643.4 16.2001Z" fill="#B41731"/>
<path fill-rule="evenodd" clip-rule="evenodd" d="M364.4 171.4C364.5 170.3 364.5 168.6 364.6 166.2V120.9L364.4 116.5C364.4 115.9 364.4 115.2 364.3 114.6C364.3 114.3 364.2 114 364.1 113.7C363.8 112.6 362.9 111.7 361.9 111.3C360.4 110.8 358.9 110.6 357.3 110.6V109.1H383.2C386.6 109.1 390 109.3 393.4 109.8C395.9 110.2 398.4 110.8 400.8 111.8C406.2 114.4 408.9 118.7 408.8 124.8C408.9 133.6 403.1 139.2 391.1 140.6L389.1 140.9C391.8 141.1 394.5 141.6 397.1 142.3C398.8 142.7 400.5 143.3 402.1 144.1C408.4 147.3 411.6 152.4 411.5 159.5C411.5 168.1 407.4 173.6 398.9 176.3C396.6 176.9 394.3 177.3 391.9 177.5C388.9 177.8 385.8 178 382.7 178H357.3V176.5C360.3 176.5 362.3 176 363.3 174.9C363.7 174.6 363.9 174.2 364.1 173.7C364.3 173 364.4 172.2 364.4 171.4ZM372.4 111.2V140H382.5C394.2 139.9 400.3 135 400.4 125.3C400.5 115.8 394.1 111.2 381.6 111.2H372.4ZM402.4 158.8C402.4 152.1 399.9 147.3 395.1 144.7C393.3 143.9 391.5 143.3 389.5 143C387.1 142.6 384.6 142.3 382.1 142.4H372.4V176H382.1C389.1 176 394.3 174.7 397.4 172C399.1 170.6 400.3 168.7 401.1 166.6C402 164.1 402.4 161.4 402.4 158.8Z" fill="#231F20"/>
<path d="M448.5 176.1C448 175.1 447.6 173.9 447.5 170.7V169.7L446.9 170.4C446.2 171.2 445.5 171.9 444.7 172.6C443.9 173.3 443.1 173.9 442.2 174.5C440.4 175.9 438.4 176.9 436.3 177.7C434.2 178.3 432.1 178.6 429.9 178.6C425.8 178.6 422.6 177.6 420.3 175.7C419 174.5 418 173 417.3 171.4C416.6 169.6 416.2 167.7 416.2 165.8C416.3 158.4 420.8 153.6 430.1 151.5C432.7 150.9 435.3 150.4 437.9 150.1C440.6 149.7 443.7 149.4 447.2 149.2L447.5 142.8C447.5 141 447.4 139.2 447.2 137.5C447 136.3 446.7 135 446.1 133.9C444.7 131.3 441.9 129.9 437.9 129.9C431.4 129.9 427.9 133 427.5 139.1C427.5 139.8 427.4 140.5 427.3 141.2C427.2 141.6 427 141.9 426.7 142.1C425.7 142.6 424.6 142.9 423.6 142.8C420.4 142.8 419.2 141.9 419.3 140.3C419.3 138.6 419.9 136.9 421 135.5C422.3 133.8 423.8 132.4 425.7 131.4C429.3 129.4 433.9 128.4 439.5 128.4C445.7 128.4 449.9 129.8 452.1 132.5C453.1 133.7 453.8 135.2 454.1 136.7C454.6 138.8 454.8 141 454.8 143.1V143.7V146.2L454.7 152.8L454.6 161.9L454.5 166.3C454.5 168.4 454.6 170 454.7 171.7C454.9 173.5 455.5 175.4 456.8 175.9C458.6 176.5 460.4 176.8 462.3 176.7C463.8 176.7 465.3 176.5 466.7 176C467.9 175.5 468.7 174.3 468.9 173C469.2 170.8 469.4 168.6 469.3 166.4V140.6C469.4 137.1 468.9 134.6 468 133.4C467.1 132.2 465.2 131.6 462.7 131.6V130.2L476.5 129.2V140.1L477.2 138.8C478.8 135.7 481.2 133 484.1 131.1C487 129.5 490.4 128.7 493.8 128.8C499.7 128.7 503.7 130.7 506.1 134.6C507 136 507.7 137.6 508 139.3C508.4 141.6 508.6 144 508.5 146.4V166.3C508.4 168.5 508.5 170.7 508.9 172.9C509 174.2 509.9 175.4 511.1 175.9C512.8 176.4 514.5 176.6 516.2 176.6C517.6 176.6 519 176.4 520.3 175.9C521.5 175.3 522.3 174.2 522.4 172.9C522.7 170.7 522.9 168.5 522.8 166.3V119.5C522.9 117.5 522.8 115.5 522.5 113.6C522.4 112.4 521.5 111.4 520.4 110.9C519 110.5 517.5 110.3 516 110.4V109L530.3 108.3C530.1 111.5 530 114.7 529.9 118C529.8 121.5 529.8 124.5 529.8 127.1V158.6L545.6 141.3C547.8 138.8 549 136.7 549.1 135.1C549.2 132.8 546.9 131.7 543 131.6V130.2H563V131.6C561.9 131.7 560.8 131.9 559.8 132.3C558.7 132.7 557.7 133.2 556.7 133.7C555.6 134.3 554.8 134.9 554.1 135.4C553.2 136.1 552.3 136.9 551.5 137.8C550.5 138.8 549.1 140.3 547.2 142.3L542 148L555.6 169.4C556.7 171.4 558.2 173.2 559.9 174.8C561.3 175.8 563 176.5 564.7 176.7V178.1H552.3C552 177.4 551.5 176.5 550.9 175.4L548.9 171.8L547.4 169.1L537.3 152.7L529.4 161.6V166.6C529.3 168.8 529.4 171 529.7 173.2C529.8 174.5 530.7 175.6 531.8 176.2C533.2 176.7 534.7 176.9 536.2 176.9V178.3H494.1V176.9C496.9 176.8 498.9 176.4 499.7 175.3C500 174.9 500.2 174.4 500.4 173.9C500.6 173.2 500.7 172.6 500.7 171.9C500.7 171.3 500.8 170.3 500.9 169.1C501 167.9 501 167.1 501 166.6V147.2C501 142.4 500.5 138.9 499.4 136.7C497.8 133.2 494.8 131.4 490.6 131.4C485.9 131.4 482.2 133.6 479.4 138C478.3 139.8 477.5 141.7 477 143.7C476.4 145.7 476.1 147.8 476.1 150V166.7C476 168.9 476.1 171.1 476.5 173.3C476.6 174.6 477.5 175.8 478.7 176.3C480.1 176.8 481.7 177 483.2 177V178.4H462.5C460.7 178.4 457.2 178.5 455.4 178.5C453.7 178.5 452.7 178.3 451 178.1C449.6 177.5 449 177.1 448.5 176.1ZM424 165.5C423.9 168.2 424.7 170.9 426.3 173.1C427.8 175 430 176.1 432.4 176.1C437.6 176 442.3 173.3 445 168.9C445.9 167.2 446.5 165.5 446.7 163.6C447.1 161 447.3 158.3 447.2 155.6V150.6C443.7 150.9 440.3 151.3 436.9 152C434.7 152.4 432.5 153.2 430.5 154.2C426.2 156.4 424 160.2 424 165.5Z" fill="#231F20"/>
<path fill-rule="evenodd" clip-rule="evenodd" d="M18.8 149.1V166.2C18.7 168.3 18.9 170.3 19.3 172.3C19.6 173.5 20.4 174.5 21.6 175C23.4 175.5 25.2 175.8 27 175.7V178.1H0V175.7C1.7 175.7 3.4 175.5 5.1 175C6.2 174.5 7 173.5 7.2 172.3C7.6 170.3 7.8 168.2 7.7 166.2V121.1C7.8 119 7.6 117 7.3 115C7.1 113.8 6.3 112.8 5.2 112.4C3.6 111.8 2 111.6 0.400002 111.6V109.2H26C34.7 109.2 41 110.7 45 113.8C49 116.9 51 121.8 51 128.4C51 137.7 47.4 143.8 40.1 146.7C37.7 147.6 35.3 148.2 32.8 148.5C29.5 148.9 26.2 149.2 22.9 149.1H18.8ZM18.8 146.4H23.2C28.5 146.4 32.5 145.2 35 142.6C36.5 141 37.5 139 38.1 136.9C38.8 134.3 39.2 131.6 39.1 128.8C39.1 117.5 34.1 111.8 24.2 111.8H18.7V146.4H18.8Z" fill="#231F20"/>
<path fill-rule="evenodd" clip-rule="evenodd" d="M94.3999 151.9H63C63 154.7 63.2 157.5 63.6 160.3C63.9 162.4 64.5 164.5 65.3 166.5C67.9 172.5 71.9999 175.6 77.3999 175.6C80.3999 175.6 83.4 174.7 85.8 172.9C88.5 170.9 90.6 168.2 92.1 165.1L94.3 166.5C92.5 170.4 89.8 173.7 86.3 176.1C82.8 178.2 78.8 179.3 74.8 179.1C67.7 179 61.1 176.7 57 172.3C52.9 167.9 50.8 161.7 50.7 153.9C50.8 146.1 52.8 139.9 56.8 135.3C60.8 130.7 67.0999 128.4 73.8999 128.3C78.3999 128.3 82.7999 129.4 85.8999 131.4C89.0999 133.6 91.5 136.7 92.8 140.4C93.3 141.9 93.6999 143.4 93.8999 144.9C94.1999 147.2 94.3999 149.4 94.3999 151.7M63 149.2H82.7C82.6 146.4 82.5 144.1 82.2 142.3C82 140.7 81.7 139.2 81.1 137.7C79.5 132.9 76.9 130.5 73.5 130.5C69.7 130.5 66.7999 133.2 64.8999 138.6C64.3999 140.1 64 141.6 63.7 143.2C63.4 145.2 63.1 147.2 63 149.2Z" fill="#231F20"/>
<path d="M96.4 129.8L113.8 128.6C113.9 130.4 114 131.8 114 133C114 134.2 114.1 135.2 114.1 136.1V138.9C117.9 132 122.4 128.5 127.8 128.4C129.9 128.3 131.9 129.1 133.4 130.4C134.8 131.7 135.6 133.5 135.6 135.4C135.6 137 135 138.5 133.7 139.5C132.3 140.6 130.6 141.1 128.9 141.1C126.5 141.1 125.1 140.2 124.5 138.1C124.3 137.2 123.9 136.3 123.4 135.5C123 135 122.4 134.8 121.8 134.9H121.6C119.8 135.1 118.1 136.5 116.4 139.3C115.6 140.7 115.1 142.3 114.7 143.8C114.3 145.7 114.1 147.6 114.1 149.6V166.7C114 168.7 114.2 170.7 114.5 172.7C114.6 173.9 115.4 174.8 116.5 175.2C118.1 175.7 119.8 175.9 121.4 175.9V178.1H96V175.9C97.6 176 99.2 175.8 100.7 175.3C101.8 174.8 102.5 173.8 102.7 172.7C103.1 170.7 103.2 168.7 103.1 166.7V141C103.2 137.2 102.8 134.7 102 133.6C101.2 132.5 99.3 131.9 96.5 132.1L96.4 129.8Z" fill="#231F20"/>
<path d="M156.3 128.6L156.4 137.8C160.1 131.7 165.5 128.5 172.5 128.5C179.5 128.5 184 131.7 185.6 138.2C187.3 135.2 189.6 132.7 192.5 130.8C195.2 129.2 198.3 128.4 201.5 128.5C207 128.5 211 130.3 213.5 133.9C214.6 135.4 215.3 137 215.7 138.8C216.2 141.3 216.4 143.8 216.3 146.4V166.8C216.2 168.8 216.4 170.8 216.7 172.8C216.9 174 217.6 174.9 218.7 175.4C220.2 175.9 221.8 176.1 223.3 176V178.2H198.3V176C199.8 176.1 201.3 175.9 202.8 175.4C203.8 174.9 204.5 173.9 204.7 172.8C205 170.8 205.2 168.8 205.1 166.8V146.5C205.1 141.6 204.5 138.1 203.3 136C202.1 133.9 199.8 132.6 197.4 132.8C194.1 132.8 191.4 134.4 189.1 137.9C187.2 140.7 186.2 143.9 186.2 147.3V166.9C186.1 168.9 186.3 170.9 186.6 172.9C186.7 174 187.5 175 188.5 175.5C190 176 191.5 176.2 193 176.1V178.3H168.2V176.1C169.7 176.2 171.2 176 172.7 175.5C173.7 175 174.4 174 174.6 172.9C174.9 170.9 175 168.9 175 166.9V146.5C175 137.3 172.5 132.8 167.5 132.9C164.3 133 161.4 134.7 159.6 137.4C157.4 140.5 156.2 144.3 156.3 148.1V166.9C156.2 168.9 156.4 171 156.7 173C156.8 174.1 157.6 175.1 158.6 175.6C160 176.1 161.6 176.2 163.1 176.2V178.4H138V176.2C139.6 176.3 141.2 176.1 142.7 175.6C143.8 175.1 144.5 174.1 144.6 173C145 171 145.1 169 145 166.9V141.2C145.1 137.4 144.8 135 143.9 133.9C143 132.8 141.1 132.3 138.2 132.3V130.1L156.3 128.6Z" fill="#231F20"/>
<path d="M289.1 132.8V163.7C289.1 165.4 289.1 167 289.3 168.7C289.4 169.8 289.6 170.9 290 172C290.3 173 291 173.9 291.8 174.5C292.6 175.1 293.5 175.4 294.5 175.5C296.5 175.5 298.7 174.5 301 172.6L302.3 174.9C298.8 177.9 294.3 179.6 289.6 179.5C284.5 179.4 281 177.7 279.1 174.4C278.7 173.6 278.5 172.7 278.3 171.9C278.1 170.6 277.9 169.4 277.9 168.1C277.8 166.5 277.8 164.4 277.8 161.6V132.7H272.5V130C274.3 130 276 129.5 277.6 128.7C279.1 127.8 280.4 126.6 281.2 125.1C282 123.8 282.7 122.4 283.2 120.9C283.8 119 284.3 117.1 284.6 115.2L289.2 114.7C289.1 115.9 289.1 117.2 289 118.4C288.9 119.6 288.9 121.2 288.9 122.9C288.9 124.6 288.9 127 288.9 129.7H300.1V132.7H289.1V132.8Z" fill="#231F20"/>
<path fill-rule="evenodd" clip-rule="evenodd" d="M272.5 176.1V178.1C269.8 178.3 268.7 178.3 265.9 178.3C263.7 178.4 261.5 178.2 259.4 177.5C258.3 177.2 257.4 176.6 256.6 175.7C256 174.7 255.6 174.7 255.4 171.9C253.3 174.3 250.8 176.2 247.9 177.6C245.3 178.8 242.4 179.5 239.5 179.4C235.1 179.3 231.6 178.1 229.1 175.7C226.6 173.3 225.3 170 225.3 165.8C225.3 157.9 230.2 152.9 240.1 151C245.1 150.1 250.2 149.5 255.3 149.2V143.2C255.4 138.4 254.8 135 253.8 133.2C252.8 131.4 250.9 130.4 248.1 130.5C245.2 130.4 243.1 131.5 241.9 133.7C241.4 134.5 241.1 135.3 240.9 136.2C240.7 137.5 240.5 138.9 240.4 140.2C240.5 141.5 239.9 142.8 239 143.7C237.8 144.5 236.3 144.8 234.8 144.7C230.5 144.7 228.3 143.2 228.3 140.4C228.3 138.7 228.9 137.1 229.8 135.7C230.9 134.1 232.4 132.8 234 131.8C237.9 129.4 242.9 128.3 249.2 128.3C255.5 128.3 260.1 129.5 262.9 132.1C264.2 133.3 265.1 134.9 265.7 136.6C266.3 138.9 266.6 141.2 266.6 143.6L266.5 151.6L266.4 159.6C266.3 162.2 266.3 163.9 266.3 164.6C266.2 167 266.3 169.5 266.6 171.9C266.7 173.1 267.2 174.2 268.1 174.9C269.4 175.9 271 176.2 272.5 176.1ZM255.3 158.5V151.3C248.7 151.8 244 153 241.2 155C238.4 157 237.1 160.1 237.2 164.4C237.1 167.2 237.8 169.9 239.2 172.3C240.4 174.2 242.4 175.3 244.7 175.3C246.6 175.3 248.4 174.7 249.9 173.7C251.5 172.6 252.8 171 253.7 169.2C254.3 167.8 254.8 166.4 255 164.9C255.2 162.8 255.3 160.6 255.3 158.5Z" fill="#231F20"/>
<path fill-rule="evenodd" clip-rule="evenodd" d="M352.2 176.1V178.1C349.5 178.3 348.4 178.3 345.6 178.3C343.4 178.4 341.2 178.2 339.1 177.5C338 177.2 337.1 176.6 336.3 175.7C335.7 174.7 335.3 174.7 335.1 171.9C333 174.3 330.5 176.2 327.6 177.6C325 178.8 322.1 179.5 319.2 179.4C314.7 179.3 311.3 178.1 308.8 175.7C306.3 173.3 305 170 305 165.8C305 157.9 309.9 152.9 319.8 151C324.8 150.1 329.9 149.5 335 149.2V143.2C335 138.4 334.5 135 333.5 133.2C332.5 131.4 330.5 130.4 327.8 130.6C324.9 130.5 322.8 131.6 321.6 133.7C321.1 134.5 320.8 135.4 320.6 136.3C320.3 137.6 320.2 139 320.1 140.3C320.2 141.6 319.6 142.9 318.7 143.8C317.4 144.6 316 144.9 314.5 144.8C310.2 144.8 308 143.4 308 140.5C308 138.8 308.5 137.2 309.5 135.8C310.6 134.2 312.1 132.9 313.7 131.9C317.6 129.5 322.6 128.4 328.9 128.4C335.2 128.4 339.8 129.6 342.6 132.2C343.9 133.4 344.8 135 345.4 136.7C346 139 346.3 141.3 346.2 143.7L346.1 151.7L346 159.8C345.9 162.4 345.9 164.1 345.9 164.8C345.8 167.2 345.9 169.7 346.2 172.1C346.2 173.3 346.8 174.4 347.7 175.2C349 176 350.6 176.3 352.2 176.1ZM334.9 158.6V151.5C328.3 151.9 323.6 153.2 320.8 155.2C318 157.2 316.7 160.3 316.8 164.6C316.7 167.4 317.4 170.1 318.8 172.5C320 174.4 322 175.5 324.3 175.5C326.2 175.5 328 174.9 329.5 173.9C331.1 172.8 332.4 171.2 333.2 169.4C333.9 168 334.3 166.6 334.5 165.1C334.8 162.9 334.9 160.7 334.9 158.6Z" fill="#231F20"/>
<path d="M565.5 59.3999L565.3 63.0999L636.6 146.7L639.1 147.1L639.4 146.9L640.7 144.6L610.3 42.8999L605.2 39.3999L565.5 59.3999Z" fill="#009EBA"/>
<path d="M636.6 146.7L639.1 147.1L586.6 67.1001L565.3 63.1001L636.6 146.7Z" fill="#075975"/>
<path d="M594.4 64.0999L639.4 146.9L640.7 144.6L610.3 42.8999L594.4 64.0999Z" fill="#00758E"/>
</svg>
