<svg width="124" height="83" viewBox="0 0 124 83" fill="none" xmlns="http://www.w3.org/2000/svg">
<path d="M121.267 0H2.61388C1.17027 0 0 1.17027 0 2.61388V80.3861C0 81.8297 1.17027 83 2.61388 83H121.267C122.71 83 123.881 81.8297 123.881 80.3861V2.61388C123.881 1.17027 122.71 0 121.267 0Z" fill="#0056A7"/>
<path fill-rule="evenodd" clip-rule="evenodd" d="M64.7094 59.0478C42.6214 60.2866 3.63002 56.756 3.853 39.6791C4.08838 21.8031 42.2436 15.3489 59.463 15.7454V13.0386L64.4182 15.5967L69.3735 18.1548L64.4182 20.713L59.463 23.2649V20.5581C42.9745 20.5953 8.44278 25.8726 8.30032 40.8807C8.18263 53.3307 42.1507 56.9852 64.7094 59.0478Z" fill="#F58220" stroke="white" stroke-miterlimit="2.61"/>
<path fill-rule="evenodd" clip-rule="evenodd" d="M60.0823 23.3272C82.1703 22.0884 121.162 25.6128 120.939 42.6897C120.703 60.5719 82.5357 67.0199 65.3101 66.6296V69.3302L60.3549 66.7783L55.3997 64.2202L60.3549 61.662L65.3101 59.1039V61.8107C81.8172 61.7735 116.349 56.4962 116.491 41.4881C116.609 29.0443 82.6472 25.396 60.0823 23.3272Z" fill="#F58220" stroke="white" stroke-miterlimit="2.61"/>
<path fill-rule="evenodd" clip-rule="evenodd" d="M20.1059 32.8722H27.7432C28.8562 32.8234 29.9683 32.9873 31.0198 33.3553C31.7277 33.6519 32.3299 34.1548 32.7479 34.7985C33.188 35.5107 33.4297 36.3276 33.4479 37.1646C33.5153 38.3016 33.2014 39.4286 32.5559 40.367C31.9526 41.2731 31.0887 41.975 30.0783 42.38C28.7016 42.8469 27.2508 43.0568 25.7982 42.9994H23.4507L22.3915 48.9085H17.1514L19.2016 37.846H17.9628L20.0811 32.8908L20.1059 32.8722ZM24.0515 39.8033H25.8044C26.5281 39.8388 27.2377 39.5949 27.7865 39.122C28.0219 38.9206 28.208 38.6679 28.3304 38.3833C28.4528 38.0988 28.5083 37.7899 28.4926 37.4805C28.4926 36.5452 27.8732 36.0435 26.8017 36.0435H24.7762L24.0515 39.8033Z" fill="white"/>
<path fill-rule="evenodd" clip-rule="evenodd" d="M50.457 48.8828H44.7089L41.0978 42.7384L39.9148 48.8581H35.3064L37.4371 37.8141H36.0868L38.422 32.8589H46.2265C47.9422 32.8589 49.1996 33.2925 49.9801 34.1596C50.3794 34.6212 50.659 35.174 50.794 35.7692C50.9291 36.3645 50.9154 36.9838 50.7543 37.5725C50.5942 38.4492 50.2524 39.2826 49.7509 40.0192C49.2677 40.7253 47.4281 42.1685 46.1398 42.2924L50.4756 48.8705L50.457 48.8828ZM41.7854 39.3316H43.7489C44.2633 39.3507 44.772 39.2171 45.2106 38.9476C45.4057 38.8157 45.5702 38.6435 45.6931 38.4426C45.816 38.2417 45.8943 38.0169 45.923 37.7831C46.1212 36.7611 45.638 36.2532 44.4612 36.2532H42.349L41.7854 39.3316Z" fill="white"/>
<path fill-rule="evenodd" clip-rule="evenodd" d="M61.4569 32.8716L58.6076 48.8831H53.7329L55.7088 37.7834H54.5072L56.5884 32.8716H61.4569Z" fill="white"/>
<path fill-rule="evenodd" clip-rule="evenodd" d="M62.281 48.8831L67.1557 36.6685H65.7373L68.6732 32.8716H73.9939L75.8459 41.1778L81.5568 32.8716H86.6855L86.6793 48.8831H81.7488L81.7241 39.5921L75.4123 48.9884L73.294 48.8831L70.7359 39.5921L67.2238 48.8831H62.281Z" fill="white"/>
<path fill-rule="evenodd" clip-rule="evenodd" d="M107.646 48.8831H102.127L101.873 46.2631H95.9332L94.5147 48.8831H88.4446L96.2986 36.6685H94.7687L98.7514 32.8716H104.76L107.658 48.8831H107.646ZM101.514 42.8687L100.957 37.034H100.907L97.7728 42.8687H101.514Z" fill="white"/>
</svg>
