<svg width="119" height="59" viewBox="0 0 119 59" fill="none" xmlns="http://www.w3.org/2000/svg">
<path fill-rule="evenodd" clip-rule="evenodd" d="M61.7094 47.0478C39.6214 48.2866 0.630018 44.756 0.853003 27.6791C1.08838 9.80313 39.2436 3.34895 56.463 3.74537V1.03857L61.4182 3.59671L66.3735 6.15484L61.4182 8.71298L56.463 11.2649V8.55813C39.9745 8.59529 5.44278 13.8726 5.30032 28.8807C5.18263 41.3307 39.1507 44.9852 61.7094 47.0478Z" fill="#F58220" stroke="white" stroke-miterlimit="2.61"/>
<path fill-rule="evenodd" clip-rule="evenodd" d="M57.0823 11.3272C79.1703 10.0884 118.162 13.6128 117.939 30.6897C117.703 48.5719 79.5357 55.0199 62.3101 54.6296V57.3302L57.3549 54.7783L52.3997 52.2202L57.3549 49.662L62.3101 47.1039V49.8107C78.8172 49.7735 113.349 44.4962 113.491 29.4881C113.609 17.0443 79.6472 13.396 57.0823 11.3272Z" fill="#F58220" stroke="white" stroke-miterlimit="2.61"/>
<path fill-rule="evenodd" clip-rule="evenodd" d="M17.1059 20.8727H24.7432C25.8562 20.8239 26.9683 20.9878 28.0198 21.3558C28.7277 21.6524 29.3299 22.1553 29.7479 22.799C30.188 23.5112 30.4297 24.3281 30.4479 25.1651C30.5153 26.3021 30.2014 27.429 29.5559 28.3674C28.9526 29.2736 28.0887 29.9755 27.0783 30.3805C25.7016 30.8474 24.2508 31.0573 22.7982 30.9999H20.4507L19.3915 36.909H14.1514L16.2016 25.8465H14.9628L17.0811 20.8913L17.1059 20.8727ZM21.0515 27.8038H22.8044C23.5281 27.8393 24.2377 27.5954 24.7865 27.1224C25.0219 26.9211 25.208 26.6684 25.3304 26.3838C25.4528 26.0993 25.5083 25.7904 25.4926 25.481C25.4926 24.5457 24.8732 24.044 23.8017 24.044H21.7762L21.0515 27.8038Z" fill="white"/>
<path fill-rule="evenodd" clip-rule="evenodd" d="M47.457 36.8828H41.7089L38.0978 30.7384L36.9148 36.8581H32.3064L34.4371 25.8141H33.0868L35.422 20.8589H43.2265C44.9422 20.8589 46.1996 21.2925 46.9801 22.1596C47.3794 22.6212 47.659 23.174 47.794 23.7692C47.9291 24.3645 47.9154 24.9838 47.7543 25.5725C47.5942 26.4492 47.2524 27.2826 46.7509 28.0192C46.2677 28.7253 44.4281 30.1685 43.1398 30.2924L47.4756 36.8705L47.457 36.8828ZM38.7854 27.3316H40.7489C41.2633 27.3507 41.772 27.2171 42.2106 26.9476C42.4057 26.8157 42.5702 26.6435 42.6931 26.4426C42.816 26.2417 42.8943 26.0169 42.923 25.7831C43.1212 24.7611 42.638 24.2532 41.4612 24.2532H39.349L38.7854 27.3316Z" fill="white"/>
<path fill-rule="evenodd" clip-rule="evenodd" d="M58.4569 20.8716L55.6076 36.8831H50.7329L52.7088 25.7834H51.5072L53.5884 20.8716H58.4569Z" fill="white"/>
<path fill-rule="evenodd" clip-rule="evenodd" d="M59.281 36.8831L64.1557 24.6685H62.7373L65.6732 20.8716H70.9939L72.8459 29.1778L78.5568 20.8716H83.6855L83.6793 36.8831H78.7488L78.7241 27.5921L72.4123 36.9884L70.294 36.8831L67.7359 27.5921L64.2238 36.8831H59.281Z" fill="white"/>
<path fill-rule="evenodd" clip-rule="evenodd" d="M104.646 36.8831H99.1272L98.8732 34.2631H92.9332L91.5147 36.8831H85.4446L93.2986 24.6685H91.7687L95.7514 20.8716H101.76L104.658 36.8831H104.646ZM98.514 30.8687L97.9565 25.034H97.907L94.7728 30.8687H98.514Z" fill="white"/>
</svg>
