<svg width="38" height="12" viewBox="0 0 38 12" fill="none" xmlns="http://www.w3.org/2000/svg">
<path fill-rule="evenodd" clip-rule="evenodd" d="M34.8274 0.591435H32.547C31.8463 0.591435 31.3115 0.788901 30.998 1.49237L26.6278 11.452H29.7134C29.7134 11.452 30.2236 10.1068 30.3404 9.81678H34.1144C34.2066 10.1932 34.4709 11.452 34.4709 11.452H37.1999L34.8274 0.591435ZM11.1508 0.591435L8.25574 7.99022L7.95455 6.49072C7.42595 4.75055 5.73564 2.8808 3.87323 1.93667L6.51626 11.4335H9.63257L14.2732 0.591435H11.1508ZM13.6155 11.4335L15.4657 0.572923H18.4222L16.572 11.4335H13.6155ZM27.2671 0.844438L26.8614 3.19551L26.591 3.07827C26.0562 2.85612 25.3555 2.64631 24.3843 2.65865C23.2349 2.65865 22.7002 3.13998 22.7002 3.60278C22.7002 4.11496 23.3271 4.44201 24.3536 4.93568C26.0562 5.7132 26.843 6.65733 26.8307 7.88532C26.7999 10.1438 24.8023 11.6001 21.6983 11.6001C20.3706 11.5878 19.1044 11.3286 18.416 11.0139L18.8217 8.58879L19.2089 8.76774C20.1801 9.17502 20.807 9.33546 21.981 9.33546C22.8293 9.33546 23.7389 9.0084 23.7389 8.27408C23.7512 7.79276 23.364 7.46571 22.2146 6.92885C21.0959 6.40433 19.6207 5.53424 19.633 3.9792C19.6453 1.86879 21.6921 0.400141 24.6179 0.400141C25.755 0.39397 26.6832 0.634631 27.2671 0.844438ZM31.1886 7.58295C31.4283 6.96587 32.3687 4.55926 32.3687 4.55926C32.338 4.59011 32.6085 3.92984 32.756 3.52874L32.9527 4.45436C32.9527 4.45436 33.5181 7.04609 33.6411 7.58295H31.1886Z" fill="#005BAC"/>
<path fill-rule="evenodd" clip-rule="evenodd" d="M5.58811 0.572876H0.83066L0.799927 0.813537C4.48172 1.71447 6.9465 3.88659 7.96068 6.49067L6.91577 1.50467C6.73752 0.813537 6.22735 0.60373 5.58811 0.572876Z" fill="#F6AC1A"/>
</svg>
