<svg xmlns="http://www.w3.org/2000/svg" width="48" height="48" fill="none"><path fill="#0a73b7" d="M1 29.25c1.9-1.5 1.8-2.1 7-2.3s14.9 3.3 16 3.8c.5-.9 11.6-7 14-8.4s6.6-5.3 7.2-8.6l.1-.1A23.78 23.78 0 0 0 .78 29.85Z"/><path fill="#fff" d="M.88 30.15a8 8 0 0 1 7.4-7.3c7.1-.9 6-.4 6-.4s2.6-4.7 6.8-4.9 4.9-.1 5.3-.4a.71.71 0 0 0 .2-1.1c-.1-.1-.1-.2-.2-.2a1.33 1.33 0 0 1 1.7.7 1.27 1.27 0 0 1 .1.6c1.2-.1 4.2-.9 4.2-2.4 0-.46-.6-1.1-.6-1.1s2.4.6 2.4 1.9-1.7 1.9-1.7 1.9a33.93 33.93 0 0 0 5.5.4c1.9-.2 7-2.5 7.3-4.2-.4 3.3-5 7.7-7.4 9.1s-13.5 7.5-14 8.4c-1.1-.5-10.6-4-16-3.8s-5.1 1.3-7 2.8Zm20-10.7a3 3 0 0 0-2.9 2 3.72 3.72 0 0 0-.2 1.8 3.35 3.35 0 0 0 2.5 2.5 3.72 3.72 0 0 0 1.8-.2 2.36 2.36 0 0 0 1.4-1.2 2.79 2.79 0 0 0 .6-1.8 3.14 3.14 0 0 0-3.2-3.1Z"/><path fill="#fff" d="M20.88 21.45a2.35 2.35 0 0 1-.2.8 1.47 1.47 0 0 1-.6.5 2.2 2.2 0 0 1-.8.1 1.61 1.61 0 0 1-.7-.4 1.4 1.4 0 0 1-.3-1.5 1.47 1.47 0 0 1 .5-.6 1.33 1.33 0 0 1 1.9.4 1.45 1.45 0 0 1 .2.7Zm9.5 25.7c-.2-1.8-.2-8.8 8.5-16.2 6.2-5.2 7.8-9.6 8.2-12.2l-.3-1.2a20.46 20.46 0 0 1-3.3 6.6c-2.2 2.9-9.8 8.5-13.4 13.5a28.35 28.35 0 0 0-4 10.4 29.79 29.79 0 0 0 4.3-.9Z"/><path fill="#fff" d="M45.88 28.15a14 14 0 0 0 1.8-4.8 22.86 22.86 0 0 0-.2-2.5c-1 5-5.3 9.4-8.3 13.8a26.52 26.52 0 0 0-4.1 10.5 34.47 34.47 0 0 0 3.2-2c.2-5.1 4.6-10 7.6-15Zm.3-12.5c-.1-.2-.1-.3-.2-.5-2.3 8-14.3 13.7-21 18.7a23.68 23.68 0 0 0-8.4 13 26.61 26.61 0 0 0 4.9 1c1.3-8 4.9-12.3 15.2-19.7 7.4-5.5 9.1-10.3 9.5-12.5Z"/><path fill="#f37721" d="M25 33.85c6.6-5 18.7-10.7 21-18.7-.2-.5-.5-1.1-.7-1.5l-.1.1c-.7 3.3-4.9 7.4-7.1 8.7s-13.5 7.5-14 8.4c-1.1-.5-10.6-4-16-3.8s-5.55.47-7 2.3a2.55 2.55 0 0 0-.3.5 24 24 0 0 0 15.8 16.9 23.25 23.25 0 0 1 8.4-12.9Zm14.2.9c3-4.4 7.4-8.8 8.3-13.8a17 17 0 0 0-.4-2.2c-.4 2.7-2 7-8.2 12.2-8.7 7.3-8.7 14.4-8.5 16.2a27.2 27.2 0 0 0 4.7-1.9 26.52 26.52 0 0 1 4.1-10.5Zm6.7-6.6c-3 5-7.3 9.9-7.5 15a23.87 23.87 0 0 0 9.4-19v-.8a16.6 16.6 0 0 1-1.92 4.8Z"/><path fill="#f37721" d="M30.08 37.55c3.5-4.9 11.2-10.6 13.3-13.5a20.46 20.46 0 0 0 3.3-6.6l-.6-1.8c-.4 2.3-2.1 7.1-9.6 12.5-10.3 7.4-13.9 11.7-15.2 19.7a20.9 20.9 0 0 0 2.5.1 17.7 17.7 0 0 0 2.3-.1c.3-1.3 1.4-6.7 4-10.3Z"/></svg>