<svg xmlns="http://www.w3.org/2000/svg" width="42" height="15" viewBox="0 0 42 15" fill="none">
  <path d="M15.77 9.36143L9.69 2.16143L11.32 0.681427L25.29 6.25143C29.38 4.94143 33.49 3.46143 37.42 2.16143C38.57 1.83143 41.37 1.83143 41.68 2.98143C42.02 4.12143 39.72 5.92143 38.72 6.42143C36.92 6.90143 35.28 7.40143 33.65 8.05143C27.24 10.1814 12.64 14.9414 12.64 14.9414C10.67 15.2714 2.45 14.1214 3.45 13.6314C4.76 13.3014 11.82 10.8514 15.77 9.36143ZM7.4 11.4914L1.15 8.55143L0 9.53143L3.12 13.1414L7.4 11.4914Z" fill="white"/>
</svg>