<svg width="59" height="60" viewBox="0 0 59 60" fill="none" xmlns="http://www.w3.org/2000/svg">
<path d="M48.2042 29.0002V12.3308C48.2044 12.1203 48.1596 11.9119 48.0723 11.7174C47.985 11.5229 47.857 11.3462 47.6956 11.1975L38.5977 2.80283C38.2728 2.50269 37.832 2.33387 37.3723 2.3335H3.69741C3.23752 2.3335 2.79646 2.50207 2.47127 2.80213C2.14607 3.10218 1.96338 3.50915 1.96338 3.9335V54.0668C1.96338 54.4912 2.14607 54.8981 2.47127 55.1982C2.79646 55.4983 3.23752 55.6668 3.69741 55.6668H27.9739M13.5236 23.6668H36.644M13.5236 13.0002H25.0838M13.5236 34.3335H22.1937" stroke="currentColor" stroke-width="4" stroke-linecap="round" stroke-linejoin="round"/>
<path d="M36.644 2.3335V11.4002C36.644 11.8245 36.8267 12.2315 37.1519 12.5315C37.4771 12.8316 37.9182 13.0002 38.3781 13.0002H48.2043M48.1811 37.3335L55.5681 39.0642C56.3369 39.2455 56.8773 39.8908 56.8542 40.6215C56.3571 55.9762 46.7592 58.3335 46.7592 58.3335C46.7592 58.3335 37.1614 55.9762 36.6643 40.6215C36.6553 40.2658 36.7778 39.9179 37.0115 39.6349C37.2452 39.3518 37.5763 39.1506 37.9503 39.0642L45.3373 37.3335C46.2708 37.1148 47.2476 37.1148 48.1811 37.3335Z" stroke="currentColor" stroke-width="4" stroke-linecap="round" stroke-linejoin="round"/>
</svg>
