<svg xmlns="http://www.w3.org/2000/svg" width="79" height="80" viewBox="0 0 79 80" fill="none">
  <path d="M78.4438 0.391013C77.9224 -0.130338 77.0798 -0.130338 76.5584 0.391013L71.6156 5.33384H40.5705L1.54257 44.6832C0.654541 45.5712 0.165192 46.7539 0.165192 48.0099C0.165192 49.266 0.654541 50.4487 1.54257 51.3367L28.8315 78.6256C29.7475 79.5417 30.9489 80.0003 32.1529 80.0003C33.3623 80.0003 34.5717 79.5377 35.4984 78.6123L73.501 39.583V7.21924L78.4438 2.27641C78.9651 1.75506 78.9651 0.912364 78.4438 0.391013ZM70.8342 38.5003L33.5996 76.7402C32.8049 77.5349 31.5116 77.5349 30.7169 76.7402L3.42797 49.4513C2.63327 48.6566 2.63327 47.3633 3.43197 46.5646L41.6826 8.0006H68.9488L62.5046 14.4448C61.4499 13.7461 60.1899 13.3341 58.8338 13.3341C55.1577 13.3341 52.1669 16.3249 52.1669 20.001C52.1669 23.6771 55.1577 26.6679 58.8338 26.6679C62.5099 26.6679 65.5007 23.6771 65.5007 20.001C65.5007 18.645 65.0887 17.3849 64.39 16.3302L70.8342 9.886V38.5003ZM62.8339 20.001C62.8339 22.2064 61.0392 24.0011 58.8338 24.0011C56.6284 24.0011 54.8337 22.2064 54.8337 20.001C54.8337 17.7956 56.6284 16.0009 58.8338 16.0009C59.4498 16.0009 60.0259 16.1529 60.5472 16.4022L57.8911 19.0583C57.3698 19.5797 57.3698 20.4223 57.8911 20.9437C58.1511 21.2037 58.4925 21.3344 58.8338 21.3344C59.1752 21.3344 59.5165 21.2037 59.7765 20.9437L62.4326 18.2876C62.6833 18.809 62.8339 19.385 62.8339 20.001Z" fill="#016FD0"/>
  <path d="M55.8297 41.7097L41.6879 55.8529C41.1666 56.3742 41.1666 57.2169 41.6879 57.7383C41.9479 57.9983 42.2893 58.1289 42.6306 58.1289C42.972 58.1289 43.3133 57.9983 43.5733 57.7383L57.7151 43.5951C58.2365 43.0738 58.2365 42.2311 57.7151 41.7097C57.1938 41.1884 56.3511 41.1897 55.8297 41.7097Z" fill="#016FD0"/>
  <path d="M60.5405 36.9882C60.2992 37.2402 60.1538 37.5869 60.1538 37.9349C60.1538 38.2949 60.2992 38.6402 60.5405 38.8816C60.7925 39.1336 61.1392 39.2683 61.4872 39.2683C61.8339 39.2683 62.1806 39.1336 62.4192 38.8816C62.6726 38.6402 62.8206 38.2949 62.8206 37.9349C62.8206 37.5869 62.6739 37.2402 62.4192 36.9882C61.9259 36.4948 61.0472 36.4948 60.5405 36.9882Z" fill="#016FD0"/>
  <path d="M49.2295 25.6812C49.7508 25.1598 49.7508 24.3171 49.2295 23.7958C48.7081 23.2744 47.8654 23.2744 47.3441 23.7958L33.2009 37.9389C32.6796 38.4603 32.6796 39.303 33.2009 39.8243C33.461 40.0843 33.8023 40.215 34.1436 40.215C34.485 40.215 34.8263 40.0843 35.0863 39.8243L49.2295 25.6812Z" fill="#016FD0"/>
  <path d="M44.516 41.7097C44.776 41.9697 45.1173 42.1004 45.4587 42.1004C45.8 42.1004 46.1414 41.9697 46.4014 41.7097L55.8297 32.2814C56.3511 31.7601 56.3511 30.9174 55.8297 30.396C55.3084 29.8747 54.4657 29.8747 53.9443 30.396L44.516 39.8243C43.9946 40.3457 43.9946 41.1897 44.516 41.7097Z" fill="#016FD0"/>
  <path d="M36.9731 47.3659L35.0877 49.2513C34.5663 49.7726 34.5663 50.6153 35.0877 51.1367C35.3477 51.3967 35.689 51.5273 36.0304 51.5273C36.3717 51.5273 36.7131 51.3967 36.9731 51.1367L38.8585 49.2513C39.3798 48.7299 39.3798 47.8872 38.8585 47.3659C38.3371 46.8445 37.4931 46.8458 36.9731 47.3659Z" fill="#016FD0"/>
  <path d="M22.83 38.3283C23.1713 38.3283 23.5126 38.1976 23.7727 37.9376L37.9145 23.7958C38.4358 23.2745 38.4358 22.4318 37.9145 21.9104C37.3931 21.3891 36.5504 21.3891 36.0291 21.9104L21.8873 36.0522C21.3659 36.5736 21.3659 37.4163 21.8873 37.9376C22.1473 38.1976 22.4886 38.3283 22.83 38.3283Z" fill="#016FD0"/>
  <path d="M41.6866 19.4677C42.0333 19.4677 42.3813 19.3343 42.6333 19.081C42.8746 18.829 43.02 18.4956 43.02 18.1343C43.02 17.7876 42.8746 17.4409 42.6199 17.1876C42.1266 16.6942 41.2466 16.6942 40.7399 17.2009C40.4999 17.4423 40.3532 17.7876 40.3532 18.1343C40.3532 18.481 40.4999 18.829 40.7399 19.081C40.9932 19.3343 41.3399 19.4677 41.6866 19.4677Z" fill="#016FD0"/>
  <path d="M29.4328 41.7084C29.1795 41.9604 29.0462 42.2937 29.0462 42.6551C29.0462 43.0151 29.1795 43.3484 29.4328 43.5871C29.6728 43.8405 30.0182 43.9885 30.3795 43.9885C30.7262 43.9885 31.0729 43.8418 31.3116 43.6018C31.5649 43.3484 31.7129 43.0018 31.7129 42.6551C31.7129 42.3071 31.5662 41.9604 31.3116 41.7084C30.8195 41.215 29.9249 41.215 29.4328 41.7084Z" fill="#016FD0"/>
  <path d="M42.6333 45.4805C42.8746 45.2404 43.02 44.8951 43.02 44.5338C43.02 44.1871 42.8746 43.8404 42.6333 43.5871C42.1266 43.0937 41.2466 43.0937 40.7399 43.5871C40.4999 43.8404 40.3532 44.1871 40.3532 44.5338C40.3532 44.8951 40.4999 45.2284 40.7399 45.4805C40.9932 45.7338 41.3399 45.8671 41.6866 45.8671C42.0333 45.8671 42.3799 45.7351 42.6333 45.4805Z" fill="#016FD0"/>
  <path d="M32.3689 63.5051C33.189 62.2664 33.581 60.7837 33.4543 59.2756C33.3503 58.0169 32.7436 56.8795 31.7476 56.0715C30.7275 55.2461 29.3888 54.8675 28.0968 55.0301L24.3607 55.4968L19.2325 50.3686C20.7179 49.6633 22.5459 49.91 23.774 51.138C24.2953 51.6594 25.138 51.6594 25.6594 51.138C26.1807 50.6167 26.1807 49.774 25.6594 49.2526C23.3833 46.9765 19.8565 46.6952 17.2684 48.4059L16.2297 47.3672C15.7084 46.8459 14.8657 46.8459 14.3443 47.3672C13.823 47.8886 13.823 48.7313 14.3443 49.2526L15.3857 50.294C14.567 51.5314 14.175 53.0154 14.3017 54.5234C14.4057 55.7808 15.0124 56.9195 16.0071 57.7262C17.0271 58.5516 18.3578 58.9316 19.6592 58.7703L23.3953 58.3036L28.5101 63.4184C27.0288 64.0864 25.1634 63.8424 23.982 62.6611C23.4606 62.1397 22.6179 62.1397 22.0966 62.6611C21.5752 63.1811 21.5752 64.0251 22.0966 64.5465C23.354 65.8052 25.0287 66.4998 26.8101 66.4998C28.1381 66.4998 29.4048 66.1118 30.4862 65.3945L31.3156 66.2238C31.5756 66.4838 31.9169 66.6145 32.2583 66.6145C32.5996 66.6145 32.941 66.4838 33.201 66.2238C33.7223 65.7025 33.7223 64.8598 33.201 64.3384L32.3689 63.5051ZM19.3285 56.1248C18.7445 56.1968 18.1431 56.0288 17.6871 55.6555C17.2618 55.3088 17.0018 54.8288 16.9578 54.3008C16.8991 53.5861 17.0511 52.8887 17.3511 52.258L21.0072 55.9142L19.3285 56.1248ZM28.4275 57.6756C29.0048 57.5969 29.6088 57.7716 30.0662 58.1436C30.4929 58.4902 30.7529 58.9703 30.7969 59.4983C30.8556 60.213 30.7035 60.9103 30.4022 61.541L26.7474 57.8862L28.4275 57.6756Z" fill="#016FD0"/>
</svg>