<svg xmlns="http://www.w3.org/2000/svg" width="80" height="80" viewBox="0 0 80 80" fill="none">
  <path d="M63.3 23.4C63.4813 23.8698 63.8003 24.2739 64.2151 24.5594C64.63 24.8449 65.1214 24.9985 65.625 25C65.9332 24.9976 66.2384 24.9383 66.525 24.825C67.1405 24.5848 67.6358 24.1107 67.9028 23.5065C68.1698 22.9022 68.1868 22.2167 67.95 21.6C66.7934 18.6378 65.1732 15.8784 63.15 13.425C62.7155 12.9604 62.1203 12.6789 61.4855 12.6378C60.8507 12.5967 60.2242 12.7991 59.7334 13.2038C59.2427 13.6085 58.9247 14.1851 58.8441 14.816C58.7636 15.447 58.9266 16.085 59.3 16.6C60.9848 18.6406 62.335 20.9359 63.3 23.4ZM55 12.5C55.663 12.5 56.2989 12.2366 56.7678 11.7677C57.2366 11.2989 57.5 10.663 57.5 9.99997C57.489 9.66383 57.4102 9.33337 57.2684 9.02838C57.1267 8.72338 56.9248 8.45013 56.675 8.22497C56.4619 7.99382 56.2028 7.80988 55.9143 7.685C55.6258 7.56013 55.3144 7.4971 55 7.49997C54.337 7.49997 53.7011 7.76336 53.2322 8.2322C52.7634 8.70105 52.5 9.33693 52.5 9.99997C52.5097 10.3607 52.5974 10.7151 52.7571 11.0388C52.9168 11.3625 53.1446 11.6477 53.425 11.875C53.8612 12.2603 54.4183 12.4813 55 12.5ZM22.5 32.5C22.5 35.9611 23.5264 39.3446 25.4493 42.2225C27.3722 45.1003 30.1053 47.3433 33.303 48.6679C36.5007 49.9924 40.0194 50.339 43.4141 49.6637C46.8088 48.9885 49.9269 47.3218 52.3744 44.8743C54.8218 42.4269 56.4885 39.3087 57.1637 35.9141C57.839 32.5194 57.4924 29.0007 56.1679 25.803C54.8434 22.6053 52.6003 19.8722 49.7225 17.9493C46.8446 16.0263 43.4612 15 40 15C35.3587 15 30.9075 16.8437 27.6256 20.1256C24.3437 23.4075 22.5 27.8587 22.5 32.5ZM52.5 32.5C52.5 34.9722 51.7669 37.389 50.3934 39.4446C49.0199 41.5002 47.0676 43.1024 44.7835 44.0485C42.4995 44.9946 39.9861 45.2421 37.5614 44.7598C35.1366 44.2775 32.9093 43.087 31.1612 41.3388C29.413 39.5906 28.2225 37.3634 27.7402 34.9386C27.2579 32.5138 27.5054 30.0005 28.4515 27.7164C29.3976 25.4324 30.9998 23.4801 33.0554 22.1066C35.111 20.7331 37.5277 20 40 20C43.3152 20 46.4946 21.3169 48.8388 23.6611C51.183 26.0053 52.5 29.1848 52.5 32.5Z" fill="#016FD0"/>
  <path d="M76.775 65.725L62.9 51.85C67.4891 46.4476 70.0059 39.5884 70 32.5C70 31.8369 69.7366 31.2011 69.2678 30.7322C68.7989 30.2634 68.163 30 67.5 30C66.837 30 66.2011 30.2634 65.7322 30.7322C65.2634 31.2011 65 31.8369 65 32.5C64.9968 36.565 64.0025 40.5678 62.1032 44.1618C60.2038 47.7557 57.4567 50.8323 54.1 53.125L51.6 54.625C48.0278 56.5079 44.0506 57.492 40.0125 57.492C35.9744 57.492 31.9972 56.5079 28.425 54.625L25.925 53.125C21.0552 49.77 17.5324 44.7974 15.9824 39.0905C14.4324 33.3837 14.9555 27.3121 17.4589 21.9545C19.9623 16.5969 24.2839 12.3002 29.6558 9.82776C35.0277 7.35527 41.1022 6.86711 46.8 8.44998C47.1233 8.5674 47.4673 8.61685 47.8105 8.59524C48.1538 8.57364 48.4889 8.48144 48.7949 8.32442C49.1008 8.1674 49.3711 7.94894 49.5889 7.68268C49.8066 7.41643 49.967 7.10813 50.0601 6.77704C50.1532 6.44596 50.177 6.09923 50.13 5.75853C50.083 5.41783 49.9662 5.09049 49.7869 4.79699C49.6077 4.50349 49.3698 4.25013 49.0881 4.05277C48.8064 3.85541 48.4871 3.71829 48.15 3.64998C41.9772 1.92827 35.4152 2.22846 29.4254 4.5066C23.4355 6.78474 18.3326 10.9211 14.8641 16.3097C11.3956 21.6984 9.74374 28.0561 10.1506 34.4516C10.5575 40.8471 13.0016 46.9443 17.125 51.85L3.225 65.725C2.87242 66.0747 2.63197 66.5214 2.5343 67.0083C2.43662 67.4951 2.48615 68.0001 2.67657 68.4587C2.86699 68.9173 3.18967 69.3088 3.60346 69.5833C4.01726 69.8578 4.50344 70.0029 5 70H13.2L15.125 75.8C15.2589 76.206 15.4947 76.5708 15.8098 76.8597C16.125 77.1486 16.5089 77.3518 16.925 77.45L17.5 77.5C17.829 77.5019 18.1552 77.4388 18.4598 77.3144C18.7644 77.19 19.0414 77.0067 19.275 76.775L34.125 61.925C38.0028 62.7055 41.9972 62.7055 45.875 61.925L60.725 76.775C60.9586 77.0067 61.2356 77.19 61.5402 77.3144C61.8448 77.4388 62.171 77.5019 62.5 77.5H63.075C63.4911 77.4018 63.875 77.1986 64.1901 76.9097C64.5053 76.6208 64.7411 76.256 64.875 75.85L66.8 70H75C75.4966 70.0029 75.9827 69.8578 76.3965 69.5833C76.8103 69.3088 77.133 68.9173 77.3234 68.4587C77.5138 68.0001 77.5634 67.4951 77.4657 67.0083C77.368 66.5214 77.1276 66.0747 76.775 65.725ZM28.475 60.5L18.475 70.5L17.25 66.85C17.1153 66.3452 16.8258 65.8953 16.4223 65.5634C16.0187 65.2316 15.5213 65.0346 15 65H11.025L20.375 55.65L23.15 57.3C24.0679 57.9188 25.0194 58.4863 26 59L28.475 60.5ZM65 65C64.4759 64.9986 63.9646 65.162 63.5384 65.4671C63.1122 65.7721 62.7927 66.2034 62.625 66.7L61.4 70.35L51.4 60.35L53.9 58.875C54.8806 58.3613 55.8321 57.7938 56.75 57.175L59.525 55.525L68.975 65H65Z" fill="#016FD0"/>
</svg>