<svg xmlns="http://www.w3.org/2000/svg" width="81" height="80" viewBox="0 0 81 80" fill="none">
  <path d="M21.4 75H46.6333C48.726 75.0019 50.7985 74.5906 52.7319 73.7898C54.6653 72.989 56.4215 71.8144 57.9 70.3334L73.6 54.6334C74.8686 53.3692 75.5831 51.6528 75.5862 49.8618C75.5893 48.0709 74.8809 46.352 73.6167 45.0834C72.3525 43.8148 70.6361 43.1003 68.8451 43.0972C67.0542 43.0941 65.3353 43.8025 64.0667 45.0667L46.8667 62.2667H43.8333C44.7589 62.2653 45.6729 62.062 46.5119 61.6712C47.3508 61.2804 48.0945 60.7113 48.691 60.0037C49.2876 59.2961 49.7227 58.467 49.966 57.574C50.2093 56.6811 50.2551 55.7458 50.1 54.8334C49.7815 53.311 48.9408 51.9479 47.7233 50.9801C46.5059 50.0122 44.9883 49.5004 43.4333 49.5334H30.9667L27.8667 48C25.2043 46.6792 22.2189 46.1498 19.2647 46.4748C16.3106 46.7998 13.5116 47.9654 11.2 49.8334C9.39645 51.2802 7.94591 53.1186 6.95833 55.2093C5.97075 57.3 5.47205 59.588 5.50002 61.9V62.2667" stroke="#016FD0" stroke-width="3" stroke-miterlimit="10"/>
  <path d="M43.7 62.2667H27.7667" stroke="#016FD0" stroke-width="3" stroke-miterlimit="10"/>
  <path d="M40.5 43.2C51.0487 43.2 59.6 34.6486 59.6 24.1C59.6 13.5514 51.0487 5 40.5 5C29.9514 5 21.4 13.5514 21.4 24.1C21.4 34.6486 29.9514 43.2 40.5 43.2Z" stroke="#016FD0" stroke-width="3" stroke-miterlimit="10"/>
  <path d="M40.5 43.2C44.0162 43.2 46.8667 34.6486 46.8667 24.1C46.8667 13.5514 44.0162 5 40.5 5C36.9838 5 34.1334 13.5514 34.1334 24.1C34.1334 34.6486 36.9838 43.2 40.5 43.2Z" stroke="#016FD0" stroke-width="3" stroke-miterlimit="10"/>
  <path d="M21.4 24.1H59.6" stroke="#016FD0" stroke-width="3" stroke-miterlimit="10"/>
</svg>