<?xml version="1.0" encoding="utf-8"?>
<!-- Generator: Adobe Illustrator 26.3.1, SVG Export Plug-In . SVG Version: 6.00 Build 0)  -->
<svg version="1.1" id="Layer_1" xmlns="http://www.w3.org/2000/svg" xmlns:xlink="http://www.w3.org/1999/xlink" x="0px" y="0px"
	 viewBox="0 0 170 80" style="enable-background:new 0 0 170 80;" xml:space="preserve">
<style type="text/css">
	.st0{fill-rule:evenodd;clip-rule:evenodd;fill:#1E254F;}
	.st1{fill-rule:evenodd;clip-rule:evenodd;fill:#EB1D27;}
	.st2{fill-rule:evenodd;clip-rule:evenodd;fill:#E9EAE9;}
	.st3{fill-rule:evenodd;clip-rule:evenodd;fill:#AA202F;}
	.st4{clip-path:url(#SVGID_00000026856599899448079850000012060642316378904240_);}
	.st5{clip-path:url(#SVGID_00000064324377095402197540000000392604652541078694_);}
	.st6{fill:url(#SVGID_00000106831885428561879080000002469140373814268084_);}
	.st7{clip-path:url(#SVGID_00000166661976843120451850000006678229126321761937_);}
</style>
<g>
	<path class="st0" d="M16.6,66.8l-0.3,2.6c0,0-0.7,0.7-3.5,0.7c-2.1,0-6.8-1.1-7.6-5.7s2.6-8.3,8-8.3c0,0,1.6-0.1,2.9,0.4l-0.3,2.2
		c0,0-1-0.5-3.2-0.5c-2.2,0-6,1.6-5.1,6.4C7.9,66.9,12.4,69.9,16.6,66.8z M155.7,69.8l0.1-2.9c0,0,1.4,2.3,4.1,2.3
		c2.8,0,3.1-2.5,1.1-3.9c-2.4-1.7-4.9-2.7-5.3-5c-0.4-2.3,3.4-5.5,8.7-2.8l-0.6,2.6c0,0-0.9-2-3-2c-2.1,0-3.7,1.9-0.9,3.6
		c2.7,1.7,4.8,2.8,5.2,4.8c0.4,2-1.4,4.3-4.6,4.3C157.4,70.7,155.7,69.8,155.7,69.8z M146.9,69.1c0,0-0.1-2.4-0.2-4.8
		c0.5-0.1,1.1-0.2,1.8-0.2c1.5,0,2.3,0.8,2.3,0.8l1.3-2.3h-5.5c0-1.4-0.1-2.6-0.1-3c0-1.4,0.8-1.5,0.8-1.5h1.6
		c1.9,0,3.2,0.9,3.2,0.9l1.2-2.6h-9.7c0.7,0.5,0.7,1.6,0.7,1.6s0,7.7,0,9.6c0,1.9-0.5,2.5-0.5,2.5h9.5l1-2.8
		c-1.1,1.5-3.7,1.6-3.7,1.6L146.9,69.1z M27.4,56.4c0.5,0.6,0.5,1.7,0.5,1.7s0,1.9,0,4.1h-6.5c0-1.6,0-3.2,0-3.8c0-1.5,0.5-2,0.5-2
		h-3.5C19,57,19,58.1,19,58.1s0.1,6.5,0.1,9.1c0,2.6-0.6,2.8-0.6,2.8h3.3c-0.4-1.4-0.3-2.4-0.3-2.4s0-1.9,0-3.9l6.5,0
		c0,1.4,0,2.7,0,3.5c0,2.6-0.6,2.8-0.6,2.8h3.3c-0.4-1.4-0.3-2.4-0.3-2.4s0-7.7,0-9.2c0-1.5,0.5-2,0.5-2H27.4z M118.8,68.8h-4.3
		c0-2-0.1-9-0.1-10.3c0-1.5,0.5-2,0.5-2h-3.5c0.5,0.6,0.5,1.7,0.5,1.7s0.1,6.5,0.1,9.1c0,2.6-0.6,2.8-0.6,2.8h9.8l1.1-3
		C120.8,68.9,118.8,68.8,118.8,68.8z M108.1,68.5l-4.8-5.2c2-0.5,3.3-1.7,2.8-4.3c-0.5-2.6-4.6-2.6-4.6-2.6h-4.9
		C97,57,97,58.1,97,58.1s0,6.5,0.1,9.1c0,2.6-0.6,2.8-0.6,2.8h3.3c-0.4-1.4-0.3-2.4-0.3-2.4s0-7.7,0-9.2c0,0,0-0.1,0-0.1
		c1.2-0.8,3.6-0.6,3.9,1.4c0.6,3.2-3.1,3.3-3.1,3.3s4.1,4.9,5,6.1c0.9,1.1,1.7,1,1.7,1h3.4C108.8,69.5,108.1,68.5,108.1,68.5z
		 M79.7,65.1l2.3-4.6c0,0,1,2.4,2,4.6H79.7z M87.8,67.6l-5.6-11.5c0,0-5.1,10.1-5.8,11.5S74.9,70,74.9,70h4c-1-1-0.5-2.2-0.5-2.2
		l0.6-1.2h5.6c0.3,0.8,0.6,1.5,0.8,1.9c0.7,1.8,2,1.5,2,1.5h2.5C88.6,69.3,87.8,67.6,87.8,67.6z M58,65.1l2.3-4.6c0,0,1,2.4,2,4.6
		H58z M66.1,67.6l-5.6-11.5c0,0-5.1,10.1-5.8,11.5c-0.6,1.3-1.5,2.4-1.5,2.4h4c-1-1-0.5-2.2-0.5-2.2l0.6-1.2h5.6
		c0.3,0.8,0.6,1.5,0.8,1.9c0.7,1.8,2,1.5,2,1.5h2.5C66.9,69.3,66.1,67.6,66.1,67.6z M132.7,59.6c0,2.7,0,8,0,8s-0.1,1,0.3,2.4h-3.3
		c0,0,0.6-0.2,0.6-2.8c0-2.6-0.1-9.1-0.1-9.1s0-1.2-1.7-1.7h4.2l6.2,7.4l0.1-5.6c0,0,0-1.2-0.4-1.8h3.4c0,0-0.6,0.2-0.6,2.4
		c0,2.1-0.1,11.3-0.1,11.3L132.7,59.6z M42.9,59.6c0,2.7,0,8,0,8s-0.1,1,0.3,2.4H40c0,0,0.6-0.2,0.6-2.8c0-2.6-0.1-9.1-0.1-9.1
		s0-1.2-1.7-1.7H43l6.2,7.4l0.1-5.6c0,0,0-1.2-0.4-1.8h3.3c0,0-0.6,0.2-0.6,2.4c0,2.1-0.1,11.3-0.1,11.3L42.9,59.6z M126.4,70h-3.3
		c0,0,0.6-0.2,0.6-2.8c0-2.6-0.1-9.1-0.1-9.1s0-1.2-0.5-1.7h3.5c0,0-0.5,0.5-0.5,2c0,1.5,0,9.2,0,9.2S126,68.6,126.4,70z M94.3,70
		H91c0,0,0.6-0.2,0.6-2.8c0-2.6-0.1-9.1-0.1-9.1s0-1.2-0.5-1.7h3.5c0,0-0.5,0.5-0.5,2c0,1.5,0,9.2,0,9.2S93.9,68.6,94.3,70z
		 M36.6,70h-3.3c0,0,0.6-0.2,0.6-2.8c0-2.6-0.1-9.1-0.1-9.1s0-1.2-0.5-1.7h3.5c0,0-0.5,0.5-0.5,2c0,1.5,0,9.2,0,9.2
		S36.2,68.6,36.6,70"/>
	<g>
		<path class="st1" d="M65.5,40.3c1.3,0,2.4-2.2,2.4-4.9c0-2.7-1.1-4.9-2.4-4.9c-1.3,0-2.4,2.2-2.4,4.9
			C63.1,38.1,64.2,40.3,65.5,40.3"/>
		<path class="st2" d="M65.1,33.5l0.1-0.2L64.8,33c0,0-0.1,0-0.1,0L64,33.7l0.1,0.1l0.6-0.6L65.1,33.5z"/>
		<path class="st2" d="M65.8,33.5l0.4-0.3l0.8,0.5l0.1-0.2L66.2,33c0,0-0.1,0-0.1,0l-0.4,0.3L65.8,33.5z"/>
		<path class="st2" d="M66.7,33.1l0.1-0.2l-0.7-0.4c0,0-0.1,0-0.1,0l-0.4,0.3l0.1,0.2l0.4-0.3L66.7,33.1z"/>
		<path class="st2" d="M66.3,34.9c0-0.2-0.2-0.4-0.6-0.4c-0.1,0-0.1,0-0.1,0c0,0,0-0.1,0-0.2h1.2v-0.2h-2.4v0.2h1
			c0,0.1,0,0.2,0.1,0.3c0,0.1,0.1,0.1,0.3,0.1c0.2,0,0.3,0.1,0.3,0.2c0,0.1-0.1,0.2-0.3,0.2c-0.6,0.1-0.9,0.1-1.3,0l-0.1,0.2
			c0.4,0.1,0.8,0.1,1.4,0C66.1,35.3,66.3,35.1,66.3,34.9"/>
		<path class="st2" d="M64.5,36.3c-0.2,0-0.3-0.1-0.3-0.1V36l0.7-0.2l-0.1-0.2L64,35.9c0,0-0.1,0.1-0.1,0.1v0.2c0,0,0,0,0,0
			c0,0,0.1,0.2,0.5,0.3c0.3,0.1,0.4,0.2,0.4,0.6c0,0.2,0,0.3,0,0.4c0,0.1,0,0.1,0,0.2l-0.6,0c0-0.2,0-0.2,0-0.2c0,0,0-0.1,0-0.1
			l0.4-0.1L64.6,37l-0.3,0.1c0-0.2-0.1-0.4-0.1-0.4L64,36.7c0,0,0.2,0.3,0,0.6c0,0,0,0,0,0c0,0-0.1,0.6-0.1,1.5h0.2
			c0-0.2,0-0.4,0-0.5c0.1,0.1,0.2,0.1,0.4,0.2l0-0.2c-0.3,0-0.4-0.2-0.4-0.2l0,0c0-0.1,0-0.1,0-0.2l0.6,0c0,0,0,0.1,0,0.1v0.2
			c0,0.4,0,1.2-0.1,1.4l0.2,0.1c0.2-0.2,0.2-0.9,0.2-1.5V38c0-0.2,0-0.3,0-0.4c0-0.1,0-0.2,0-0.4C65,36.8,65,36.4,64.5,36.3"/>
		<path class="st2" d="M65.1,33l0.1-0.2l-0.4-0.3V32c0.1,0,0.2-0.1,0.3-0.2c0.2-0.2,0.2-0.6,0.2-0.6l-0.2,0c0,0,0,0.3-0.1,0.5
			c0,0.1-0.1,0.1-0.2,0.1v-0.6h-0.2v0.6c-0.1,0-0.2-0.1-0.3-0.1c-0.1-0.1-0.2-0.3-0.2-0.4c-0.1,0.1-0.1,0.2-0.2,0.2
			c0,0.1,0.1,0.2,0.2,0.3c0.1,0.1,0.2,0.2,0.4,0.2v0.5L64,33.2l0.1,0.1l0.6-0.6L65.1,33z"/>
		<path class="st2" d="M66.6,37.5c0.1-0.1,0.1-0.2,0.1-0.3c0-0.1-0.2-0.2-0.6-0.2c-0.2,0-0.3,0.1-0.4,0.2c-0.2,0.2-0.2,0.5-0.2,0.6
			l-0.1,1.9l0.2,0l0.1-1.9c0,0,0,0,0,0c0,0,0-0.3,0.1-0.4c0.1-0.1,0.2-0.1,0.3-0.1c0.3,0,0.4,0.1,0.4,0.1c0,0,0,0-0.1,0.1
			c0,0,0,0.1,0,0.1c0,0.1,0,1.5,0.2,2.3c0.1-0.1,0.1-0.1,0.2-0.2C66.6,38.9,66.6,37.9,66.6,37.5"/>
		<path class="st2" d="M66.4,33.7h-0.9v-1.2c0-0.1,0.1-0.2,0.1-0.2c0,0,0.9,0,0.9,0v-0.2h-0.2V32c0.2,0,0.3-0.1,0.4-0.2
			c0.1-0.1,0.2-0.2,0.2-0.4c-0.1-0.1-0.1-0.2-0.2-0.2c0,0.1-0.1,0.3-0.2,0.5c-0.1,0.1-0.2,0.1-0.3,0.1v-0.6h-0.2v0.6
			c-0.1,0-0.1-0.1-0.2-0.1c-0.2-0.2-0.1-0.5-0.1-0.5l-0.2,0c0,0,0,0.4,0.2,0.6c0.1,0.1,0.2,0.2,0.3,0.2v0.1h-0.5
			c-0.1,0-0.3,0.1-0.3,0.4v1.2h-0.6v0.2h1.8V33.7z"/>
		<path class="st2" d="M66.1,35.7h-0.2v0.6l-0.8,0.3l0.1,0.2l0.8-0.3l0.9,0.3l0.1-0.2l-0.8-0.3V35.7z"/>
		<path class="st3" d="M86.2,41.1c-0.2,0.1-0.5,0.2-0.7,0.3h0.8C86.2,41.4,86.1,41.3,86.2,41.1"/>
		<g>
			<defs>
				<rect id="SVGID_1_" x="65.5" y="9.3" width="41.4" height="34.3"/>
			</defs>
			<clipPath id="SVGID_00000078046542920889510970000003861361420354737330_">
				<use xlink:href="#SVGID_1_"  style="overflow:visible;"/>
			</clipPath>
			<g style="clip-path:url(#SVGID_00000078046542920889510970000003861361420354737330_);">
				<g>
					<defs>
						<path id="SVGID_00000021113693884690996300000005300694924521800638_" d="M106.7,22.3c0.2-0.5,0-1-0.7-1.8
							c-0.7-0.8-2-1.3-2-1.3c0-0.3-1.6-0.7-1.6-0.7c0-0.5-0.5-0.5-0.8-0.5c-0.3,0-0.1-0.3-0.9-0.2c-0.9,0.1-1.6-0.1-1.6-0.1
							s-1,0.3-1.6-0.3c-0.6-0.6-0.8,0-1.6-0.1c-0.7,0-1.5,0.3-1.5,0.3c0-1.2-0.6-1.6-0.4-3c0.2-1.4,0.5-2.1-0.3-3.2
							c-0.8-1.1-2.1-0.6-2.1-0.6c-0.9-1.1-2-0.6-2-0.6s-0.6-1-1.2-0.9c-0.5,0-1.6,0-1.6,0l-0.7,0.5c-0.3-0.4-1.5-0.2-1.5-0.2
							c-0.3-0.6-0.8-0.1-1.4-0.1c-0.6,0-1.1,0.6-1.5,1c-0.4,0.4-0.8,0.6-1.2,0.4c-0.4-0.2-1.2,0.5-1.2,0.5s0,0.1-0.8,1.2
							c-0.8,1-0.3,1.8-0.7,2.3c-0.5,0.5-0.9,1.8-0.9,2.5c0,0.7,0,1.2-0.5,1.9c-0.6,0.7-0.4,1.7-0.4,1.7c-0.8-0.8-1.7-0.6-1.7-0.6
							s-0.1,0.2-1-0.5c-0.9-0.6-1.3-0.5-1.7-0.5s-0.7,0.5-1.4,0c-0.6-0.4-0.7,0.1-1.1,0.1c-0.4,0-0.4,0.3-1.3,1.2
							c-0.9,0.9-0.5,1.1-0.9,1.5c-0.4,0.4,0.2,0.7-0.6,1.2c-0.8,0.5-0.1,1.4-0.1,2.6c0,1.2,1.4,2.3,1.4,2.3
							c-0.1,0.9,0.9,1.3,0.9,1.3c-0.3,0.7,0.9,1.2,1.8,1.7c0.9,0.4,1.7,1.1,2.7,1.7c0.5,0.3,0.7,0.6,0.7,0.9c0.1,0,0.1,0,0.2,0
							c0.2-0.1,0.7,0.1,0.6,0.3c-0.1,0.2,0.1,0.1,0.3,0.3c0.2,0.2,0.2,0.1,0.2,0.4c0,0.3,0,0.5,0.5,0.5c0,0,0.3-0.1,0.5,0.1
							c0.2,0.1,0.2,0.2,0,0.3c-0.2,0.2-0.5,0.4-0.4,0.7c0.1,0.3,0.2,0.6,0,0.9c-0.2,0.3,0.2,1.2-0.6,1.2c-0.4,0-0.6-0.1-0.7-0.2
							c0.2,1.4,1,1.4,1.2,1.8c0.3,0.5,0.6,0.6,1,0.6c0.4,0,0.5,0,0.6,0.4c0.2,0.3,1.1,1,1.8,1c0.6,0,0.8,0,1.1,0.3
							c0.3,0.2,1.2,0,2,0c0.8,0,0.9-0.4,1.4-0.5c0.5-0.1,1.8,0,2.2-0.3c0.2-0.1,0.5-0.3,0.7-0.4c0-0.1,0.1-0.2,0.2-0.3
							c0,0,0.4-0.2,0.6-0.2c0,0,0.1-0.5,0.6-0.6c0.5-0.1,0.4-0.3,0.4-0.6c0-0.3,0.2-0.4,0.5-0.1c0.3,0.3,0.5,0.4,0.9,0.4
							s0.3-0.4,0.6-0.3c0.2,0.1,0.3,0,0.5,0.3c0.2,0.3,0.2,0.6,0.5,0.7c0.1,0.1,0.1,0.1,0.2,0.2c0.3,0,0.6,0.1,0.8,0.2
							c1,0.3,1.1,0.3,1.8,0.3c0.7,0,1.7-0.1,2.1-0.4c0.4-0.2,1.2-0.3,2.5-0.7c1.3-0.4,1.2-2,1.2-2c0.6-0.2,0.9-0.6,1-1
							c-0.1,0-0.2-0.1-0.2-0.2c-0.3-0.5-0.9-0.9-0.1-1.5c0,0-0.4-0.3-0.5-0.5c-0.1-0.2-0.7,0-0.1-0.7s0.1-0.7,0.1-1
							c-0.1-0.3-0.5-0.6,0.1-1c-0.2-0.2-0.5-0.2-0.9-0.4c-0.7-0.2,0-0.4,0.3-0.5c0.3-0.2,0.9-0.3,1.8-0.5c0.9-0.1,1.1-0.7,1.3-1
							s0.6-0.7,1.2-1.5c0.6-0.8,1-1,1.9-1.9c0.9-1,0.3-1.1,0.7-1.5c0.4-0.5-0.1-0.8,0.4-1.5C107.1,22.7,106.7,22.3,106.7,22.3"/>
					</defs>
					<clipPath id="SVGID_00000098911891639726807160000015827622454259132095_">
						<use xlink:href="#SVGID_00000021113693884690996300000005300694924521800638_"  style="overflow:visible;"/>
					</clipPath>
					<g style="clip-path:url(#SVGID_00000098911891639726807160000015827622454259132095_);">
						
							<radialGradient id="SVGID_00000018230195263049732670000018227729892192282269_" cx="86.3756" cy="57.0799" r="18.642" gradientTransform="matrix(1 0 0 -1 0 82.91)" gradientUnits="userSpaceOnUse">
							<stop  offset="0" style="stop-color:#FFFFFF"/>
							<stop  offset="3.906250e-03" style="stop-color:#FFFEFE"/>
							<stop  offset="7.812500e-03" style="stop-color:#FFFDFE"/>
							<stop  offset="1.171880e-02" style="stop-color:#FFFCFE"/>
							<stop  offset="1.562500e-02" style="stop-color:#FFFBFD"/>
							<stop  offset="1.953120e-02" style="stop-color:#FFFAFD"/>
							<stop  offset="2.343750e-02" style="stop-color:#FFF9FC"/>
							<stop  offset="2.734380e-02" style="stop-color:#FEF8FB"/>
							<stop  offset="3.125000e-02" style="stop-color:#FEF6FA"/>
							<stop  offset="3.515620e-02" style="stop-color:#FEF5F9"/>
							<stop  offset="3.906250e-02" style="stop-color:#FEF3F8"/>
							<stop  offset="4.296880e-02" style="stop-color:#FEF2F7"/>
							<stop  offset="4.687500e-02" style="stop-color:#FEF1F6"/>
							<stop  offset="5.078120e-02" style="stop-color:#FEEFF5"/>
							<stop  offset="5.468750e-02" style="stop-color:#FEEEF4"/>
							<stop  offset="5.859380e-02" style="stop-color:#FEEDF3"/>
							<stop  offset="6.250000e-02" style="stop-color:#FEEBF2"/>
							<stop  offset="6.640620e-02" style="stop-color:#FDEAF1"/>
							<stop  offset="7.031250e-02" style="stop-color:#FDE8F0"/>
							<stop  offset="7.421880e-02" style="stop-color:#FDE7EF"/>
							<stop  offset="7.812500e-02" style="stop-color:#FDE6EE"/>
							<stop  offset="8.203121e-02" style="stop-color:#FDE4ED"/>
							<stop  offset="8.593750e-02" style="stop-color:#FDE3EC"/>
							<stop  offset="8.984379e-02" style="stop-color:#FDE1EB"/>
							<stop  offset="9.375000e-02" style="stop-color:#FDE0EA"/>
							<stop  offset="9.765621e-02" style="stop-color:#FDDEE9"/>
							<stop  offset="0.1016" style="stop-color:#FCDDE8"/>
							<stop  offset="0.1055" style="stop-color:#FCDCE7"/>
							<stop  offset="0.1094" style="stop-color:#FCDBE6"/>
							<stop  offset="0.1133" style="stop-color:#FCD9E5"/>
							<stop  offset="0.1172" style="stop-color:#FCD8E5"/>
							<stop  offset="0.1211" style="stop-color:#FCD7E4"/>
							<stop  offset="0.125" style="stop-color:#FCD6E3"/>
							<stop  offset="0.1289" style="stop-color:#FCD4E2"/>
							<stop  offset="0.1328" style="stop-color:#FBD3E1"/>
							<stop  offset="0.1367" style="stop-color:#FBD2E0"/>
							<stop  offset="0.1406" style="stop-color:#FBD1DF"/>
							<stop  offset="0.1445" style="stop-color:#FBCFDE"/>
							<stop  offset="0.1484" style="stop-color:#FBCEDD"/>
							<stop  offset="0.1523" style="stop-color:#FBCCDC"/>
							<stop  offset="0.1562" style="stop-color:#FBCBDB"/>
							<stop  offset="0.1602" style="stop-color:#FBCADA"/>
							<stop  offset="0.1641" style="stop-color:#FBC8D9"/>
							<stop  offset="0.168" style="stop-color:#FBC7D9"/>
							<stop  offset="0.1719" style="stop-color:#FBC6D8"/>
							<stop  offset="0.1758" style="stop-color:#FBC5D7"/>
							<stop  offset="0.1797" style="stop-color:#FBC4D6"/>
							<stop  offset="0.1836" style="stop-color:#FBC2D5"/>
							<stop  offset="0.1875" style="stop-color:#FAC1D4"/>
							<stop  offset="0.1914" style="stop-color:#FAC0D3"/>
							<stop  offset="0.1953" style="stop-color:#FABED2"/>
							<stop  offset="0.1992" style="stop-color:#FABDD1"/>
							<stop  offset="0.2031" style="stop-color:#FABBD0"/>
							<stop  offset="0.207" style="stop-color:#FABACF"/>
							<stop  offset="0.2109" style="stop-color:#FAB9CE"/>
							<stop  offset="0.2148" style="stop-color:#FAB8CD"/>
							<stop  offset="0.2188" style="stop-color:#FAB6CC"/>
							<stop  offset="0.2227" style="stop-color:#FAB5CB"/>
							<stop  offset="0.2266" style="stop-color:#F9B4CA"/>
							<stop  offset="0.2305" style="stop-color:#F9B2C9"/>
							<stop  offset="0.2344" style="stop-color:#F9B1C7"/>
							<stop  offset="0.2383" style="stop-color:#F9AFC6"/>
							<stop  offset="0.2422" style="stop-color:#F9AEC5"/>
							<stop  offset="0.2461" style="stop-color:#F8ADC4"/>
							<stop  offset="0.25" style="stop-color:#F8ACC3"/>
							<stop  offset="0.2539" style="stop-color:#F8AAC2"/>
							<stop  offset="0.2578" style="stop-color:#F8A9C1"/>
							<stop  offset="0.2617" style="stop-color:#F8A8C0"/>
							<stop  offset="0.2656" style="stop-color:#F8A7C0"/>
							<stop  offset="0.2695" style="stop-color:#F8A6BF"/>
							<stop  offset="0.2734" style="stop-color:#F8A4BE"/>
							<stop  offset="0.2773" style="stop-color:#F8A3BD"/>
							<stop  offset="0.2812" style="stop-color:#F8A2BC"/>
							<stop  offset="0.2852" style="stop-color:#F8A1BB"/>
							<stop  offset="0.2891" style="stop-color:#F8A0BB"/>
							<stop  offset="0.293" style="stop-color:#F89EBA"/>
							<stop  offset="0.2969" style="stop-color:#F89DB9"/>
							<stop  offset="0.3008" style="stop-color:#F89CB9"/>
							<stop  offset="0.3047" style="stop-color:#F79BB8"/>
							<stop  offset="0.3086" style="stop-color:#F79AB7"/>
							<stop  offset="0.3125" style="stop-color:#F798B6"/>
							<stop  offset="0.3164" style="stop-color:#F797B5"/>
							<stop  offset="0.3203" style="stop-color:#F796B4"/>
							<stop  offset="0.3242" style="stop-color:#F795B3"/>
							<stop  offset="0.3281" style="stop-color:#F794B2"/>
							<stop  offset="0.332" style="stop-color:#F792B1"/>
							<stop  offset="0.3359" style="stop-color:#F791B0"/>
							<stop  offset="0.3398" style="stop-color:#F690AF"/>
							<stop  offset="0.3438" style="stop-color:#F68FAE"/>
							<stop  offset="0.3477" style="stop-color:#F68EAD"/>
							<stop  offset="0.3516" style="stop-color:#F68CAD"/>
							<stop  offset="0.3555" style="stop-color:#F68BAC"/>
							<stop  offset="0.3594" style="stop-color:#F58AAB"/>
							<stop  offset="0.3633" style="stop-color:#F589AA"/>
							<stop  offset="0.3672" style="stop-color:#F588A9"/>
							<stop  offset="0.3711" style="stop-color:#F587A9"/>
							<stop  offset="0.375" style="stop-color:#F585A8"/>
							<stop  offset="0.3789" style="stop-color:#F584A7"/>
							<stop  offset="0.3828" style="stop-color:#F583A6"/>
							<stop  offset="0.3867" style="stop-color:#F582A6"/>
							<stop  offset="0.3906" style="stop-color:#F581A5"/>
							<stop  offset="0.3945" style="stop-color:#F580A4"/>
							<stop  offset="0.3984" style="stop-color:#F57EA3"/>
							<stop  offset="0.4023" style="stop-color:#F57DA2"/>
							<stop  offset="0.4062" style="stop-color:#F57CA1"/>
							<stop  offset="0.4102" style="stop-color:#F57BA0"/>
							<stop  offset="0.4141" style="stop-color:#F57A9F"/>
							<stop  offset="0.418" style="stop-color:#F5799F"/>
							<stop  offset="0.4219" style="stop-color:#F5789E"/>
							<stop  offset="0.4258" style="stop-color:#F5779D"/>
							<stop  offset="0.4297" style="stop-color:#F5769C"/>
							<stop  offset="0.4336" style="stop-color:#F5759B"/>
							<stop  offset="0.4375" style="stop-color:#F5749B"/>
							<stop  offset="0.4414" style="stop-color:#F4739A"/>
							<stop  offset="0.4453" style="stop-color:#F47199"/>
							<stop  offset="0.4492" style="stop-color:#F47198"/>
							<stop  offset="0.4531" style="stop-color:#F47098"/>
							<stop  offset="0.457" style="stop-color:#F46F97"/>
							<stop  offset="0.4609" style="stop-color:#F46E96"/>
							<stop  offset="0.4648" style="stop-color:#F46C95"/>
							<stop  offset="0.4688" style="stop-color:#F36B94"/>
							<stop  offset="0.4727" style="stop-color:#F36A93"/>
							<stop  offset="0.4766" style="stop-color:#F36993"/>
							<stop  offset="0.4805" style="stop-color:#F36892"/>
							<stop  offset="0.4844" style="stop-color:#F26791"/>
							<stop  offset="0.4883" style="stop-color:#F26690"/>
							<stop  offset="0.4922" style="stop-color:#F2658F"/>
							<stop  offset="0.4961" style="stop-color:#F2648E"/>
							<stop  offset="0.5" style="stop-color:#F2638E"/>
							<stop  offset="0.5039" style="stop-color:#F2628D"/>
							<stop  offset="0.5078" style="stop-color:#F2618C"/>
							<stop  offset="0.5117" style="stop-color:#F2608B"/>
							<stop  offset="0.5156" style="stop-color:#F25F8A"/>
							<stop  offset="0.5195" style="stop-color:#F25D8A"/>
							<stop  offset="0.5234" style="stop-color:#F25C89"/>
							<stop  offset="0.5273" style="stop-color:#F25B88"/>
							<stop  offset="0.5312" style="stop-color:#F15B87"/>
							<stop  offset="0.5352" style="stop-color:#F15A87"/>
							<stop  offset="0.5391" style="stop-color:#F15986"/>
							<stop  offset="0.543" style="stop-color:#F15885"/>
							<stop  offset="0.5469" style="stop-color:#F15785"/>
							<stop  offset="0.5508" style="stop-color:#F15684"/>
							<stop  offset="0.5547" style="stop-color:#F15583"/>
							<stop  offset="0.5586" style="stop-color:#F15482"/>
							<stop  offset="0.5625" style="stop-color:#F05382"/>
							<stop  offset="0.5664" style="stop-color:#F05381"/>
							<stop  offset="0.5703" style="stop-color:#F05280"/>
							<stop  offset="0.5742" style="stop-color:#F05180"/>
							<stop  offset="0.5781" style="stop-color:#F0507F"/>
							<stop  offset="0.582" style="stop-color:#F0507E"/>
							<stop  offset="0.5859" style="stop-color:#F04F7E"/>
							<stop  offset="0.5898" style="stop-color:#F04F7D"/>
							<stop  offset="0.5938" style="stop-color:#F04E7C"/>
							<stop  offset="0.5977" style="stop-color:#EF4D7C"/>
							<stop  offset="0.6016" style="stop-color:#EF4D7B"/>
							<stop  offset="0.6055" style="stop-color:#EF4C7A"/>
							<stop  offset="0.6094" style="stop-color:#EF4B7A"/>
							<stop  offset="0.6133" style="stop-color:#EF4B79"/>
							<stop  offset="0.6172" style="stop-color:#EF4A78"/>
							<stop  offset="0.6211" style="stop-color:#EF4978"/>
							<stop  offset="0.625" style="stop-color:#EF4877"/>
							<stop  offset="0.6289" style="stop-color:#EF4776"/>
							<stop  offset="0.6328" style="stop-color:#EF4776"/>
							<stop  offset="0.6367" style="stop-color:#EF4675"/>
							<stop  offset="0.6406" style="stop-color:#EF4575"/>
							<stop  offset="0.6445" style="stop-color:#EF4574"/>
							<stop  offset="0.6484" style="stop-color:#EF4473"/>
							<stop  offset="0.6523" style="stop-color:#EF4373"/>
							<stop  offset="0.6562" style="stop-color:#EF4372"/>
							<stop  offset="0.6602" style="stop-color:#EF4272"/>
							<stop  offset="0.6641" style="stop-color:#EF4171"/>
							<stop  offset="0.668" style="stop-color:#EF4171"/>
							<stop  offset="0.6719" style="stop-color:#EF4070"/>
							<stop  offset="0.6758" style="stop-color:#EF406F"/>
							<stop  offset="0.6797" style="stop-color:#EF3F6E"/>
							<stop  offset="0.6836" style="stop-color:#EF3E6E"/>
							<stop  offset="0.6875" style="stop-color:#EE3E6D"/>
							<stop  offset="0.6914" style="stop-color:#EE3D6D"/>
							<stop  offset="0.6953" style="stop-color:#EE3C6C"/>
							<stop  offset="0.6992" style="stop-color:#EE3C6C"/>
							<stop  offset="0.7031" style="stop-color:#EE3C6B"/>
							<stop  offset="0.707" style="stop-color:#EE3B6B"/>
							<stop  offset="0.7109" style="stop-color:#EE3B6A"/>
							<stop  offset="0.7148" style="stop-color:#EE3A6A"/>
							<stop  offset="0.7188" style="stop-color:#EE3A69"/>
							<stop  offset="0.7227" style="stop-color:#EE3968"/>
							<stop  offset="0.7266" style="stop-color:#EE3868"/>
							<stop  offset="0.7305" style="stop-color:#ED3867"/>
							<stop  offset="0.7344" style="stop-color:#ED3867"/>
							<stop  offset="0.7383" style="stop-color:#ED3766"/>
							<stop  offset="0.7422" style="stop-color:#ED3766"/>
							<stop  offset="0.7461" style="stop-color:#ED3665"/>
							<stop  offset="0.75" style="stop-color:#ED3665"/>
							<stop  offset="0.7539" style="stop-color:#ED3564"/>
							<stop  offset="0.7578" style="stop-color:#ED3464"/>
							<stop  offset="0.7617" style="stop-color:#ED3463"/>
							<stop  offset="0.7656" style="stop-color:#ED3363"/>
							<stop  offset="0.7695" style="stop-color:#ED3362"/>
							<stop  offset="0.7734" style="stop-color:#ED3362"/>
							<stop  offset="0.7773" style="stop-color:#ED3261"/>
							<stop  offset="0.7812" style="stop-color:#ED3261"/>
							<stop  offset="0.7852" style="stop-color:#ED3260"/>
							<stop  offset="0.7891" style="stop-color:#ED3160"/>
							<stop  offset="0.793" style="stop-color:#ED315F"/>
							<stop  offset="0.7969" style="stop-color:#ED305F"/>
							<stop  offset="0.8008" style="stop-color:#ED305E"/>
							<stop  offset="0.8047" style="stop-color:#ED305E"/>
							<stop  offset="0.8086" style="stop-color:#ED2F5D"/>
							<stop  offset="0.8125" style="stop-color:#ED2F5D"/>
							<stop  offset="0.8164" style="stop-color:#EC2F5D"/>
							<stop  offset="0.8203" style="stop-color:#EC2E5C"/>
							<stop  offset="0.8242" style="stop-color:#EC2E5C"/>
							<stop  offset="0.8281" style="stop-color:#EC2D5B"/>
							<stop  offset="0.832" style="stop-color:#EC2D5B"/>
							<stop  offset="0.8359" style="stop-color:#EC2D5A"/>
							<stop  offset="0.8398" style="stop-color:#EC2C5A"/>
							<stop  offset="0.8438" style="stop-color:#EC2C5A"/>
							<stop  offset="0.8477" style="stop-color:#EC2C59"/>
							<stop  offset="0.8516" style="stop-color:#EC2B59"/>
							<stop  offset="0.8555" style="stop-color:#EC2B58"/>
							<stop  offset="0.8594" style="stop-color:#EC2B58"/>
							<stop  offset="0.8633" style="stop-color:#EC2A58"/>
							<stop  offset="0.8672" style="stop-color:#EC2A57"/>
							<stop  offset="0.8711" style="stop-color:#EC2A57"/>
							<stop  offset="0.875" style="stop-color:#EC2A56"/>
							<stop  offset="0.8828" style="stop-color:#EC2956"/>
							<stop  offset="0.8867" style="stop-color:#EB2956"/>
							<stop  offset="0.8906" style="stop-color:#EB2855"/>
							<stop  offset="0.8945" style="stop-color:#EB2855"/>
							<stop  offset="0.8984" style="stop-color:#EB2855"/>
							<stop  offset="0.9023" style="stop-color:#EB2854"/>
							<stop  offset="0.9062" style="stop-color:#EB2854"/>
							<stop  offset="0.9102" style="stop-color:#EB2753"/>
							<stop  offset="0.918" style="stop-color:#EB2653"/>
							<stop  offset="0.9258" style="stop-color:#EB2652"/>
							<stop  offset="0.9336" style="stop-color:#EB2652"/>
							<stop  offset="0.9414" style="stop-color:#EB2652"/>
							<stop  offset="0.9453" style="stop-color:#EB2651"/>
							<stop  offset="0.9492" style="stop-color:#EB2651"/>
							<stop  offset="0.9531" style="stop-color:#EB2651"/>
							<stop  offset="0.957" style="stop-color:#EB2550"/>
							<stop  offset="0.9648" style="stop-color:#EB2550"/>
							<stop  offset="0.9727" style="stop-color:#EB2550"/>
							<stop  offset="0.9844" style="stop-color:#EB244F"/>
							<stop  offset="1" style="stop-color:#EB244F"/>
						</radialGradient>
						<path style="fill:url(#SVGID_00000018230195263049732670000018227729892192282269_);" d="M65.5,9.3v33.3h41.6V9.3H65.5z"/>
					</g>
				</g>
			</g>
		</g>
		<g>
			<path class="st3" d="M80.2,26.8c0,0-0.7-0.1-0.9,0c-0.2,0.1-0.6,0.2-0.9,0.7c-0.2,0.5-0.4,0.7-1,0.7s-1.2-0.7-1.2-1.7
				c0-1,0.8-1.7,1.4-1.5C78.2,25.3,78.3,26.4,80.2,26.8"/>
			<path class="st3" d="M79,29.6c0,0,1.1-0.3,1.2,0.3c0.1,0.6,0,0.7-0.1,1.3c-0.1,0.5-0.2,1.2-0.7,1.5c-0.6,0.3-0.6-0.1-1.2-0.5
				c-0.5-0.4-1.1-0.8-1.1-0.8s0.2-0.4,0.4-0.6S78.6,29.8,79,29.6"/>
			<path class="st3" d="M82.3,29c0,0-0.7,0.3-0.8,0.5s-0.5,0.3-0.6,0.4c-0.1,0.1-0.2,0.3-0.5,0.1c-0.2-0.3-0.1-0.3,0.1-0.3
				c0,0,0.2-0.3,0.4-0.3S81.5,29,82.3,29"/>
			<path class="st3" d="M84.3,32c0,0-0.3,0.6,0,0.8c0.3,0.2,0.7,0.4,0.5,1.2c-0.3,0.8-0.9,1.4-1.5,1c-0.5-0.4-0.8-1.4-0.6-1.7
				C82.9,33,83.9,32.8,84.3,32"/>
			<path class="st3" d="M83.3,31.1c0,0,0.7,0,0.1,0.3c-0.5,0.3-0.9,0.2-1.3-0.4c-0.4-0.6-0.4-1,0.5-1.7c0.9-0.7,0.6-1.1,1.2-1.1
				c0.6,0,0.3-0.4,0.3-0.4s-2.7-0.5-3.2-0.5c-0.4,0-0.4-0.2,0.5-0.2c0.9,0,2.5,0,2.5,0l0.4-0.4c0,0-0.8-0.6-1-0.9s-0.4-0.5-0.6-0.6
				c-0.2-0.1-0.5-0.6,0-0.4c0.4,0.2,0.6,0.2,0.7,0.5c0,0.3,0.8,0.7,0.9,0.9c0,0,0.3-0.1,0.4,0.4c0,0,0.8-0.1,1.5,0.1
				c0,0,0.1-0.8,0-1.2C86,25,86,24.7,86.1,24.3c0.1-0.3,0.1-0.6,0.2,0c0.1,0.6,0.4,0.9,0.3,1.6c0,0,0.7-1.4,1.4-1.9
				c0.7-0.5,0.2,0.2-0.3,0.5c0,0-0.3,0.7-0.6,1c-0.2,0.3-0.1,1-0.7,1.2c0,0,1.1,0.2,1.4,0.7c0.3,0.5,0,0.7-0.3,0.5
				c-0.2-0.2-0.6-0.7-1-0.7s-0.5,0-1.1-0.1c-0.6-0.1-1,0-1,0.2c0,0.2-0.3,0.4,0.1,0.4c0.4,0,0.2,0.1,0.3,0.3
				c0.1,0.2,0.2,0.4-0.1,0.5c-0.3,0.1-0.5,0.4-0.8,0.3L84,29.1c0,0,0.3,0.2,0.3,0.5c0,0.2,0,0.5,0.1,0.7s-0.1,0.5-0.4,0.2
				c-0.3-0.3-0.4-0.7-0.2-1.3c0.1-0.6-0.1-0.5-0.3-0.3s-0.6,0.4-0.8,0.6C82.5,29.7,82.1,31.1,83.3,31.1"/>
			<path class="st3" d="M83.5,23.9c0,0-0.4-0.5,0.3-0.1c0.7,0.4,1.7,2,1.8,2.3s-0.1,0.3-0.3,0c-0.3-0.3-0.5-0.3-0.6-0.8
				C84.5,24.8,83.5,23.9,83.5,23.9"/>
			<path class="st3" d="M86.6,28.3c0,0,0.3,0,0,0.2c-0.3,0.1-0.8,0.2-1.1,0.1c-0.3-0.2-0.2-0.5,0.2-0.4C86,28.4,86.2,28.5,86.6,28.3
				"/>
			<path class="st3" d="M86,29.8c0,0-0.1,0.3-0.1,0.5c0,0.2-0.3,0.4-0.5,0.5c-0.3,0.1-0.7,0.5-0.7,0.5s-0.2,0,0-0.8
				c0.2-0.8,0.4-0.9,0.7-1.1s0.4-0.3,0.6-0.1C86.2,29.6,86,29.8,86,29.8"/>
			<path class="st3" d="M86.8,29.6c0,0,0.3,1,0.4,1.3c0.2,0.3,0.6,0.6,0.2,1c-0.4,0.5-0.7,0.4-0.9,0.3c-0.2-0.1-0.1-0.2,0-0.5
				c0.2-0.3,0.1-0.3-0.1-0.9c-0.2-0.6-0.4-1.2-0.4-1.5s0-0.6,0.3-0.5c0.3,0.1,0.4-0.2,0.4-0.2s0.4-0.2,0.8,0.3
				c0.4,0.5,0.8,0.8,1,1.2c0.3,0.4,0.8,0.8,1,1.1c0.2,0.2,0.4,0.5,0.3,0.9c-0.1,0.4-0.1,0.6,0.1,1.1c0.2,0.5,0.1,0.9-0.3,1.3
				c-0.4,0.3-1,0.3-1.2,0c-0.2-0.3-0.4-0.2-0.8-0.2c-0.3,0-0.7-0.1-0.4-0.9c0.3-0.8,0.1-0.9,0.4-1.2c0.4-0.3,0.6-1,0.6-1
				c0,0,0.1-0.3,0.3,0c0.2,0.2,0.5,0,0.2-0.3s-1.3-1.1-1.6-1.5C87,29.2,86.7,29.2,86.8,29.6"/>
			<path class="st3" d="M88.8,29.2c0,0,0.6,0.1,1.1,0.6c0.4,0.4,1.2,0.2,1.5,0.6c0,0,0.8-0.3,1.6,0.5c0,0,0.2-0.3,0.5-0.2
				c0.3,0.1,1.2,0.4,1.2,1.2c0,0.8,0.6,1.8-0.9,1.8c-1.5,0-1.5-0.4-1.3-1.2c0.2-0.8-0.4-1.4-0.4-1.4s-0.5-0.2-1-0.5
				c-0.5-0.3-0.9-0.2-1.1-0.5C89.7,29.8,89.4,29.4,88.8,29.2C88.3,29.2,88.8,29.2,88.8,29.2"/>
			<path class="st3" d="M88.9,28.7c0,0-0.5-0.2,0.4-0.2c0.9,0,0.9,0.2,1.4,0c0.4-0.2,0.9,0.2,0.6,0.4c0,0,0.9,0.1,1.3,0.4
				c0.5,0.3,0.3,0.3,0,0.4c-0.4,0.1-0.8,0.3-1.2,0c-0.3-0.3-0.4-0.5-0.8-0.5c-0.4,0-0.5-0.3-0.8-0.3S88.9,28.7,88.9,28.7"/>
			<path class="st3" d="M90,27.6c0,0-1.1-0.1,0-0.3s2.7,0,3.7,0.2c0,0-0.2-0.4,0.3-0.8c0.5-0.4,1.1-0.1,1.2,0c0,0,0.7-0.5,1.1,0
				c0.5,0.4,0,0.9,0,0.9s0,0.6-0.2,0.9c-0.2,0.3-0.7,0.6-1.2,0.4c-0.5-0.1-0.4-0.4-0.4-0.4s-0.7,0.2-0.8-0.5
				C93.7,28.1,93,27.5,90,27.6"/>
			<path class="st3" d="M89.2,26.5c0,0-1.3,0.2-0.4,0c0.9-0.3,1.7-0.8,2.4-0.8c0.6,0,0.9,0,0.9,0.2c0,0.3,0,0.3-0.4,0.3
				C91.3,26.2,90.5,26,89.2,26.5"/>
			<path class="st3" d="M91.2,25.1c0,0-0.6-0.1-0.7,0.1c-0.1,0.2-0.5,0.2-0.7,0.3c-0.2,0.1-0.6,0.3-0.6,0.3l-0.9,0.4
				c0,0,1.2-0.8,1.6-1.2c0.4-0.5,0.7-0.6,0.9-0.6c0,0-0.3-0.3-0.1-0.7c0,0-0.1-0.3,0.3-0.8c0.5-0.4,0.4-0.7,1-0.4
				c0.6,0.3,0.9,0.6,0.7,1c-0.2,0.4,0.2,0.7-0.2,1S92.7,25.5,91.2,25.1"/>
			<path class="st3" d="M82.3,22.1c0,0,0.2,0.7,0.8,1.6c0,0-0.6,0-0.7,0.2c-0.1,0.3-0.1,0.3-0.4,0.5c-0.2,0.2-0.8,0.2-1.1-0.1
				c-0.3-0.2-0.3-0.6-0.6-0.8c-0.3-0.2-0.3-0.4,0-0.7c0.3-0.3-0.1-0.7,0.8-0.8C82.1,22,82.3,21.7,82.3,22.1"/>
			<path class="st3" d="M85.7,22.1c0,0-0.4-0.4,0.1-0.6c0.5-0.2,0.7-0.7,1.2-0.3c0.5,0.4,0.7,0.4,0.6,0.9c-0.1,0.4,0.3,1.1-0.4,1.4
				c-0.7,0.3-1.2,0.5-1.6,0C85.3,23,85.2,22.3,85.7,22.1"/>
			<path class="st3" d="M103.5,34.7c0,0-0.2,0.3-0.5,0.5c-0.3,0.2-0.4,0.6-0.8,0.6c-0.3,0.1,0.2,0.5-0.4,0.7c-0.6,0.2-1,0.7-1.3,0.1
				c-0.3-0.5-0.9-0.9-0.1-1.5c0,0-0.4-0.3-0.5-0.5c-0.1-0.2-0.7,0-0.1-0.7s0.1-0.7,0.1-1c-0.1-0.3-0.5-0.6,0.1-1
				c0.7-0.4,0.8-0.6,1.1-0.4c0.3,0.3,0.6,0.2,0.7,0.6c0,0,1.1,0.6,1.5,0.7c0.4,0.1,0.6,0.4,0.5,0.7c-0.1,0.3-0.1,0.4-0.1,0.6
				C103.7,34.5,103.6,34.6,103.5,34.7"/>
		</g>
		<g>
			<defs>
				<rect id="SVGID_00000098222588619328064130000010394699981237794743_" x="85.6" y="38.8" width="5.9" height="4.8"/>
			</defs>
			<clipPath id="SVGID_00000126283884615323981870000002140200943756115623_">
				<use xlink:href="#SVGID_00000098222588619328064130000010394699981237794743_"  style="overflow:visible;"/>
			</clipPath>
			<g style="clip-path:url(#SVGID_00000126283884615323981870000002140200943756115623_);">
				<path class="st3" d="M86.6,41.7c0.3,0.3,0.6,0.8,0.7,0.8c0.2,0,0.5,0,0.7,0.4c0.2,0.4,0.4,0.5,0.8,0.5c0.4,0,0.9,0.2,1.5,0.2
					c0.6,0,0.6-0.2,0.3-0.6c-0.3-0.3,0-0.8,0-1.1c-0.1-0.3,0.1-0.7,0.4-0.9c0.3-0.3,0.2-0.4-0.1-0.6c-0.3-0.2-0.3-0.4-0.5-0.7
					c-0.2-0.3-0.3-0.2-0.5-0.3c-0.2-0.1-0.2,0.3-0.6,0.3s-0.6-0.1-0.9-0.4c-0.3-0.3-0.5-0.2-0.5,0.1s0.1,0.5-0.4,0.6
					c-0.5,0.1-0.6,0.6-0.6,0.6c-0.2,0-0.6,0.2-0.6,0.2C86,41.3,86.3,41.4,86.6,41.7"/>
			</g>
		</g>
		<path class="st3" d="M74.9,34.7c0-0.3,0-0.3-0.2-0.4c-0.2-0.2-0.4-0.1-0.3-0.3c0.1-0.2-0.4-0.4-0.6-0.3c-0.2,0.1-0.3,0-0.7-0.1
			c-0.3-0.1-0.7-0.2-0.8,0.3c-0.1,0.5-0.6,0.5-0.4,0.9c0.2,0.4-0.2,0.6,0,0.9c0.2,0.3,0.1,0.6-0.1,1c-0.2,0.3,0.4,0.7,0.8,0.7
			s0.4,0,0.5,0.3c0.1,0.3,0.2,0.5,0.6,0.5c0.4,0,0.2,0.3,1.1,0.3c0.9,0,0.5-0.8,0.6-1.2c0.2-0.3,0.1-0.6,0-0.9
			c-0.1-0.3,0.2-0.6,0.4-0.7c0.2-0.2,0.2-0.2,0-0.3c-0.2-0.1-0.5-0.1-0.5-0.1C74.9,35.1,74.9,35,74.9,34.7"/>
	</g>
</g>
</svg>
