<?xml version="1.0" encoding="utf-8"?>
<!-- Generator: Adobe Illustrator 26.3.1, SVG Export Plug-In . SVG Version: 6.00 Build 0)  -->
<svg version="1.1" id="Layer_1" xmlns="http://www.w3.org/2000/svg" xmlns:xlink="http://www.w3.org/1999/xlink" x="0px" y="0px"
	 viewBox="0 0 170 80" style="enable-background:new 0 0 170 80;" xml:space="preserve">
<style type="text/css">
	.st0{fill:#AF8522;}
	.st1{clip-path:url(#SVGID_00000082330402389028774720000000720032411209364886_);}
</style>
<g>
	<g>
		<path class="st0" d="M62.8,59.2h1l3.2,8h-1.6l-0.6-1.7h-2.1l-0.4-1.1h2.1l-0.8-2.2l-0.2-0.7L63,62.2l-1.9,5h-1.5L62.8,59.2z"/>
		<path class="st0" d="M68.5,59.2h1.6v8h-1.6V59.2z"/>
		<path class="st0" d="M74.9,64.6H74v2.6h-1.6v-8H75c1.9,0,2.9,0.8,2.9,2.6c0,1.2-0.6,2.2-1.6,2.6l2.2,2.8h-1.8L74.9,64.6z M75,63.5
			c1,0,1.3-0.6,1.3-1.6c0-0.9-0.3-1.5-1.3-1.5h-1v3.1H75z"/>
		<path class="st0" d="M79.4,59.2H81l1.5,5.7h0.1l1.4-4.4l-0.4-1.3h1.5l1.9,5.7h0l1.5-5.7H90l-2.4,8h-1.3l-1.6-5l-1.6,5h-1.3
			L79.4,59.2z"/>
		<path class="st0" d="M93.3,59.2h1l3.2,8h-1.6l-0.6-1.7h-2.1l-0.4-1.1h2.1L94,62.2l-0.2-0.7l-0.2,0.7l-1.9,5h-1.5L93.3,59.2z"/>
		<path class="st0" d="M100,63.9l-2.6-4.7h1.7l1.7,3.4l1.8-3.4h1.5l-2.6,4.7v3.3H100V63.9z"/>
		<path class="st0" d="M105.3,66.9v-1.6c0.4,0.3,1.1,0.8,2.1,0.8c1,0,1.5-0.4,1.5-1.1c0-0.6-0.4-0.9-1.3-1.1l-0.3-0.1
			c-1.3-0.3-2-1-2-2.3c0-1.5,1-2.5,2.9-2.5c1.1,0,1.8,0.3,2.1,0.5v1.6c-0.4-0.3-1.2-0.8-2.1-0.8c-0.9,0-1.3,0.3-1.3,1
			c0,0.6,0.3,0.9,1.2,1.1l0.3,0.1c1.4,0.3,2.1,1,2.1,2.3c0,1.6-0.9,2.7-3,2.7C106.2,67.4,105.6,67,105.3,66.9"/>
		<path class="st0" d="M91.7,16.1L91.6,16l-1.4-1.4l-1.5,1.5l1.5,1.5L91.7,16.1z"/>
		<path class="st0" d="M94.7,16.1L94.6,16l-1.4-1.4l-1.5,1.5l1.5,1.5L94.7,16.1z"/>
		<path class="st0" d="M74.5,15.8c0,0.3,0.3,0.4,0.5,0.6c0.3,0.1,0.6,0.3,0.6,0.8v11.3h12.6v0.2c0,0.1,0,0.1,0,0.3
			c0,0.9,0.3,1.5,0.9,1.8c0,0,0.3,0.2,0.7,0.2c0.3,0,0.6-0.1,0.9-0.3l0.2-0.1l-0.2-0.2c-0.4-0.3-0.5-1.1-0.5-1.7v-0.2h4.7V18
			c0,0-0.6,1.4-2.9,3c0,0,0.1,0.4,0.5,0.7C93,22,93,22.4,93,22.4v4.2h-2.8v-0.4c0-1.1-0.3-3.5-3.2-3.5l-0.1,0c-0.9,0-1.6,0-2.3,0
			h-0.2c-1.7,0-2.6-0.2-2.8-0.6l-0.1-0.2L81.4,22c-0.3,0.2-0.5,0.6-0.5,1c0,0.7,0.4,1.4,1.1,1.5c0.4,0,1,0,1.6,0c1.1,0,2.2,0,2.2,0
			c2.3,0,2.4,1,2.4,1.5v0.5H77.5V12.7c0,0-1.3,1.7-3,2.9v0.1L74.5,15.8z"/>
		<path class="st0" d="M67.2,30c0,0-0.2,1.7,3.2,1.7c2.8,0,2.9-1.8,2.9-1.8l0-6.5c0-0.4-0.1-1.6-1.3-1.6h-9.8v-0.7
			c0-0.2,0.1-0.2,0.3-0.3c0.6-0.4,0.7-0.7,0.5-0.8c-1.2-0.7-2.3-2.1-2.3-2.1v5.7h9.8l0.1,0c0.3,0,0.7,0.1,0.7,0.7v4.5c0,0,0,1-1,1
			c-1.6,0-1.5-0.8-1.5-0.8l0-2.6h-8.2v1.9h6.5V30z"/>
		<path class="st0" d="M108.2,17c0-0.5,0.3-0.6,0.5-0.8c0.2-0.1,0.5-0.2,0.5-0.6l0-0.2c0-0.2-0.1-0.2-0.3-0.3
			c-0.2-0.1-0.5-0.3-1.1-0.8c-1-0.9-1.3-1.3-1.3-1.3l-0.3-0.5v15.8h2C108.2,28.4,108.2,17.4,108.2,17"/>
		<path class="st0" d="M97,30.5l3.2,3.2l3.2-3.2l-2-2l2.4-2.5V12.6c0,0-0.9,2-2.5,3v0.1c0,0.3,0.2,0.4,0.4,0.5
			c0.2,0.1,0.4,0.3,0.4,0.8c0,0.4,0,8,0,8l-2,2.1l-2-2.1c0-0.1,0-7.7,0-8c0-0.5,0.2-0.6,0.4-0.8c0.2-0.1,0.4-0.2,0.4-0.6l0-0.1
			c-1.4-1-2.5-3-2.5-3v13.5l2.4,2.4L97,30.5z M101.5,30.5l-1.3,1.3l-1.3-1.3l1.3-1.3L101.5,30.5z"/>
		<path class="st0" d="M91.3,37.5l0.5,0.3c0.1,0.1,0.1,0.1,0.1,0.2v4.1h-9.1l-2.1,2.6V38l0-0.1l0.1-0.1l0.4-0.3l0,0v-0.4h-4.6v0.4
			l0.5,0.3l0.1,0.1h0v12.4l0,0.2l-0.1,0.1l-0.5,0.3v0.4h4.6v-0.4l-0.5-0.3l-0.1-0.1l0,0v-5.7l0.5,0.1l0.6-0.4l0.3-0.1
			c0,0,0.1,0,0.3,0h9.5v4.3l3.4-3.6v-7.2l0.1-0.1l0.5-0.2v-0.4h-4.6V37.5z"/>
	</g>
	<g>
		<defs>
			<rect id="SVGID_1_" x="116.7" y="36.8" width="23.8" height="14.9"/>
		</defs>
		<clipPath id="SVGID_00000166645473685705296200000003048750885221929089_">
			<use xlink:href="#SVGID_1_"  style="overflow:visible;"/>
		</clipPath>
		<g style="clip-path:url(#SVGID_00000166645473685705296200000003048750885221929089_);">
			<path class="st0" d="M140.3,42.6c-0.5-1.7-1.8-3.1-3.6-4.1c-1.7-0.9-4.1-1.4-7.3-1.4h-12.4v0.4l0.5,0.3h0v1.5h11.8
				c2.4,0,4.1,0.3,5.2,0.9c1.7,1,2.5,2.3,2.5,3.9c0,0.8-0.2,1.6-0.7,2.2c-0.4,0.7-1.1,1.2-2,1.7c-1.1,0.6-2.9,0.9-5.2,0.9H123v-8.7
				h-3.4l0,9.9l0,0.1l-0.1,0.1l-0.4,0.3l0,0v0.4h10.1c1.9,0,3.5-0.1,4.5-0.3c1.5-0.3,2.8-0.8,3.9-1.6c1.1-0.8,1.9-1.6,2.4-2.6
				c0.4-0.7,0.5-1.5,0.5-2.3C140.5,43.7,140.4,43.1,140.3,42.6"/>
		</g>
	</g>
	<path class="st0" d="M102.2,39.7l-11,11.5h5.1v-0.5h-0.2l-0.2,0l-0.2-0.1l8.5-8.8L102.2,39.7z"/>
	<path class="st0" d="M113.4,50.7v0.5h5l-13.4-14.1l-2,2l2.2,2.3l2.2,2.3h-3.8l-2.1,2.2l0.4,0.3l0.5-0.3l0.1,0c0,0,0.2,0,0.4,0h6.5
		l4.5,4.8c0,0-0.1,0.1-0.5,0.1H113.4z"/>
	<path class="st0" d="M74.8,37.8l0.4-0.3v-0.4h-4.5v0.4l0.5,0.3l0.2,0.2l0,12.2l0,0.2l-0.1,0.1l-0.5,0.3v0.4h4.5v-0.4l-0.4-0.3
		l-0.1-0.1l0,0V38l0-0.1L74.8,37.8z"/>
	<path class="st0" d="M52.4,48.5h-0.2l-0.5,0l-0.6,0.3c-0.2,0.1-0.2,0.1-0.3,0.1l-10.1,0c-2.3,0-4.1-0.3-5.2-0.9
		c-1.7-0.9-2.6-2.2-2.6-3.9c0-0.8,0.2-1.5,0.7-2.2c0.9-1.3,2.1-2.2,3.9-2.5c0.5-0.1,0.9-0.1,1.2-0.1H44c0.3,0,0.3,0.1,0.3,0.1
		l-0.1,0.4h0.4l2.2-2.7h-6.2c-1.4,0-2.6,0-3.3,0.1c-0.4,0.1-0.8,0.1-1.2,0.2c-1,0.2-2,0.6-2.9,1.1c-1.5,0.9-2.6,2-3.2,3.3
		c-0.3,0.7-0.5,1.6-0.5,2.5c0,2.3,1.2,4.1,3.6,5.4c1.1,0.6,2.3,1,3.6,1.2c1,0.2,2.4,0.2,4.1,0.2h9.4L52.4,48.5z"/>
	<path class="st0" d="M47.3,45.1l2.2-2.7H34.7l-1.5,2.2h13.3c0.2,0,0.3,0.1,0.3,0.1l-0.1,0.4H47.3z"/>
	<path class="st0" d="M48.4,37.1l-2.1,2.6l0.4,0.1l0.1,0l0.6-0.3c0.2-0.1,0.4-0.2,0.5-0.2h8.1v10.9l0,0.1L56,50.5l-0.5,0.3v0.4h4.5
		v-0.4l-0.5-0.3l-0.1-0.1l0-0.1V39.3h7.2c0.3,0,0.3,0.1,0.3,0.1v0.4h0.4l2.2-2.7H48.4z"/>
</g>
</svg>
