<?xml version="1.0" encoding="utf-8"?>
<!-- Generator: Adobe Illustrator 26.3.1, SVG Export Plug-In . SVG Version: 6.00 Build 0)  -->
<svg version="1.1" id="Layer_1" xmlns="http://www.w3.org/2000/svg" xmlns:xlink="http://www.w3.org/1999/xlink" x="0px" y="0px"
	 viewBox="0 0 170 80" style="enable-background:new 0 0 170 80;" xml:space="preserve">
<style type="text/css">
	.st0{clip-path:url(#SVGID_00000163036852861745065770000004359744192223210412_);}
	.st1{fill-rule:evenodd;clip-rule:evenodd;fill:#46464A;}
	.st2{fill-rule:evenodd;clip-rule:evenodd;fill:#338B9C;}
	.st3{fill-rule:evenodd;clip-rule:evenodd;fill:#244685;}
</style>
<g>
	<g>
		<defs>
			<rect id="SVGID_1_" x="5" y="47.3" width="160" height="17.4"/>
		</defs>
		<clipPath id="SVGID_00000044154527270653288270000010177348009144545951_">
			<use xlink:href="#SVGID_1_"  style="overflow:visible;"/>
		</clipPath>
		<g style="clip-path:url(#SVGID_00000044154527270653288270000010177348009144545951_);">
			<path class="st1" d="M132.8,59.5v1.3c0,1.8,1.1,2.5,2.8,2.5c1.4,0,3.1-0.7,3.9-1.3l-0.3,1.6c-1.2,0.6-2.6,1.1-4.1,1.1
				c-3.1,0-4.8-1.3-4.8-4.3v-3.6c0-3.7,2.6-4.9,5.8-4.7c2.4,0.1,3.6,1.7,3.6,3.3C139.9,58,137.7,60.1,132.8,59.5z M132.8,58.3v-2.5
				c0-1.6,1-2.7,2.6-2.7c1.1,0,2.2,0.2,2.1,2.4C137.4,57.3,136.5,58.9,132.8,58.3z M80.4,48h-2.6c0.5,0.2,0.8,0.6,0.8,1.2v14.4
				c0,0.4,0.3,0.7,0.7,0.7h1.9V48.8C81.2,48.4,80.9,48,80.4,48z M102.7,56.6v5.3c-0.5,0.7-1.3,1.2-2.2,1.3c-2.6,0.1-2.9-3.2-2.9-4.9
				c0-3.5,1-4.9,2.8-4.8C102.4,53.5,102.7,55.1,102.7,56.6z M104.1,48h-2.2c0.5,0.2,0.8,0.6,0.8,1.2v4.1c-0.5-0.6-1.4-1.4-2.9-1.4
				c-2.3,0-4.8,1.9-4.8,6.3c0,3.5,1.5,6.2,4.6,6.2c1.1,0,2.3-0.5,3.2-1.4v0.5c0,0.4,0.3,0.7,0.7,0.7h1.6V49
				C105.1,48.5,104.6,48,104.1,48z M90.9,63.5c0,0.5,0.4,0.9,0.9,0.9h1.5v-7.7c0-2.6-0.7-4.6-3.9-4.6c-1.2,0-2.6,0.6-3.3,1.7V53
				c0-0.4-0.3-0.7-0.7-0.7H83c0.5,0.2,0.8,0.6,0.8,1.2v10.9h2.4v-8c0-1.6,0.6-2.1,1.5-2.5c1-0.4,2.2-0.3,2.8,0.4
				c0.5,0.6,0.5,1.5,0.5,2.6V63.5z M126.2,63.5c0,0.5,0.4,0.9,0.9,0.9h1.5v-7.7c0-2.6-0.7-4.6-4-4.6c-1.2,0-2.6,0.6-3.3,1.7V53
				c0-0.4-0.3-0.7-0.7-0.7h-2.4c0.4,0.2,0.8,0.6,0.8,1.2v10.9h2.4v-8c0-1.6,0.6-2.1,1.5-2.5c1-0.4,2.2-0.3,2.8,0.4
				c0.5,0.6,0.5,1.5,0.5,2.6V63.5z M112.1,63.3c1.8,0,2.7-1.5,2.7-5c0-3.5-0.9-5-2.7-5s-2.8,1.4-2.8,5S110.3,63.3,112.1,63.3z
				 M112.1,64.5c-2.7,0-5.3-1.2-5.3-6.2c0-5,2.8-6.3,5.3-6.3c2.4,0,5.3,1.3,5.3,6.3C117.3,63.3,114.8,64.5,112.1,64.5z M141,62.3
				l0.4,1.5c1.1,0.5,2.4,0.8,3.4,0.8c2.6,0,4.5-1.5,4.5-3.7c0-1.7-1.5-2.8-3.3-3.5c-1.6-0.6-2.5-1.2-2.3-2.5
				c0.2-1.3,1.4-1.7,2.4-1.6c1.3,0.1,2,0.5,2.6,0.9l-0.4-1.4c-0.9-0.4-1.8-0.6-2.5-0.7c-2.6-0.1-4.4,1.1-4.4,3.3c0,2,1.4,2.9,3,3.5
				c1.6,0.6,2.8,1.3,2.6,2.7c-0.2,1.4-1.2,1.8-2.4,1.8C143,63.4,141.7,62.8,141,62.3z M161.8,58.1v3.1c-0.5,1.2-1.7,1.6-2.6,1.6
				c-1.1,0-2-0.7-2.1-2c-0.1-0.8,0.2-1.6,0.9-2.1C158.7,58.1,159.9,57.8,161.8,58.1z M161.8,55.7V57c-5.4-0.4-7.2,1.5-7.1,4.3
				c0.1,1.6,1.3,3.3,3.7,3.3c1.4,0,2.6-0.6,3.5-1.7v0.8c0,0.4,0.3,0.7,0.7,0.7h1.6v-8.1c0-3-1.7-4.3-4.7-4.3c-1.5,0-2.5,0.4-3.5,0.8
				l-0.3,1.6c0.8-0.6,1.9-1.1,3.3-1.1C160.7,53.2,161.8,53.9,161.8,55.7z M151.4,64.4h1.7V53c0-0.4-0.3-0.7-0.7-0.7h-2.5
				c0.5,0.2,0.8,0.6,0.8,1.2v10.3C150.7,64.1,151,64.4,151.4,64.4z M16.1,48.4c-0.8-0.3-1.9-0.5-3.2-0.5c-4.6,0-8,2.9-8,8.4
				c0,5.1,2.5,8.4,7.7,8.4c1.7,0,3.1-0.3,4.4-0.7v-8.5h-5.1l-0.2,1.3c0.4-0.1,0.8-0.1,1.2-0.1h1.5V63c-0.4,0.1-1,0.2-1.7,0.2
				c-3.1-0.1-4.9-1.8-4.9-6.9s2.4-7,5.4-7c1.1,0,2.4,0.2,3.4,0.7L16.1,48.4z M57,56.6v5.3c-0.5,0.7-1.3,1.2-2.2,1.3
				c-2.6,0.1-2.9-3.2-2.9-4.9c0-3.5,1-4.9,2.8-4.8C56.7,53.5,57,55.1,57,56.6z M58.5,48h-2.2c0.4,0.2,0.8,0.6,0.8,1.2v4.1
				c-0.5-0.6-1.4-1.4-2.9-1.4c-2.3,0-4.8,1.9-4.8,6.3c0,3.5,1.5,6.2,4.6,6.2c1.1,0,2.3-0.5,3.2-1.4v0.5c0,0.4,0.3,0.7,0.7,0.7h1.6
				V49C59.4,48.5,58.9,48,58.5,48z M25.9,58.1v3.1c-0.5,1.2-1.7,1.6-2.6,1.6c-1.1,0-2-0.7-2.1-2c-0.1-0.8,0.2-1.6,0.9-2.1
				C22.8,58.1,24.1,57.8,25.9,58.1z M25.9,55.7V57c-5.4-0.4-7.2,1.5-7.1,4.3c0.1,1.6,1.3,3.3,3.7,3.3c1.4,0,2.6-0.6,3.5-1.7v0.8
				c0,0.4,0.3,0.7,0.7,0.7h1.6v-8.1c0-3-1.7-4.3-4.8-4.3c-1.5,0-2.5,0.4-3.5,0.8l-0.3,1.6c0.8-0.6,1.9-1.1,3.3-1.1
				C24.9,53.2,25.9,53.9,25.9,55.7z M29.4,52.2c0.5,0.2,0.8,0.6,0.8,1.2v10.9h2.4v-7.7c0-1.6,0.7-2.5,1.5-2.8c0.6-0.3,1.9-0.5,2.7,0
				l-0.3-1.6c-0.9-0.4-2.3-0.4-3.4,0.6c-0.2,0.2-0.4,0.4-0.6,0.7V53c0-0.4-0.3-0.7-0.7-0.7H29.4z M40.6,59.7v-6.6
				c0-0.5-0.4-0.9-0.9-0.9h-2.3c0.5,0.2,0.8,0.6,0.8,1.2V60c0,2.6,0.7,4.6,3.9,4.6c1.2,0,2.6-0.6,3.3-1.7v0.8c0,0.4,0.3,0.7,0.7,0.7
				h1.6V52.2h-2.4v8.1c0,1.6-0.6,2.1-1.5,2.5c-1,0.4-2.2,0.3-2.8-0.4C40.6,61.8,40.6,60.9,40.6,59.7z M68.3,58.1v3.1
				c-0.5,1.2-1.7,1.6-2.5,1.6c-1.1,0-2-0.7-2.1-2c-0.1-0.8,0.2-1.6,0.9-2.1C65.2,58.1,66.4,57.8,68.3,58.1z M68.3,55.7V57
				c-5.4-0.4-7.2,1.5-7.1,4.3c0.1,1.6,1.3,3.3,3.7,3.3c1.4,0,2.6-0.6,3.5-1.7v0.8c0,0.4,0.3,0.7,0.7,0.7h1.6v-8.1
				c0-3-1.7-4.3-4.7-4.3c-1.5,0-2.5,0.4-3.5,0.8l-0.3,1.6c0.8-0.6,1.9-1.1,3.3-1.1C67.2,53.2,68.3,53.9,68.3,55.7"/>
		</g>
	</g>
	<g>
		<path class="st2" d="M62.6,23.6h6.6c0,0,8.2,0,11.4,0.8c2.6,0.6,6.1,2.4,8,3.8c1.9,1.4,9.3,6.8,9.3,6.8s-0.9,1.1-2.5,1.1
			c-1.1,0-1.5-0.4-1.9-0.6l-8.5-6.1c-2.4-1.7-4.8-3.1-7.4-4c-2.6-0.9-5.3-1.3-8.3-1.3h-6.5L62.6,23.6z M65.3,28.3h3.2
			c3.8,0,5.9,0.1,9,1.3c2.8,1,5.3,2.8,7.7,4.5l5.2,3.7c0,0,0.9,0.8,1.8,0.8c1.1,0,1.8-0.6,2.6-1.1l-6.9-5.1c0,0-3-2.2-6.7-3.5
			c-4.1-1.3-10.8-1.1-10.8-1.1H65L65.3,28.3z M70.4,32.4h-2.8l-0.3-0.5h3.5c0,0,6.6,0,9.6,1c2.1,0.7,4.3,1.9,6.2,3.3
			c2,1.4,4.8,3.4,4.8,3.4c-0.7,0.6-1.3,1.2-2.3,1.2c-0.8,0-1.6-0.4-1.6-0.4l-6.9-5c-1.9-1.4-4-2.3-6.3-2.7
			C73,32.5,71.7,32.5,70.4,32.4"/>
		<path class="st3" d="M101.1,24.6c-0.8,0-1.3-0.1-2-0.2c-1.1-0.3-1.6-1.1-1.6-1.1c-0.4,0.8,0.7,1.8,1.2,2.2l5.4,3.9
			c0.8,0.5,1.3,0.1,1.3,0.1s1.4-0.7,2.2-0.9c0.7-0.2,2.9-0.2,3.2-0.2s1.3,0.7,1.3,0.7c0.3-2.4-1.2-2.6-2.2-2.8
			c-1-0.1-2.4-0.2-2.4-0.2l-1.8,0.5l-1.1-0.8c0,0,2.2,0.2,2.7,0.2c0.6,0,0.4-0.2,0.1-0.8c-0.3-0.5-0.9-0.5-0.9-0.5H101.1z
			 M58.1,15.9h10c0,0,5.6,0.2,8.2,0.8c4.2,1,7.8,2.9,11.4,5.5l11.9,8.5c1,0.7,2.3,1.2,3.3,0.6c0.5-0.3,0.8-0.6,1.2-0.9l-13.6-9.8
			c-2.2-1.6-5-2.8-7.3-3.5c-3.1-0.9-6.7-1.7-13.2-1.7H57.8L58.1,15.9z M70.5,19.5c6.5,0,10.5,0.7,13.6,1.9c2.3,0.9,4.3,2.1,6.3,3.6
			l10.8,7.7c0,0-0.5,0.5-1.1,0.8c-1.1,0.6-2.5,0.3-3.6-0.5l-10-7.1c-3.1-2.2-6-4-9.7-5C74,20.1,68.8,20,68.8,20h-8.3l-0.3-0.5
			L70.5,19.5z"/>
	</g>
</g>
</svg>
