<?xml version="1.0" encoding="utf-8"?>
<!-- Generator: Adobe Illustrator 26.3.1, SVG Export Plug-In . SVG Version: 6.00 Build 0)  -->
<svg version="1.1" id="Layer_1" xmlns="http://www.w3.org/2000/svg" xmlns:xlink="http://www.w3.org/1999/xlink" x="0px" y="0px"
	 viewBox="0 0 170 80" style="enable-background:new 0 0 170 80;" xml:space="preserve">
<style type="text/css">
	.st0{fill-rule:evenodd;clip-rule:evenodd;fill:#B9083D;}
	.st1{fill-rule:evenodd;clip-rule:evenodd;fill:#1B1918;}
	.st2{clip-path:url(#SVGID_00000050625612305142453870000013078268435044792981_);}
	.st3{fill-rule:evenodd;clip-rule:evenodd;fill:#FFDD00;}
	.st4{fill-rule:evenodd;clip-rule:evenodd;fill:#4E2B16;}
</style>
<g>
	<g>
		<path class="st0" d="M38.6,45.8c0-0.6-0.4-1.1-1.3-1.5c-0.9-0.4-1.9-0.7-3-1c-1.1-0.2-2.5-0.4-4.2-0.6c-1.6-0.2-2.6-0.3-2.8-0.3
			c-0.2,0.2-0.7,0.8-1.6,1.7c-0.8,0.9-1.5,1.7-2,2.4c-0.5,0.7-0.7,1.2-0.7,1.6c0,0.9,0.5,1.6,1.4,2.1c0.9,0.5,2.2,0.8,3.6,0.8
			c1,0,2.4-0.3,4.1-0.8c1.7-0.5,3.2-1.2,4.5-2C37.9,47.5,38.6,46.7,38.6,45.8z M105.3,42.9c0-0.3-0.2-0.4-0.4-0.4
			c-0.5,0-1.2,0.4-2,0.9c-0.8,0.6-1.6,1.3-2.4,2.1c-0.8,0.8-1.4,1.5-1.9,2c0.3,0.1,0.5,0.2,0.8,0.3c0.2,0.1,0.5,0.3,0.9,0.5
			c1.5-1.1,2.7-2.1,3.7-3.2C104.9,44.1,105.3,43.3,105.3,42.9z M59.6,41.2c-1.7,0.5-3.2,1-4.8,1.7c-1.5,0.7-3,1.4-4.3,2.4
			c-0.9,0.6-1.5,1.2-1.9,1.7c-0.3,0.6-0.5,1.3-0.5,2.3c0,0.7,0.2,1,0.7,1c0.6,0,1.7-0.6,3.1-1.7c1.4-1.1,2.9-2.5,4.4-4
			C57.9,43.2,59,42,59.6,41.2z M50.1,27.8c0,2-0.7,3.6-2.1,5c-1.4,1.3-3.1,2.4-5.2,3.3c-2.1,0.8-4.3,1.5-6.8,2
			c-2.4,0.5-4.3,0.9-5.8,1.2L29.3,40c2,0.3,3.6,0.5,4.7,0.7c1.1,0.2,2.5,0.5,4.2,1c1.7,0.5,3,1.1,4.2,1.9c1.1,0.8,1.7,1.7,1.7,2.8
			c0,0.6-0.2,1.3-0.6,2c-0.4,0.7-1,1.5-1.7,2.2c-0.1,0.1-0.2,0.2-0.3,0.3c1.3-0.6,2.5-1.3,3.5-2c0-0.1,0-0.2-0.1-0.3
			c0-0.9,0-1.6,0.1-2.1c0.3-1.1,1.1-2.2,2.4-3.4c1.3-1.2,2.8-2.2,4.6-3.2c1.8-1,3.5-1.8,5.1-2.4c1.7-0.6,3-0.9,4.1-0.9
			c1.1,0,1.9,0.6,2.5,1.7c0.1,0.2,0.2,0.4,0.2,0.4c0,0.2-0.1,0.4-0.3,0.6c-0.2,0.2-0.4,0.3-0.7,0.4c-0.3,0.1-0.5,0.2-0.7,0.2
			c0.8,0.4,1.2,1,1.2,1.8c0,0.4-0.2,0.8-0.5,1.3c-0.3,0.5-0.8,1.1-1.5,2c-0.7,0.9-1.2,1.6-1.5,2.1c-0.3,0.5-0.4,1-0.4,1.6
			c0,0.4,0.1,0.8,0.4,1c0.3,0.2,0.6,0.4,1,0.4c0.4,0,0.8-0.1,1.1-0.2c0.4-0.1,0.8-0.4,1.4-0.9c2.1-1.6,4.6-3.6,6.3-5.6
			c0.6-0.6,1.3-1.7,2.1-3.1l-1.3,0.1c-0.6,0-1.5,0.2-2.8,0.5c0.8-1.5,1.4-2.5,1.7-3.1c0.3-0.5,0.7-1,1.2-1.4c0.4-0.4,1-0.7,1.7-0.9
			c0.7-0.2,1.7-0.4,2.8-0.5c1-1.7,1.8-2.8,2.3-3.3c0.5-0.5,1.3-0.8,2.1-0.8c0.9,0,1.4,0.2,1.4,0.8c0,0.3-0.2,0.9-0.7,1.7
			c-0.5,0.8-0.8,1.2-0.8,1.3c0.6,0,1.4,0,2.6,0.2l-0.9,1.7c-0.6,1.3-1.1,2.2-1.3,2.6c-0.3,0.4-0.7,0.7-1.4,0.9
			c-0.7,0.2-1.7,0.4-3.1,0.4c-1.2,1.8-2.2,3.5-2.8,5c-0.6,1.5-0.9,2.6-0.9,3.5c0.1,1.3,0.5,2,1.5,1.9c0.4,0,0.9-0.2,1.6-0.5
			c0.6-0.3,1.3-0.7,2-1.2c0.7-0.5,1.4-1,2.2-1.7c0.3-0.3,0.6-0.5,0.8-0.7c0.1-0.4,0.3-0.9,0.4-1.4c0.6-1.7,1.5-3.2,2.7-4.4
			c1.1-1.2,2.4-1.9,3.8-2c0.5,0,0.9,0,1.2,0.2c0.3,0.2,0.5,0.5,0.5,0.9c0,0.5-0.2,1.3-0.8,2.3c-0.6,1-1.4,2-2.2,3.1
			c-0.9,1.1-1.6,1.9-2.1,2.6c-0.2,0.4-0.3,0.8-0.2,1.1c0.1,0.7,0.3,1.2,0.8,1.5c0.5,0.3,1.1,0.5,1.8,0.4c0.8-0.1,1.6-0.4,2.4-1
			c0.8-0.6,2-1.5,3.5-2.9c0.2-0.8,0.4-1.6,0.8-2.4c0.8-1.8,1.8-3.5,2.9-5.2c1.1-1.7,2.2-3.3,3.4-4.8c1.2-1.5,2.4-2.9,3.7-4.2
			c1.3-1.3,2.7-2.7,4.3-4c0.7-0.5,1.3-0.8,1.7-0.8c0.3,0,0.5,0.1,0.7,0.3c0.2,0.2,0.3,0.4,0.3,0.7c0.1,0.7-0.5,2-1.8,3.8
			c-1.2,1.9-2.6,3.8-4.1,5.7c-1.5,1.9-3.5,4.3-5.9,7.1c-2.4,2.8-3.7,4.4-3.8,4.5l0,1.1c2.8-2.9,5.3-5.4,7.6-7.6
			c2.3-2.2,4-3.3,5.1-3.4c0.6-0.1,1.2,0.2,1.7,0.7c0.5,0.5,0.8,1.3,0.9,2.1c0.1,1-0.2,1.9-0.7,2.8c-0.6,0.9-1.5,1.8-2.8,2.8
			c-0.9,0.6-1.4,1-1.7,1.2c-0.3,0.2-0.5,0.4-0.8,0.6c-0.3,0.2-0.8,0.6-1.7,1.2c0.5,0.7,1,1.1,1.3,1.4c0.4,0.2,0.8,0.3,1.3,0.3
			c0.6-0.1,1.2-0.2,1.8-0.5c0.6-0.3,1.2-0.7,1.8-1.2c0.6-0.5,1.2-0.9,1.7-1.4c0.5-0.5,1.1-0.9,1.7-1.5c0,0.4,0,1,0,1.8
			c-0.9,0.9-1.8,1.9-2.8,2.9c-1,1-2,1.9-2.9,2.6c-1,0.7-1.9,1.1-2.8,1.2c-0.6,0.1-1.2-0.1-1.8-0.4c-0.6-0.3-1.1-0.7-1.6-1.2
			c-0.5-0.5-1-1.1-1.4-1.6c-0.4-0.6-0.8-1.1-1.2-1.6c-0.5,0.6-0.8,1.1-1.1,1.5c-0.2,0.4-0.5,0.9-0.8,1.5c-0.4,0.9-0.8,1.4-1.3,1.4
			c-0.9,0.1-1.6-1.5-1.9-4.6c0-0.2,0-0.3,0-0.5c-0.6,0.6-1.3,1.3-2,2.1c-1,1-2,1.8-2.9,2.6c-1,0.7-1.8,1.1-2.6,1.2
			c-1.1,0.1-2-0.3-2.7-1.2c-0.7-0.9-1.2-2.2-1.4-3.9c0-0.3,0-0.7,0-1.1c-0.4,0.4-0.9,0.8-1.4,1.3c-0.9,0.8-1.8,1.6-2.7,2.3
			c-0.9,0.7-1.8,1.3-2.7,1.8c-0.9,0.5-1.7,0.7-2.6,0.7c-0.8,0-1.4-0.2-1.9-0.7c-0.5-0.5-0.7-1.3-0.8-2.2c-0.1-1.5,0.5-3.4,1.6-5.9
			c-1.8,1.7-3.5,3.3-5.4,4.9c-1.1,1-2.3,1.9-3.4,2.6c-1.1,0.7-2.1,1.1-2.9,1.1c-0.5,0-0.9-0.2-1.3-0.7c-0.4-0.5-0.5-1-0.5-1.6
			c0-0.6,0.1-1.4,0.4-2.3c0.3-0.9,0.7-1.9,1.3-3.1c-0.7,0.6-1.6,1.5-2.9,2.6C53.2,51.1,52,52,51,52.8c-1.1,0.8-1.9,1.2-2.4,1.2
			c-0.6,0-1.1-0.3-1.7-0.9c-0.5-0.6-1-1.4-1.3-2.2l0-0.1c-1.2,0.7-3,1.7-5.6,2.9c-2.1,1-4.5,1.5-6.6,1.8c-0.3,0.1-0.5,0.2-0.8,0.3
			c-1.3,0.4-2.5,0.7-3.6,0.9c-1.1,0.2-2.3,0.3-3.4,0.3c-2.5,0-4.4-0.5-6-1.5c-1.5-1-2.3-2.3-2.3-3.9c0-0.8,0.2-1.6,0.5-2.5
			c0.4-0.9,0.8-1.7,1.3-2.5c0.5-0.8,1.1-1.6,1.9-2.6c0.8-1,1.3-1.6,1.6-2c-1.3-0.1-2.3-0.2-3-0.6c-0.7-0.3-1.1-0.7-1.1-1.3
			c0-0.5,0.3-1,1-1.3c0.6-0.4,1.4-0.6,2.4-0.8c0.9-0.2,1.8-0.3,2.7-0.4c0.9-0.1,1.5-0.2,2-0.2c0.5-0.6,1.3-1.3,2.1-2.3
			c0.9-1,1.8-1.8,2.7-2.6c0.9-0.8,1.8-1.4,2.7-1.8c0.9-0.4,1.9-0.7,2.8-0.7c0.3,0,0.5,0.1,0.5,0.3c0,0.3-0.4,0.9-1.1,1.9
			c-0.8,0.9-1.9,2.3-3.5,4.2c2.3-0.3,4.1-0.6,5.4-0.9c1.2-0.3,2.6-0.8,4-1.5c1.1-0.6,2.1-1.2,2.8-1.9c0.7-0.7,1.1-1.3,1.1-1.8
			c0-0.7-0.4-1.3-1.2-1.6s-1.9-0.6-3.3-0.6c-2.6,0-5.2,0.3-7.6,0.8c-2.5,0.5-5.2,1.3-8,2.3c0.4,0.3,0.6,0.5,0.6,0.7
			c0,0.3-0.2,0.6-0.7,0.8c-0.4,0.2-1.1,0.4-2.1,0.6c-1,0.2-1.8,0.4-2.3,0.6c-0.3,0.1-0.8,0.3-1.4,0.5c-0.6,0.3-1.2,0.5-1.7,0.6
			c-0.5,0.2-0.9,0.3-1.3,0.3c-0.9,0-1.4-0.4-1.4-1.3c0-0.3,0.1-0.6,0.2-0.8c0.1-0.2,0.4-0.7,0.9-1.5c1-1.6,1.8-2.7,2.3-3.4
			s1.3-1.3,2.1-1.7c0.8-0.5,2-0.9,3.6-1.4c6.2-2,11.5-2.9,16.1-2.9c1.9,0,3.5,0.2,4.9,0.7c1.4,0.5,2.4,1.2,3.2,2.1
			C49.7,25.6,50.1,26.6,50.1,27.8z M91.8,33.7c0,0.5,0,0.9-0.1,1.4c-0.1,0.5-0.3,0.9-0.6,1.3c-0.3,0.4-0.6,0.8-1,1
			c-0.4,0.3-0.7,0.4-1.1,0.5c-0.5,0.1-1-0.1-1.3-0.4c-0.4-0.3-0.6-0.8-0.6-1.5c0-0.5,0.1-1.1,0.4-1.7c0.3-0.6,0.8-1,1.3-1.4
			c0.5-0.4,1.1-0.6,1.6-0.6c0.4,0,0.7,0.1,1,0.3C91.6,32.9,91.7,33.3,91.8,33.7"/>
		<path class="st1" d="M25.7,37.2l-1.5,2.3c0,0-0.5,0.6-0.7,1.1c-0.2,0.5-0.6,1-1.2,1.1c0,0,0,0,0,0c0.1,0,0.2,0,0.3,0
			c-0.3,0.4-0.8,1-1.4,1.8c0,0,0,0,0,0c0,0.4-0.2,0.6-0.6,0.7c-0.6,0.8-1.1,1.4-1.5,2.1c-0.5,0.8-0.9,1.6-1.3,2.5
			c-0.4,0.8-0.5,1.7-0.5,2.5c0,1.6,0.8,2.9,2.3,3.9c0.5,0.3,1,0.6,1.5,0.8c1.9-1.7,3.7-3.6,4.5-5.2l0.1-0.1
			c-0.5-0.1-0.9-0.3-1.2-0.5C23.5,49.7,23,49,23,48.2c0-0.4,0.2-1,0.7-1.6c0.5-0.7,1.1-1.5,2-2.4c0.8-0.9,1.3-1.5,1.6-1.7
			c0.2,0,1,0.1,2.3,0.3c0.4-0.7,0.9-1.5,1.5-2.4c-0.6-0.1-1.2-0.2-1.8-0.3l0.9-0.8c0.6-0.1,1.2-0.2,1.9-0.4c0.6-0.9,1.1-1.8,1.8-2.8
			c-0.3,0-0.7,0.1-1,0.1c1.6-1.8,2.7-3.3,3.5-4.2c0.2-0.3,0.4-0.5,0.6-0.7l0.4-0.7c0.1-0.2,0.1-0.3,0.1-0.4c0-0.2-0.2-0.3-0.5-0.3
			c-1,0-1.9,0.2-2.8,0.7c-0.9,0.4-1.8,1-2.7,1.8c-0.9,0.8-1.8,1.6-2.7,2.6c-0.9,1-1.6,1.7-2.1,2.3C26.3,37.2,26.1,37.2,25.7,37.2z
			 M35.3,22.3l-4.5,7c1.1-0.3,2.2-0.6,3.2-0.8c1.6-0.3,3.3-0.6,5-0.7c1.4-2.2,2.7-4.3,3.7-5.9c-0.6-0.1-1.2-0.1-1.8-0.1
			C39.1,21.9,37.2,22.1,35.3,22.3"/>
		<path class="st1" d="M20.6,45.5c1.5,0.5,1.9,2.7,0.9,4.8c-0.8,1.7-2.4,2.9-3.8,3.1c-0.3-0.6-0.5-1.3-0.5-2c0-0.8,0.2-1.6,0.5-2.5
			c0.4-0.9,0.8-1.7,1.3-2.5c0.2-0.3,0.5-0.7,0.7-1.1C20.1,45.4,20.4,45.4,20.6,45.5"/>
		<path class="st1" d="M24.9,44.6c0,0-1.8,1.4-1.9,1.5c-0.1,0.1-0.1,0.5,0.1,0.5c0.1,0,0.9-0.5,1.4-0.9c0.1-0.2,0.3-0.3,0.4-0.5
			C24.9,44.9,24.9,44.6,24.9,44.6"/>
	</g>
	<g>
		<defs>
			<rect id="SVGID_1_" x="13.9" y="16.7" width="31.5" height="46.5"/>
		</defs>
		<clipPath id="SVGID_00000111895773722394048570000005667013912149254333_">
			<use xlink:href="#SVGID_1_"  style="overflow:visible;"/>
		</clipPath>
		<g style="clip-path:url(#SVGID_00000111895773722394048570000005667013912149254333_);">
			<path class="st3" d="M44.7,18.8c0,0-1.8-1.5-3.3-1.8c-1.5-0.4-2.6-0.1-2.6-0.1L24.3,39.6c0,0-0.5,0.6-0.7,1.1
				c-0.2,0.5-0.6,1-1.2,1.1c-0.6,0.1-1.1,1.3-1.1,1.9c0,0.6-0.5,0.7-1.2,0.9c-0.6,0.2-4.1,1.2-5.1,5.2c-1,4,0.5,9.3,0.5,9.3l0,0.8
				c0,0-1.6,1.7-1.5,2.5c0.1,0.8,0.7,0.9,0.7,0.9s-0.4-0.7,0.5-2c0.9-1.3,8.7-6.6,10.5-10.4c1.9-3.8,1.4-4,3-6.6
				S44.7,18.8,44.7,18.8"/>
		</g>
	</g>
	<path class="st4" d="M20.6,45.5c1.5,0.5,1.9,2.7,0.9,4.8c-1.7,3.5-5.5,4.2-6.1,1.2C14.9,48.5,18.2,44.7,20.6,45.5"/>
	<path class="st0" d="M42.9,22L40,27.8C38,27.9,36,28.2,34,28.6c-1.4,0.3-2.8,0.7-4.3,1.1l2.7-6.9c3.1-0.6,5.9-0.9,8.4-0.9
		C41.6,21.9,42.3,21.9,42.9,22"/>
	<path class="st0" d="M127.9,42.6c-1.5,0.4-2.8,0.9-4.2,1.4s-2.6,1.2-3.8,2c-0.8,0.5-1.4,1-1.6,1.5c-0.3,0.5-0.4,1.1-0.4,2
		c0,0.6,0.2,0.9,0.6,0.9c0.6,0,1.5-0.5,2.8-1.4c1.3-1,2.6-2.1,3.9-3.4C126.4,44.3,127.3,43.3,127.9,42.6z M156.1,49.8
		c-0.2,0.2-0.8,0.7-1.8,1.6c-1,0.9-1.9,1.6-2.6,2.1c-0.7,0.5-1.4,0.8-2,0.8c-0.6,0-1.2-0.2-1.6-0.7c-0.4-0.5-0.7-1.1-0.7-1.8
		c0-0.7,0.1-1.4,0.4-2.1c0.3-0.7,0.6-1.3,1-1.9c0.4-0.6,0.9-1.3,1.6-2.1l-3.8,1c-0.7,0.8-1.2,1.3-1.6,1.7c-0.4,0.4-1.1,1-2,1.9v0
		c-0.6,0.4-1.3,0.9-2.2,1.4c-0.9,0.6-1.8,1.1-2.6,1.5c-0.8,0.4-1.6,0.5-2.2,0.5c-0.8-0.1-1.5-0.5-1.9-1.3c-0.4-0.7-0.6-1.7-0.6-2.9
		c-0.6,0.5-1.3,1.1-2,1.7c-1,0.9-2,1.6-3,2.2c-1,0.6-1.8,0.9-2.5,0.9c-0.4,0-0.8-0.2-1.1-0.6c-0.3-0.4-0.5-0.9-0.5-1.3
		c0-0.5,0.1-1.2,0.4-1.9c0.2-0.7,0.6-1.6,1.1-2.6c-0.6,0.5-1.4,1.2-2.5,2.2c-1.1,0.9-2.1,1.7-3,2.4c-0.9,0.7-1.7,1-2.1,1
		c-0.5,0-1-0.3-1.5-0.8c-0.5-0.5-0.8-1.2-1.2-1.9c-0.3-0.7-0.5-1.3-0.6-1.9c0-0.8,0-1.4,0.1-1.7c0.3-0.9,1-1.9,2.1-2.9
		c1.1-1,2.5-1.9,4-2.7c1.6-0.8,3.1-1.5,4.5-2c1.5-0.5,2.6-0.7,3.6-0.7c0.9,0,1.7,0.5,2.2,1.4c0.1,0.2,0.2,0.3,0.2,0.4
		c0,0.2-0.1,0.4-0.2,0.5c-0.2,0.1-0.3,0.2-0.6,0.3c-0.2,0.1-0.4,0.1-0.6,0.2c0.7,0.3,1.1,0.8,1.1,1.5c0,0.3-0.1,0.7-0.4,1.1
		c-0.3,0.4-0.7,1-1.3,1.7c-0.6,0.7-1,1.3-1.3,1.8c-0.3,0.4-0.4,0.9-0.4,1.3c0,0.4,0.1,0.6,0.4,0.9c0.2,0.2,0.5,0.3,0.9,0.3
		c0.3,0,0.7-0.1,1-0.2c0.3-0.1,0.7-0.4,1.2-0.7c0.5-0.3,1.3-1,2.6-1.9c0.2-0.5,0.4-1,0.8-1.5c0.7-1.2,1.6-2.1,2.6-2.9
		c1.1-0.7,2.1-1.1,3.2-1c0.4,0,0.7,0.2,0.9,0.4c0.2,0.2,0.3,0.4,0.3,0.7c0,0.4-0.4,0.9-1,1.6c-0.6,0.6-1.3,1.3-2.1,2
		c-0.8,0.7-1.5,1.2-2,1.6c-0.2,0.3-0.3,0.5-0.3,0.8c0,0.5,0.1,0.9,0.4,1.2c0.3,0.3,0.8,0.5,1.4,0.6c0.6,0.1,1.3-0.1,2-0.4
		c1.5-0.6,2.9-1.4,4-2.6c0.2-0.2,0.4-0.5,0.8-0.9c-0.3,0-0.6-0.1-0.7-0.2c-0.1-0.1-0.2-0.4-0.2-0.7c0-0.6,0.2-1.3,0.7-2.2
		c0.5-0.8,1.1-1.5,1.7-2.1c0.7-0.6,1.2-0.9,1.6-0.9c0.2,0,0.3,0.1,0.5,0.2c0.1,0.2,0.2,0.3,0.2,0.5c0,0.2-0.1,0.4-0.2,0.8l4.1-0.7
		c0.1,0,0.2,0,0.3,0c0.1,0,0.2,0,0.2,0c0.4,0,0.7,0.2,1.1,0.6c0.3,0.4,0.5,0.9,0.5,1.5c0,0.4-0.1,0.7-0.4,1.1
		c-0.3,0.3-0.7,0.9-1.4,1.6c-0.7,0.7-1.2,1.3-1.5,1.8c-0.3,0.5-0.5,1.1-0.5,1.7c0,0.7,0.4,1,1,0.9c0.3,0,0.7-0.1,1-0.3
		c0.4-0.2,0.8-0.4,1.2-0.7c0.4-0.3,0.8-0.6,1.1-0.8c0.3-0.2,0.6-0.5,0.9-0.7L156.1,49.8z M145,38.8c0,0.3-0.1,0.7-0.3,1
		c-0.2,0.3-0.4,0.6-0.7,0.9c-0.3,0.3-0.6,0.5-0.9,0.6c-0.3,0.2-0.6,0.2-0.9,0.2c-0.4,0-0.8-0.2-1-0.5c-0.2-0.3-0.3-0.7-0.3-1.2
		c0-0.4,0.2-0.8,0.6-1.2c0.3-0.4,0.7-0.7,1.2-0.9c0.5-0.2,0.9-0.3,1.3-0.2c0.3,0,0.6,0.2,0.7,0.4C145,38.2,145,38.5,145,38.8"/>
</g>
</svg>
