<?xml version="1.0" encoding="utf-8"?>
<!-- Generator: Adobe Illustrator 26.3.1, SVG Export Plug-In . SVG Version: 6.00 Build 0)  -->
<svg version="1.1" id="Layer_1" xmlns="http://www.w3.org/2000/svg" xmlns:xlink="http://www.w3.org/1999/xlink" x="0px" y="0px"
	 viewBox="0 0 170 80" style="enable-background:new 0 0 170 80;" xml:space="preserve">
<style type="text/css">
	.st0{fill:#1F2253;}
	.st1{clip-path:url(#SVGID_00000043416676156021259000000003840287561463957400_);}
	.st2{fill:#ED1C24;}
</style>
<g>
	<path class="st0" d="M5,40c0.4-0.4,0.7-0.7,1.1-0.9c0.7-0.3,1.2-0.3,1.7,0.3c1.8,1.8,3.6,3.7,5.3,5.5c2,2.1,4,4.1,5.9,6.2
		c0.2,0.2,0.4,0.5,0.7,0.8c4.2-4,8.3-7.9,12.5-11.9c-4.4-4.5-8.7-9-13.1-13.4c0.4-0.5,0.8-1,1.4-1.2c0.6-0.3,1-0.2,1.6,0.3
		c0.7,0.7,1.3,1.4,2,2.1c1.8,1.9,3.7,3.9,5.5,5.8c2,2.1,3.9,4.2,5.9,6.3c0,0,0.1,0.1,0.1,0.2c-0.2,0.2-0.4,0.3-0.5,0.5
		c-2.8,2.7-5.7,5.4-8.5,8.2c-1.7,1.6-3.4,3.2-5,4.8c0,0-0.1,0.1-0.1,0.1c-1.2,1.2-2.7,1-3.7-0.1c-1.1-1.2-2.3-2.4-3.4-3.6
		c-1.5-1.6-3-3.1-4.5-4.7c-1.6-1.7-3.1-3.3-4.7-5C5.1,40.2,5.1,40.1,5,40"/>
	<g>
		<defs>
			<rect id="SVGID_1_" x="13.2" y="23.5" width="29.1" height="32.9"/>
		</defs>
		<clipPath id="SVGID_00000137849485003124880650000009891650554077311666_">
			<use xlink:href="#SVGID_1_"  style="overflow:visible;"/>
		</clipPath>
		<g style="clip-path:url(#SVGID_00000137849485003124880650000009891650554077311666_);">
			<path class="st0" d="M13.6,56.3c0.1-0.3,0.3-0.4,0.5-0.4c0.2,0,0.4,0,0.6,0h6h0.8c5.7-5.2,11.3-10.4,17-15.7
				C33.2,34.8,27.9,29.4,22.7,24c-0.3,0-0.5,0-0.7,0c-2,0-4.1,0-6.1,0c-0.4,0-0.8,0-1.1-0.4c0.2,0,0.3-0.1,0.4-0.1
				c3.1,0,6.3,0,9.4,0c1,0,1.9,0.4,2.7,1.2c1.6,1.8,3.3,3.5,5,5.3c1.6,1.7,3.3,3.5,4.9,5.2c1.4,1.5,2.8,2.9,4.2,4.4
				c0.1,0.2,0.3,0.3,0.5,0.5c-0.1,0.2-0.2,0.3-0.4,0.4c-3.7,3.5-7.3,7.1-11,10.6c-1.4,1.3-2.8,2.7-4.2,4.1c-1,1.1-2.3,1.3-3.7,1.2
				c-0.3,0-0.6-0.1-0.8-0.1c-2.6,0-5.2,0-7.8,0C13.9,56.4,13.8,56.4,13.6,56.3"/>
		</g>
	</g>
	<path class="st0" d="M18.2,31.2c-0.7,0.6-1.4,1.2-2,1.8c-1.8,1.6-3.7,3.2-5.5,4.8c-0.6,0.5-1,0.5-1.6,0c-0.2-0.2-0.4-0.4-0.7-0.7
		c0.4-0.4,0.8-0.8,1.2-1.1c1.5-1.4,3-2.7,4.4-4.1c1.1-1,2.1-1.9,3.2-2.9c1-0.9,1.6-0.9,2.5,0.1c2.4,2.4,4.8,4.9,7.2,7.4
		c0.9,1,1.9,1.9,2.8,2.9c0.1,0.1,0.2,0.3,0.4,0.4c-3.3,3.1-6.7,6.2-10,9.3c-0.5-0.4-0.9-0.8-1-1.4c-0.1-0.3,0-0.6,0.2-0.8
		c0.2-0.2,0.4-0.4,0.6-0.6c2.1-2.1,4.3-4.1,6.4-6.2c0.1-0.1,0.3-0.3,0.5-0.5C23.8,36.9,21,34.1,18.2,31.2"/>
	<path class="st2" d="M24.3,39.9c-0.1,0.1-0.2,0.2-0.3,0.3c-1.8,1.6-3.6,3.3-5.4,4.9c-1,0.9-1.5,0.8-2.4-0.1
		c-0.9-0.9-1.7-1.8-2.6-2.7c-0.8-0.8-1.6-1.7-2.3-2.5c-0.1-0.1-0.1-0.1-0.2-0.2c0.5-0.4,0.9-0.9,1.4-1.3c1.1-1,2.3-2,3.4-3
		c0.4-0.4,0.8-0.7,1.2-1.1c0.6-0.5,0.9-0.5,1.5,0c1.8,1.8,3.6,3.6,5.4,5.3C24.1,39.6,24.2,39.7,24.3,39.9"/>
	<g>
		<path class="st0" d="M93.6,42c0.8,0.2,2.3,0.2,2.9,0c0-0.6,0-1.3,0-1.9c0-0.6,0-1.3-0.2-2.1C95.3,39.4,94.5,40.7,93.6,42z
			 M106,37.1c-0.9,3.2-1.9,6.3-2.8,9.5c0.6,0.4,1.2,0,1.8,0.2c-0.1,0.3-0.2,0.5-0.3,0.8c-3.2,0-6.3,0-9.5,0c0.1-0.3,0.2-0.5,0.3-0.8
			c0.4,0,0.8-0.1,1.2-0.1c0.1-1.2-0.1-2.5-0.1-3.7c-0.6-0.2-2.8-0.2-3.8-0.1c-0.8,1.2-1.6,2.4-2.4,3.6c0.4,0.4,0.9,0.1,1.4,0.3
			c0,0.2-0.1,0.5-0.1,0.7c-1.3,0-2.6,0-3.9,0c-0.1-0.3,0.1-0.6,0.2-0.9h1.1c2.6-3.9,5.3-7.8,7.9-11.7h1.6c0.3,1.9,0.4,3.9,0.6,5.9
			c0.2,1.9,0.3,3.9,0.6,5.8h2.2c0.1-0.2,0.2-0.4,0.3-0.5c1-3.2,1.9-6.5,2.8-9.7c0,0,0-0.1,0-0.3c-0.3,0-0.7-0.1-1-0.1
			c0-0.4,0-0.4,0.2-0.8h4.4c1,2.8,2,5.6,3,8.7c0.4-1,0.6-1.8,0.8-2.6c0.3-0.9,0.5-1.7,0.8-2.6c0.2-0.8,0.5-1.7,0.7-2.5
			c-0.6-0.3-1.2,0-1.8-0.3c0.1-0.3,0.2-0.5,0.3-0.7h4.3c-0.1,0.3-0.1,0.5-0.2,0.8c-0.4,0-0.8,0.1-1.3,0.1c-1.1,3.8-2.2,7.6-3.4,11.4
			c-0.6,0-1.2,0-1.9,0c-1.2-3.5-2.4-7-3.7-10.5C106.2,37.1,106.1,37.1,106,37.1"/>
		<path class="st0" d="M65.9,36.3c-0.5,1.5-0.9,2.9-1.3,4.5c1.4,0.1,2.6-0.1,3.6-0.8c0.7-0.5,1.1-1.1,1.2-1.9c0.1-0.8-0.2-1.3-1-1.6
			C67.6,36.2,66.8,36.2,65.9,36.3z M67,41.6c0.9,1.8,1.7,3.5,2.6,5.2h2c0.3-0.5,3-9.2,3.2-10.4c-0.3-0.1-0.7-0.1-1.1-0.2
			c0.1-0.3,0.2-0.5,0.3-0.8h5c0,0.4,0,0.4-0.2,0.8c-0.3,0-0.7,0.1-1,0.1c-0.4,0.8-3,9.9-3,10.5c0.3,0,0.6,0.1,1.1,0.1
			c-0.1,0.3-0.2,0.5-0.3,0.8c-2.7,0-5.5,0-8.3,0c-0.9-1.8-1.8-3.7-2.7-5.6c-0.1,0-0.1,0-0.2,0c-0.4,1.5-0.9,3-1.4,4.6
			c0.3,0,0.4,0.1,0.6,0.1c0.2,0,0.4,0,0.6,0c-0.1,0.3-0.1,0.5-0.2,0.8c-1.7,0-3.4,0-5.2,0c0.1-0.3,0.1-0.5,0.2-0.8
			c0.4,0,0.7,0,1.1-0.1c0.5-1.1,0.7-2.3,1.1-3.4c0.4-1.2,0.7-2.4,1-3.6c0.3-1.2,0.7-2.3,1-3.5c-0.4,0-0.7-0.1-1.1-0.1
			c0.1-0.3,0.1-0.5,0.2-0.8c0.2,0,0.4-0.1,0.6-0.1c1.7,0,3.4,0,5.1,0c1.1,0,2.1,0.1,3.1,0.5c1,0.4,1.4,1.3,1.2,2.4
			c-0.2,1-0.8,1.7-1.6,2.2c-0.9,0.6-1.9,0.9-2.9,1C67.4,41.5,67.3,41.5,67,41.6"/>
		<path class="st0" d="M157.1,40.5c1.4,0.1,2.6-0.1,3.7-0.8c0.6-0.4,1-0.9,1.2-1.6c0.3-1,0-1.6-1.1-1.9c-0.8-0.2-1.6-0.2-2.5-0.1
			C158,37.6,157.6,39,157.1,40.5z M155.7,36.2c-0.5,0-0.8-0.1-1.2-0.1c0.1-0.3,0.2-0.5,0.3-0.8c0.1,0,0.2-0.1,0.3-0.1
			c2,0,4.1,0,6.1,0c0.8,0,1.6,0.2,2.3,0.4c0.3,0.1,0.5,0.2,0.8,0.4c0.7,0.5,0.9,1.3,0.6,2.1c-0.3,0.8-0.8,1.5-1.5,2
			c-0.9,0.6-1.8,0.9-2.8,1.1c-0.3,0-0.6,0.1-0.9,0.2c0.9,1.8,1.7,3.4,2.6,5.1c0.4,0,0.7,0.1,1.2,0.1c-0.1,0.3-0.1,0.5-0.2,0.8
			c-1.2,0-2.3,0-3.5,0c-0.9-1.8-1.8-3.6-2.8-5.5c-0.6,1.5-1,3-1.5,4.6c0.5,0,0.8,0.1,1.3,0.1c-0.1,0.3-0.2,0.5-0.3,0.8
			c-1.8,0-3.5,0-5.3,0c0.1-0.3,0.1-0.5,0.2-0.8c0.4,0,0.8-0.1,1.2-0.1C153.6,43.1,154.5,39.7,155.7,36.2"/>
		<path class="st0" d="M57.8,37.8c-0.2-1.4,0.2-2.8-0.6-4c-0.4,0-0.7,0-1,0c-0.3,0.6-3.2,11.4-3.3,12.7c0.4,0,0.9,0.1,1.4,0.1
			c-0.1,0.3-0.1,0.6-0.2,0.9c-0.6,0.2-4.7,0.2-5.8,0.1c0-0.5,0-0.5,0.2-1c0.4,0,0.9,0,1.3-0.1c0.3-0.5,3.3-11.9,3.3-12.7
			c-0.7-0.3-1.4,0-1.8,0.6c-0.5,0.8-1,1.7-1.5,2.6c-0.1,0.2-0.3,0.5-0.4,0.8c-0.4,0-0.7,0-1.1,0c0.4-1.7,0.8-3.3,1.3-5h10.6
			c-0.4,1.7-0.8,3.3-1.3,5C58.5,37.8,58.2,37.8,57.8,37.8"/>
		<path class="st0" d="M139,35.9c-0.5,0.4-2.6,4.1-2.8,4.7c0.7,0.2,2.4,0.2,2.9-0.1C139.1,39,139,37.5,139,35.9z M137.8,47.3
			c0.1-0.3,0.1-0.6,0.2-0.9c0.4,0,0.8-0.1,1.3-0.1c0.1-1.5,0-2.9-0.2-4.5c-1.3,0-2.6,0-3.9,0c-0.9,1.5-1.7,2.9-2.6,4.5
			c0.6,0,1,0,1.5,0.1c0.1,0.4-0.1,0.6-0.2,0.9c-0.7,0.2-3.5,0.2-4.1,0c0.1-0.3,0.1-0.5,0.2-0.9c0.4,0,0.7,0,1.2-0.1
			c1-1.4,1.8-3,2.7-4.5c0.9-1.6,1.9-3.1,2.8-4.7c0.9-1.5,1.8-3.1,2.8-4.6h1.8c0.4,4.6,0.7,9.1,1.1,13.7c0.4,0,0.7,0.1,1.2,0.1
			c-0.1,0.3-0.1,0.6-0.2,1C141.5,47.3,139.7,47.3,137.8,47.3"/>
		<path class="st0" d="M90.3,36c-0.4,1.2-0.7,2.3-1,3.5c-0.4,0-0.8,0-1.2,0c0-0.3,0-0.6,0-0.9c-0.1-0.6-0.2-1.3-0.4-1.8
			c-0.3-0.7-0.8-0.9-1.5-0.8c-1.8,0.2-3.1,1.1-4.1,2.5c-1.1,1.7-1.6,3.5-1.9,5.5c-0.1,0.5,0,1.1,0.1,1.6c0.2,0.9,0.8,1.4,1.7,1.5
			c0.5,0.1,1.1,0,1.6,0c0.6,0,1.1-0.4,1.3-0.9c0.5-1,0.7-2.1,1-3.3c-0.6,0-1.2-0.1-1.8-0.1c0.1-0.3,0.2-0.6,0.3-0.8h5.5
			c-0.1,0.3-0.1,0.6-0.2,0.8c-0.3,0-0.6,0.1-0.9,0.1c-0.4,0.6-0.4,1.3-0.7,1.9c-0.2,0.6-0.4,1.3-0.6,2c-0.2,0.1-0.3,0.2-0.5,0.3
			c-1.8,0.9-3.8,1.2-5.8,0.9c-2.6-0.4-4.1-2.4-3.7-5c0.4-2.2,1.4-4.1,3.1-5.5c2-1.7,4.4-2.5,7.1-2.3C88.7,35.1,89.5,35.4,90.3,36"/>
		<path class="st0" d="M121.6,42.1c0-1.4-0.1-2.7-0.3-4c-0.8,1.3-1.7,2.6-2.6,4C119.7,42.1,120.6,42.1,121.6,42.1z M124.8,46.8
			c0.4,0,0.7,0.1,1,0.1c0,0.4,0,0.4-0.2,0.8c-1.7,0-3.4,0-5.2,0c0.1-0.3,0.1-0.5,0.2-0.8c0.4,0,0.8-0.1,1.3-0.1
			c0.2-1.2-0.1-2.5-0.1-3.6c-0.6-0.2-2.2-0.3-3.8-0.1c-0.8,1.2-1.6,2.4-2.4,3.6c0.5,0.3,0.9,0,1.4,0.2c0.1,0.3-0.1,0.5-0.3,0.8
			c-1.3,0-2.5,0-3.9,0c0.1-0.3,0.2-0.5,0.3-0.8c0.4,0,0.8-0.1,1.2-0.1c2.6-3.9,5.3-7.8,7.9-11.7h1.6c0.3,1.9,0.4,3.9,0.6,5.8
			C124.5,42.8,124.7,44.8,124.8,46.8"/>
		<path class="st0" d="M150,36.2c-0.5,0-0.8-0.1-1.2-0.1c0.1-0.3,0.2-0.5,0.3-0.8h5.1c0,0.4,0,0.4-0.2,0.8c-0.3,0-0.7,0.1-1.1,0.1
			c-1,3.4-2.1,6.8-3.1,10.3c0.4,0.1,0.7,0.1,1.2,0.1c-0.1,0.3-0.1,0.5-0.2,0.8c-1.7,0-3.4,0-5.2,0c0.1-0.3,0.1-0.5,0.2-0.8
			c0.4,0,0.8-0.1,1.2-0.1C147.9,43,148.9,39.7,150,36.2"/>
	</g>
</g>
</svg>
