<?xml version="1.0" encoding="utf-8"?>
<!-- Generator: Adobe Illustrator 26.3.1, SVG Export Plug-In . SVG Version: 6.00 Build 0)  -->
<svg version="1.1" id="Layer_1" xmlns="http://www.w3.org/2000/svg" xmlns:xlink="http://www.w3.org/1999/xlink" x="0px" y="0px"
	 viewBox="0 0 170 80" style="enable-background:new 0 0 170 80;" xml:space="preserve">
<style type="text/css">
	.st0{fill:#EA1E28;}
	.st1{clip-path:url(#SVGID_00000180363258291378459780000010774954622750530950_);}
	.st2{fill:#211C1D;}
	.st3{clip-path:url(#SVGID_00000047027966786320409500000009223974393526252957_);}
	.st4{clip-path:url(#SVGID_00000064319197924242510090000010878142536959986329_);}
	.st5{clip-path:url(#SVGID_00000105399963950105496270000004142180448660337311_);}
	.st6{clip-path:url(#SVGID_00000065040064126936261850000015384988195172159622_);}
	.st7{clip-path:url(#SVGID_00000045610756450735271820000015089651984061080744_);}
	.st8{clip-path:url(#SVGID_00000026150449574171788510000013734703883619405218_);}
	.st9{clip-path:url(#SVGID_00000043445244824980720230000007973429115665306550_);}
	.st10{clip-path:url(#SVGID_00000003096925517686017230000016930765379992318130_);}
	.st11{clip-path:url(#SVGID_00000104701468410169241840000015553617710481894290_);}
	.st12{clip-path:url(#SVGID_00000155104573049437274690000015797697916927250611_);}
	.st13{clip-path:url(#SVGID_00000080925330018053075730000004740556953025350794_);}
	.st14{clip-path:url(#SVGID_00000111189901203875149490000009032344060718916756_);}
</style>
<g>
	<path class="st0" d="M85.5,48.6h1.7l-0.1-2L85.5,48.6z"/>
	<path class="st0" d="M95,37.9c-4.4,4.3-11,1.6-10.4-3.7c0.5-4,5.5-8.1,9.3-10.3v-0.1c-0.5-0.5-1.5-1.5-2.2-2.3
		c-1.8-2.2-5-2.3-6.9,0.2l-10.9,1c-0.1,0-0.1,0.1,0,0.1l11.6,0.7c2.1,0.2,2.7,2,0.8,3.5c-7.3,5.6-8.6,11.5-7,16.2l-0.1,0.1
		c-0.7-0.9-1.2-2.1-1.5-3.4c-3.6-2.2-6.5-6.5-6.5-11.8c0-7.6,6.2-13.9,13.9-13.9S99,20.4,99,28C99.2,32.2,97.4,35.7,95,37.9z
		 M97.7,51H91l2.4-6.2h3l-1.8,4.9h3.7L97.7,51z M87.3,51v-1.1h-2.7l-1,1.2h-2.4l5-5.7c0.2-0.3,0.6-0.5,0.9-0.5h2.7l0.6,6.2L87.3,51
		L87.3,51z M77.2,51.2c-0.8,0-1.5-0.1-2.1-0.2l0.5-1.3c1.4,0.2,2.5,0.1,3-1.1l1.5-3.7h3l-1.6,4.1C80.6,51.1,78.6,51.2,77.2,51.2z
		 M106.8,37.2c0.2-1.4,0.1-3.3-0.2-4.7h-0.1c-0.5,2.1-1.8,5-4.7,7.3l-0.1-0.1c2.6-2.7,4.1-6.2,4.4-9.6c-0.5-2-1.2-3.8-2.2-5.4h-0.1
		c0.5,3.5-0.3,8.2-3.7,12l-0.1-0.1c3-4.3,3.7-9.5,2.4-14.1c-3.7-5.4-10.1-8.9-17.2-8.9S71.8,17,67.8,22.4c-1.3,4.7-0.5,9.8,2.4,14.1
		l-0.1,0.1c-3.4-3.7-4.3-8.5-3.7-12h-0.1c-0.9,1.7-1.7,3.5-2.2,5.4c0.2,3.5,1.8,6.9,4.4,9.6l-0.1,0.1c-3-2.3-4.3-5.2-4.7-7.3h-0.1
		c-0.2,1.5-0.2,3.4-0.2,4.7c0.8,2.3,2.3,4.3,4,5.6v0.1c-1.8-1.1-2.8-2.2-3.5-3.2h-0.1c2,9.7,10.7,17.2,21.1,17.2s19.2-7.5,21.1-17.2
		h0.2c-0.7,1-1.7,2.1-3.5,3.2l-0.1-0.1C104.4,41.4,106.1,39.5,106.8,37.2"/>
	<g>
		<g>
			<defs>
				<rect id="SVGID_1_" x="104.9" y="63.4" width="4.5" height="3.1"/>
			</defs>
			<clipPath id="SVGID_00000036253271630948260750000002548868635086672278_">
				<use xlink:href="#SVGID_1_"  style="overflow:visible;"/>
			</clipPath>
			<g style="clip-path:url(#SVGID_00000036253271630948260750000002548868635086672278_);">
				<path class="st2" d="M109,65.5c-0.3,0.7-1.2,0.9-2.2,0.9c-1,0-1.7-0.2-1.5-0.9h1.3c-0.1,0.2,0.1,0.3,0.5,0.3
					c0.4,0,0.6-0.2,0.7-0.3c0.2-0.5-2.4,0-2-1.1c0.2-0.6,1.1-0.8,2.1-0.8c1,0,1.6,0.2,1.5,0.8h-1.2c0-0.2-0.1-0.3-0.4-0.3
					c-0.4,0-0.6,0.2-0.7,0.3C106.9,64.9,109.5,64.4,109,65.5"/>
			</g>
		</g>
	</g>
	<g>
		<g>
			<defs>
				<rect id="SVGID_00000155860871649555913660000000000164382119891354_" x="85" y="63.4" width="2.9" height="3.1"/>
			</defs>
			<clipPath id="SVGID_00000131369116364616574620000000364312732527710103_">
				<use xlink:href="#SVGID_00000155860871649555913660000000000164382119891354_"  style="overflow:visible;"/>
			</clipPath>
			<g style="clip-path:url(#SVGID_00000131369116364616574620000000364312732527710103_);">
				<path class="st2" d="M86.5,66.3h-1.3l1.1-2.7h1.3L86.5,66.3z"/>
			</g>
		</g>
	</g>
	<g>
		<g>
			<defs>
				<rect id="SVGID_00000065773243837601191070000015241287092842867079_" x="95" y="63.4" width="2.5" height="3.1"/>
			</defs>
			<clipPath id="SVGID_00000109724233660914276610000013489217963068509875_">
				<use xlink:href="#SVGID_00000065773243837601191070000015241287092842867079_"  style="overflow:visible;"/>
			</clipPath>
			<g style="clip-path:url(#SVGID_00000109724233660914276610000013489217963068509875_);">
				<path class="st2" d="M96.3,66.3H95l1.1-2.7h1.3L96.3,66.3z"/>
			</g>
		</g>
	</g>
	<g>
		<g>
			<defs>
				<rect id="SVGID_00000165941430582191512940000012546348142289906586_" x="101.2" y="63.4" width="4.6" height="3.1"/>
			</defs>
			<clipPath id="SVGID_00000141429019921227914930000008575167217486117540_">
				<use xlink:href="#SVGID_00000165941430582191512940000012546348142289906586_"  style="overflow:visible;"/>
			</clipPath>
			<g style="clip-path:url(#SVGID_00000141429019921227914930000008575167217486117540_);">
				<path class="st2" d="M104.5,66.3h-3.1l1.1-2.7h3.1l-0.2,0.5h-1.8l-0.2,0.6h1.5l-0.2,0.5h-1.5l-0.2,0.5h1.8L104.5,66.3z"/>
			</g>
		</g>
	</g>
	<g>
		<g>
			<defs>
				<rect id="SVGID_00000108309349459326968820000012776804881483909515_" x="75.1" y="63.4" width="5" height="3.1"/>
			</defs>
			<clipPath id="SVGID_00000067229491742619374340000002559485717851798152_">
				<use xlink:href="#SVGID_00000108309349459326968820000012776804881483909515_"  style="overflow:visible;"/>
			</clipPath>
			<g style="clip-path:url(#SVGID_00000067229491742619374340000002559485717851798152_);">
				<path class="st2" d="M79,66.3h-1.1l-0.8-1.6l-0.6,1.6h-1.1l1.1-2.7h1.2l0.8,1.4l0.6-1.4h1.1L79,66.3z"/>
			</g>
		</g>
	</g>
	<g>
		<g>
			<defs>
				<rect id="SVGID_00000101785563176859988740000017555276130667777198_" x="97.1" y="63.4" width="5" height="3.1"/>
			</defs>
			<clipPath id="SVGID_00000028287151995568470280000009461860605339220625_">
				<use xlink:href="#SVGID_00000101785563176859988740000017555276130667777198_"  style="overflow:visible;"/>
			</clipPath>
			<g style="clip-path:url(#SVGID_00000028287151995568470280000009461860605339220625_);">
				<path class="st2" d="M100.7,66.3h-1.1l-0.8-1.6l-0.6,1.6h-1.1l1.1-2.7h1.2l0.8,1.4l0.6-1.4h1.1L100.7,66.3z"/>
			</g>
		</g>
	</g>
	<g>
		<g>
			<defs>
				<rect id="SVGID_00000090976148141509392880000002521600983266160533_" x="60.6" y="63.4" width="3.7" height="3.1"/>
			</defs>
			<clipPath id="SVGID_00000076575386179607654630000001339101956115201701_">
				<use xlink:href="#SVGID_00000090976148141509392880000002521600983266160533_"  style="overflow:visible;"/>
			</clipPath>
			<g style="clip-path:url(#SVGID_00000076575386179607654630000001339101956115201701_);">
				<path class="st2" d="M63.3,65.4c-0.4,0.9-1.2,1-1.8,1c-0.3,0-0.7-0.1-0.9-0.1l0.2-0.6c0.6,0.1,1.1,0,1.3-0.5l0.6-1.6H64
					L63.3,65.4z"/>
			</g>
		</g>
	</g>
	<g>
		<g>
			<defs>
				<rect id="SVGID_00000115508092312177641650000015732402412604774834_" x="67.2" y="63.4" width="5" height="3.1"/>
			</defs>
			<clipPath id="SVGID_00000036942654814443869970000000831904742765763984_">
				<use xlink:href="#SVGID_00000115508092312177641650000015732402412604774834_"  style="overflow:visible;"/>
			</clipPath>
			<g style="clip-path:url(#SVGID_00000036942654814443869970000000831904742765763984_);">
				<path class="st2" d="M70.7,64.5c-0.1,0.2-0.3,0.3-0.5,0.3h-0.7l0.2-0.7h0.7C70.6,64.1,70.8,64.3,70.7,64.5z M70.6,63.6h-2
					l-1.1,2.7h1.3l0.4-1H70c1.2,0,1.8-0.3,2.1-0.8C72.3,64,71.8,63.6,70.6,63.6"/>
			</g>
		</g>
	</g>
	<g>
		<g>
			<defs>
				<rect id="SVGID_00000149355481376023093010000004735559571852831903_" x="87.1" y="63.4" width="5" height="3.1"/>
			</defs>
			<clipPath id="SVGID_00000054256571274749165830000006014846871957586358_">
				<use xlink:href="#SVGID_00000149355481376023093010000004735559571852831903_"  style="overflow:visible;"/>
			</clipPath>
			<g style="clip-path:url(#SVGID_00000054256571274749165830000006014846871957586358_);">
				<path class="st2" d="M90.5,64.5c-0.1,0.2-0.3,0.3-0.5,0.3h-0.8l0.2-0.7h0.7C90.4,64.1,90.6,64.3,90.5,64.5z M90.3,63.6h-2.1
					l-1,2.7h1.3l0.4-1h0.4l0.2,1H91l-0.3-1.1c0.6-0.2,0.9-0.4,1.1-0.8C91.9,64,91.6,63.6,90.3,63.6"/>
			</g>
		</g>
	</g>
	<g>
		<g>
			<defs>
				<rect id="SVGID_00000062160489215083376470000013089577019256665994_" x="91.6" y="63.4" width="3.3" height="3.1"/>
			</defs>
			<clipPath id="SVGID_00000044142444526579278780000010429578664124541610_">
				<use xlink:href="#SVGID_00000062160489215083376470000013089577019256665994_"  style="overflow:visible;"/>
			</clipPath>
			<g style="clip-path:url(#SVGID_00000044142444526579278780000010429578664124541610_);">
				<path class="st2" d="M93.2,65.7l0.8-2.1h-1.3l-1.1,2.7h3l0.2-0.6L93.2,65.7L93.2,65.7z"/>
			</g>
		</g>
	</g>
	<g>
		<g>
			<defs>
				<rect id="SVGID_00000072254855703363614220000001209540813321775267_" x="63.1" y="63.4" width="4.1" height="3.1"/>
			</defs>
			<clipPath id="SVGID_00000133529727371354501850000012864676645282137013_">
				<use xlink:href="#SVGID_00000072254855703363614220000001209540813321775267_"  style="overflow:visible;"/>
			</clipPath>
			<g style="clip-path:url(#SVGID_00000133529727371354501850000012864676645282137013_);">
				<path class="st2" d="M65.2,65.3l0.8-0.8l0.1,0.8H65.2z M67,63.6h-1.1c-0.2,0-0.3,0.1-0.4,0.2l-2.1,2.5h1.1l0.4-0.5h1.1v0.5h1.3
					L67,63.6z"/>
			</g>
		</g>
	</g>
	<g>
		<g>
			<defs>
				<rect id="SVGID_00000039843883222091246130000014254358237674670995_" x="71" y="63.4" width="4.1" height="3.1"/>
			</defs>
			<clipPath id="SVGID_00000161606366410030301480000016764343105108824741_">
				<use xlink:href="#SVGID_00000039843883222091246130000014254358237674670995_"  style="overflow:visible;"/>
			</clipPath>
			<g style="clip-path:url(#SVGID_00000161606366410030301480000016764343105108824741_);">
				<path class="st2" d="M73,65.3l0.7-0.8l0.1,0.8H73z M74.8,63.6h-1.1c-0.2,0-0.3,0.1-0.4,0.2l-2.1,2.5h1.1l0.4-0.5h1.1v0.5h1.3
					L74.8,63.6z"/>
			</g>
		</g>
	</g>
	<g>
		<g>
			<defs>
				<rect id="SVGID_00000023239868806093949290000007297880095522731965_" x="80.9" y="63.4" width="4.1" height="3.1"/>
			</defs>
			<clipPath id="SVGID_00000164474387014591882650000013870108420323114399_">
				<use xlink:href="#SVGID_00000023239868806093949290000007297880095522731965_"  style="overflow:visible;"/>
			</clipPath>
			<g style="clip-path:url(#SVGID_00000164474387014591882650000013870108420323114399_);">
				<path class="st2" d="M82.9,65.3l0.7-0.8l0.1,0.8H82.9z M84.7,63.6h-1.2c-0.2,0-0.3,0.1-0.4,0.2L81,66.3H82l0.4-0.5h1.1l0.1,0.5
					h1.3L84.7,63.6z"/>
			</g>
		</g>
	</g>
</g>
</svg>
