<?xml version="1.0" encoding="utf-8"?>
<!-- Generator: Adobe Illustrator 26.3.1, SVG Export Plug-In . SVG Version: 6.00 Build 0)  -->
<svg version="1.1" id="Layer_1" xmlns="http://www.w3.org/2000/svg" xmlns:xlink="http://www.w3.org/1999/xlink" x="0px" y="0px"
	 viewBox="0 0 170 80" style="enable-background:new 0 0 170 80;" xml:space="preserve">
<style type="text/css">
	.st0{fill:#211C1D;}
	.st1{clip-path:url(#SVGID_00000098191147198474262090000015046052168475310490_);}
	.st2{fill-rule:evenodd;clip-rule:evenodd;fill:#EE461D;}
</style>
<g id="surface1">
	<path class="st0" d="M62.3,39.7h-3.7v8c0,1.5,0.9,1.8,2.2,1.8c0.5,0,1-0.1,1.6-0.1v4.4c-1.1,0-2.2,0.2-3.3,0.2
		c-5.1,0-6.5-1.5-6.5-6.5v-7.8h-3v-4h3v-5.8h6v5.8h3.7V39.7"/>
	<path class="st0" d="M92.6,39.7h-3.7v8c0,1.5,0.9,1.8,2.2,1.8c0.5,0,1-0.1,1.6-0.1v4.4c-1.1,0-2.2,0.2-3.3,0.2
		c-5.1,0-6.5-1.5-6.5-6.5v-7.8h-3v-4h3v-5.8h6v5.8h3.7V39.7"/>
	<path class="st0" d="M30.1,46.2c0,5.4-2.8,8.1-8.4,8.1c-6.4,0-8.4-3.7-8.4-9v-1h5.9v2.2c0,1.6,0.9,2.5,2.4,2.5
		c1.4,0,2.3-0.8,2.3-3.1v-16h6.3V46.2"/>
	<path class="st0" d="M44.2,42.8c-0.1-2-1.5-3.7-3.6-3.7c-2.1,0-3.5,1.5-3.9,3.7H44.2z M36.8,46.1c0.1,2.5,1.5,4.1,4.1,4.1
		c1.4,0,2.9-0.7,3.4-2h5.6c-1.1,4.2-5,6-9.1,6c-5.9,0-10-3.6-10-9.7c0-5.6,4.5-9.6,9.8-9.6c6.5,0,9.8,4.9,9.5,11.1H36.8"/>
	<path class="st0" d="M68.1,47.8c0,0.9,0.4,1.6,1,2c0.6,0.4,1.4,0.6,2.2,0.6c1.2,0,2.8-0.5,2.8-1.9c0-1.4-1.9-1.7-2.9-1.9
		c-3.8-0.9-8.5-1.1-8.5-6c0-4.4,4.7-5.6,8.3-5.6c4,0,8.2,1.2,8.4,5.9H74c0-0.8-0.3-1.3-0.8-1.6s-1.2-0.5-1.9-0.5
		c-1,0-2.6,0.1-2.6,1.4c0,1.7,4,2,6.7,2.6c3.7,0.7,4.6,3.4,4.6,4.9c0,4.9-4.6,6.5-8.7,6.5c-4.3,0-8.7-1.4-8.9-6.5H68.1"/>
	<path class="st0" d="M101.4,50.6c2.8,0,3.8-1.6,3.6-5.3c-0.8,0.5-2.4,0.6-3.7,1c-1.3,0.3-2.4,0.9-2.4,2.3
		C98.9,50,100.1,50.6,101.4,50.6z M93.7,41.2c0.1-2.4,1.2-3.9,2.8-4.9c1.6-0.9,3.7-1.3,5.8-1.3c4.3,0,8.5,0.9,8.5,6.1v7.9
		c0,1.5,0,3.2,0.7,4.7h-6c-0.2-0.6-0.3-1.1-0.3-1.7c-1.5,1.6-3.8,2.2-6,2.2c-3.5,0-6.2-1.7-6.2-5.5c0-5.9,6.4-5.5,10.6-6.3
		c1-0.2,1.6-0.6,1.6-1.7c0-1.4-1.6-1.9-2.9-1.9c-1.6,0-2.7,0.7-3,2.3H93.7"/>
	<path class="st0" d="M119.9,36.2c-0.9,0.6-1.6,1.5-2,2.6h-0.1v-3.2H112v18.2h6v-9c0-2.3,1.5-4.3,4.5-4.3c0.7,0,1.3,0.1,1.9,0.3
		L119.9,36.2"/>
	<g>
		<defs>
			<rect id="SVGID_1_" x="118.4" y="22.8" width="38.3" height="34.3"/>
		</defs>
		<clipPath id="SVGID_00000024681418533339531380000010372306864293540504_">
			<use xlink:href="#SVGID_1_"  style="overflow:visible;"/>
		</clipPath>
		<g style="clip-path:url(#SVGID_00000024681418533339531380000010372306864293540504_);">
			<path class="st2" d="M141.8,22.8l0.6,10.3h14.3l-13.7,9l3,14.9l-11.6-10.1l-15.6,8.1l9.3-12.8l-8.8-9.2h14.3L141.8,22.8"/>
		</g>
	</g>
</g>
</svg>
