<?xml version="1.0" encoding="utf-8"?>
<!-- Generator: Adobe Illustrator 26.3.1, SVG Export Plug-In . SVG Version: 6.00 Build 0)  -->
<svg version="1.1" id="Layer_1" xmlns="http://www.w3.org/2000/svg" xmlns:xlink="http://www.w3.org/1999/xlink" x="0px" y="0px"
	 viewBox="0 0 170 80" style="enable-background:new 0 0 170 80;" xml:space="preserve">
<style type="text/css">
	.st0{fill-rule:evenodd;clip-rule:evenodd;fill:#ED1C24;}
	.st1{clip-path:url(#SVGID_00000092442878500384707270000005272366257007288241_);}
</style>
<g>
	<g>
		<path class="st0" d="M13.9,31.4c-1.4,4-2.8,8-4.2,12.1c-0.1,0.3-0.2,0.7-0.3,1c-0.1,0.3-0.1,0.6-0.2,1c0,0.3,0,0.7,0,1
			c0,0.3,0.1,0.6,0.2,1c0.1,0.3,0.3,0.8,0.5,1.1c0.2,0.4,0.5,0.7,0.8,0.9c0.3,0.3,0.7,0.5,1.1,0.6c0.4,0.2,0.9,0.3,1.4,0.3
			c0.4,0.1,0.8,0.1,1.1,0.1H24c0.1,0,0.2,0,0.2,0c0.1,0,0.2-0.1,0.2-0.1c0.1-0.1,0.2-0.1,0.2-0.2c0.1-0.1,0.1-0.2,0.2-0.3
			c0.1-0.1,0.1-0.2,0.1-0.3c0.4-1.1,0.7-2.1,0.9-2.9c0.3-0.8,0.4-1.3,0.5-1.6c0.1-0.3,0.1-0.4,0.1-0.5s0-0.1,0-0.2
			c0-0.1,0-0.1-0.1-0.2c0-0.1-0.1-0.1-0.1-0.1c-0.1,0-0.1,0-0.2-0.1c-0.1,0-0.1,0-0.2,0c-2.4,0-4.7,0-7.1,0c-0.1,0-0.2,0-0.3,0
			c-0.1,0-0.2-0.1-0.3-0.1c-0.1-0.1-0.2-0.1-0.2-0.2c-0.1-0.1-0.1-0.2-0.2-0.3c0-0.1-0.1-0.2-0.1-0.4c0-0.1,0-0.3,0-0.4
			c0-0.2,0.1-0.4,0.1-0.5c1.2-3.5,2.4-7,3.5-10.4c0-0.1,0-0.1,0-0.2c0-0.1,0-0.2-0.1-0.2c0-0.1-0.1-0.1-0.1-0.2c0,0-0.1-0.1-0.2-0.1
			c-0.1,0-0.1,0-0.2,0c-2.1,0-4.3,0-6.4,0c-0.1,0-0.1,0-0.2,0c-0.1,0-0.1,0-0.2,0c-0.1,0-0.1,0.1-0.2,0.1c0,0-0.1,0.1-0.1,0.1
			c0,0-0.1,0.1-0.1,0.1C13.9,31.3,13.9,31.4,13.9,31.4"/>
		<path class="st0" d="M31.9,36.3c-0.1,0-0.1,0-0.2,0c-0.1,0-0.1,0-0.2,0.1c-0.1,0-0.1,0.1-0.1,0.1c0,0-0.1,0.1-0.1,0.1
			c0,0-0.1,0.1-0.1,0.1c-1.3,4.3-2.7,8.7-4,13c0,0,0,0.1,0,0.1c0,0,0,0.1,0,0.1c0,0,0,0.1,0.1,0.1c0,0,0.1,0.1,0.1,0.1
			c0,0,0.1,0,0.1,0c0,0,0.1,0,0.1,0h6.1c0.1,0,0.1,0,0.2,0c0.1,0,0.1,0,0.2-0.1c0.1,0,0.1-0.1,0.1-0.1c0-0.1,0.1-0.2,0.1-0.2
			c1.4-4.3,2.7-8.7,4.1-13c0,0,0-0.1,0-0.1c0,0,0-0.1,0-0.1c0,0,0-0.1,0-0.1c0,0,0-0.1-0.1-0.1c0,0-0.1,0-0.1,0c0,0-0.1,0-0.1,0
			C36.1,36.3,34,36.3,31.9,36.3L31.9,36.3z"/>
		<path class="st0" d="M56.7,42.9c1.8-6.1-7.1-10.2-15.2-4.3c-3.9,2.8-5.3,8.3-1.2,10.8c2.1,1.3,4.1,1.6,7,1.1
			C50.9,49.8,55.5,47,56.7,42.9L56.7,42.9z M50.3,43.5c-1.2,2.6-7,2.9-5.8-0.5c0.4-1,1.8-2,3.2-2.1C49.4,40.7,51.2,41.7,50.3,43.5
			L50.3,43.5z"/>
		<path class="st0" d="M35.9,29.5c2.3-0.4,4.2,0.6,4.3,2.1c0.1,1.5-1.7,3-4,3.4c-2.3,0.4-4.2-0.6-4.3-2.1
			C31.8,31.3,33.6,29.8,35.9,29.5"/>
		<path class="st0" d="M60.6,36.3c-1.4,4.5-2.8,8.9-4.2,13.4c0,0.1,0,0.2,0,0.2c0,0.1,0,0.1,0.1,0.2c0,0.1,0.1,0.1,0.1,0.1
			c0,0,0.1,0.1,0.1,0.1c0,0,0.1,0,0.1,0h6.1c0.1,0,0.1,0,0.2,0c0.1,0,0.1,0,0.2-0.1c0.1,0,0.1,0,0.1-0.1c0,0,0.1-0.1,0.1-0.1
			c0,0,0-0.1,0.1-0.1c0.8-2.6,1.5-5.2,2.3-7.8c0.1-0.1,0.1-0.3,0.2-0.4c0.1-0.1,0.2-0.1,0.4-0.2c0.2,0,0.4-0.1,0.8-0.1
			c0.3,0,0.7,0,1.1,0c0.3,0,0.5,0,0.7,0c0.2,0,0.3,0.1,0.3,0.1c0.1,0.1,0.1,0.1,0.2,0.2c0,0.1,0.1,0.2,0.1,0.3c0,0.2,0,0.4,0,0.5
			c0,0.2-0.1,0.3-0.2,0.5s-0.2,0.5-0.5,1.6c-0.3,1.1-1,3-1.6,5c0,0,0,0.1,0,0.1c0,0,0,0.1,0,0.1c0,0,0,0.1,0.1,0.1
			c0,0,0.1,0.1,0.1,0.1c0,0,0.1,0,0.1,0.1c0,0,0.1,0,0.1,0h6.3c0.1,0,0.2,0,0.2,0c0.1,0,0.1,0,0.2-0.1c0,0,0.1-0.1,0.1-0.1
			c0,0,0.1-0.1,0.1-0.1c0.7-2.4,1.4-4.7,2.2-7.1c0-0.2,0.1-0.3,0.1-0.6c0.1-0.3,0.1-0.6,0.1-1c0-0.3,0-0.5,0-0.8
			c0-0.3-0.1-0.6-0.1-0.9c-0.1-0.3-0.1-0.5-0.2-0.7c-0.1-0.2-0.2-0.3-0.3-0.5c-0.1-0.2-0.3-0.4-0.4-0.7c-0.2-0.2-0.4-0.4-0.6-0.6
			c-0.3-0.2-0.6-0.4-0.8-0.5c-0.3-0.2-0.5-0.2-0.8-0.3c-0.2-0.1-0.5-0.2-0.8-0.3c-0.3-0.1-0.7-0.1-1.2-0.2c-0.6,0-1.3,0-1.9,0
			c-0.6,0-1.1,0.1-1.5,0.1C68,36,67.6,36,67.3,36.1c-0.4,0.1-0.7,0.2-1,0.3c-0.3,0.1-0.7,0.2-1,0.2c-0.4,0-0.7,0-1,0
			c-0.3,0-0.4-0.1-0.6-0.1c-0.2,0-0.4-0.1-0.6-0.1c-0.2,0-0.4-0.1-0.6-0.1c-0.2,0-0.5,0-0.8,0C61.3,36.2,61,36.3,60.6,36.3
			L60.6,36.3z"/>
		<path class="st0" d="M140.1,36c0,0-0.1,0-0.1,0c0,0-0.1,0-0.1,0c0,0-0.1,0.1-0.1,0.1c0,0,0,0.1-0.1,0.1c0,0,0,0.1,0,0.1
			c-1.4,4.5-2.8,9-4.1,13.5c0,0,0,0.1,0,0.1c0,0,0,0.1,0,0.1c0,0,0,0.1,0.1,0.1c0,0,0.1,0,0.1,0.1c0,0,0.1,0,0.1,0h6.4
			c0.1,0,0.1,0,0.2,0s0.1,0,0.1-0.1c0,0,0.1-0.1,0.1-0.1c0,0,0-0.1,0-0.1c1.4-4.5,2.8-9,4.2-13.6c0,0,0-0.1,0-0.1c0,0,0-0.1,0-0.1
			c0,0,0-0.1,0-0.1c0,0-0.1,0-0.1-0.1c0,0-0.1,0-0.1,0c0,0-0.1,0-0.1,0C144.4,36,142.3,36,140.1,36L140.1,36z"/>
		<path class="st0" d="M144.2,29.2c2.3-0.4,4.2,0.6,4.3,2.1c0.1,1.5-1.7,3-4,3.4c-2.3,0.4-4.2-0.6-4.3-2.1
			C140.1,31.1,141.9,29.6,144.2,29.2"/>
		<path class="st0" d="M128.4,42.3c-0.5,1.6-1.4,4.6-2.3,7.6c0,0,0,0,0,0.1c0,0,0,0.1,0,0.1c0,0,0.1,0.1,0.1,0.1s0.1,0,0.1,0
			c0,0,0,0,0.1,0h6.4c0,0,0.1,0,0.1,0c0,0,0.1,0,0.1,0c0,0,0.1,0,0.1-0.1c0,0,0.1-0.1,0.1-0.1c0,0,0.1-0.1,0.1-0.1
			c1.4-4.5,2.8-9.1,4.3-13.6c0-0.1,0-0.1,0-0.2c0-0.1,0-0.1-0.1-0.1c0,0-0.1,0-0.1,0c-0.8,0-1.6,0-2.1,0c-0.5,0-0.8-0.1-1-0.1
			c-0.2-0.1-0.5-0.1-0.7-0.2c-0.2-0.1-0.5-0.2-0.7-0.2c-0.2-0.1-0.4-0.1-0.7-0.2c-0.3-0.1-0.7-0.2-1-0.2c-0.3-0.1-0.6-0.1-1-0.2
			c-0.4-0.1-0.9-0.1-1.3-0.1c-0.5,0-0.9,0-1.3,0c-0.5,0-0.9,0.1-1.3,0.1c-0.4,0.1-0.6,0.1-0.9,0.2c-0.3,0.1-0.5,0.2-0.8,0.3
			c-0.3,0.1-0.5,0.2-0.8,0.3c-0.3,0.1-0.5,0.3-0.8,0.4c-0.3,0.2-0.6,0.3-0.9,0.6c-0.3,0.2-0.7,0.5-1,0.8s-0.7,0.6-1,0.9
			c-0.3,0.3-0.6,0.7-0.9,1.1c-0.3,0.4-0.6,0.9-0.8,1.4c-0.2,0.5-0.4,0.9-0.6,1.2c-0.2,0.4-0.3,0.7-0.4,1.2c-0.1,0.5-0.3,1.1-0.3,1.6
			c-0.1,0.5-0.1,0.9,0,1.3c0,0.3,0.1,0.6,0.1,0.8c0.1,0.2,0.1,0.4,0.2,0.6c0.1,0.2,0.1,0.3,0.2,0.5c0.1,0.1,0.1,0.3,0.2,0.4
			c0.1,0.1,0.2,0.3,0.3,0.4c0.1,0.2,0.2,0.3,0.4,0.4c0.1,0.1,0.2,0.2,0.3,0.3c0.1,0.1,0.3,0.2,0.4,0.3c0.2,0.1,0.4,0.2,0.6,0.3
			c0.2,0.1,0.5,0.1,0.8,0.2c0.3,0,0.5,0,0.8,0c0.2,0,0.5,0,0.7,0s0.4-0.1,0.6-0.1c0.2-0.1,0.5-0.2,0.7-0.3c0.2-0.1,0.4-0.2,0.6-0.3
			c0.2-0.1,0.5-0.3,0.7-0.4c0.2-0.1,0.4-0.3,0.6-0.5c0.2-0.2,0.4-0.4,0.5-0.5c0.2-0.2,0.2-0.3,0.3-0.5c0.1-0.2,0.2-0.3,0.3-0.5
			c0.1-0.2,0.2-0.4,0.3-0.6c0.1-0.2,0.1-0.4,0.2-0.6c-0.1,0.1-0.2,0.1-0.3,0.2c-0.1,0.1-0.3,0.1-0.5,0.2c-0.2,0.1-0.6,0.2-0.8,0.2
			c-0.3,0-0.5,0-0.7,0c-0.2,0-0.3-0.1-0.5-0.1c-0.2-0.1-0.3-0.2-0.5-0.3c-0.1-0.1-0.2-0.3-0.3-0.4c-0.1-0.2-0.1-0.3-0.1-0.6
			c0-0.2,0-0.6,0-0.8c0-0.3,0.1-0.5,0.1-0.7c0.1-0.2,0.1-0.5,0.2-0.7c0.1-0.2,0.2-0.5,0.3-0.8c0.1-0.3,0.3-0.6,0.4-0.9
			c0.2-0.3,0.4-0.6,0.6-0.9c0.3-0.3,0.6-0.7,0.9-0.9c0.3-0.2,0.6-0.4,0.8-0.5c0.3-0.1,0.5-0.1,0.7-0.2c0.2,0,0.5,0,0.7,0
			c0.2,0,0.4,0.1,0.6,0.2c0.2,0.1,0.2,0.2,0.3,0.3c0.1,0.1,0.1,0.2,0.2,0.3c0.1,0.1,0.1,0.3,0.1,0.4c0,0.1,0,0.3,0,0.4
			C128.9,40.6,128.8,40.8,128.4,42.3L128.4,42.3z"/>
		<path class="st0" d="M149.2,36c-1.4,4.6-2.8,9.2-4.3,13.7c0,0.1,0,0.1,0,0.2s0,0.1,0.1,0.2c0,0.1,0.1,0.1,0.1,0.1
			c0.1,0,0.1,0,0.2,0c0.1,0,0.1,0,0.1,0h6c0.1,0,0.1,0,0.2,0c0.1,0,0.2,0,0.3-0.1c0.1,0,0.2-0.1,0.2-0.2c0.1-0.1,0.1-0.2,0.1-0.3
			c0.6-2.2,1.3-4.4,1.9-6.6c0.1-0.2,0.1-0.4,0.2-0.5c0.1-0.2,0.2-0.3,0.3-0.4c0.1-0.1,0.2-0.2,0.3-0.3c0.1-0.1,0.2-0.2,0.3-0.2
			c0.1-0.1,0.2-0.1,0.4-0.2c0.1,0,0.3-0.1,0.4-0.1c0.2,0,0.3-0.1,0.4-0.1c0.1,0,0.3,0,0.4,0c0.1,0,0.2,0,0.3,0.1
			c0.1,0,0.2,0.1,0.4,0.1c1.1-1.3,2.2-2.7,3.3-4c-0.1-0.1-0.1-0.3-0.2-0.4s-0.2-0.3-0.3-0.4c-0.1-0.1-0.3-0.3-0.5-0.4
			c-0.2-0.1-0.4-0.2-0.6-0.3c-0.2-0.1-0.4-0.1-0.6-0.2c-0.2-0.1-0.5-0.1-0.9-0.1c-0.4,0-0.9,0-1.4,0c-0.5,0-0.9,0.1-1.3,0.2
			c-0.4,0.1-0.8,0.1-1.2,0.1c-0.4,0-0.8,0.1-1.2,0.1c-0.4,0-0.8,0-1.1,0c-0.3,0-0.5-0.1-0.9-0.1C150.4,36,149.8,36,149.2,36
			L149.2,36z"/>
	</g>
	<g>
		<defs>
			<rect id="SVGID_1_" x="80.7" y="20.1" width="36.2" height="39.7"/>
		</defs>
		<clipPath id="SVGID_00000072272690355631296490000000523194260362667427_">
			<use xlink:href="#SVGID_1_"  style="overflow:visible;"/>
		</clipPath>
		<g style="clip-path:url(#SVGID_00000072272690355631296490000000523194260362667427_);">
			<path class="st0" d="M104.6,29.2c0,0.3,0.2,0.7,0.1,0.7c-0.5,0-0.8-0.6-0.8-1.1c0-1.1,2-1.5,2.3-0.1c-0.2-0.1-0.7-0.3-1-0.3
				C104.9,28.5,104.6,28.9,104.6,29.2L104.6,29.2z M103.3,54.5c0-0.2-0.1-0.5-0.1-0.8c0.3,0,0.5,0,0.8-0.1h0c0.4,0,1.1-0.1,2.3-0.7
				c0.7-0.4,1.7-1.4,2.1-2c0.7-1,1.1-2.3,1.1-3.7v-0.1c0-0.3,0-0.7-0.1-1c0,0,0-0.1,0-0.1l0,0c-0.1-0.6-0.3-1.2-0.6-1.8
				c-0.8-1.7-2.4-2.9-4.1-3.3c-0.4-0.1-0.7-0.2-1.1-0.2l-0.1,0l-0.1,0c-1.1-0.1-2.1,0.1-3.2,0.6c-0.1,0-0.2,0.1-0.3,0.1
				c-0.8,0.4-1.5,0.9-2,1.6l0,0l-0.1-0.1c-2-1-5-6.6-5.7-9.1c-0.9-3.2-1.4-8.5-0.7-11.8c0.1-0.5,0.2-1.2,0.3-1.5
				c-2-1.3-4.9,0.5-5.2,4.5c-0.5,6.4,3.4,13.2,8,17.2c0.7,0.6,1.2,1,1.5,1.2l1,0.7c-0.1,0.3-0.3,0.6-0.4,0.9
				c-0.7-0.4-1.3-0.8-2.1-1.4c-0.7-0.5-1.3-1-1.9-1.5c-1.4-1.2-2.1-2-3.4-3.5c-1.6-1.8-4.2-6.3-4.4-9.4c-3-0.4-4.9,5.3,0.8,10.5
				c3.7,3.4,6.1,4.4,10.7,6.4c0,0.2-0.1,0.5-0.1,0.7l0,0.1c-0.7,0.1-3.5-0.8-4.3-1.1c-7.3-2.6-9-5.8-9.8-6.7
				c-1.2,0.8-1.4,3.3-0.3,4.7c1.8,2.4,5.7,3.8,8.7,4.1c1.9,0.2,3.3,0.3,5.2,0.2l0.7-0.1c0,0.3,0.1,0.6,0.2,0.9l-0.1,0l-0.1,0h0
				c-4,0.8-7.1,0.6-10.9-0.6c-1.1-0.3-2.5-1.2-2.7-1.3c-0.3,0.3-1,5.1,5.6,5.2c1.7,0,3.3-0.3,4.7-0.8c1.3-0.4,2.6-1,3.9-1.5
				c0.1,0.3,0.3,0.5,0.4,0.7L97.4,51c0,0-0.1,0.1-0.1,0.1c-0.9,0.8-3.1,1.7-4.3,2.1c-2.6,0.8-3.7,0.7-6.3,0.4c0.3,3.4,4.1,3,6.3,2.1
				c2.2-0.9,3.7-2.5,5.3-4.1c0.2,0.2,0.4,0.4,0.6,0.5c-0.1,0.3-0.3,0.6-0.5,0.8c-0.9,1.4-3.3,3.2-4.7,3.8c-1.4,0.6-2.2,0.7-2.5,0.7
				c0.1,0.9,1.1,1.4,2.2,1.4c3.3,0,5.4-4.2,6-5.4l0.3-0.7c0.2,0.1,0.4,0.2,0.7,0.3l-0.2,0.8c0,0,0,0.1,0,0.1v0
				c-0.1,0.4-0.4,1-0.9,1.8c-1.7,2.8-3.2,3.2-3.4,3.3c0.4,0.7,1.5,0.8,2.4,0.5c2.1-0.9,2.5-4,2.8-5.8l0.1-0.5
				c0.2,0.1,0.5,0.1,0.7,0.1l0,0c0.4,3.7-1.3,5.5-1.4,5.6c1.1,0.2,2.1,0,2.6-0.9c0.5-0.8,0.3-2.2,0.1-3.3c1.2,0,2.5-0.4,3.4-0.7
				c2.8-0.9,4.6-3.3,5.4-6.1c0.1-0.3,0.2-0.5,0.3-0.8c0.4,0,0.9,0,0.9-0.6c0-0.1-0.1-0.5-0.2-0.6c-0.2-0.3-0.9-0.7-0.9-1.5
				c0-0.2,0.1-0.4,0.1-0.6c0.4,0,0.9-0.4,0.9-0.8c0-0.6-1-0.9-1.4-1.3c-0.4-0.4-0.8-1.3-0.8-1.9c0-0.3-0.2-1.2,0.3-1.2
				c0.5,0,2.7,1.1,2.7-2.2c-0.8,0.4-1.5,0.7-2.3,0c-1-0.8-0.2-3.4,1.7-3.4c0.4,0,0.7,0.1,0.9,0.3c0.2,0.2,0.3,0.6,0.3,1
				c0.4-0.2,0.6-0.6,0.9-1c0.2-0.2,0.5-1.1,0.5-1.5c0-0.2-0.1-0.3-0.1-0.5c0-0.3,0.5-0.7-0.1-1.1c-0.4-0.3-1.3,0.2-2.8-0.5
				c-0.2-0.1-0.4-0.2-0.6-0.3c0-0.4,0.1-0.4,0.1-0.8c0-0.6-1.8-1.3-2.5-1.7c-0.4-0.3-0.8-0.5-1.2-0.9c-0.5-0.5-0.7-0.9-0.8-1.1
				c-0.1,0-0.2-0.1-0.3-0.1c-0.6,0-1,0.4-1.1,0.9c-0.1-0.1-0.2-0.2-0.4-0.3c-0.2-0.1-0.4-0.2-0.5-0.3c-1.2-0.5-2.1-0.6-3.4-1.3
				c-0.5,0.3-0.9,0.9-0.7,1.5c-0.6-0.3-1.2-0.3-1.8-0.2c-0.4,0.1-1.7,0.2-2,0.2c-0.3,0-0.8-0.1-1-0.1c0,0.4-0.2,0.7-0.2,1.1
				c0,0.5,0.1,0.7,0.2,0.9c-0.8,0-1.1,0-1.7,0.1C94.5,28,94,28,93.4,28c-0.2,0.8-0.2,1.2,0.2,2c0.2,0.3,0.5,0.8,0.7,1
				c-0.3,0.1-0.9,0.2-1.3,0.3c0,0.9,0.4,2.3,0.7,3.2c0.7,2.6,2,4.8,3.6,6.9c0.2,0.2,0.3,0.4,0.5,0.5c0.2-0.2,0.3-0.3,0.5-0.4
				c1.5-1.2,3-1.7,5-1.7c1,0,2.2,0.3,2.9,0.7c0.9,0.5,1.4,0.8,2.1,1.5c1,1,1.6,2.1,1.9,3.5c0.7,2.7-0.3,6-2.6,7.6
				c-0.4,0.3-0.8,0.5-1.2,0.7C105.6,54.1,104.3,54.4,103.3,54.5L103.3,54.5z M112.1,30.1c-0.1,0.4-0.4,0.9-0.6,1.2
				c-0.1-0.1-0.3-0.3-0.4-0.5c-0.2-0.2-0.3-0.3-0.4-0.6c0.3,0,0.5,0,0.8-0.1C111.7,30.2,111.8,30.1,112.1,30.1"/>
		</g>
	</g>
</g>
</svg>
