<?xml version="1.0" encoding="utf-8"?>
<!-- Generator: Adobe Illustrator 26.3.1, SVG Export Plug-In . SVG Version: 6.00 Build 0)  -->
<svg version="1.1" id="Layer_1" xmlns="http://www.w3.org/2000/svg" xmlns:xlink="http://www.w3.org/1999/xlink" x="0px" y="0px"
	 viewBox="0 0 170 80" style="enable-background:new 0 0 170 80;" xml:space="preserve">
<style type="text/css">
	.st0{fill-rule:evenodd;clip-rule:evenodd;fill:#244BA6;}
	.st1{clip-path:url(#SVGID_00000080924511268816555930000002443420720022845073_);}
	.st2{fill-rule:evenodd;clip-rule:evenodd;fill:#FFFFFF;}
	.st3{fill-rule:evenodd;clip-rule:evenodd;fill:#ED1C24;}
	.st4{clip-path:url(#SVGID_00000109012165472099474600000002899292570808314300_);}
</style>
<g>
	<g>
		<path class="st0" d="M80,40.5c0,0,1-2.5,1.5-3.2c0,0,1.3,1.8,1.7,3.2C83.3,40.6,81.8,40.8,80,40.5z M50.2,38.7v-2.8
			c0,0,0-2.1,1.7-2.1c1.6,0,1.4,2,1.4,2.3S53.2,38.7,50.2,38.7z M55.3,31.8c0,0-8,0.6-12.3,0.2c0,0-0.5-0.1-0.6,0.5
			c0,0-0.3,0.5,0.2,0.8c0.5,0.3,1.8,1.1,1.8,3.9v5.4c0,0,0.3,3-1.8,4.1c0,0-0.4,0.1-0.2,0.7c0,0,0,0.5,0.6,0.5
			c0.6-0.1,3.9-0.3,8.5,0c0,0,0.4,0,0.5-0.2c0.1-0.3,0.1-0.3,0.1-0.3s0.4-0.4-0.2-0.8c-0.6-0.4-1.6-1-1.7-3.5s0-2.6,0-2.6h0.4
			c0,0,1.3-0.1,2.1,1.8c0,0,1.6,4,1.9,4.4c0.3,0.5,0.7,1.5,2.5,1.3c1.8-0.2,10.1-0.8,18.9,0c0,0,1,0.1,1.3-0.8c0,0,1.5-4.1,1.9-4.7
			c0,0,3.2-0.1,5-0.1c0,0,0.6,1.1,0.6,2.4s-1.2,1.6-1.2,1.6s-0.5,0.2-0.3,0.8c0,0,0.1,0.6,0.6,0.5c0.6-0.1,5.6-0.5,13.2-0.1
			c0,0,0.5,0.2,0.7-0.5c0,0,0.3-0.5-0.2-0.8c0,0-2-0.5-2-3.6c0-3.2,0-5.4,0-5.4s1.5,2.2,3.3,5.4c1.8,3.2,2.8,4.6,2.8,4.6
			s0.9,1.8,2.7,0.8c1.8-0.9,3.7-2,4.8-2.8c0,0,0.4-0.2,0.2-0.7l-0.2-0.3c0,0,0-0.2-0.6-0.3c0,0-1.3,0.3-1.4-1.6c0-1.9-0.1-4.6,0-7.3
			c0,0,0.1-1.7,1.6-2.2c0,0,0.6-0.1,0.3-0.7l-0.2-0.3c0,0,0-0.3-0.4-0.2c-0.4,0.1-2.6,0.3-4.9,0.1c0,0-0.5,0-0.6,0.6
			c0,0-0.1,0.5,0.3,0.7c0.4,0.2,1.8,0.7,1.9,2.9c0.1,2.2,0.1,5.2,0.1,5.2s-3.2-4.7-5.3-8.4c0,0-0.3-1-1.6-0.9
			c-1.2,0.1-4.1,0.2-6.2,0c0,0-0.6-0.1-0.7,0.6c0,0-0.2,0.6,0.3,0.8c0,0,1.7,1.1,1.7,1.4c0,0.4,0,7.9,0,7.9s0.1,3.1-0.7,2.7
			c0,0-0.5,0.3-1.6-1.8c-1.2-2.1-2.7-5.1-5.1-11c0,0-0.5-1.6-1.6-1.6c0,0-0.6,0-1.3,0.4c-0.6,0.4-2.7,1.5-4.9,2.1
			c0,0-0.6,0.2-0.4,0.7c0,0-0.1,0.4,0.5,0.6c0.6,0.2,1.2,0.5,1.3,0.8c0,0-0.6,2.1-1.8,4.2c-1.2,2.1-2.7,5.7-7.1,5.7h-1.7
			c0,0-0.5,0.1-0.5-0.6c0-0.6,0-4.5,0-4.5h1.1c0,0,1.8-0.4,2.7,2c0,0,0.2,0.7,0.8,0.5c0,0,0.7-0.1,0.6-0.8c-0.1-0.7-0.1-2.6,0-4.3
			c0,0,0.1-0.5-0.5-0.6c0,0-0.5-0.2-0.8,0.1c-0.3,0.4-1,1.2-2.7,1.2c-1.6,0-1.3,0-1.3,0v-4.2c0,0,0-0.3,0.2-0.3
			c0.2,0,2.7-0.6,4.1,0.5c1.4,1.2,1.5,1.6,1.8,2.1c0,0,0.3,0.7,1,0.2c0,0,0.6-0.1,0.3-1c-0.3-0.9-0.4-1.2-0.8-3.4c0,0-0.1-0.9-1-0.8
			c-1,0.1-7,0.8-12.6,0.3c0,0-0.6-0.1-0.7,0.5c0,0-0.3,0.4,0.2,0.8c0,0,1.7,0.8,1.7,3.7v4.9c0,0,0.3,3.9-1.1,3.9
			c0,0-0.6,0.3-1.6-1.7c-1-2-1.1-2.1-1.1-2.1s-0.8-2.6-4.3-2.7c0,0,4.9-0.8,4.4-4.5c0,0-0.1-2.8-3.8-2.9H55.3z"/>
		<path class="st0" d="M121.9,37.2c1.5,2.2,1.7,3.2,1.7,3.2c-1.2,0.2-3.2,0-3.2,0C120.9,38.8,121.9,37.2,121.9,37.2z M134.6,41.8
			c0,0,0.1,3.7-1.3,3.4c0,0-0.5,0.3-1.6-1.8c-1.2-2.1-2.7-5.1-5.1-11c0,0-0.5-1.6-1.6-1.6c0,0-0.6,0-1.3,0.4
			c-0.7,0.4-2.7,1.5-4.9,2.1c0,0-0.6,0.2-0.4,0.7c0,0-0.1,0.4,0.5,0.6c0.6,0.2,1.2,0.5,1.3,0.8c0,0-0.6,2.1-1.8,4.2
			c-1.2,2.1-2.2,5.3-5,6.7c0,0-0.5,0.1-0.4,0.8c0.2,0.7,0.6,0.5,0.6,0.5c3.2-0.3,4.2-0.1,5,0c0.7,0.1,0.6-0.5,0.6-0.5
			c0.2-0.4-0.1-0.6-0.1-0.6l-0.3-0.4c0,0-1.2-0.3,0.5-3.8c0,0,3.2-0.1,5-0.1c0,0,0.6,1.1,0.6,2.4s-1.2,1.6-1.2,1.6s-0.5,0.2-0.3,0.8
			c0,0,0.1,0.6,0.6,0.5c0.6-0.1,9.9-0.5,17.6,0c0,0,0.5,0,0.7-0.4c0,0,0.3-0.6-0.2-0.9c0,0-1.5-0.7-1.6-3.1
			c-0.1-2.4-0.1-6.9-0.1-6.9s-0.1-2.5,1.5-3.3c0,0,0.4-0.2,0.2-0.8c0,0-0.1-0.5-0.6-0.5c-0.5,0.1-5.8,0.3-8.4,0c0,0-0.6,0-0.7,0.5
			c0,0-0.3,0.5,0.2,0.8c0.5,0.4,1.7,1.2,1.7,3.8V41.8z"/>
		<path class="st0" d="M152.3,38.6v-2.8c0,0,0.1-2.1,1.6-2.1c1.6,0,1.6,1.7,1.5,2.3C155.3,36.6,155.1,38.6,152.3,38.6z M157.1,31.5
			c0,0-6.2,0.7-12,0.2c0,0-0.7-0.2-0.8,0.6c0,0-0.1,0.5,0.3,0.7c0.3,0.2,1.6,1,1.7,3.6c0.1,2.7,0.1,1.9,0.1,5.5c0,0,0.2,3.5-1.8,4.3
			c0,0-0.5,0.1-0.2,0.8c0,0,0.2,0.6,0.7,0.4c0,0,4.6-0.3,8.6,0c0,0,0.5,0.2,0.6-0.4c0,0,0.4-0.4-0.2-0.8c-0.6-0.4-1.6-1.2-1.7-2.9
			c-0.1-1.8-0.1-3.2-0.1-3.2h0.4c0,0,1.3-0.2,2.2,1.9c0.9,2.1,1.5,3.6,1.5,3.6s0.6,1.7,1.6,2.2c0,0,0.4,0.4,1.9,0.2
			c0,0,2.4-0.1,4.8-1.2c0,0,0.5-0.1,0.4-0.7c0,0,0.1-0.5-0.6-0.6c-0.7-0.1-1.2-0.8-1.7-1.8c-0.5-1-1.2-2.4-1.2-2.4s-1-2.5-4.2-2.5
			c0,0,4.4-0.8,4.4-4.1s-4-3.4-4-3.4L157.1,31.5z"/>
	</g>
	<g>
		<defs>
			<rect id="SVGID_1_" x="23.2" y="30.6" width="19.1" height="18.7"/>
		</defs>
		<clipPath id="SVGID_00000163767864543621413360000006791978190955182519_">
			<use xlink:href="#SVGID_1_"  style="overflow:visible;"/>
		</clipPath>
		<g style="clip-path:url(#SVGID_00000163767864543621413360000006791978190955182519_);">
			<path class="st2" d="M42.2,40c0,5.2-4.2,9.4-9.4,9.4c-5.2,0-9.4-4.2-9.4-9.4c0-5.2,4.2-9.4,9.4-9.4C38,30.6,42.2,34.8,42.2,40"/>
		</g>
	</g>
	<path class="st3" d="M36.8,34.4c2.9,0.9,4.9,3.5,4.9,6.7c0,0.5,0,0.9-0.1,1.3l0,0.1c-0.2,1.2-0.7,2.4-1.4,3.3l0,0
		c1.2-1.6,2-3.6,2-5.8c0-5.2-4.2-9.4-9.4-9.4c-2.4,0-4.5,0.9-6.2,2.3l0,0c-1.3,1.2-2.1,2.9-2.1,4.8c0,0.8,0.1,1.5,0.4,2.2l0,0
		c0.6,1.4,2.1,2.4,3.8,2.4c2.3,0,4.1-1.9,4.1-4.1l0-1.8c0-0.8,0.5-1.5,1.1-1.9l0,0c0.5-0.3,1.1-0.5,1.8-0.5
		C36.1,34.2,36.5,34.3,36.8,34.4L36.8,34.4z"/>
	<g>
		<defs>
			<rect id="SVGID_00000160883951054658085940000005839596748446893225_" x="5" y="31.5" width="36.4" height="17.8"/>
		</defs>
		<clipPath id="SVGID_00000062162983277699232760000010721742658419925925_">
			<use xlink:href="#SVGID_00000160883951054658085940000005839596748446893225_"  style="overflow:visible;"/>
		</clipPath>
		<g style="clip-path:url(#SVGID_00000062162983277699232760000010721742658419925925_);">
			<path class="st0" d="M25.6,46c1.7,2,4.3,3.3,7.2,3.3c2.4,0,4.5-0.9,6.2-2.3l0,0c1.3-1.2,2.1-2.9,2.1-4.8c0-0.8-0.1-1.5-0.4-2.2
				l0,0c-0.6-1.4-2.1-2.4-3.8-2.4c-2.3,0-4.1,1.9-4.1,4.1l0,1.8c0,0.8-0.5,1.5-1.1,1.9l0,0c-0.5,0.3-1.1,0.5-1.8,0.5
				c-0.4,0-0.8-0.1-1.1-0.2h0c-2.9-0.9-4.9-3.5-4.9-6.7c0-0.5,0-0.9,0.1-1.3l0-0.1c0.2-1.2,0.7-2.4,1.4-3.3l0,0
				c-1.3,1.6-2,3.6-2,5.8c0,1.5,0.4,2.9,1,4.2l-0.1,0.1c0,0-0.4,0.3-1.1-0.6c-0.7-0.8-5.1-6.1-5.1-6.1s2.7-2.9,5.4-4.1
				c0,0,0.7-0.2,0.5-0.8L24,32.3c0,0,0-0.4-0.7-0.3c-0.6,0.1-3.6,0.3-6.5,0c0,0-0.5,0-0.6,0.4c0,0-0.3,0.5,0,0.8
				c0.3,0.3,1.3,1,1.3,1.9c0,0,0.2,0.7-1.3,1.8c-1.6,1.1-2.5,1.9-3.2,2.2l0-2.7c0,0-0.1-2.2,1.5-3.3c0,0,0.4-0.2,0.3-0.5l-0.1-0.3
				c0,0-0.1-0.5-0.6-0.4c0,0-2.8,0.3-8.4,0.1c0,0-0.4,0-0.5,0.3l-0.1,0.2c0,0-0.2,0.5,0.1,0.7c0.3,0.2,1.6,1,1.7,3.3
				c0,0,0.1,4.4-0.1,6.2c-0.2,1.7-0.3,2.7-1.7,3.9c0,0-0.4,0.3-0.2,0.7l0.2,0.4c0,0,0.1,0.3,0.6,0.2c0.5-0.1,4-0.4,8.4-0.1
				c0,0,0.3,0.1,0.5-0.2l0.2-0.4c0,0,0.2-0.4-0.2-0.7c-0.4-0.3-1.6-1.2-1.6-3c0-1.8,0-2.9,0-2.9s0.8,0.3,4.8,6.3c0,0,1.4,2.6,4.5,1
				C22.4,48.1,24.6,46.9,25.6,46L25.6,46z"/>
		</g>
	</g>
</g>
</svg>
