<?xml version="1.0" encoding="utf-8"?>
<!-- Generator: Adobe Illustrator 26.3.1, SVG Export Plug-In . SVG Version: 6.00 Build 0)  -->
<svg version="1.1" id="Layer_1" xmlns="http://www.w3.org/2000/svg" xmlns:xlink="http://www.w3.org/1999/xlink" x="0px" y="0px"
	 viewBox="0 0 170 80" style="enable-background:new 0 0 170 80;" xml:space="preserve">
<style type="text/css">
	.st0{fill-rule:evenodd;clip-rule:evenodd;fill:#459CDC;}
	.st1{clip-path:url(#SVGID_00000023977735417060519240000013972911874426470565_);}
</style>
<g>
	<path class="st0" d="M44,38.1v-3.7H22.7v3.7H44z"/>
	<path class="st0" d="M22.6,27.5c-1.6,0-2.8,1.3-2.8,2.9c0,1.6,1.3,2.8,2.8,2.8c1.6,0,2.8-1.3,2.8-2.8
		C25.4,28.8,24.2,27.5,22.6,27.5"/>
	<path class="st0" d="M29.7,27.5c-1.6,0-2.8,1.3-2.8,2.8c0,1.6,1.3,2.9,2.8,2.9c1.6,0,2.8-1.3,2.8-2.9
		C32.5,28.7,31.2,27.5,29.7,27.5"/>
	<path class="st0" d="M36.6,27.5c-1.6,0-2.8,1.3-2.8,2.8c0,1.6,1.3,2.9,2.8,2.9c1.6,0,2.8-1.3,2.8-2.9
		C39.4,28.7,38.2,27.5,36.6,27.5"/>
	<path class="st0" d="M43.8,27.5c-1.6,0-2.8,1.3-2.8,2.8c0,1.6,1.3,2.9,2.8,2.9c1.6,0,2.8-1.3,2.8-2.9
		C46.7,28.7,45.4,27.5,43.8,27.5"/>
	<path class="st0" d="M34,27.6v-5.4h-1.6v5.4H34z"/>
	<path class="st0" d="M10.3,41.4H5v14h5.3v-5.6l5.5,5.6h6.4l-7.3-8l6-6h-5.5l-5.1,5.2L10.3,41.4z"/>
	<path class="st0" d="M22.6,41.4h5v10.5h9v3.5h-14V41.4z"/>
	<path class="st0" d="M50,49.4l2.7-8h8.5v14h-5V44.9l-3.6,10.5h-5.2l-3.5-10.5v10.5h-5.2v-14h8.7L50,49.4z"/>
	<path class="st0" d="M36,25.7v-1.6h-5.4v1.6H36z"/>
	<path class="st0" d="M76.9,51.7h2.3c0.7,0,1.5-0.2,1.5-1.3c0-1.1-0.8-1.2-1.3-1.2h-2.4V51.7z M76.9,55.7h-1v-7.3h3.3
		c1.2,0,2.4,0.4,2.4,2c0,1.1-0.5,1.5-1,1.7c0.4,0.2,0.8,0.4,0.9,1.4l0.1,1.3c0,0.4,0.1,0.6,0.4,0.7v0.2h-1.2
		c-0.1-0.4-0.2-1.5-0.2-1.8c0-0.6-0.1-1.3-1.3-1.3h-2.4V55.7z"/>
	<path class="st0" d="M85.1,55.1c1.3,0,1.5-1.3,1.5-2c0-0.7-0.3-2-1.5-2c-1.3,0-1.5,1.3-1.5,2C83.5,53.7,83.8,55.1,85.1,55.1z
		 M85.1,50.2c1.7,0,2.4,1.4,2.4,2.8s-0.8,2.8-2.4,2.8c-1.7,0-2.4-1.4-2.4-2.8S83.4,50.2,85.1,50.2"/>
	<g>
		<defs>
			<rect id="SVGID_1_" x="87.7" y="50.3" width="5.5" height="7.5"/>
		</defs>
		<clipPath id="SVGID_00000058564935735668810410000012670624906644431796_">
			<use xlink:href="#SVGID_1_"  style="overflow:visible;"/>
		</clipPath>
		<g style="clip-path:url(#SVGID_00000058564935735668810410000012670624906644431796_);">
			<path class="st0" d="M91.8,50.4h1c-0.6,1.7-1.2,3.5-1.9,5.2c-0.8,2.1-0.9,2.3-2.1,2.3c-0.1,0-0.2,0-0.4-0.1V57
				c0.1,0,0.3,0.1,0.5,0.1c0.5,0,0.5-0.1,0.9-1.2L88,50.4h1l1.4,4.3h0L91.8,50.4z"/>
		</g>
	</g>
	<g>
		<path class="st0" d="M96.7,53c-0.1,0.1-0.4,0.2-1.5,0.3c-0.4,0.1-1.1,0.2-1.1,0.9c0,0.6,0.3,0.9,1,0.9c0.8,0,1.6-0.5,1.6-1.2V53z
			 M93.5,52c0-1.3,0.9-1.8,2.2-1.8c0.4,0,1.9,0.1,1.9,1.5v3c0,0.2,0.1,0.3,0.3,0.3c0.1,0,0.2,0,0.3,0v0.6c-0.2,0-0.3,0.1-0.5,0.1
			c-0.8,0-0.9-0.4-0.9-0.8c-0.3,0.4-0.9,0.9-1.9,0.9c-1,0-1.6-0.6-1.6-1.5c0-0.4,0.1-1.5,1.6-1.7l1.5-0.2c0.2,0,0.5-0.1,0.5-0.6
			c0-0.6-0.4-0.9-1.2-0.9c-1,0-1.1,0.6-1.2,1H93.5z"/>
		<path class="st0" d="M99.1,55.7v-7.3h0.9v7.3H99.1z"/>
		<path class="st0" d="M105.3,54.8h1.9c1.3,0,2.1-1,2.1-2.8c0-1.8-0.8-2.8-2.2-2.8h-1.8V54.8z M104.3,48.4h2.9c1.9,0,3,1.4,3,3.5
			c0,1.6-0.7,3.7-3.1,3.7h-2.9V48.4z"/>
		<path class="st0" d="M114.8,55.7v-0.8l0,0c-0.4,0.6-0.8,0.9-1.7,0.9c-0.8,0-1.7-0.4-1.7-1.6v-3.8h0.9v3.5c0,0.9,0.4,1.2,1,1.2
			c1.1,0,1.4-1,1.4-1.8v-2.9h0.9v5.3H114.8z"/>
		<path class="st0" d="M118,51.1v3.4c0,0.4,0.4,0.4,0.5,0.4h0.3v0.7c-0.3,0-0.6,0.1-0.7,0.1c-0.9,0-1.1-0.5-1.1-1.1v-3.5h-0.7v-0.7
			h0.7v-1.5h0.9v1.5h0.8v0.7H118z"/>
		<path class="st0" d="M123,52.2c-0.1-0.7-0.5-1.1-1.2-1.1c-1.1,0-1.4,1.1-1.4,2c0,0.9,0.2,2,1.4,2c0.6,0,1.1-0.4,1.3-1.3h0.9
			c-0.1,0.8-0.6,2-2.1,2c-1.5,0-2.3-1.1-2.3-2.7c0-1.6,0.8-2.9,2.5-2.9c1.4,0,1.9,1,2,1.9H123z"/>
		<path class="st0" d="M129,55.7h-0.9v-3.5c0-0.7-0.2-1.2-1-1.2c-0.7,0-1.5,0.4-1.5,1.8v2.9h-0.9v-7.3h0.9v2.7h0
			c0.3-0.3,0.7-0.9,1.5-0.9c0.8,0,1.8,0.3,1.8,1.8V55.7z"/>
		<path class="st0" d="M136.9,52.7l-1.1-3.2h0l-1.2,3.2H136.9z M134.4,53.6l-0.8,2.1h-1l2.7-7.3h1.1l2.6,7.3H138l-0.7-2.1H134.4z"/>
		<path class="st0" d="M139.8,49.4v-1h0.9v1H139.8z M139.8,55.7v-5.3h0.9v5.3H139.8z"/>
		<path class="st0" d="M143.1,55.7h-0.9v-5.3h0.8v0.9h0c0.4-0.6,0.8-1,1.5-1c0.1,0,0.2,0,0.2,0v0.9h-0.3c-0.8,0-1.3,0.6-1.3,1.4
			V55.7z"/>
		<path class="st0" d="M145.4,55.7v-7.3h0.9v7.3H145.4z"/>
		<path class="st0" d="M147.6,49.4v-1h0.9v1H147.6z M147.6,55.7v-5.3h0.9v5.3H147.6z"/>
		<path class="st0" d="M154.1,55.7h-0.9v-3.3c0-0.9-0.3-1.4-1.1-1.4c-0.5,0-1.4,0.3-1.4,1.8v2.9h-0.9v-5.3h0.8v0.8h0
			c0.2-0.3,0.7-0.9,1.6-0.9c0.8,0,1.8,0.3,1.8,1.8V55.7z"/>
		<path class="st0" d="M159,52.6c-0.1-0.8-0.4-1.6-1.5-1.6c-0.8,0-1.5,0.8-1.5,1.6H159z M159.9,54c0,0.3-0.3,1-0.9,1.4
			c-0.2,0.2-0.6,0.4-1.4,0.4c-1.5,0-2.3-1.1-2.3-2.7c0-1.6,0.8-2.9,2.5-2.9c1.5,0,2.3,1.2,2.3,3.1h-3.8c0,1.1,0.5,1.7,1.5,1.7
			c0.8,0,1.3-0.6,1.4-1H159.9z"/>
		<path class="st0" d="M164,51.9c0-0.3-0.1-0.9-1.2-0.9c-0.3,0-1,0.1-1,0.7c0,0.4,0.3,0.5,1,0.7l0.9,0.2c1.1,0.3,1.5,0.7,1.5,1.4
			c0,1.1-0.9,1.8-2.1,1.8c-2.1,0-2.2-1.2-2.3-1.9h0.9c0,0.4,0.1,1.1,1.4,1.1c0.6,0,1.2-0.3,1.2-0.8c0-0.4-0.3-0.6-1-0.8l-1-0.3
			c-0.7-0.2-1.2-0.6-1.2-1.3c0-1.2,1-1.7,2-1.7c1.9,0,2,1.4,2,1.7H164z"/>
	</g>
</g>
</svg>
