<?xml version="1.0" encoding="utf-8"?>
<!-- Generator: Adobe Illustrator 26.3.1, SVG Export Plug-In . SVG Version: 6.00 Build 0)  -->
<svg version="1.1" id="Layer_1" xmlns="http://www.w3.org/2000/svg" xmlns:xlink="http://www.w3.org/1999/xlink" x="0px" y="0px"
	 viewBox="0 0 170 80" style="enable-background:new 0 0 170 80;" xml:space="preserve">
<style type="text/css">
	.st0{fill:#0A1D3D;}
</style>
<g id="path22" transform="matrix(1.33333,0,0,-1.33333,402.827,236.545)">
	<path class="st0" d="M-283.2,149.6c-0.1,0-0.2,0-0.2,0c0-0.1-0.1-0.2-0.2-0.4c1.6,0,3-0.1,4.6-0.4l-0.4-0.4
		c-1.4,0.3-2.6,0.4-4.1,0.4c-0.2,0-0.3,0-0.3,0c-0.1-0.1-0.2-0.2-0.3-0.4c0.1,0,0.4,0,0.7,0c1.2,0,2.4-0.1,3.7-0.3l-0.4-0.4
		c-1,0.1-2.1,0.2-3.2,0.2c-0.4,0-0.8,0-1.2,0c-0.1-0.1-0.3-0.3-0.4-0.4c0.5,0.1,1.1,0.1,1.7,0.1c0.9,0,1.8-0.1,2.7-0.2l-0.4-0.4
		c-0.6,0.1-1.3,0.1-2,0.1c-1.7,0-3-0.4-4.3-1.2c1.3-1.4,3.4-2.3,5.5-2.3h0.2l-0.7-0.7c-3,0.6-6.1,1.9-8.7,3.6
		c-2.5,1.7-3.4,2.2-5.4,3.1l0,0.5l1.3-0.6l0.5,0.4l4.4-2l-0.3-0.2l-2.2,1l-0.2-0.2l1.2-0.7c1-0.5,1.7-0.8,2.4-0.8
		c1.5,0,2.9,1.1,3.8,3c0.7,0.1,1.4,0.1,2.2,0.1c1.7,0,3.4-0.2,5.3-0.5l-0.5-0.4C-279.9,149.4-281.9,149.6-283.2,149.6 M-287.4,137.1
		c-5.7,0-10.3,4.6-10.3,10.3c0,5.7,4.6,10.3,10.3,10.3s10.3-4.6,10.3-10.3C-277.1,141.7-281.7,137.1-287.4,137.1 M-287.4,158.4
		c-6.1,0-11-4.9-11-11c0-6.1,4.9-11,11-11c6.1,0,11,4.9,11,11C-276.4,153.5-281.3,158.4-287.4,158.4 M-266.3,143h6.3v-2.9h-9.7v14.6
		h3.4V143z M-252.5,150.6h3.2v-10.5h-3v1.2c-0.4-0.8-1.3-1.5-3-1.5c-2.7,0-4.1,1.2-4.1,4.7v6.2h3.2v-6c0-1.4,0.6-2,1.9-2
		c1.1,0,1.9,0.6,1.9,2V150.6z M-246.9,151c0,2.5,1.6,3.9,4.1,3.9c0.8,0,1.3-0.1,1.3-0.1v-2.5c0,0-0.4,0-0.8,0c-1,0-1.5-0.3-1.5-1.3
		v-0.4h2.3v-2.6h-2.3v-8h-3.2v8h-1.6v2.6h1.6V151 M-235.9,150.6h2.4v-2.6h-2.4V144c0-1.1,0.6-1.4,1.5-1.4c0.4,0,0.9,0.1,0.9,0.1
		v-2.5c0,0-0.7-0.2-1.5-0.2c-2.5,0-4.1,1.1-4.1,3.7v4.4h-1.6v2.6h1.6v3.1h3.2V150.6z M-226.5,150.9c2.7,0,4.1-1.2,4.1-4.7v-6.2h-3.2
		v6c0,1.4-0.6,2-1.9,2c-1.2,0-1.9-0.6-1.9-2v-6h-3.2v14.6h3.2v-5.1C-228.8,150.4-228,150.9-226.5,150.9 M-214.4,144.2
		c0-1.1-1.1-2-2.8-2c-0.8,0-1.3,0.4-1.3,1.1c0,0.5,0.3,1,1.4,1.1l1.8,0.3c0.3,0,0.6,0.1,0.8,0.2V144.2z M-216.1,150.9
		c-3.1,0-4.6-1.2-4.7-3.4h3.1c0,0.6,0.4,1,1.7,1c1.1,0,1.7-0.4,1.7-0.9c0-0.5-0.3-0.7-1.1-0.8l-2-0.2c-2.7-0.3-3.9-1.4-3.9-3.5
		c0-1.9,1.2-3.4,3.7-3.4c1.7,0,2.7,0.5,3.6,1.6v-1.3h2.9v6.9C-211.4,149.9-213,150.9-216.1,150.9 M-204.1,150.9
		c2.7,0,4.1-1.2,4.1-4.7v-6.2h-3.2v6c0,1.4-0.6,2-1.9,2c-1.2,0-1.9-0.6-1.9-2v-6h-3.2v10.5h3v-1.2
		C-206.7,150.2-205.8,150.9-204.1,150.9 M-193.3,146.7c2.7-0.4,4-1.2,4-3.4c0-2.2-1.6-3.5-4.9-3.5c-3.6,0-4.9,1.4-4.9,3.5h3.1
		c0.1-0.8,0.6-1.1,1.8-1.1c1.2,0,1.7,0.3,1.7,0.9c0,0.5-0.4,0.8-1.5,0.9l-1.1,0.1c-2.3,0.3-3.7,1.2-3.7,3.3c0,2,1.5,3.5,4.6,3.5
		c2.9,0,4.4-1.1,4.6-3.4h-3.1c-0.1,0.6-0.4,1-1.5,1c-1,0-1.4-0.4-1.4-0.8c0-0.5,0.3-0.7,1.1-0.8L-193.3,146.7 M-181.4,144.2
		c0-1.1-1.1-2-2.8-2c-0.8,0-1.3,0.4-1.3,1.1c0,0.5,0.3,1,1.4,1.1l1.8,0.3c0.3,0,0.6,0.1,0.8,0.2V144.2z M-183.1,150.9
		c-3.1,0-4.6-1.2-4.7-3.4h3.1c0,0.6,0.4,1,1.7,1c1.1,0,1.7-0.4,1.7-0.9c0-0.5-0.3-0.7-1.1-0.8l-2-0.2c-2.7-0.3-3.9-1.4-3.9-3.5
		c0-1.9,1.2-3.4,3.7-3.4c1.7,0,2.7,0.5,3.6,1.6v-1.3h2.9v6.9C-178.4,149.9-180.1,150.9-183.1,150.9"/>
</g>
</svg>
