<?xml version="1.0" encoding="utf-8"?>
<!-- Generator: Adobe Illustrator 26.3.1, SVG Export Plug-In . SVG Version: 6.00 Build 0)  -->
<svg version="1.1" id="Layer_1" xmlns="http://www.w3.org/2000/svg" xmlns:xlink="http://www.w3.org/1999/xlink" x="0px" y="0px"
	 viewBox="0 0 170 80" style="enable-background:new 0 0 170 80;" xml:space="preserve">
<style type="text/css">
	.st0{fill-rule:evenodd;clip-rule:evenodd;fill:#EB1D27;}
	.st1{fill:#203966;}
	.st2{clip-path:url(#SVGID_00000074417654796860027490000003460383883895514535_);}
	.st3{clip-path:url(#SVGID_00000023987387543997596210000000506965115623071113_);}
	.st4{clip-path:url(#SVGID_00000029741329890757986650000010232337362805254572_);}
	.st5{clip-path:url(#SVGID_00000173854046421864071850000015753931282219847560_);}
	.st6{clip-path:url(#SVGID_00000062905622256610164590000017326030091649280899_);}
	.st7{clip-path:url(#SVGID_00000034047630733846597020000015484148873244869054_);}
	.st8{clip-path:url(#SVGID_00000044172357387517478100000013830184476681160354_);}
	.st9{fill-rule:evenodd;clip-rule:evenodd;fill:#203966;}
	.st10{clip-path:url(#SVGID_00000134972372297656883740000008833211324399914935_);}
</style>
<g>
	<path class="st0" d="M125.2,36.8l0.3-0.6h7.9c1.8,0,2.5-1.2,2.8-2c0.3-0.8,1-2.8,1.2-3.8s-0.1-1.8-1.4-1.8h-6.3l1-1h10.2
		c1,0,1.8,0.4,1.8,1.2c0,0.8-1.7,4.8-1.7,5.8c0,0.9,0.7,1.6,1.9,1.6c1.2,0,2.9-0.7,3.6-2.8c0.7-2.1,2.4-7,2.8-8.1
		c0.4-1.1,0-2.6-1.7-2.6h-11.1l0.9-1.1h12c2.2,0,6.8-0.1,10,4.1c3.2,4.2,0.6,7,2.5,9.4c1,1.3,3.1,1,3.1,1l-0.3,0.6H125.2z"/>
	<g>
		<path class="st1" d="M126.6,51.9l-0.7-0.9h11c1.4,0,3.2-0.9,3.7-2.5c0.5-1.6,2.6-7.4,3.1-8.9c0.5-1.6-0.4-2.2-1.7-2.2
			c-2.9,0-3.7,3.8-4.4,5.7c-0.7,1.9-1.6,2.6-3.3,2.6h-10.3L124,45h5.5c2.3,0,2.9-1.2,3.2-1.9c0.3-0.7,0.8-2.2,1.3-3.5
			c0.4-1.3,0-2.1-1.3-2.1h-7.6l0.3-0.6h39.5l-0.3,0.6c-2.4,0-3.1,0.4-4.7,1.4c-2.3,1.6-3.9,6-8.1,8.7c-2.1,1.4-5.9,4.3-12.3,4.3
			H126.6z"/>
		<path class="st1" d="M27.1,47.6l-1.5,3.9l-4.7,0L27.1,47.6z"/>
		<path class="st1" d="M64.1,47.7l-1.4,3.8h-4.6L64.1,47.7z"/>
		<path class="st1" d="M115.6,41.2l0.6-1.5h-7.6l1.2-3.3h7.8c2.7,0,3.8,1.9,3.3,3.3c-0.5,1.4-4.4,11.9-4.4,11.9h-9.6
			c-1.6,0-3.6-1.4-2.7-3.6c0.7-2,1-2.7,1.3-3.4c0.9-2.4,3.9-3.3,5.7-3.3C112.9,41.2,115.6,41.2,115.6,41.2z M110,44.5l-1.4,3.7h4.3
			l1.4-3.7H110z M72.5,36.3h4.6c0,0-0.3,0.9-1.1,3.3c-0.2,0.7-0.9,2.2-1.9,3.3c-1.1,1.3-3,3.6-3.4,4c-0.4,0.4-0.3,1.1,0.6,1.1h4.6
			l4.4-11.8h4.6c0,0-4.8,12.9-5.6,15.2c-1.6,4.3-5,4.8-6.6,4.8H65l1.1-3.3h6.7c0.6,0,1.4-0.3,1.6-0.9c0.1-0.3,0.2-0.6,0.2-0.6h-6
			c-2.3,0-3.3-1.8-3.3-2.9c0-1.1,0.6-2.3,1.9-3.6c1.3-1.3,2.2-2.5,2.8-3.1c0.6-0.6,1.1-1.8,1.2-2.2L72.5,36.3z M61.9,41.2l0.6-1.5
			h-7.6l1.2-3.3h7.8c2.7,0,3.8,1.9,3.3,3.3c-0.3,0.8-1.9,5.1-3,8.2l-5.8,3.7h-5.2c-1.6,0-3.6-1.4-2.7-3.6c0.7-2,1-2.7,1.3-3.4
			c0.9-2.4,3.9-3.3,5.7-3.3S61.9,41.2,61.9,41.2z M56.3,44.5L55,48.2h4.3l1.4-3.7H56.3z M40.1,41.2l0.6-1.5h-7.6l1.2-3.3h7.8
			c2.7,0,3.8,1.9,3.3,3.3c-0.5,1.4-4.4,11.9-4.4,11.9h-9.6c-1.6,0-3.6-1.4-2.7-3.6c0.7-2,1-2.7,1.3-3.4c0.9-2.4,3.9-3.3,5.7-3.3
			C37.5,41.2,40.1,41.2,40.1,41.2z M34.6,44.5l-1.4,3.7h4.3l1.4-3.7H34.6z M30,39.6c-0.3,0.8-1.9,5-3,8.2l-6,3.6l4.4-11.8H22
			l-4.4,11.9H13l4.4-11.9h-3.3L9.7,51.5H5l5.6-15.2h16.1C29.4,36.3,30.5,38.2,30,39.6z M103.5,32.4h4.7l-1.1,2.9h-4.7L103.5,32.4z
			 M106.7,36.3l-5.6,15.2h-4.7l5.6-15.2H106.7z M49.9,32.4h4.6l-7.1,19.2h-4.6L49.9,32.4z M89.8,41.1l4.1,0c2.7,0,3.8,1.9,3.3,3.3
			C97,45,96.5,46.3,96,47.7c0,0-0.9,2.1-2,2.9c-1.2,0.8-1.7,0.9-4,0.9c-0.6,0-9.3,0-9.3,0l1.3-3.3h8.6c0.3,0,0.5,0.1,0.7-0.4
			c0.1-0.3,1-2.6,1.1-2.8c0.1-0.3,0-0.5-0.3-0.5h-4.1c-2.7,0-3.8-1.9-3.3-3.3c0.1-0.4,0.4-1,0.6-1.8c1-2.2,3.8-3,5.5-3h8.1l-1.2,3.3
			h-7.2c-0.6,0-0.8,0.1-0.9,0.3c-0.1,0.1-0.3,0.6-0.3,0.8C89.3,40.9,89.4,41.1,89.8,41.1"/>
	</g>
	<g>
		<defs>
			<rect id="SVGID_1_" x="81.4" y="54.4" width="4.5" height="3.8"/>
		</defs>
		<clipPath id="SVGID_00000031184015174633456370000005419905036548757659_">
			<use xlink:href="#SVGID_1_"  style="overflow:visible;"/>
		</clipPath>
		<g style="clip-path:url(#SVGID_00000031184015174633456370000005419905036548757659_);">
			<path class="st1" d="M83.8,54.5h1.8l-1.8,3.7H82L83.8,54.5z"/>
		</g>
	</g>
	<g>
		<defs>
			<rect id="SVGID_00000178924061222331336250000012027660501990494853_" x="95" y="54.4" width="4.5" height="3.8"/>
		</defs>
		<clipPath id="SVGID_00000067915134809574510780000015068846096348344465_">
			<use xlink:href="#SVGID_00000178924061222331336250000012027660501990494853_"  style="overflow:visible;"/>
		</clipPath>
		<g style="clip-path:url(#SVGID_00000067915134809574510780000015068846096348344465_);">
			<path class="st1" d="M96.8,54.5h1.8l-1.8,3.7h-1.8L96.8,54.5z"/>
		</g>
	</g>
	<g>
		<defs>
			<rect id="SVGID_00000036225806499591805390000015917764990288335239_" x="75" y="54.4" width="7.3" height="3.8"/>
		</defs>
		<clipPath id="SVGID_00000040546419340692713720000005068429498801909146_">
			<use xlink:href="#SVGID_00000036225806499591805390000015917764990288335239_"  style="overflow:visible;"/>
		</clipPath>
		<g style="clip-path:url(#SVGID_00000040546419340692713720000005068429498801909146_);">
			<path class="st1" d="M75.9,58.2l3.7-3.7h1.8l0.2,3.7h-1.7l0-0.5h-1.7l-0.5,0.5H75.9z M79.8,56.7l0-0.8L79,56.7H79.8z"/>
		</g>
	</g>
	<g>
		<defs>
			<rect id="SVGID_00000141450277550557623970000006723657406932803767_" x="90.5" y="54.4" width="5.5" height="3.8"/>
		</defs>
		<clipPath id="SVGID_00000166635299835256300700000003307201008990688179_">
			<use xlink:href="#SVGID_00000141450277550557623970000006723657406932803767_"  style="overflow:visible;"/>
		</clipPath>
		<g style="clip-path:url(#SVGID_00000166635299835256300700000003307201008990688179_);">
			<path class="st1" d="M92.3,54.5h1.8l-1.3,2.8h2.5l-0.4,0.9h-4.3L92.3,54.5z"/>
		</g>
	</g>
	<g>
		<defs>
			<rect id="SVGID_00000126312055158286278210000002511256113088674190_" x="97.7" y="54.4" width="7.3" height="3.8"/>
		</defs>
		<clipPath id="SVGID_00000000203208799580367290000017692180331993387190_">
			<use xlink:href="#SVGID_00000126312055158286278210000002511256113088674190_"  style="overflow:visible;"/>
		</clipPath>
		<g style="clip-path:url(#SVGID_00000000203208799580367290000017692180331993387190_);">
			<path class="st1" d="M103.1,54.5h1.8l-1.8,3.7h-1.6l-1-1.7l-0.8,1.7h-1.8l1.8-3.7h1.6l1,1.7L103.1,54.5z"/>
		</g>
	</g>
	<g>
		<defs>
			<rect id="SVGID_00000096053906649089818510000007368442974482816423_" x="103.2" y="54.4" width="7.3" height="3.8"/>
		</defs>
		<clipPath id="SVGID_00000011032795691785013740000016131192350842062742_">
			<use xlink:href="#SVGID_00000096053906649089818510000007368442974482816423_"  style="overflow:visible;"/>
		</clipPath>
		<g style="clip-path:url(#SVGID_00000011032795691785013740000016131192350842062742_);">
			<path class="st1" d="M106.2,57.2h2.6l-0.4,0.9H104l1.8-3.7h4.4l-0.4,0.9h-2.6l-0.2,0.5h2.3l-0.5,0.9h-2.2L106.2,57.2z"/>
		</g>
	</g>
	<g>
		<defs>
			<rect id="SVGID_00000026876523783229919530000015145694500624091533_" x="108.6" y="53.5" width="6.4" height="4.7"/>
		</defs>
		<clipPath id="SVGID_00000010279255591037473850000000599652063325559990_">
			<use xlink:href="#SVGID_00000026876523783229919530000015145694500624091533_"  style="overflow:visible;"/>
		</clipPath>
		<g style="clip-path:url(#SVGID_00000010279255591037473850000000599652063325559990_);">
			<path class="st9" d="M113.1,55.7h1.8c0,0,0.4-1.2-1.6-1.3c-1.8-0.1-2.9,0.6-3,1.2c-0.2,0.7,0.4,1,1.5,1.2
				c0.5,0.1,0.7,0.2,0.6,0.3c-0.1,0.1-0.3,0.2-0.6,0.2c-0.6,0-0.6-0.4-0.6-0.4h-1.8c0,0,0,0.2,0,0.4c0,0.2,0.2,0.9,1.9,0.9
				c2.2,0,2.8-0.8,3-1.2c0.5-1.5-2.3-1-2.1-1.5c0.1-0.1,0.1-0.2,0.4-0.2C113.2,55.4,113.1,55.7,113.1,55.7"/>
		</g>
	</g>
	<g>
		<defs>
			<rect id="SVGID_00000096034870519162120250000013651444955070950293_" x="84.1" y="54.4" width="7.3" height="3.8"/>
		</defs>
		<clipPath id="SVGID_00000004514871906478933950000003274175308419505798_">
			<use xlink:href="#SVGID_00000096034870519162120250000013651444955070950293_"  style="overflow:visible;"/>
		</clipPath>
		<g style="clip-path:url(#SVGID_00000004514871906478933950000003274175308419505798_);">
			<path class="st1" d="M86.6,54.5h3c1,0,1.8,0.4,1.3,1.3c-0.2,0.4-0.3,0.4-0.9,0.7c0,0,0.5,0.2,0.2,0.8l-0.5,0.9h-1.8
				c0,0,0.3-0.6,0.4-0.9c0.1-0.3,0.1-0.4-0.2-0.4h-0.9l-0.6,1.3h-1.8L86.6,54.5z M87.9,55.4L87.6,56h0.9c0.5,0,0.9-0.6,0.3-0.6H87.9
				z"/>
		</g>
	</g>
</g>
</svg>
