<?xml version="1.0" encoding="utf-8"?>
<!-- Generator: Adobe Illustrator 26.3.1, SVG Export Plug-In . SVG Version: 6.00 Build 0)  -->
<svg version="1.1" id="Layer_1" xmlns="http://www.w3.org/2000/svg" xmlns:xlink="http://www.w3.org/1999/xlink" x="0px" y="0px"
	 viewBox="0 0 170 80" style="enable-background:new 0 0 170 80;" xml:space="preserve">
<style type="text/css">
	.st0{clip-path:url(#SVGID_00000033342248199742026560000003171273679102944183_);}
	.st1{fill:#5E6A70;}
	.st2{clip-path:url(#SVGID_00000021083896181714953550000008326938198624945544_);}
	.st3{clip-path:url(#SVGID_00000031189633942396736230000010461099555756484788_);}
	.st4{clip-path:url(#SVGID_00000051370571766104674910000003352875331714150076_);}
	.st5{clip-path:url(#SVGID_00000027601783390503244480000018406258111244582563_);}
	.st6{clip-path:url(#SVGID_00000066500213455063728230000015146451479153317504_);}
	.st7{clip-path:url(#SVGID_00000065777217927847417190000011538879278797692599_);}
	.st8{clip-path:url(#SVGID_00000026130218944679467510000018133223752877367184_);}
	.st9{clip-path:url(#SVGID_00000031923294190016758030000008695656504725036426_);}
	.st10{clip-path:url(#SVGID_00000121275065882574505950000016356783666317916072_);}
	.st11{clip-path:url(#SVGID_00000078741726172882927660000016072884487637259153_);}
	.st12{clip-path:url(#SVGID_00000088115364688338777010000004641823849137026195_);}
	.st13{clip-path:url(#SVGID_00000101824591613872942490000001903807697049949580_);}
	.st14{clip-path:url(#SVGID_00000161607604219624563150000000857386201134864515_);}
	.st15{fill:#EE2537;}
</style>
<g>
	<g>
		<defs>
			<rect id="SVGID_1_" x="5" y="49.9" width="10.9" height="13"/>
		</defs>
		<clipPath id="SVGID_00000135670803692120675660000018429793031034551476_">
			<use xlink:href="#SVGID_1_"  style="overflow:visible;"/>
		</clipPath>
		<g style="clip-path:url(#SVGID_00000135670803692120675660000018429793031034551476_);">
			<path class="st1" d="M10.3,53.2l-1.5,4.9h3.1L10.3,53.2z M13.2,62.6l-0.8-2.5H8.2l-0.8,2.5H5l4.1-12.1h2.4l4.1,12.1H13.2z"/>
		</g>
	</g>
	<g>
		<defs>
			<rect id="SVGID_00000137131060662369389980000017672713852921826735_" x="15.9" y="49.9" width="10" height="13"/>
		</defs>
		<clipPath id="SVGID_00000012468673431538184060000005638691831302173088_">
			<use xlink:href="#SVGID_00000137131060662369389980000017672713852921826735_"  style="overflow:visible;"/>
		</clipPath>
		<g style="clip-path:url(#SVGID_00000012468673431538184060000005638691831302173088_);">
			<path class="st1" d="M24.5,61c-0.8,1.4-2.3,1.9-3.9,1.9c-2,0-3.9-0.8-4.5-3C16,59.5,16,59,15.9,58.5h2.3c0,0.3,0.1,0.6,0.2,0.9
				c0.4,1,1.3,1.4,2.3,1.4c0.8,0,1.9-0.3,1.9-1.3c0-0.2-0.1-0.3-0.2-0.5c-0.3-0.5-1.2-0.9-1.7-1.1c-1-0.4-2.3-0.9-3.2-1.6
				c-0.8-0.6-1.2-1.5-1.2-2.6c0-2.3,2-3.6,4.2-3.6c1.5,0,3.1,0.7,3.8,2.1c0.3,0.6,0.3,1.1,0.4,1.7h-2.3c0-1.1-0.9-1.8-2-1.8
				c-0.8,0-1.8,0.4-1.8,1.3c0,0.9,1.1,1.2,1.7,1.4c1,0.4,2.5,0.9,3.4,1.5c0.9,0.6,1.3,1.5,1.3,2.6C25,59.8,24.9,60.4,24.5,61"/>
		</g>
	</g>
	<g>
		<defs>
			<rect id="SVGID_00000017481317579128256760000004095816910208591034_" x="25.9" y="49.9" width="3.6" height="13"/>
		</defs>
		<clipPath id="SVGID_00000048465291451875510930000000633697849919830711_">
			<use xlink:href="#SVGID_00000017481317579128256760000004095816910208591034_"  style="overflow:visible;"/>
		</clipPath>
		<g style="clip-path:url(#SVGID_00000048465291451875510930000000633697849919830711_);">
			<path class="st1" d="M26.6,62.6V50.5h2.3v12.1H26.6z"/>
		</g>
	</g>
	<g>
		<defs>
			<rect id="SVGID_00000150824625610166852950000013006648690078916744_" x="29.5" y="49.9" width="11.8" height="13"/>
		</defs>
		<clipPath id="SVGID_00000146486325991711399610000017171385702541715374_">
			<use xlink:href="#SVGID_00000150824625610166852950000013006648690078916744_"  style="overflow:visible;"/>
		</clipPath>
		<g style="clip-path:url(#SVGID_00000146486325991711399610000017171385702541715374_);">
			<path class="st1" d="M35.5,53.2l-1.5,4.9H37L35.5,53.2z M38.4,62.6l-0.8-2.5h-4.3l-0.8,2.5h-2.4l4.1-12.1h2.4l4.1,12.1H38.4z"/>
		</g>
	</g>
	<g>
		<defs>
			<rect id="SVGID_00000173849976684411917920000002022754114457871286_" x="41.4" y="49.9" width="10" height="13"/>
		</defs>
		<clipPath id="SVGID_00000064353053874719746530000015766764005103358143_">
			<use xlink:href="#SVGID_00000173849976684411917920000002022754114457871286_"  style="overflow:visible;"/>
		</clipPath>
		<g style="clip-path:url(#SVGID_00000064353053874719746530000015766764005103358143_);">
			<path class="st1" d="M48.9,62.6l-5.1-8.5v8.5h-2.2V50.5h2.5l4.9,8.5v-8.5h2.2v12.1H48.9z"/>
		</g>
	</g>
	<g>
		<defs>
			<rect id="SVGID_00000121958930815480980400000001378956067199349946_" x="51.4" y="49.9" width="11.8" height="13"/>
		</defs>
		<clipPath id="SVGID_00000161599507792579953260000004261335607176235701_">
			<use xlink:href="#SVGID_00000121958930815480980400000001378956067199349946_"  style="overflow:visible;"/>
		</clipPath>
		<g style="clip-path:url(#SVGID_00000161599507792579953260000004261335607176235701_);">
			<path class="st1" d="M57.4,53.2l-1.5,4.9H59L57.4,53.2z M60.3,62.6l-0.8-2.5h-4.3l-0.8,2.5h-2.4l4.1-12.1h2.4l4.1,12.1H60.3z"/>
		</g>
	</g>
	<g>
		<defs>
			<rect id="SVGID_00000124127268140806442360000007442933691888929974_" x="67.7" y="49.9" width="11.8" height="13"/>
		</defs>
		<clipPath id="SVGID_00000060711131604076264830000006723082406018840246_">
			<use xlink:href="#SVGID_00000124127268140806442360000007442933691888929974_"  style="overflow:visible;"/>
		</clipPath>
		<g style="clip-path:url(#SVGID_00000060711131604076264830000006723082406018840246_);">
			<path class="st1" d="M73.5,53.2l-1.5,5h3.1L73.5,53.2z M76.4,62.6l-0.8-2.5h-4.3l-0.8,2.5h-2.4l4.1-12.1h2.4l4.1,12.1H76.4z"/>
		</g>
	</g>
	<g>
		<defs>
			<rect id="SVGID_00000136377974943975517140000013319767596213588867_" x="79.5" y="49.9" width="3.6" height="13"/>
		</defs>
		<clipPath id="SVGID_00000060720352959645413800000012878507639622437793_">
			<use xlink:href="#SVGID_00000136377974943975517140000013319767596213588867_"  style="overflow:visible;"/>
		</clipPath>
		<g style="clip-path:url(#SVGID_00000060720352959645413800000012878507639622437793_);">
			<path class="st1" d="M80.1,62.6V50.5h2.3v12.1H80.1z"/>
		</g>
	</g>
	<g>
		<defs>
			<rect id="SVGID_00000101817845163091897690000008949779295154042769_" x="84.1" y="49.9" width="10" height="13"/>
		</defs>
		<clipPath id="SVGID_00000160872301761656156690000012497059243018075050_">
			<use xlink:href="#SVGID_00000101817845163091897690000008949779295154042769_"  style="overflow:visible;"/>
		</clipPath>
		<g style="clip-path:url(#SVGID_00000160872301761656156690000012497059243018075050_);">
			<path class="st1" d="M89.8,52.7c-0.5-0.2-1.2-0.2-1.8-0.2h-1.1V56h1.5c1.2,0,2.3-0.3,2.3-1.8C90.7,53.5,90.4,53,89.8,52.7z
				 M91,62.6L88.5,58h-1.7v4.6h-2.3V50.5h3.3c1,0,2,0,2.9,0.3c1.5,0.6,2.4,1.8,2.4,3.4c0,1.5-0.7,2.7-2.1,3.4l2.8,5H91z"/>
		</g>
	</g>
	<g>
		<defs>
			<rect id="SVGID_00000045595265876839093470000006575615306916362161_" x="94.1" y="49.9" width="9.1" height="13"/>
		</defs>
		<clipPath id="SVGID_00000031898266144387860560000018257560668474728112_">
			<use xlink:href="#SVGID_00000045595265876839093470000006575615306916362161_"  style="overflow:visible;"/>
		</clipPath>
		<g style="clip-path:url(#SVGID_00000031898266144387860560000018257560668474728112_);">
			<path class="st1" d="M94.9,62.6V50.5h2.4v10.1h5.3v2H94.9z"/>
		</g>
	</g>
	<g>
		<defs>
			<rect id="SVGID_00000175281808870624147910000012893168581888910476_" x="103.2" y="49.9" width="3.6" height="13"/>
		</defs>
		<clipPath id="SVGID_00000152957594687337797620000016197917539245585585_">
			<use xlink:href="#SVGID_00000175281808870624147910000012893168581888910476_"  style="overflow:visible;"/>
		</clipPath>
		<g style="clip-path:url(#SVGID_00000152957594687337797620000016197917539245585585_);">
			<path class="st1" d="M103.9,62.6V50.5h2.3v12.1H103.9z"/>
		</g>
	</g>
	<g>
		<defs>
			<rect id="SVGID_00000156561588669315797060000015735867073759524992_" x="107.7" y="49.9" width="10.9" height="13"/>
		</defs>
		<clipPath id="SVGID_00000145737785541602266280000012132595267862165913_">
			<use xlink:href="#SVGID_00000156561588669315797060000015735867073759524992_"  style="overflow:visible;"/>
		</clipPath>
		<g style="clip-path:url(#SVGID_00000145737785541602266280000012132595267862165913_);">
			<path class="st1" d="M115.7,62.6l-5.1-8.5v8.5h-2.2V50.5h2.5l4.9,8.5v-8.5h2.2v12.1H115.7z"/>
		</g>
	</g>
	<g>
		<defs>
			<rect id="SVGID_00000067218949869748964910000011424466801154274744_" x="119.5" y="49.9" width="9.1" height="13"/>
		</defs>
		<clipPath id="SVGID_00000010288045707947766430000008877159391621311907_">
			<use xlink:href="#SVGID_00000067218949869748964910000011424466801154274744_"  style="overflow:visible;"/>
		</clipPath>
		<g style="clip-path:url(#SVGID_00000010288045707947766430000008877159391621311907_);">
			<path class="st1" d="M120.1,62.6V50.5h7.6v2h-5.3v2.9h4.8v2h-4.8v3.3h5.5v2H120.1z"/>
		</g>
	</g>
	<g>
		<defs>
			<rect id="SVGID_00000165924477482036063130000000700564317135007161_" x="127.7" y="49.9" width="10" height="13"/>
		</defs>
		<clipPath id="SVGID_00000003812033408387466780000018201786462936794770_">
			<use xlink:href="#SVGID_00000165924477482036063130000000700564317135007161_"  style="overflow:visible;"/>
		</clipPath>
		<g style="clip-path:url(#SVGID_00000003812033408387466780000018201786462936794770_);">
			<path class="st1" d="M137.2,61c-0.8,1.4-2.3,1.9-3.9,1.9c-2,0-3.9-0.8-4.5-3c-0.1-0.5-0.2-0.9-0.2-1.4h2.3c0,0.3,0.1,0.6,0.2,0.9
				c0.4,1,1.3,1.4,2.3,1.4c0.8,0,1.9-0.3,1.9-1.3c0-0.2-0.1-0.3-0.2-0.5c-0.3-0.5-1.2-0.9-1.7-1.1c-1-0.4-2.3-0.9-3.2-1.6
				c-0.8-0.6-1.2-1.5-1.2-2.6c0-2.3,2-3.6,4.2-3.6c1.5,0,3.1,0.7,3.8,2.1c0.3,0.6,0.3,1.1,0.4,1.7h-2.3c0-1.1-0.9-1.8-2-1.8
				c-0.8,0-1.8,0.4-1.8,1.3c0,0.9,1.1,1.2,1.7,1.4c1,0.4,2.5,0.9,3.4,1.5c0.9,0.6,1.3,1.5,1.3,2.6C137.7,59.8,137.5,60.4,137.2,61"
				/>
		</g>
	</g>
	<path class="st15" d="M134.7,29.2c0,0.4,0.1,0.9,0.2,1.3c0.7,1.8,2.6,3,5,2c0.6-0.2,16.4-6.6,16.4-6.6s-6.2,15.8-6.5,16.4
		c-0.9,2.3,0.2,4.3,2,5c0.4,0.1,0.8,0.2,1.3,0.2c1.5,0,2.9-0.9,3.5-2.7c0.1-0.3,7.9-21.7,8.1-22.2c0.1-0.3,0.3-1,0.3-1.5
		c0-1.1-0.4-2.1-1.1-2.8c-0.7-0.7-1.7-1.1-2.8-1.1c-0.5,0-0.9,0.1-1.5,0.3c-0.4,0.1-20.5,7.6-22.2,8.2
		C135.6,26.3,134.7,27.7,134.7,29.2"/>
</g>
</svg>
