<?xml version="1.0" encoding="utf-8"?>
<!-- Generator: Adobe Illustrator 26.3.1, SVG Export Plug-In . SVG Version: 6.00 Build 0)  -->
<svg version="1.1" id="Layer_1" xmlns="http://www.w3.org/2000/svg" xmlns:xlink="http://www.w3.org/1999/xlink" x="0px" y="0px"
	 viewBox="0 0 170 80" style="enable-background:new 0 0 170 80;" xml:space="preserve">
<style type="text/css">
	.st0{fill-rule:evenodd;clip-rule:evenodd;fill:#2E3590;}
	.st1{fill-rule:evenodd;clip-rule:evenodd;fill:#F3B013;}
	.st2{fill-rule:evenodd;clip-rule:evenodd;fill:#EB1D2B;}
	.st3{fill-rule:evenodd;clip-rule:evenodd;fill:#211C1D;}
	.st4{clip-path:url(#SVGID_00000084512356662547078100000000872586914400949396_);}
	.st5{clip-path:url(#SVGID_00000016790724023903584570000010052073808979447950_);}
</style>
<g>
	<path class="st0" d="M5,49.2h21.2L30,28.1L5,49.2z"/>
	<path class="st1" d="M27,37.3l0.2-6.9l-0.6,0.5l-0.2,6.5l-0.8,2.9h0h0l-1.3-2.4l-0.7-4.4l-0.5,0.4l0.6,3.9v3.1l0,0c0,0,0,0,0,0l0,0
		l-1.8-2.2l-1.6-2.5l-0.4,0.4l1.5,2.4l0.7,2.8l0,0c0,0,0,0,0,0l0,0L19.7,40l-1.6-2l-0.4,0.4l1.5,1.9l1.4,2.5l-2.8-1.1l-2.1-1.6
		l-0.4,0.4l2.1,1.7l2,2.1l0,0c0,0,0,0,0,0l0,0l-3.1-0.5l-3.2-1.4l-0.4,0.4l3.4,1.5l2.3,1.7l0,0c0,0,0,0,0,0.1l0,0l-3-0.2l-4.6-1.3
		l-0.5,0.4l5,1.3l2.6,1.4l-3,0.4l-7.6-0.4l-0.6,0.5l8.1,0.5l2.8,0.8l10.4-8.6L27,37.3z"/>
	<path class="st2" d="M17,49.2h21.2l3.8-21.1L17,49.2z"/>
	<path class="st3" d="M49.6,43.7h0.6c1.1,0,1.8-0.1,2.1-0.2c0.4-0.1,0.6-0.3,0.8-0.6s0.3-0.6,0.3-1c0-0.2-0.1-0.4-0.2-0.6
		c-0.1-0.2-0.3-0.3-0.4-0.3c-0.2-0.1-0.6-0.1-1.3-0.1h-1.4L49.6,43.7z M48.5,49.2h-2l2.1-9.9h4c0.7,0,1.3,0.1,1.7,0.3
		c0.4,0.2,0.7,0.5,1,0.8c0.2,0.4,0.4,0.9,0.4,1.4c0,0.5-0.1,1-0.3,1.5s-0.4,0.9-0.7,1.1c-0.3,0.3-0.6,0.5-0.9,0.6
		c-0.3,0.1-0.8,0.3-1.3,0.3c-0.3,0-0.9,0.1-1.8,0.1h-1.3L48.5,49.2z"/>
	<path class="st3" d="M57.5,49.2h-1.9l2.1-9.9h1.9l-0.7,3.5c0.4-0.4,0.9-0.6,1.2-0.8c0.4-0.2,0.8-0.2,1.2-0.2c0.6,0,1.1,0.2,1.4,0.5
		c0.3,0.3,0.5,0.8,0.5,1.3c0,0.3-0.1,0.7-0.2,1.3l-0.9,4.2h-1.9l0.9-4.3c0.1-0.5,0.2-0.8,0.2-0.9c0-0.2-0.1-0.4-0.2-0.6
		s-0.4-0.2-0.6-0.2c-0.3,0-0.7,0.1-1,0.3c-0.4,0.3-0.7,0.7-0.9,1.1c-0.1,0.2-0.3,0.8-0.4,1.7L57.5,49.2z"/>
	<path class="st3" d="M66.1,39.2H68L67.6,41h-1.9L66.1,39.2z M65.5,42h1.9l-1.5,7.2H64L65.5,42z"/>
	<path class="st3" d="M67.8,49.2l2.1-9.9h1.9l-2.1,9.9H67.8z"/>
	<path class="st3" d="M73.6,39.2h1.9L75.2,41h-1.9L73.6,39.2z M73,42H75l-1.5,7.2h-1.9L73,42z"/>
	<g>
		<defs>
			<rect id="SVGID_1_" x="74.1" y="41.7" width="9.1" height="10.2"/>
		</defs>
		<clipPath id="SVGID_00000156586977525353751610000009646498827668466564_">
			<use xlink:href="#SVGID_1_"  style="overflow:visible;"/>
		</clipPath>
		<g style="clip-path:url(#SVGID_00000156586977525353751610000009646498827668466564_);">
			<path class="st3" d="M77.9,46.1c0,0.6,0.1,1,0.4,1.3c0.3,0.3,0.6,0.5,1,0.5c0.3,0,0.6-0.1,0.9-0.4c0.3-0.2,0.5-0.6,0.7-1.2
				c0.2-0.5,0.3-1,0.3-1.5c0-0.5-0.1-1-0.4-1.2c-0.3-0.3-0.6-0.4-1-0.4c-0.4,0-0.7,0.1-1,0.4s-0.5,0.7-0.7,1.2
				C78,45.3,77.9,45.7,77.9,46.1z M76.8,42h1.8l-0.1,0.7c0.4-0.3,0.8-0.6,1.1-0.7c0.3-0.1,0.7-0.2,1.1-0.2c0.8,0,1.4,0.3,1.8,0.8
				c0.5,0.5,0.7,1.3,0.7,2.3c0,1.3-0.4,2.4-1.2,3.3c-0.7,0.8-1.5,1.1-2.4,1.1c-1,0-1.7-0.4-2.2-1.2l-0.8,3.7h-1.9L76.8,42z"/>
		</g>
	</g>
	<g>
		<defs>
			<rect id="SVGID_00000121270126872032371880000002119184243843029687_" x="82.3" y="41.7" width="10" height="10.2"/>
		</defs>
		<clipPath id="SVGID_00000140016013006648091380000012423433421454933419_">
			<use xlink:href="#SVGID_00000121270126872032371880000002119184243843029687_"  style="overflow:visible;"/>
		</clipPath>
		<g style="clip-path:url(#SVGID_00000140016013006648091380000012423433421454933419_);">
			<path class="st3" d="M86.3,46.1c0,0.6,0.1,1,0.4,1.3c0.3,0.3,0.6,0.5,1,0.5c0.3,0,0.6-0.1,0.9-0.4c0.3-0.2,0.5-0.6,0.7-1.2
				c0.2-0.5,0.3-1,0.3-1.5c0-0.5-0.1-1-0.4-1.2c-0.3-0.3-0.6-0.4-1-0.4c-0.4,0-0.7,0.1-1,0.4c-0.3,0.3-0.5,0.7-0.7,1.2
				C86.4,45.3,86.3,45.7,86.3,46.1z M85.2,42H87l-0.1,0.7c0.4-0.3,0.8-0.6,1.1-0.7c0.3-0.1,0.7-0.2,1.1-0.2c0.8,0,1.4,0.3,1.8,0.8
				c0.5,0.5,0.7,1.3,0.7,2.3c0,1.3-0.4,2.4-1.2,3.3c-0.7,0.8-1.5,1.1-2.4,1.1c-1,0-1.7-0.4-2.2-1.2L85,51.9h-1.9L85.2,42z"/>
		</g>
	</g>
	<g>
		<path class="st3" d="M94.2,39.2h1.9L95.8,41h-1.9L94.2,39.2z M93.6,42h1.9l-1.5,7.2h-1.9L93.6,42z"/>
		<path class="st3" d="M97.4,42h1.8l-0.2,0.9c0.5-0.4,0.9-0.7,1.3-0.9c0.4-0.2,0.8-0.3,1.3-0.3c0.6,0,1.1,0.2,1.4,0.5
			c0.3,0.3,0.5,0.8,0.5,1.4c0,0.3-0.1,0.7-0.2,1.4l-0.9,4.1h-1.9l0.9-4.1c0.1-0.6,0.2-1,0.2-1.1c0-0.3-0.1-0.5-0.2-0.6
			s-0.4-0.2-0.6-0.2c-0.3,0-0.6,0.1-1,0.4c-0.4,0.2-0.6,0.6-0.8,1c-0.2,0.3-0.3,0.9-0.5,1.7l-0.6,3h-1.9L97.4,42z"/>
		<path class="st3" d="M109.7,45c0-0.1,0-0.2,0-0.2c0-0.5-0.1-0.9-0.4-1.2c-0.2-0.3-0.6-0.4-1-0.4c-0.4,0-0.8,0.2-1.1,0.5
			c-0.3,0.3-0.5,0.8-0.6,1.4H109.7z M111.3,46.2h-4.8c0,0.1,0,0.1,0,0.2c0,0.5,0.1,0.9,0.4,1.2c0.3,0.3,0.6,0.4,1,0.4
			c0.6,0,1.1-0.3,1.5-1l1.7,0.3c-0.3,0.7-0.8,1.2-1.4,1.6s-1.2,0.5-1.9,0.5c-1,0-1.7-0.3-2.3-0.9c-0.6-0.6-0.9-1.4-0.9-2.4
			c0-1,0.3-1.9,0.8-2.6c0.7-1,1.8-1.6,3.2-1.6c0.9,0,1.6,0.3,2.1,0.8c0.5,0.5,0.8,1.3,0.8,2.3C111.4,45.4,111.4,45.8,111.3,46.2"/>
		<path class="st3" d="M121.5,45.3l-0.6-4l-2.2,4H121.5z M121.7,47h-3.9l-1.2,2.2h-2.1l5.6-9.9h2.3l1.6,9.9h-1.9L121.7,47z"/>
		<path class="st3" d="M127.2,39.2h1.9l-0.4,1.8h-1.9L127.2,39.2z M126.7,42h1.9l-1.5,7.2h-1.9L126.7,42z"/>
		<path class="st3" d="M130.3,42h1.8l-0.3,1.4c0.7-1,1.4-1.5,2.2-1.5c0.3,0,0.6,0.1,0.9,0.2l-0.7,1.6c-0.2-0.1-0.4-0.1-0.6-0.1
			c-0.3,0-0.7,0.1-1,0.4c-0.3,0.3-0.6,0.6-0.8,1c-0.2,0.4-0.4,1.1-0.6,2l-0.5,2.3h-1.9L130.3,42z"/>
		<path class="st3" d="M134.3,49.2l2.1-9.9h1.9l-2.1,9.9H134.3z"/>
		<path class="st3" d="M140.1,39.2h1.9l-0.4,1.8h-1.9L140.1,39.2z M139.6,42h1.9l-1.5,7.2h-1.9L139.6,42z"/>
		<path class="st3" d="M143.4,42h1.8l-0.2,0.9c0.5-0.4,0.9-0.7,1.3-0.9c0.4-0.2,0.8-0.3,1.3-0.3c0.6,0,1.1,0.2,1.4,0.5
			c0.3,0.3,0.5,0.8,0.5,1.4c0,0.3-0.1,0.7-0.2,1.4l-0.9,4.1h-1.9l0.9-4.1c0.1-0.6,0.2-1,0.2-1.1c0-0.3-0.1-0.5-0.2-0.6
			c-0.1-0.1-0.4-0.2-0.6-0.2c-0.3,0-0.6,0.1-1,0.4c-0.4,0.2-0.6,0.6-0.8,1c-0.1,0.3-0.3,0.9-0.5,1.7l-0.6,3h-1.9L143.4,42z"/>
		<path class="st3" d="M155.6,45c0-0.1,0-0.2,0-0.2c0-0.5-0.1-0.9-0.4-1.2c-0.2-0.3-0.6-0.4-1-0.4c-0.4,0-0.8,0.2-1.1,0.5
			c-0.3,0.3-0.5,0.8-0.6,1.4H155.6z M157.2,46.2h-4.8c0,0.1,0,0.1,0,0.2c0,0.5,0.1,0.9,0.4,1.2c0.3,0.3,0.6,0.4,1,0.4
			c0.6,0,1.1-0.3,1.5-1l1.7,0.3c-0.3,0.7-0.8,1.2-1.4,1.6c-0.6,0.3-1.2,0.5-1.9,0.5c-1,0-1.7-0.3-2.3-0.9c-0.6-0.6-0.9-1.4-0.9-2.4
			c0-1,0.3-1.9,0.8-2.6c0.7-1,1.8-1.6,3.2-1.6c0.9,0,1.6,0.3,2.1,0.8c0.5,0.5,0.8,1.3,0.8,2.3C157.4,45.4,157.3,45.8,157.2,46.2"/>
		<path class="st3" d="M157.6,47.2l1.9-0.3c0.2,0.4,0.4,0.7,0.6,0.8c0.2,0.2,0.6,0.2,1,0.2c0.4,0,0.8-0.1,1.1-0.3
			c0.2-0.1,0.3-0.3,0.3-0.5c0-0.1,0-0.2-0.1-0.4c-0.1-0.1-0.4-0.2-0.8-0.4c-1.2-0.4-1.9-0.7-2.2-0.9c-0.4-0.4-0.7-0.8-0.7-1.4
			c0-0.6,0.2-1.1,0.6-1.5c0.6-0.6,1.5-0.9,2.6-0.9c0.9,0,1.6,0.2,2.1,0.5c0.5,0.3,0.8,0.8,0.9,1.4l-1.8,0.3
			c-0.1-0.3-0.2-0.5-0.5-0.6c-0.3-0.2-0.6-0.3-1.1-0.3c-0.4,0-0.7,0.1-0.9,0.2c-0.2,0.1-0.3,0.3-0.3,0.5c0,0.2,0.1,0.3,0.3,0.5
			c0.1,0.1,0.5,0.2,1.1,0.4c0.9,0.3,1.6,0.6,1.9,0.8c0.5,0.4,0.7,0.8,0.7,1.4c0,0.7-0.3,1.3-0.9,1.8c-0.6,0.5-1.4,0.8-2.4,0.8
			c-1,0-1.8-0.2-2.4-0.6C158.2,48.4,157.8,47.9,157.6,47.2"/>
	</g>
</g>
</svg>
