<?xml version="1.0" encoding="utf-8"?>
<!-- Generator: Adobe Illustrator 26.3.1, SVG Export Plug-In . SVG Version: 6.00 Build 0)  -->
<svg version="1.1" id="Layer_1" xmlns="http://www.w3.org/2000/svg" xmlns:xlink="http://www.w3.org/1999/xlink" x="0px" y="0px"
	 viewBox="0 0 170 80" style="enable-background:new 0 0 170 80;" xml:space="preserve">
<style type="text/css">
	.st0{fill:#3D4950;}
	.st1{clip-path:url(#SVGID_00000127042115736359849810000003677736432687759777_);}
	.st2{fill:#EE2D2B;}
	.st3{fill:#FFFFFF;}
</style>
<g>
	<g>
		<path class="st0" d="M132.6,42h-4.2c0.2-0.2,0.4-0.4,0.6-0.6c4.1-4,4.8-3.7,4.8-3.7L132.6,42z M141.5,34.3c-1.7-0.2-9-1.6-15,3.9
			c-5,4.5-10.8,9.6-10.8,9.6h6.7c0,0,0.8-0.7,2.5-2.3h6.9l-0.6,2.3h6.9"/>
		<path class="st0" d="M70.8,42h-4.2c0.2-0.2,0.4-0.4,0.6-0.6c4.1-4,4.8-3.7,4.8-3.7L70.8,42z M79.7,34.3c-1.7-0.2-9-1.6-15,3.9
			c-5,4.5-10.8,9.6-10.8,9.6h6.7c0,0,0.8-0.7,2.5-2.3h6.9l-0.6,2.3h6.9"/>
		<path class="st0" d="M103.9,34.1c-2.8,0-4.8,1-6,2.9l-2.4,3.8l-3.4-6.7l-1.3,0c-2.8,0-5.7,1.8-7,3.9l-6.3,9.7H84l4.3-6.6l3.3,6.6
			h5.8l8.7-13.6"/>
		<path class="st0" d="M49.7,41c-1.7,2.2-3.6,3.9-5.9,3.8c-2.8-0.1-2-2-0.5-3.8c1.8-2.2,4-4.1,6.3-4C52.4,37.1,51.4,38.8,49.7,41
			 M51.3,33.8c-8.3,0-13.5,3.8-15.7,7.3c-2.1,3.3-0.1,7.4,7.9,7c0,0,1.6,1.9,4.9,2c3.3,0.1,5.4-2.4,5.4-2.4s-1.1,0.3-2.3,0.2
			c-1.5-0.2-2.1-0.9-2.1-0.9c4.4-1.6,6.9-3.7,8.3-5.9C59.9,37.6,59.5,33.8,51.3,33.8"/>
		<path class="st0" d="M111.6,34.1c-2.9,0-4.9,1.1-5.8,2.5l-0.7,1.1h6.5l-6.4,9.9h7.1l6.4-9.9l2,0c2.6,0,4.9-1.1,5.8-2.5l0.7-1.1"/>
		<path class="st0" d="M152.5,38.4c5.1,1.3,7.4,2.4,7.1,4.5c-0.4,3.1-5.4,5.2-11.6,5.1c-6.2-0.1-9-2-9-2l3.8-2.8
			c0,0,2.7,1.3,6.3,1.3c2.3,0,2.6-0.5,2.7-0.6c0.1-0.4-0.5-0.6-2.1-1.1c-3.2-1-6.4-1.9-6.1-4.6c0.4-3.2,6.1-4.6,11.1-4.5
			c3.4,0.1,6.9,1.2,6.9,1.2c-1.4,2.2-3.7,2.5-4.6,2.5c-1.2,0-2.1-0.3-3.9-0.3c-1.5,0-1.9,0.5-1.7,0.8
			C151.5,38.2,151.8,38.2,152.5,38.4"/>
	</g>
	<g>
		<defs>
			<rect id="SVGID_1_" x="8.5" y="26" width="34.8" height="28.1"/>
		</defs>
		<clipPath id="SVGID_00000064351318123492487790000014194320108247477936_">
			<use xlink:href="#SVGID_1_"  style="overflow:visible;"/>
		</clipPath>
		<g style="clip-path:url(#SVGID_00000064351318123492487790000014194320108247477936_);">
			<path class="st2" d="M8.5,54h34l-34-28.1"/>
		</g>
	</g>
	<path class="st3" d="M8.5,33.2c0,0.2,0.1,0.7,0.1,0.9c1.4,3.8,9,2.3,14,8.7c0,0,1,0.1,1.6-0.9c0,0-1.3-0.1-1.4-1
		c0,0,2.7,0.5,4.3,1.7c0,0,0,0.5-1.9,0.5c-0.4,0-0.5,0-1.1,0.6c0,0-1.5,1.5-3.1,1.5c-0.5,0-0.8-0.2-0.9-0.3c0,0-0.1-0.2,0.3-0.1
		c0,0,0.8,0.2,1.2-0.1c0,0-0.4-0.5-1-0.5c-0.4,0-0.8,0.1-1,0.4c0,0-1.2,1.4,2.3,2.8c5.1,2,7.9,5,7.5,5.7c0,0,0,0,0,0
		c-0.5-0.3-4.6-5-11.8-5.5c0,0,0-0.1,0.1-0.2c0.7-3.2-0.9-5.4-2.8-6.6c-1.9-1.4-5.5-2.5-6.6-5.6"/>
</g>
</svg>
