<?xml version="1.0" encoding="utf-8"?>
<!-- Generator: Adobe Illustrator 26.3.1, SVG Export Plug-In . SVG Version: 6.00 Build 0)  -->
<svg version="1.1" id="Layer_1" xmlns="http://www.w3.org/2000/svg" xmlns:xlink="http://www.w3.org/1999/xlink" x="0px" y="0px"
	 viewBox="0 0 170 80" style="enable-background:new 0 0 170 80;" xml:space="preserve">
<style type="text/css">
	.st0{fill:#298C4F;}
	.st1{clip-path:url(#SVGID_00000178885284696770448490000007955730762163842484_);}
	.st2{clip-path:url(#SVGID_00000078761812261771027520000006427231400014711453_);}
	.st3{fill:#54BF45;}
	.st4{fill:#DEE91D;}
</style>
<g>
	<path class="st0" d="M114.9,55.1c-2.6,0-4.9,0-7.5,0c0.7-4.3,1.4-8.5,2.2-12.5c0.4-2.1,0.8-4.2,1.6-6.2c1.1-2.9,3.5-4.3,6.5-4.6
		c2.4-0.2,4.9-0.2,7.3,0c3.7,0.3,6.7,3.3,6.2,7c-0.7,5.4-1.8,10.8-2.8,16.4c-2.6,0-5,0-7.6,0c0.9-5.6,1.5-9.2,2.4-14.5
		c0.1-3.2-4.9-2.8-5.6,0.7c-0.7,3.9-1.4,7.9-2.1,11.8C115.3,53.8,115.1,54.4,114.9,55.1"/>
	<g>
		<defs>
			<rect id="SVGID_1_" x="9.4" y="25.1" width="23.2" height="30.6"/>
		</defs>
		<clipPath id="SVGID_00000173123211684970012030000007236046275536753294_">
			<use xlink:href="#SVGID_1_"  style="overflow:visible;"/>
		</clipPath>
		<g style="clip-path:url(#SVGID_00000173123211684970012030000007236046275536753294_);">
			<path class="st0" d="M27.2,48.2c0.2,0.4,0.4,0.6,0.4,0.7c-0.5,6-1.7,7.1-7.8,6.7c-2.3-0.1-4.6-0.4-6.6-1.9
				c-2.4-1.8-3.8-4-3.8-7.1c0-4.7,0.8-9.3,2.6-13.7c2.2-5.3,6.3-8,12-7.9c2.5,0,4.9,0.4,7.8,0.7c-0.5,2.6-0.9,4.6-1.4,6.9
				c-1.9-0.1-3.7-0.3-5.4-0.3c-3.2-0.1-4.7,0.9-5.5,4c-0.7,2.8-1.2,5.6-1.6,8.5c-0.3,2.3,0.8,3.5,3.2,3.6c1.3,0.1,2.6-0.1,3.9-0.2
				C25.8,48.3,26.6,48.3,27.2,48.2"/>
		</g>
	</g>
	<g>
		<defs>
			<rect id="SVGID_00000043439112585744749530000006449853639553613487_" x="46.3" y="26" width="18.1" height="29.8"/>
		</defs>
		<clipPath id="SVGID_00000093159979581989058070000007432447998993042070_">
			<use xlink:href="#SVGID_00000043439112585744749530000006449853639553613487_"  style="overflow:visible;"/>
		</clipPath>
		<g style="clip-path:url(#SVGID_00000093159979581989058070000007432447998993042070_);">
			<path class="st0" d="M50.9,27.8c2.6-0.4,5-0.8,7.8-1.3c-0.2,1.9-0.3,3.5-0.5,5.2c1.8,0.1,3.5,0.2,5.7,0.3c-0.3,2-0.5,3.8-0.8,5.7
				c-2.1,0-3.9,0-6,0c-0.7,4-1.4,7.8-2.1,11.9c2,0.1,3.7,0.2,5.9,0.4c-0.3,1.8-0.6,3.4-0.9,5.4c-3,0-5.8,0.2-8.5-0.1
				c-3.1-0.3-4.9-2.6-4.4-5.7C48.3,42.5,49.6,35.4,50.9,27.8"/>
		</g>
	</g>
	<g>
		<path class="st0" d="M143.8,46.4c-0.1,0.2-0.2,0.3-0.4,0.5c-2.1,2.8-4.1,5.5-6.2,8.3c-0.9,0-1.8,0-3,0c0.3-1.5,0.6-2.7,0.8-3.8
			c2.9-6.3,5.8-12.7,8.8-19c0.6-1.3,1.2-2.5,1.8-3.8c0.2,0.1,0.3,0.1,0.5,0.2v3.5c-0.4,2.4-0.7,4.8-1.1,7.2c0.1,0.1,0.3,0.2,0.4,0.3
			c2.1-2.6,4.2-5.2,6.3-7.8h8.9c-3.5,4-6.6,7.6-9.7,11.2c1.8,4,3.5,7.8,5.3,11.9c-3,0-5.8,0-8.8,0c-0.3-0.8-0.7-1.8-1.1-2.7
			c0.7-3.1,1.4-6.2,2.1-9.3c0.5-1.5,1-3.1,1.4-4.6c-0.2-0.1-0.5-0.2-0.7-0.3c-0.5,0.8-1,1.7-1.4,2.5
			C146.5,42.5,145.1,44.5,143.8,46.4"/>
		<path class="st0" d="M87,55.2c-2.8,0-5.1,0-8,0c1.8-10.4,3.6-20.5,5.5-30.8h7.9C90.6,34.7,88.8,44.8,87,55.2"/>
		<path class="st0" d="M36.1,32h7.9c-1.4,7.8-2.7,15.3-4,23c-2.7,0-5.1,0-8,0C33.4,47.3,34.8,39.7,36.1,32"/>
		<path class="st0" d="M97.3,32.1h8c-1.4,7.8-2.7,15.4-4.1,23.1c-2.6,0-5,0-7.9,0C94.6,47.3,95.9,39.7,97.3,32.1"/>
		<path class="st0" d="M65.1,55.1c1.3-7.7,2.7-15.2,4-23H77c-1.3,7.6-2.6,15.2-4,23C70.4,55.1,68,55.1,65.1,55.1"/>
	</g>
	<path class="st3" d="M146.1,32.3c0,0,0-2.4,0-3.5c-0.2-0.1-0.3-0.1-0.5-0.2c-0.6,1.3-1.2,2.5-1.8,3.8c-2.9,6.3-8.8,19-8.8,19
		l4.6-27h7.9L146.1,32.3z"/>
	<path class="st0" d="M70.5,24.3h7.9c-0.3,1.9-0.6,3.5-0.9,5.3c-2.6,0-5,0-7.8,0C69.9,27.8,70.2,26.1,70.5,24.3"/>
	<path class="st0" d="M36.6,29.6c0.4-1.9,0.7-3.5,1-5.3h7.8c-0.3,1.8-0.5,3.4-0.8,5.3C41.9,29.6,39.4,29.6,36.6,29.6"/>
	<path class="st0" d="M97.7,29.6c0.4-1.9,0.7-3.6,1-5.4h7.8c-0.3,1.9-0.5,3.6-0.8,5.4C103,29.6,100.5,29.6,97.7,29.6"/>
	<path class="st4" d="M148.5,43c-0.7,3.1-1.4,6.2-2.1,9.3c-0.9-2-1.7-4-2.6-6c1.3-1.9,2.6-3.8,4-5.8C148,41.4,148.3,42.2,148.5,43"
		/>
	<path class="st4" d="M137.2,55.2c2.1-2.8,4.8-6.4,6.9-9.2c0.1,0.2,0,0.3,0,0.5c-0.5,2.4-1.3,5.9-1.9,8.7
		C140.6,55.2,138.9,55.2,137.2,55.2"/>
	<path class="st3" d="M148.5,43c-0.3-0.8-0.5-1.6-0.8-2.4c0.5-0.8,1-1.7,1.4-2.5c0.2,0.1,0.5,0.2,0.7,0.3
		C149.5,40,149,41.5,148.5,43"/>
</g>
</svg>
