<?xml version="1.0" encoding="utf-8"?>
<!-- Generator: Adobe Illustrator 26.3.1, SVG Export Plug-In . SVG Version: 6.00 Build 0)  -->
<svg version="1.1" id="Layer_1" xmlns="http://www.w3.org/2000/svg" xmlns:xlink="http://www.w3.org/1999/xlink" x="0px" y="0px"
	 viewBox="0 0 170 80" style="enable-background:new 0 0 170 80;" xml:space="preserve">
<style type="text/css">
	.st0{fill-rule:evenodd;clip-rule:evenodd;fill:#7A7E82;}
	.st1{fill-rule:evenodd;clip-rule:evenodd;fill:#8F9599;}
	.st2{fill-rule:evenodd;clip-rule:evenodd;fill:#76133A;}
	.st3{clip-path:url(#SVGID_00000132057105389851369150000010730988167977608611_);}
	.st4{fill:#7A7E82;}
</style>
<g>
	<g>
		<path class="st0" d="M129,23.2l12.1-0.7c-6.4-0.2-10.2-0.2-11.4-0.1l-1.8,0.4C127.7,23,128.1,23.1,129,23.2"/>
		<path class="st0" d="M126.3,26.2l19.9-0.4l-19.2-0.7c-2.6-0.2-4,0-4.2,0.5C122.4,26.2,123.6,26.4,126.3,26.2"/>
		<path class="st0" d="M119.3,30.1l30-1.1l-27-0.3c-2,0-3.1,0.2-3.1,0.6L119.3,30.1z"/>
		<path class="st0" d="M121.2,34.1l30.1-1.4l-32.7-0.5c-0.9,0.1-1.3,0.3-1.4,0.7C117.2,33.8,118.5,34.2,121.2,34.1"/>
		<path class="st0" d="M116.9,37.5l35.7-0.9l-33-0.9c-2.1,0-3.2,0.3-3.4,1.1C116.1,37.2,116.4,37.5,116.9,37.5"/>
		<path class="st0" d="M116.6,41.1l11.3-0.1l1.6-1.8h-11.3c-1.7,0-2.5,0.4-2.3,1.2C116,40.8,116.2,41.1,116.6,41.1"/>
		<path class="st0" d="M119.1,44.9l7.2-0.5l0.9-1.6l-8.4,0.1c-1.6,0-2.4,0.3-2.4,1c0,0.5,0.2,0.8,0.6,0.9L119.1,44.9z"/>
		<path class="st0" d="M120.2,48.3l18.2-0.7l-1.3-1.3l-17.5,0.1l-1.8,0.2c-0.2,0.2-0.3,0.4-0.2,0.8
			C117.7,48.2,118.6,48.5,120.2,48.3"/>
		<path class="st0" d="M140.8,50.6l-18.1-0.1c-2.2,0-3.2,0.3-3.1,0.9c0.2,0.8,1.4,1,3.8,0.8l18.6-0.4L140.8,50.6z"/>
		<path class="st1" d="M143.1,54.3l-19.5-0.2c-0.4,0-0.6,0.2-0.6,0.5c0,0.6,1.4,0.9,4,0.8l18-0.6L143.1,54.3z"/>
		<path class="st1" d="M130.8,58l10.6-0.3l-11.2-0.4c-1.5-0.2-2.3-0.1-2.3,0.4L130.8,58z"/>
		<path class="st2" d="M161.1,18.1c-3.9,1.7-11.4,6-22.6,13.3c5.7-3.2,11-5.7,15.9-7.5l8.7-2.9l1.7,0.1c0.3,0.2-0.2,0.5-1.4,0.8
			c-2,0.6-5.8,2.2-11.4,4.8c-6.4,2.9-10,4.9-11.1,6.2l7.4,0.2c-1.1,1.3-2.3,2-3.8,2.1l-1.4,0c1.6,2.6,4.3,4.1,7.9,4.3l2.5,0.1
			l0.1,1.9l-10.3,1l10,0.6c0.1,1.5,0.1,2.3-0.1,2.3h-10.1l9.3,1.4l-0.6,2.4l-8.4,0.6l7.5,0.8l-1.7,2.4l-4.6,0.6l3.5,0.8l-3.9,2.7
			c-2.8-2.8-4.9-5.1-6.2-6.9l-2.7-3.8l-3.7,0.8c3.3-2.3,5-4.1,5.3-5.2c-0.1-2-0.2-3.4-0.4-4.2l-1.4,1.4c-0.2-2-0.6-3.3-0.9-3.8
			l-0.5,1.6l-2.3,2l1.6-0.1c-1,5.5-3.2,8.9-6.7,10.3l-2-2.1l1.4-1.3l-2.1,0.6l-0.4-0.6c2.1-3.5,3.7-5.9,5-7.3l6.2-5.6
			c3.5-2.9,6.7-5.3,9.7-7.2c7.9-4.8,13.6-7.8,17-9.1c1.4-0.5,1.9-0.4,1.6,0.1L161.1,18.1z"/>
	</g>
	<g>
		<defs>
			<rect id="SVGID_1_" x="76.8" y="53.7" width="35.5" height="9.8"/>
		</defs>
		<clipPath id="SVGID_00000085951883352966100540000012436283172974961083_">
			<use xlink:href="#SVGID_1_"  style="overflow:visible;"/>
		</clipPath>
		<g style="clip-path:url(#SVGID_00000085951883352966100540000012436283172974961083_);">
			<path class="st2" d="M103.1,59.6v-1.1c0-0.6,0.8-1.2,2.2-1.8l0.8-0.4v4.2h1.8v-4.5l-0.3-0.1c0-0.1,0-0.2,0.1-0.3
				c0.2-0.1,0.6-0.5,1.4-1v7.2H89.1c0,0.7-0.3,1.2-0.8,1.6l-1.1,0.4c-0.4,0-0.7-0.2-1.1-0.5c-0.2-0.2-0.2-0.3,0.1-0.3
				c0.5,0.2,1,0.1,1.3-0.2c0.3-0.2,0.5-0.5,0.5-0.9l0.1-3.5L87.6,58c-0.1-0.1,0-0.2,0.1-0.3l1.4-1l0,3.8h1.6V56
				c-0.4-0.2-0.4-0.4,0-0.7l1.3-0.9v3.6c0.4-0.3,0.9-0.5,1.5-0.5h4.9c0.5,0,1,0.2,1.5,0.5c0.5,0.4,0.7,0.9,0.7,1.6l0,0.9h4.3v-0.9
				H103.1z M80.9,55.1v5.3h3.9v-1.5c-0.4-0.1-0.5-0.3-0.1-0.6l1.3-0.9v4.3h-9.1l0.2-2c0-0.4,0.4-0.9,1.2-1.4
				c0.5-0.3,0.9-0.6,1.3-0.7l0.1-0.5c-0.3-0.1-0.4-0.2-0.3-0.3L80.9,55.1z M104.9,58c-0.6,0.2-0.9,0.4-0.9,0.7h0.9V58z M78.3,60.4
				h1.4v-1.7l-1.1,0.5C78.3,59.5,78.1,59.9,78.3,60.4z M77.9,54.3c0.5,0,0.8,0.2,0.8,0.6c0,0.3-0.2,0.5-0.8,0.5
				c-0.4,0-0.6-0.2-0.6-0.5C77.3,54.5,77.5,54.3,77.9,54.3z M79.6,54.3c0.5,0,0.8,0.2,0.8,0.6c0,0.3-0.3,0.5-0.8,0.5
				c-0.4,0-0.6-0.2-0.6-0.5C79,54.5,79.2,54.3,79.6,54.3z M82.2,62c0.5,0,0.7,0.2,0.7,0.6c0,0.3-0.3,0.5-0.7,0.5
				c-0.4,0-0.6-0.2-0.6-0.5C81.5,62.2,81.7,62,82.2,62z M83.9,62c0.5,0,0.8,0.2,0.8,0.6c0,0.3-0.3,0.5-0.8,0.5
				c-0.4,0-0.6-0.2-0.6-0.5C83.3,62.2,83.5,62,83.9,62z M103.5,54.2c0.5,0,0.8,0.2,0.8,0.6c0,0.3-0.2,0.5-0.8,0.5
				c-0.4,0-0.6-0.2-0.6-0.5C102.9,54.4,103.1,54.2,103.5,54.2z M105.3,54.2c0.5,0,0.7,0.2,0.7,0.6c0,0.3-0.2,0.5-0.7,0.5
				c-0.4,0-0.6-0.2-0.6-0.5C104.6,54.4,104.9,54.2,105.3,54.2z M99.3,60.4h-7.3v-1.2c0.2-0.4,0.5-0.6,1-0.6h5.4
				c0.5,0,0.8,0.1,0.9,0.4l0.1,0.6L99.3,60.4z M111.5,54.5v7.1h-1.3v-5.7c-0.1,0-0.2,0-0.2-0.1l0.1-0.3L111.5,54.5z"/>
		</g>
	</g>
	<path class="st2" d="M48.5,49.4h5l-9.9-22.2h-1.8L32,49.4h2.9l2.8-6.9h8L48.5,49.4z M38.6,40.5l3.2-7.8l3.2,7.8H38.6z"/>
	<path class="st2" d="M85.1,49.4h5l-9.9-22.2h-1.8l-9.7,22.2h2.9l2.8-6.9h8L85.1,49.4z M75.1,40.5l3.2-7.8l3.2,7.8H75.1z"/>
	<path class="st2" d="M52.7,27.2h16.8v2.7h-6v19.5h-4.8V29.9h-6V27.2z"/>
	<path class="st2" d="M30,38.6c0-6.6-5.6-12-12.5-12C10.6,26.6,5,32,5,38.6c0,6.6,5.6,12,12.5,12c0.6,0,1.2-0.1,1.8-0.1l6.6,6
		l3.5-2.8l-7-4C26.9,47.7,30,43.5,30,38.6 M17.5,48.4c-4.6,0-8.3-4.4-8.3-9.8s3.7-9.8,8.3-9.8c4.6,0,8.3,4.4,8.3,9.8
		S22.1,48.4,17.5,48.4"/>
	<path class="st2" d="M103.2,39.1c2.3-0.5,5.6-2.6,5.6-7s-5.2-4.8-5.2-4.8h-9.8v22.2h3.9v-9.9H99l6.4,9.6h5.5L103.2,39.1z
		 M97.7,37.7v-9.3h5c0,0,2.7,1.5,2.7,4.3c0,2.8-1.2,5-2.9,5C100.8,37.7,97.7,37.7,97.7,37.7"/>
	<path class="st4" d="M33.5,53.8h1.1l2.8,7.3h-1.1l-0.8-2.2h-3.1L31.7,61h-1L33.5,53.8z M32.8,58h2.5l-1.2-3.4h0L32.8,58z"/>
	<path class="st4" d="M38.2,61h1v-7.3h-1V61z"/>
	<path class="st4" d="M40.8,53.8h3.4c1.4,0,2.2,0.7,2.2,1.9c0,0.9-0.4,1.6-1.3,1.8v0c0.8,0.2,1,0.8,1.1,1.5c0.1,0.7,0,1.5,0.4,2
		h-1.1c-0.3-0.3-0.1-1.1-0.3-1.8c-0.1-0.7-0.3-1.3-1.2-1.3h-2.4V61h-1V53.8z M43.7,57.1c0.9,0,1.7-0.2,1.7-1.3
		c0-0.7-0.4-1.2-1.3-1.2h-2.4v2.5H43.7z"/>
	<path class="st4" d="M54.1,61h-1l-1.7-6.1h0L49.7,61h-1l-1.9-7.3h1l1.4,6h0l1.6-6h1l1.6,6h0l1.5-6h1L54.1,61z"/>
	<path class="st4" d="M58.7,53.8h1.1l2.8,7.3h-1.1l-0.8-2.2h-3.1L56.8,61h-1L58.7,53.8z M57.9,58h2.5l-1.2-3.4h0L57.9,58z"/>
	<path class="st4" d="M65.5,58.1v3h-1v-3l-2.8-4.3h1.1l2.2,3.5l2.1-3.5h1.1L65.5,58.1z"/>
	<path class="st4" d="M73.3,55.9c-0.1-1-0.8-1.5-1.8-1.5c-0.8,0-1.6,0.3-1.6,1.2c0,0.9,1.2,1,2.3,1.3c1.2,0.3,2.3,0.7,2.3,2.1
		c0,1.5-1.5,2.2-2.8,2.2c-1.6,0-3-0.8-3-2.6h0.9c0,1.2,1,1.7,2.1,1.7c0.9,0,1.8-0.3,1.8-1.3c0-1-1.2-1.2-2.3-1.4
		c-1.2-0.3-2.3-0.6-2.3-1.9c0-1.5,1.3-2.1,2.6-2.1c1.5,0,2.6,0.7,2.7,2.3H73.3z"/>
</g>
</svg>
