<?xml version="1.0" encoding="utf-8"?>
<!-- Generator: Adobe Illustrator 26.3.1, SVG Export Plug-In . SVG Version: 6.00 Build 0)  -->
<svg version="1.1" id="Layer_1" xmlns="http://www.w3.org/2000/svg" xmlns:xlink="http://www.w3.org/1999/xlink" x="0px" y="0px"
	 viewBox="0 0 170 80" style="enable-background:new 0 0 170 80;" xml:space="preserve">
<style type="text/css">
	.st0{clip-path:url(#SVGID_00000068656203076775172800000017635513284585833387_);}
	.st1{clip-path:url(#SVGID_00000000936342379241337530000000699609957235134138_);}
	.st2{fill:url(#SVGID_00000052821645435691504370000004653284305939738790_);}
	.st3{fill:#282968;}
</style>
<g>
	<g>
		<defs>
			<path id="SVGID_1_" d="M20,26.6h0.7v0.1L20,26.6L20,26.6z M19.9,26.7h0.9v0.1L19.9,26.7L19.9,26.7z M19.8,26.8h1.1v0.1L19.8,26.8
				L19.8,26.8z M19.7,26.9H21V27L19.7,26.9L19.7,26.9z M19.6,27h1.5V27L19.6,27L19.6,27z M19.5,27h1.6v0.1L19.5,27L19.5,27z
				 M19.5,27.1h1.8v0.1L19.5,27.1L19.5,27.1z M19.4,27.2h2v0.1L19.4,27.2L19.4,27.2z M19.3,27.3h2.2v0.1L19.3,27.3L19.3,27.3z
				 M19.2,27.4h2.4v0.1L19.2,27.4L19.2,27.4z M19.1,27.5h2.5v0.1L19.1,27.5L19.1,27.5z M19,27.6h2.7v0.1L19,27.6L19,27.6z
				 M18.9,27.7h2.9v0.1L18.9,27.7L18.9,27.7z M18.8,27.8h3.1v0.1L18.8,27.8L18.8,27.8z M9.2,27.9h1.6V28L9.2,27.9L9.2,27.9z
				 M18.7,27.9H22V28L18.7,27.9L18.7,27.9z M29.9,27.9h1.5V28L29.9,27.9L29.9,27.9z M8.7,28h2.5V28L8.7,28L8.7,28z M18.5,28h3.6V28
				L18.5,28L18.5,28z M29.5,28H32V28L29.5,28L29.5,28z M8.4,28h3.3v0.1L8.4,28L8.4,28z M18.5,28h3.8v0.1L18.5,28L18.5,28z M29.1,28
				h3.2v0.1L29.1,28L29.1,28z M8.2,28.1H12v0.1L8.2,28.1L8.2,28.1z M18.4,28.1h4v0.1L18.4,28.1L18.4,28.1z M28.8,28.1h3.7v0.1
				L28.8,28.1L28.8,28.1z M7.9,28.2h4.3v0.1L7.9,28.2L7.9,28.2z M18.3,28.2h2v0.1L18.3,28.2L18.3,28.2z M20.5,28.2h2v0.1L20.5,28.2
				L20.5,28.2z M28.6,28.2h4.2v0.1L28.6,28.2L28.6,28.2z M7.6,28.3h4.7v0.1L7.6,28.3L7.6,28.3z M18.2,28.3h2v0.1L18.2,28.3
				L18.2,28.3z M20.5,28.3h2v0.1L20.5,28.3L20.5,28.3z M28.4,28.3h4.7v0.1L28.4,28.3L28.4,28.3z M7.5,28.4h5.1v0.1L7.5,28.4
				L7.5,28.4z M18.1,28.4h2v0.1L18.1,28.4L18.1,28.4z M20.6,28.4h2v0.1L20.6,28.4L20.6,28.4z M28.1,28.4h5.1v0.1L28.1,28.4
				L28.1,28.4z M7.4,28.5h5.5v0.1L7.4,28.5L7.4,28.5z M18,28.5h2v0.1L18,28.5L18,28.5z M20.7,28.5h2v0.1L20.7,28.5L20.7,28.5z
				 M27.9,28.5h5.5v0.1L27.9,28.5L27.9,28.5z M7.2,28.6H13v0.1L7.2,28.6L7.2,28.6z M17.9,28.6h2v0.1L17.9,28.6L17.9,28.6z
				 M20.8,28.6h2v0.1L20.8,28.6L20.8,28.6z M27.7,28.6h5.8v0.1L27.7,28.6L27.7,28.6z M7,28.7h6.2v0.1L7,28.7L7,28.7z M17.7,28.7h2.1
				v0.1L17.7,28.7L17.7,28.7z M20.9,28.7H23v0.1L20.9,28.7L20.9,28.7z M27.5,28.7h6.2v0.1L27.5,28.7L27.5,28.7z M6.9,28.8h6.5v0.1
				L6.9,28.8L6.9,28.8z M17.6,28.8h2v0.1L17.6,28.8L17.6,28.8z M21.1,28.8h2v0.1L21.1,28.8L21.1,28.8z M27.5,28.8h6.4v0.1L27.5,28.8
				L27.5,28.8z M6.7,28.9h6.7V29L6.7,28.9L6.7,28.9z M17.5,28.9h2V29L17.5,28.9L17.5,28.9z M21.2,28.9h2V29L21.2,28.9L21.2,28.9z
				 M27.3,28.9H34V29L27.3,28.9L27.3,28.9z M6.6,29h7V29L6.6,29L6.6,29z M17.5,29h2V29L17.5,29L17.5,29z M21.3,29h2V29L21.3,29
				L21.3,29z M27.1,29h7V29L27.1,29L27.1,29z M6.5,29h7.3v0.1L6.5,29L6.5,29z M17.4,29h2v0.1L17.4,29L17.4,29z M21.4,29h2v0.1
				L21.4,29L21.4,29z M26.9,29h7.4v0.1L26.9,29L26.9,29z M6.5,29.1H14v0.1L6.5,29.1L6.5,29.1z M17.3,29.1h2v0.1L17.3,29.1L17.3,29.1
				z M21.5,29.1h2v0.1L21.5,29.1L21.5,29.1z M26.7,29.1h7.6v0.1L26.7,29.1L26.7,29.1z M6.4,29.2h7.7v0.1L6.4,29.2L6.4,29.2z
				 M17.2,29.2h2v0.1L17.2,29.2L17.2,29.2z M21.5,29.2h2v0.1L21.5,29.2L21.5,29.2z M26.5,29.2h7.9v0.1L26.5,29.2L26.5,29.2z
				 M6.2,29.3h8.1v0.1L6.2,29.3L6.2,29.3z M17,29.3h2.1v0.1L17,29.3L17,29.3z M21.6,29.3h2.1v0.1L21.6,29.3L21.6,29.3z M26.5,29.3
				h8.1v0.1L26.5,29.3L26.5,29.3z M6.1,29.4h3.4v0.1L6.1,29.4L6.1,29.4z M10.7,29.4h3.6v0.1L10.7,29.4L10.7,29.4z M16.9,29.4H19v0.1
				L16.9,29.4L16.9,29.4z M21.7,29.4h2.1v0.1L21.7,29.4L21.7,29.4z M26.4,29.4H30v0.1L26.4,29.4L26.4,29.4z M31.3,29.4h3.4v0.1
				L31.3,29.4L31.3,29.4z M11.2,29.5h3.4v0.1L11.2,29.5L11.2,29.5z M21.8,29.5h2.1v0.1L21.8,29.5L21.8,29.5z M26.2,29.5h3.3v0.1
				L26.2,29.5L26.2,29.5z M31.7,29.5h3v0.1L31.7,29.5L31.7,29.5z M6,29.5h3v0.1L6,29.5L6,29.5z M16.8,29.5h2.1v0.1L16.8,29.5
				L16.8,29.5z M6,29.6h2.8v0.1L6,29.6L6,29.6z M11.5,29.6h3.2v0.1L11.5,29.6L11.5,29.6z M16.8,29.6H19v0.1L16.8,29.6L16.8,29.6z
				 M21.7,29.6h2.2v0.1L21.7,29.6L21.7,29.6z M26.1,29.6h3.1v0.1L26.1,29.6L26.1,29.6z M32,29.6h2.8v0.1L32,29.6L32,29.6z M5.9,29.7
				h2.6v0.1L5.9,29.7L5.9,29.7z M11.7,29.7h3v0.1L11.7,29.7L11.7,29.7z M16.9,29.7h2.3v0.1L16.9,29.7L16.9,29.7z M21.5,29.7h2.3v0.1
				L21.5,29.7L21.5,29.7z M25.9,29.7h3v0.1L25.9,29.7L25.9,29.7z M32.2,29.7h2.6v0.1L32.2,29.7L32.2,29.7z M5.8,29.8h2.5v0.1
				L5.8,29.8L5.8,29.8z M12,29.8h2.9v0.1L12,29.8L12,29.8z M17,29.8h2.3v0.1L17,29.8L17,29.8z M21.5,29.8h2.3v0.1L21.5,29.8
				L21.5,29.8z M25.8,29.8h2.8v0.1L25.8,29.8L25.8,29.8z M32.4,29.8h2.5v0.1L32.4,29.8L32.4,29.8z M12.3,29.9H15V30L12.3,29.9
				L12.3,29.9z M17.1,29.9h2.3V30L17.1,29.9L17.1,29.9z M21.4,29.9h2.3V30L21.4,29.9L21.4,29.9z M25.6,29.9h2.8V30L25.6,29.9
				L25.6,29.9z M32.5,29.9H35V30L32.5,29.9L32.5,29.9z M5.7,29.9h2.5V30L5.7,29.9L5.7,29.9z M5.7,30H8V30L5.7,30L5.7,30z M12.5,30
				h2.6V30L12.5,30L12.5,30z M17.3,30h2.3V30L17.3,30L17.3,30z M21.2,30h2.3V30L21.2,30L21.2,30z M25.5,30h2.7V30L25.5,30L25.5,30z
				 M32.7,30H35V30L32.7,30L32.7,30z M5.6,30h2.3v0.1L5.6,30L5.6,30z M12.6,30h2.6v0.1L12.6,30L12.6,30z M17.4,30h2.3v0.1L17.4,30
				L17.4,30z M21.1,30h2.3v0.1L21.1,30L21.1,30z M25.4,30h2.7v0.1L25.4,30L25.4,30z M32.9,30h2.2v0.1L32.9,30L32.9,30z M12.8,30.1
				h2.5v0.1L12.8,30.1L12.8,30.1z M17.5,30.1h2.4v0.1L17.5,30.1L17.5,30.1z M20.9,30.1h2.4v0.1L20.9,30.1L20.9,30.1z M25.3,30.1h2.6
				v0.1L25.3,30.1L25.3,30.1z M33,30.1h2.2v0.1L33,30.1L33,30.1z M5.5,30.1h2.2v0.1L5.5,30.1L5.5,30.1z M5.5,30.2h2.1v0.1L5.5,30.2
				L5.5,30.2z M13,30.2h2.5v0.1L13,30.2L13,30.2z M17.6,30.2h2.3v0.1L17.6,30.2L17.6,30.2z M20.8,30.2h2.3v0.1L20.8,30.2L20.8,30.2z
				 M25.2,30.2h2.5v0.1L25.2,30.2L25.2,30.2z M33.1,30.2h2.1v0.1L33.1,30.2L33.1,30.2z M13.2,30.3h2.5v0.1L13.2,30.3L13.2,30.3z
				 M17.7,30.3H20v0.1L17.7,30.3L17.7,30.3z M20.7,30.3H23v0.1L20.7,30.3L20.7,30.3z M25,30.3h2.5v0.1L25,30.3L25,30.3z M33.2,30.3
				h2.1v0.1L33.2,30.3L33.2,30.3z M5.5,30.3h2.1v0.1L5.5,30.3L5.5,30.3z M5.5,30.4h1.9v0.1L5.5,30.4L5.5,30.4z M13.3,30.4h2.5v0.1
				L13.3,30.4L13.3,30.4z M17.9,30.4h2.3v0.1L17.9,30.4L17.9,30.4z M20.5,30.4h2.3v0.1L20.5,30.4L20.5,30.4z M24.9,30.4h2.5v0.1
				L24.9,30.4L24.9,30.4z M33.4,30.4h1.9v0.1L33.4,30.4L33.4,30.4z M13.5,30.5h2.4v0.1L13.5,30.5L13.5,30.5z M18,30.5h2.3v0.1
				L18,30.5L18,30.5z M20.5,30.5h2.3v0.1L20.5,30.5L20.5,30.5z M24.8,30.5h2.5v0.1L24.8,30.5L24.8,30.5z M33.5,30.5h1.9v0.1
				L33.5,30.5L33.5,30.5z M5.4,30.5h1.9v0.2H5.4V30.5z M13.6,30.6h2.3v0.1L13.6,30.6L13.6,30.6z M18.1,30.6h4.5v0.1L18.1,30.6
				L18.1,30.6z M24.7,30.6h2.5v0.1L24.7,30.6L24.7,30.6z M33.5,30.6h1.8v0.1L33.5,30.6L33.5,30.6z M13.8,30.7h2.3v0.1L13.8,30.7
				L13.8,30.7z M18.3,30.7h4.2v0.1L18.3,30.7L18.3,30.7z M24.5,30.7H27v0.1L24.5,30.7L24.5,30.7z M33.6,30.7h1.8v0.1L33.6,30.7
				L33.6,30.7z M5.3,30.7h1.9v0.1L5.3,30.7L5.3,30.7z M13.9,30.8h2.3v0.1L13.9,30.8L13.9,30.8z M18.4,30.8h4v0.1L18.4,30.8
				L18.4,30.8z M24.5,30.8h2.5v0.1L24.5,30.8L24.5,30.8z M5.3,30.8h1.8v0.1L5.3,30.8L5.3,30.8z M33.7,30.8h1.7v0.1L33.7,30.8
				L33.7,30.8z M5.3,30.9H7V31L5.3,30.9L5.3,30.9z M14.1,30.9h2.2V31L14.1,30.9L14.1,30.9z M18.5,30.9h3.8V31L18.5,30.9L18.5,30.9z
				 M24.4,30.9h2.5V31L24.4,30.9L24.4,30.9z M33.7,30.9h1.8V31L33.7,30.9L33.7,30.9z M14.2,31h2.2V31L14.2,31L14.2,31z M18.6,31h3.5
				V31L18.6,31L18.6,31z M24.3,31h2.4V31L24.3,31L24.3,31z M33.8,31h1.7V31L33.8,31L33.8,31z M14.4,31h2.2v0.1L14.4,31L14.4,31z
				 M18.7,31H22v0.1L18.7,31L18.7,31z M24.1,31h2.5v0.1L24.1,31L24.1,31z M5.2,31h1.7v0.2H5.2V31z M14.5,31.1h2.2v0.1L14.5,31.1
				L14.5,31.1z M18.8,31.1h3.1v0.1L18.8,31.1L18.8,31.1z M24,31.1h2.4v0.1L24,31.1L24,31.1z M33.9,31h1.6v0.2h-1.6V31z M5.2,31.1
				h1.6v0.2H5.2V31.1z M14.5,31.2h2.2v0.1L14.5,31.2L14.5,31.2z M23.9,31.2h2.4v0.1L23.9,31.2L23.9,31.2z M14.7,31.3h2.1v0.1
				L14.7,31.3L14.7,31.3z M19,31.2h2.7v0.2H19V31.2z M23.8,31.3h2.4v0.1L23.8,31.3L23.8,31.3z M14.8,31.4H17v0.1L14.8,31.4
				L14.8,31.4z M18.9,31.4h2.9v0.1L18.9,31.4L18.9,31.4z M23.7,31.4H26v0.1L23.7,31.4L23.7,31.4z M34,31.2h1.6v0.3H34V31.2z
				 M5.1,31.3h1.6v0.2H5.1V31.3z M15,31.5h2.1v0.1L15,31.5L15,31.5z M18.8,31.5h3.1v0.1L18.8,31.5L18.8,31.5z M23.6,31.5h2.3v0.1
				L23.6,31.5L23.6,31.5z M34.1,31.5h1.5v0.1L34.1,31.5L34.1,31.5z M15.1,31.6h2.1v0.1L15.1,31.6L15.1,31.6z M18.7,31.6h3.4v0.1
				L18.7,31.6L18.7,31.6z M23.5,31.6h2.3v0.1L23.5,31.6L23.5,31.6z M5.1,31.5h1.5v0.3H5.1V31.5z M15.2,31.7h2.1v0.1L15.2,31.7
				L15.2,31.7z M18.5,31.7h3.6v0.1L18.5,31.7L18.5,31.7z M23.4,31.7h2.3v0.1L23.4,31.7L23.4,31.7z M34.1,31.6h1.6v0.2h-1.6V31.6z
				 M15.3,31.8h2.2v0.1L15.3,31.8L15.3,31.8z M18.5,31.8h3.8v0.1L18.5,31.8L18.5,31.8z M23.3,31.8h2.3v0.1L23.3,31.8L23.3,31.8z
				 M5,31.8h1.6v0.1L5,31.8L5,31.8z M15.5,31.9h2.1V32L15.5,31.9L15.5,31.9z M18.4,31.9h4V32L18.4,31.9L18.4,31.9z M23.2,31.9h2.3
				V32L23.2,31.9L23.2,31.9z M15.5,32h2.1V32L15.5,32L15.5,32z M18.2,32h4.4V32L18.2,32L18.2,32z M23.1,32h2.2V32L23.1,32L23.1,32z
				 M15.6,32h2.1v0.1L15.6,32L15.6,32z M18.1,32h4.5v0.1L18.1,32L18.1,32z M23,32h2.2v0.1L23,32L23,32z M15.7,32.1h2.1v0.1
				L15.7,32.1L15.7,32.1z M18,32.1h4.7v0.1L18,32.1L18,32.1z M22.9,32.1h2.2v0.1L22.9,32.1L22.9,32.1z M34.2,31.8h1.5v0.5h-1.5V31.8
				z M15.8,32.2h4.5v0.1L15.8,32.2L15.8,32.2z M20.5,32.2H25v0.1L20.5,32.2L20.5,32.2z M12.3,32.3h0.3v0.1L12.3,32.3L12.3,32.3z
				 M16,32.3h4.2v0.1L16,32.3L16,32.3z M20.5,32.3h4.3v0.1L20.5,32.3L20.5,32.3z M12,32.4h1.1v0.1L12,32.4L12,32.4z M16.1,32.4H20
				v0.1L16.1,32.4L16.1,32.4z M20.7,32.4h4v0.1L20.7,32.4L20.7,32.4z M27.6,32.4h1.1v0.1L27.6,32.4L27.6,32.4z M34.2,32.2h1.6v0.3
				h-1.6V32.2z M11.7,32.5h1.6v0.1L11.7,32.5L11.7,32.5z M16.2,32.5h3.7v0.1L16.2,32.5L16.2,32.5z M20.8,32.5h3.8v0.1L20.8,32.5
				L20.8,32.5z M27.3,32.5H29v0.1L27.3,32.5L27.3,32.5z M11.6,32.6h1.9v0.1L11.6,32.6L11.6,32.6z M16.3,32.6h3.5v0.1L16.3,32.6
				L16.3,32.6z M20.9,32.6h3.5v0.1L20.9,32.6L20.9,32.6z M27.1,32.6h2v0.1L27.1,32.6L27.1,32.6z M34.2,32.5h1.5v0.2h-1.5V32.5z
				 M11.5,32.7h2.2v0.1L11.5,32.7L11.5,32.7z M16.4,32.7h3.3v0.1L16.4,32.7L16.4,32.7z M21.1,32.7h3.3v0.1L21.1,32.7L21.1,32.7z
				 M26.9,32.7h2.3v0.1L26.9,32.7L26.9,32.7z M5,31.9h1.5v0.9H5V31.9z M16.5,32.8h3.1v0.1L16.5,32.8L16.5,32.8z M21.2,32.8h3.1v0.1
				L21.2,32.8L21.2,32.8z M26.7,32.8h2.6v0.1L26.7,32.8L26.7,32.8z M11.4,32.8h2.5v0.1L11.4,32.8L11.4,32.8z M11.4,32.9h2.7V33
				L11.4,32.9L11.4,32.9z M16.5,32.9h2.9V33L16.5,32.9L16.5,32.9z M21.3,32.9h2.9V33L21.3,32.9L21.3,32.9z M26.5,32.9h2.8V33
				L26.5,32.9L26.5,32.9z M11.3,33h3V33L11.3,33L11.3,33z M21.5,33h2.6V33L21.5,33L21.5,33z M26.4,33h3.1V33L26.4,33L26.4,33z
				 M16.6,33h2.6V33L16.6,33L16.6,33z M5,32.8h1.6v0.4H5V32.8z M21.5,33h2.5v0.1L21.5,33L21.5,33z M26.3,33h3.3v0.1L26.3,33L26.3,33
				z M34.1,32.7h1.6v0.5h-1.6V32.7z M11.2,33h3.3v0.1L11.2,33L11.2,33z M16.6,33h2.5v0.1L16.6,33L16.6,33z M11.2,33.1h3.5v0.1
				L11.2,33.1L11.2,33.1z M16.6,33.1H19v0.1L16.6,33.1L16.6,33.1z M21.7,33.1h2.5v0.1L21.7,33.1L21.7,33.1z M26.1,33.1h3.5v0.1
				L26.1,33.1L26.1,33.1z M16.5,33.2h2.5v0.1L16.5,33.2L16.5,33.2z M21.8,33.2h2.5v0.1L21.8,33.2L21.8,33.2z M26,33.2h3.6v0.1
				L26,33.2L26,33.2z M11.1,33.2h3.7v0.1L11.1,33.2L11.1,33.2z M11.1,33.3h3.8v0.1L11.1,33.3L11.1,33.3z M16.3,33.3H19v0.1
				L16.3,33.3L16.3,33.3z M21.7,33.3h2.7v0.1L21.7,33.3L21.7,33.3z M25.8,33.3h3.8v0.1L25.8,33.3L25.8,33.3z M34,33.1h1.7v0.3H34
				V33.1z M5.1,33.1h1.6v0.3H5.1V33.1z M16.2,33.4h2.9v0.1L16.2,33.4L16.2,33.4z M21.6,33.4h2.9v0.1L21.6,33.4L21.6,33.4z
				 M25.6,33.4h2.5v0.1L25.6,33.4L25.6,33.4z M28.5,33.4h1.2v0.1L28.5,33.4L28.5,33.4z M11,33.4h4.1v0.1L11,33.4L11,33.4z M16,33.5
				h3.2v0.1L16,33.5L16,33.5z M21.5,33.5h3.2v0.1L21.5,33.5L21.5,33.5z M25.5,33.5h2.3v0.1L25.5,33.5L25.5,33.5z M28.6,33.5h1.1v0.1
				L28.6,33.5L28.6,33.5z M33.9,33.4h1.7v0.2h-1.7V33.4z M5.1,33.4h1.7v0.2H5.1V33.4z M11,33.5h4.3v0.1L11,33.5L11,33.5z M11,33.6
				h4.5v0.1L11,33.6L11,33.6z M15.8,33.6h3.5v0.1L15.8,33.6L15.8,33.6z M21.5,33.6h3.5v0.1L21.5,33.6L21.5,33.6z M25.4,33.6h2.3v0.1
				L25.4,33.6L25.4,33.6z M28.7,33.6h1.1v0.1L28.7,33.6L28.7,33.6z M5.1,33.6h1.8v0.2H5.1V33.6z M12.7,33.7h2.8v0.1L12.7,33.7
				L12.7,33.7z M15.7,33.7h3.7v0.1L15.7,33.7L15.7,33.7z M21.3,33.7H25v0.1L21.3,33.7L21.3,33.7z M25.3,33.7h2.2v0.1L25.3,33.7
				L25.3,33.7z M33.8,33.6h1.8v0.2h-1.8V33.6z M10.9,33.7h1.3v0.1L10.9,33.7L10.9,33.7z M13,33.8h6.5v0.1L13,33.8L13,33.8z
				 M21.2,33.8h6.2v0.1L21.2,33.8L21.2,33.8z M28.8,33.7h1v0.2h-1V33.7z M10.9,33.8h1.2v0.1L10.9,33.8L10.9,33.8z M33.7,33.8h1.9
				v0.1L33.7,33.8L33.7,33.8z M13.2,33.9h6.5V34L13.2,33.9L13.2,33.9z M21.1,33.9h6.1V34L21.1,33.9L21.1,33.9z M33.7,33.9h1.8V34
				L33.7,33.9L33.7,33.9z M5.2,33.8H7V34H5.2V33.8z M10.9,33.9H12V34L10.9,33.9L10.9,33.9z M5.2,34h1.9V34L5.2,34L5.2,34z M13.4,34
				h6.4V34L13.4,34L13.4,34z M21,34h6.1V34L21,34L21,34z M33.6,34h1.9V34L33.6,34L33.6,34z M13.5,34h4.2v0.1L13.5,34L13.5,34z
				 M17.9,34h1.9v0.1L17.9,34L17.9,34z M20.9,34h1.9v0.1L20.9,34L20.9,34z M23,34h3.9v0.1L23,34L23,34z M33.6,34h1.8v0.1L33.6,34
				L33.6,34z M5.3,34h1.8v0.1L5.3,34L5.3,34z M13.6,34.1h4v0.1L13.6,34.1L13.6,34.1z M18,34.1h1.9v0.1L18,34.1L18,34.1z M20.8,34.1
				h1.9v0.1L20.8,34.1L20.8,34.1z M23.1,34.1h3.7v0.1L23.1,34.1L23.1,34.1z M5.3,34.1h1.9v0.2H5.3V34.1z M13.8,34.2h3.6v0.1
				L13.8,34.2L13.8,34.2z M18.1,34.2H20v0.1L18.1,34.2L18.1,34.2z M20.7,34.2h1.9v0.1L20.7,34.2L20.7,34.2z M23.3,34.2h3.4v0.1
				L23.3,34.2L23.3,34.2z M28.9,33.9h0.9v0.5h-0.9V33.9z M33.5,34.1h1.9v0.2h-1.9V34.1z M10.9,34h1v0.4h-1V34z M13.9,34.3h3.5v0.1
				L13.9,34.3L13.9,34.3z M18.2,34.3h1.9v0.1L18.2,34.3L18.2,34.3z M20.6,34.3h1.9v0.1L20.6,34.3L20.6,34.3z M23.4,34.3h3.2v0.1
				L23.4,34.3L23.4,34.3z M33.5,34.3h1.9v0.1L33.5,34.3L33.5,34.3z M5.4,34.3h1.9v0.1L5.4,34.3L5.4,34.3z M14.1,34.4h3.1v0.1
				L14.1,34.4L14.1,34.4z M18.3,34.4h1.9v0.1L18.3,34.4L18.3,34.4z M20.5,34.4h1.9v0.1L20.5,34.4L20.5,34.4z M23.5,34.4h2.9v0.1
				L23.5,34.4L23.5,34.4z M28.8,34.3h1v0.2h-1V34.3z M10.9,34.3H12v0.2h-1.1V34.3z M33.4,34.4h2v0.1L33.4,34.4L33.4,34.4z M5.4,34.4
				h2v0.2h-2V34.4z M13.9,34.5h3.2v0.1L13.9,34.5L13.9,34.5z M18.4,34.5h1.9v0.1L18.4,34.5L18.4,34.5z M20.5,34.5h1.9v0.1L20.5,34.5
				L20.5,34.5z M23.6,34.5h2.7v0.1L23.6,34.5L23.6,34.5z M28.7,34.5h1.1v0.1L28.7,34.5L28.7,34.5z M33.4,34.5h1.9v0.1L33.4,34.5
				L33.4,34.5z M10.9,34.5h1.2v0.2h-1.2V34.5z M13.7,34.6h3.2v0.1L13.7,34.6L13.7,34.6z M18.5,34.6h3.8v0.1L18.5,34.6L18.5,34.6z
				 M23.8,34.6h2.5v0.1L23.8,34.6L23.8,34.6z M28.6,34.6h1.2v0.1L28.6,34.6L28.6,34.6z M33.3,34.6h2v0.1L33.3,34.6L33.3,34.6z
				 M5.5,34.6h2v0.1L5.5,34.6L5.5,34.6z M5.5,34.7h2.1v0.1L5.5,34.7L5.5,34.7z M13.5,34.7h3.3v0.1L13.5,34.7L13.5,34.7z M18.5,34.7
				h3.6v0.1L18.5,34.7L18.5,34.7z M23.9,34.7h2.7v0.1L23.9,34.7L23.9,34.7z M28.5,34.7h1.3v0.1L28.5,34.7L28.5,34.7z M11,34.7h1.2
				v0.1L11,34.7L11,34.7z M13.4,34.8h3.4v0.1L13.4,34.8L13.4,34.8z M18.6,34.8h3.5v0.1L18.6,34.8L18.6,34.8z M24,34.8h2.9v0.1
				L24,34.8L24,34.8z M28.4,34.8h1.4v0.1L28.4,34.8L28.4,34.8z M33.2,34.7h2v0.2h-2L33.2,34.7z M5.5,34.8h2.1v0.1L5.5,34.8L5.5,34.8
				z M11,34.8h1.3v0.1L11,34.8L11,34.8z M5.5,34.9h2.2V35L5.5,34.9L5.5,34.9z M13.1,34.9h3.7V35L13.1,34.9L13.1,34.9z M18.7,34.9
				h3.2V35L18.7,34.9L18.7,34.9z M23.9,34.9h3.5V35L23.9,34.9L23.9,34.9z M28.2,34.9h1.5V35L28.2,34.9L28.2,34.9z M33.1,34.9h2V35
				L33.1,34.9L33.1,34.9z M11,34.9h1.5V35L11,34.9L11,34.9z M5.6,35h2.1V35L5.6,35L5.6,35z M11,35h5.9V35L11,35L11,35z M18.9,35h2.9
				V35L18.9,35L18.9,35z M23.8,35h5.9V35L23.8,35L23.8,35z M33,35h2.1V35L33,35L33,35z M11.1,35H17v0.1L11.1,35L11.1,35z M19,35h2.7
				v0.1L19,35L19,35z M23.7,35h5.9v0.1L23.7,35L23.7,35z M32.9,35H35v0.1L32.9,35L32.9,35z M5.7,35h2.1v0.1L5.7,35L5.7,35z
				 M5.7,35.1h2.2v0.1L5.7,35.1L5.7,35.1z M19.1,35.1h2.5v0.1L19.1,35.1L19.1,35.1z M23.6,35.1h6v0.1L23.6,35.1L23.6,35.1z
				 M32.8,35.1h2.1v0.1L32.8,35.1L32.8,35.1z M11.2,35.1h5.9v0.1L11.2,35.1L11.2,35.1z M5.8,35.2H8v0.1L5.8,35.2L5.8,35.2z
				 M11.2,35.2h6.1v0.1L11.2,35.2L11.2,35.2z M19.2,35.2h2.4v0.1L19.2,35.2L19.2,35.2z M23.5,35.2h6.1v0.1L23.5,35.2L23.5,35.2z
				 M32.7,35.2h2.2v0.1L32.7,35.2L32.7,35.2z M5.9,35.3h2.2v0.1L5.9,35.3L5.9,35.3z M19.3,35.3h2.2v0.1L19.3,35.3L19.3,35.3z
				 M23.4,35.3h6.1v0.1L23.4,35.3L23.4,35.3z M32.6,35.3h2.2v0.1L32.6,35.3L32.6,35.3z M11.3,35.3h6.1v0.1L11.3,35.3L11.3,35.3z
				 M11.3,35.4h6.2v0.1L11.3,35.4L11.3,35.4z M19.2,35.4h2.4v0.1L19.2,35.4L19.2,35.4z M23.3,35.4h6.2v0.1L23.3,35.4L23.3,35.4z
				 M32.5,35.4h2.2v0.1L32.5,35.4L32.5,35.4z M6,35.4h2.3v0.1L6,35.4L6,35.4z M6,35.5h2.4v0.1L6,35.5L6,35.5z M11.4,35.5h4v0.1
				L11.4,35.5L11.4,35.5z M15.5,35.5h2.1v0.1L15.5,35.5L15.5,35.5z M19.1,35.5h2.5v0.1L19.1,35.5L19.1,35.5z M23.2,35.5h6.2v0.1
				L23.2,35.5L23.2,35.5z M32.4,35.5h2.4v0.1L32.4,35.5L32.4,35.5z M6.1,35.6h2.4v0.1L6.1,35.6L6.1,35.6z M11.5,35.6h3.7v0.1
				L11.5,35.6L11.5,35.6z M15.5,35.6h2.1v0.1L15.5,35.6L15.5,35.6z M19,35.6h2.7v0.1L19,35.6L19,35.6z M23.1,35.6h2.1v0.1L23.1,35.6
				L23.1,35.6z M25.5,35.6h3.6v0.1L25.5,35.6L25.5,35.6z M32.3,35.6h2.4v0.1L32.3,35.6L32.3,35.6z M6.2,35.7h2.5v0.1L6.2,35.7
				L6.2,35.7z M11.6,35.7H15v0.1L11.6,35.7L11.6,35.7z M15.6,35.7h2.1v0.1L15.6,35.7L15.6,35.7z M18.9,35.7h2.9v0.1L18.9,35.7
				L18.9,35.7z M23,35.7h2.1v0.1L23,35.7L23,35.7z M25.7,35.7h3.4v0.1L25.7,35.7L25.7,35.7z M32.1,35.7h2.5v0.1L32.1,35.7L32.1,35.7
				z M6.3,35.8h2.5v0.1L6.3,35.8L6.3,35.8z M11.8,35.8h3v0.1L11.8,35.8L11.8,35.8z M15.7,35.8h2.2v0.1L15.7,35.8L15.7,35.8z
				 M18.8,35.8h3.1v0.1L18.8,35.8L18.8,35.8z M22.8,35.8H25v0.1L22.8,35.8L22.8,35.8z M25.9,35.8h3v0.1L25.9,35.8L25.9,35.8z
				 M32,35.8h2.5v0.1L32,35.8L32,35.8z M6.4,35.9h2.5V36L6.4,35.9L6.4,35.9z M11.9,35.9h2.6V36L11.9,35.9L11.9,35.9z M15.9,35.9H18
				V36L15.9,35.9L15.9,35.9z M18.7,35.9H22V36L18.7,35.9L18.7,35.9z M22.7,35.9h2.2V36L22.7,35.9L22.7,35.9z M26.2,35.9h2.6V36
				L26.2,35.9L26.2,35.9z M31.8,35.9h2.5V36L31.8,35.9L31.8,35.9z M6.5,36h2.6V36L6.5,36L6.5,36z M12.1,36h2.3V36L12.1,36L12.1,36z
				 M16,36h2.1V36L16,36L16,36z M18.6,36h3.5V36L18.6,36L18.6,36z M22.6,36h2.1V36L22.6,36L22.6,36z M26.5,36h2.2V36L26.5,36
				L26.5,36z M31.6,36h2.6V36L31.6,36L31.6,36z M6.5,36h2.8v0.1L6.5,36L6.5,36z M12.5,36h1.5v0.1L12.5,36L12.5,36z M16.1,36h2.1v0.1
				L16.1,36L16.1,36z M22.5,36h2.1v0.1L22.5,36L22.5,36z M26.7,36h1.5v0.1L26.7,36L26.7,36z M31.4,36h2.8v0.1L31.4,36L31.4,36z
				 M18.5,36h3.6v0.1L18.5,36L18.5,36z M6.7,36.1h2.8v0.1L6.7,36.1L6.7,36.1z M12.9,36.1h0.4v0.1L12.9,36.1L12.9,36.1z M16.2,36.1
				h2.1v0.1L16.2,36.1L16.2,36.1z M18.5,36.1h3.7v0.1L18.5,36.1L18.5,36.1z M22.5,36.1h2.1v0.1L22.5,36.1L22.5,36.1z M27.5,36.1h0.3
				v0.1L27.5,36.1L27.5,36.1z M31.1,36.1h3v0.1L31.1,36.1L31.1,36.1z M6.8,36.2h3v0.1L6.8,36.2L6.8,36.2z M16.3,36.2h2.1v0.1
				L16.3,36.2L16.3,36.2z M18.5,36.2h1.8v0.1L18.5,36.2L18.5,36.2z M20.4,36.2h4.1v0.1L20.4,36.2L20.4,36.2z M30.8,36.2H34v0.1
				L30.8,36.2L30.8,36.2z M6.9,36.3h3.2v0.1L6.9,36.3L6.9,36.3z M16.4,36.3h3.8v0.1L16.4,36.3L16.4,36.3z M20.5,36.3h3.9v0.1
				L20.5,36.3L20.5,36.3z M30.6,36.3h3.3v0.1L30.6,36.3L30.6,36.3z M7,36.4h3.5v0.1L7,36.4L7,36.4z M16.5,36.4h3.6v0.1L16.5,36.4
				L16.5,36.4z M20.5,36.4h3.7v0.1L20.5,36.4L20.5,36.4z M30.2,36.4h3.5v0.1L30.2,36.4L30.2,36.4z M7.1,36.5h4v0.1L7.1,36.5
				L7.1,36.5z M16.6,36.5h3.5v0.1L16.6,36.5L16.6,36.5z M20.6,36.5h3.5v0.1L20.6,36.5L20.6,36.5z M29.5,36.5h4.2v0.1L29.5,36.5
				L29.5,36.5z M7.3,36.6h4.8v0.1L7.3,36.6L7.3,36.6z M16.7,36.6H20v0.1L16.7,36.6L16.7,36.6z M20.7,36.6H24v0.1L20.7,36.6
				L20.7,36.6z M28.4,36.6h5.2v0.1L28.4,36.6L28.4,36.6z M7.4,36.7h5v0.1L7.4,36.7L7.4,36.7z M16.8,36.7h3.1v0.1L16.8,36.7
				L16.8,36.7z M20.8,36.7h3.1v0.1L20.8,36.7L20.8,36.7z M28.5,36.7h4.9v0.1L28.5,36.7L28.5,36.7z M7.5,36.8h4.7v0.1L7.5,36.8
				L7.5,36.8z M16.9,36.8h2.9v0.1L16.9,36.8L16.9,36.8z M20.9,36.8h2.9v0.1L20.9,36.8L20.9,36.8z M28.6,36.8h4.6v0.1L28.6,36.8
				L28.6,36.8z M7.7,36.9h4.5V37L7.7,36.9L7.7,36.9z M17,36.9h2.7V37L17,36.9L17,36.9z M21,36.9h2.7V37L21,36.9L21,36.9z M28.8,36.9
				h4.3V37L28.8,36.9L28.8,36.9z M7.9,37H12V37L7.9,37L7.9,37z M17.1,37h2.5V37L17.1,37L17.1,37z M21.1,37h2.5V37L21.1,37L21.1,37z
				 M28.9,37h4V37L28.9,37L28.9,37z M8.1,37h3.7v0.1L8.1,37L8.1,37z M17.2,37h2.4v0.1L17.2,37L17.2,37z M21.2,37h2.4v0.1L21.2,37
				L21.2,37z M29.1,37h3.6v0.1L29.1,37L29.1,37z M8.4,37.1h3.3v0.1L8.4,37.1L8.4,37.1z M17.4,37.1h2.1v0.1L17.4,37.1L17.4,37.1z
				 M21.3,37.1h2.1v0.1L21.3,37.1L21.3,37.1z M29.4,37.1h3.1v0.1L29.4,37.1L29.4,37.1z M8.5,37.2h2.7v0.1L8.5,37.2L8.5,37.2z
				 M17.5,37.2h2.1v0.1L17.5,37.2L17.5,37.2z M21.2,37.2h2.2v0.1L21.2,37.2L21.2,37.2z M29.6,37.2h2.5v0.1L29.6,37.2L29.6,37.2z
				 M8.7,37.3h2.2v0.1L8.7,37.3L8.7,37.3z M17.4,37.3h2.3v0.1L17.4,37.3L17.4,37.3z M21.1,37.3h2.4v0.1L21.1,37.3L21.1,37.3z
				 M29.9,37.3h2v0.1L29.9,37.3L29.9,37.3z M9.8,37.4h0.6v0.1L9.8,37.4L9.8,37.4z M17.3,37.4h2.5v0.1L17.3,37.4L17.3,37.4z M21,37.4
				h2.5v0.1L21,37.4L21,37.4z M25.7,37.4h0.6v0.1L25.7,37.4L25.7,37.4z M30.5,37.4h0.6v0.1L30.5,37.4L30.5,37.4z M17.1,37.5h2.7v0.1
				L17.1,37.5L17.1,37.5z M20.9,37.5h2.7v0.1L20.9,37.5L20.9,37.5z M25.4,37.5h1.4v0.1L25.4,37.5L25.4,37.5z M17,37.6h2.9v0.1
				L17,37.6L17,37.6z M20.8,37.6h2.9v0.1L20.8,37.6L20.8,37.6z M25.1,37.6H27v0.1L25.1,37.6L25.1,37.6z M13.7,37.7h1.1v0.1
				L13.7,37.7L13.7,37.7z M16.9,37.7H20v0.1L16.9,37.7L16.9,37.7z M20.7,37.7h3.1v0.1L20.7,37.7L20.7,37.7z M24.8,37.7h2.5v0.1
				L24.8,37.7L24.8,37.7z M13.4,37.8h1.9v0.1L13.4,37.8L13.4,37.8z M16.8,37.8h3.3v0.1L16.8,37.8L16.8,37.8z M20.6,37.8h3.3v0.1
				L20.6,37.8L20.6,37.8z M24.6,37.8h2.7v0.1L24.6,37.8L24.6,37.8z M13.2,37.9h2.5V38L13.2,37.9L13.2,37.9z M16.7,37.9h3.5V38
				L16.7,37.9L16.7,37.9z M20.5,37.9H24V38L20.5,37.9L20.5,37.9z M24.5,37.9h3V38L24.5,37.9L24.5,37.9z M13.1,38H16V38L13.1,38
				L13.1,38z M16.6,38h3.6V38L16.6,38L16.6,38z M20.5,38h3.6V38L20.5,38L20.5,38z M24.4,38h3.3V38L24.4,38L24.4,38z M13,38h3.3v0.1
				L13,38L13,38z M16.5,38h11.2v0.1L16.5,38L16.5,38z M12.9,38.1h5.5v0.1L12.9,38.1L12.9,38.1z M18.5,38.1h3.5v0.1L18.5,38.1
				L18.5,38.1z M22.4,38.1h5.5v0.1L22.4,38.1L22.4,38.1z M12.8,38.2h5.5v0.1L12.8,38.2L12.8,38.2z M18.7,38.2H22v0.1L18.7,38.2
				L18.7,38.2z M22.5,38.2h5.5v0.1L22.5,38.2L22.5,38.2z M18.8,38.3h3.1v0.1L18.8,38.3L18.8,38.3z M22.5,38.3H28v0.1L22.5,38.3
				L22.5,38.3z M12.7,38.3h5.5v0.1L12.7,38.3L12.7,38.3z M12.7,38.4h5.4v0.1L12.7,38.4L12.7,38.4z M18.9,38.4h2.9v0.1L18.9,38.4
				L18.9,38.4z M22.6,38.4H28v0.1L22.6,38.4L22.6,38.4z M12.6,38.5H18v0.1L12.6,38.5L12.6,38.5z M19,38.5h2.7v0.1L19,38.5L19,38.5z
				 M22.7,38.5h5.4v0.1L22.7,38.5L22.7,38.5z M19.1,38.6h2.5v0.1L19.1,38.6L19.1,38.6z M22.8,38.6h5.4v0.1L22.8,38.6L22.8,38.6z
				 M12.5,38.6h5.4v0.1L12.5,38.6L12.5,38.6z M19.2,38.7h2.4v0.1L19.2,38.7L19.2,38.7z M22.9,38.7h2.8v0.1L22.9,38.7L22.9,38.7z
				 M26.5,38.7h1.6v0.1L26.5,38.7L26.5,38.7z M12.5,38.7h5.3v0.1L12.5,38.7L12.5,38.7z M12.5,38.8h5.2v0.1L12.5,38.8L12.5,38.8z
				 M19.3,38.8h2.2v0.1L19.3,38.8L19.3,38.8z M23,38.8h2.5v0.1L23,38.8L23,38.8z M26.8,38.8h1.4v0.1L26.8,38.8L26.8,38.8z
				 M14.5,38.9h3.2V39L14.5,38.9L14.5,38.9z M23.1,38.9h2.3V39L23.1,38.9L23.1,38.9z M26.9,38.9h1.4V39L26.9,38.9L26.9,38.9z
				 M12.5,38.9h1.4V39L12.5,38.9L12.5,38.9z M14.7,39h2.8V39L14.7,39L14.7,39z M19.4,38.9h2V39h-2V38.9z M23.2,39h2V39L23.2,39
				L23.2,39z M27.1,39h1.2V39L27.1,39L27.1,39z M12.5,39h1.3V39L12.5,39L12.5,39z M15,39h2.6v0.1L15,39L15,39z M19.3,39h2.2v0.1
				L19.3,39L19.3,39z M23.1,39h2v0.1L23.1,39L23.1,39z M19.2,39.1h2.4v0.1L19.2,39.1L19.2,39.1z M23,39.1h2.2v0.1L23,39.1L23,39.1z
				 M27.2,39h1.1v0.2h-1.1V39z M12.5,39h1.2v0.2h-1.2V39z M15.3,39.1h2.5v0.1L15.3,39.1L15.3,39.1z M12.5,39.2h1.1v0.1L12.5,39.2
				L12.5,39.2z M15.3,39.2h2.5v0.1L15.3,39.2L15.3,39.2z M19.1,39.2h2.5v0.1L19.1,39.2L19.1,39.2z M22.9,39.2h2.5v0.1L22.9,39.2
				L22.9,39.2z M27.3,39.2h1.1v0.1L27.3,39.2L27.3,39.2z M15.2,39.3h2.7v0.1L15.2,39.3L15.2,39.3z M19,39.3h2.7v0.1L19,39.3L19,39.3
				z M22.8,39.3h2.6v0.1L22.8,39.3L22.8,39.3z M15.1,39.4H18v0.1L15.1,39.4L15.1,39.4z M18.9,39.4h2.9v0.1L18.9,39.4L18.9,39.4z
				 M22.7,39.4h2.9v0.1L22.7,39.4L22.7,39.4z M15,39.5h3.1v0.1L15,39.5L15,39.5z M18.8,39.5H22v0.1L18.8,39.5L18.8,39.5z M22.6,39.5
				h3.2v0.1L22.6,39.5L22.6,39.5z M14.9,39.6h3.3v0.1L14.9,39.6L14.9,39.6z M18.6,39.6h3.5v0.1L18.6,39.6L18.6,39.6z M22.5,39.6h3.5
				v0.1L22.5,39.6L22.5,39.6z M27.4,39.3h1v0.4h-1V39.3z M12.4,39.3h1.2v0.4h-1.2V39.3z M14.7,39.7h3.6v0.1L14.7,39.7L14.7,39.7z
				 M18.5,39.7h3.6v0.1L18.5,39.7L18.5,39.7z M22.5,39.7h3.9v0.1L22.5,39.7L22.5,39.7z M27.2,39.7h1.2v0.1L27.2,39.7L27.2,39.7z
				 M12.4,39.7h1.3v0.1L12.4,39.7L12.4,39.7z M14.5,39.8h7.7v0.1L14.5,39.8L14.5,39.8z M22.4,39.8h6v0.1L22.4,39.8L22.4,39.8z
				 M12.4,39.8h1.4v0.1L12.4,39.8L12.4,39.8z M12.4,39.9h1.5V40L12.4,39.9L12.4,39.9z M14.3,39.9h6V40L14.3,39.9L14.3,39.9z
				 M20.5,39.9h7.9V40L20.5,39.9L20.5,39.9z M20.5,40h7.7V40L20.5,40L20.5,40z M12.5,40h7.7V40L12.5,40L12.5,40z M16.7,40h3.4v0.1
				L16.7,40L16.7,40z M20.6,40H24v0.1L20.6,40L20.6,40z M24.2,40h4.1v0.1L24.2,40L24.2,40z M12.5,40h4.1v0.1L12.5,40L12.5,40z
				 M16.8,40.1H20v0.1L16.8,40.1L16.8,40.1z M20.7,40.1h3.2v0.1L20.7,40.1L20.7,40.1z M24.4,40.1h3.9v0.1L24.4,40.1L24.4,40.1z
				 M12.5,40.1h3.9v0.1L12.5,40.1L12.5,40.1z M12.5,40.2h3.8v0.1L12.5,40.2L12.5,40.2z M16.9,40.2h3v0.1L16.9,40.2L16.9,40.2z
				 M20.8,40.2h3v0.1L20.8,40.2L20.8,40.2z M24.5,40.2h3.8v0.1L24.5,40.2L24.5,40.2z M17,40.3h2.8v0.1L17,40.3L17,40.3z M20.9,40.3
				h2.8v0.1L20.9,40.3L20.9,40.3z M24.6,40.3h3.5v0.1L24.6,40.3L24.6,40.3z M12.5,40.3h3.5v0.1L12.5,40.3L12.5,40.3z M12.5,40.4h3.4
				v0.1L12.5,40.4L12.5,40.4z M17.1,40.4h2.6v0.1L17.1,40.4L17.1,40.4z M21,40.4h2.6v0.1L21,40.4L21,40.4z M24.8,40.4h3.4v0.1
				L24.8,40.4L24.8,40.4z M17.2,40.5h2.5v0.1L17.2,40.5L17.2,40.5z M21.1,40.5h2.5v0.1L21.1,40.5L21.1,40.5z M25,40.5h3.1v0.1
				L25,40.5L25,40.5z M12.6,40.5h3.2v0.1L12.6,40.5L12.6,40.5z M12.6,40.6h3v0.1L12.6,40.6L12.6,40.6z M17.3,40.6h2.3v0.1L17.3,40.6
				L17.3,40.6z M21.2,40.6h2.3v0.1L21.2,40.6L21.2,40.6z M25.1,40.6h3v0.1L25.1,40.6L25.1,40.6z M12.7,40.7h2.6v0.1L12.7,40.7
				L12.7,40.7z M21.3,40.7h2.1v0.1L21.3,40.7L21.3,40.7z M25.3,40.7H28v0.1L25.3,40.7L25.3,40.7z M17.4,40.7h2.1v0.1L17.4,40.7
				L17.4,40.7z M12.8,40.8h2.4v0.1L12.8,40.8L12.8,40.8z M17.4,40.8h2v0.1L17.4,40.8L17.4,40.8z M21.4,40.8h2v0.1L21.4,40.8
				L21.4,40.8z M25.5,40.8h2.4v0.1L25.5,40.8L25.5,40.8z M13,40.9h1.9V41L13,40.9L13,40.9z M17.3,40.9h2V41L17.3,40.9L17.3,40.9z
				 M21.5,40.9h2V41L21.5,40.9L21.5,40.9z M25.8,40.9h2V41L25.8,40.9L25.8,40.9z M13.1,41h1.5V41L13.1,41L13.1,41z M17.2,41h2.2V41
				L17.2,41L17.2,41z M21.4,41h2.2V41L21.4,41L21.4,41z M26.1,41h1.5V41L26.1,41L26.1,41z M13.5,41h0.4v0.1L13.5,41L13.5,41z M17,41
				h2.5v0.1L17,41L17,41z M21.3,41h2.5v0.1L21.3,41L21.3,41z M26.6,41H27v0.1L26.6,41L26.6,41z M16.9,41.1h2.6v0.1L16.9,41.1
				L16.9,41.1z M21.2,41.1h2.6v0.1L21.2,41.1L21.2,41.1z M16.8,41.2h2.8v0.1L16.8,41.2L16.8,41.2z M21.1,41.2h2.8v0.1L21.1,41.2
				L21.1,41.2z M16.7,41.3h2.9v0.1L16.7,41.3L16.7,41.3z M21.1,41.3H24v0.1L21.1,41.3L21.1,41.3z M16.5,41.4h3.2v0.1L16.5,41.4
				L16.5,41.4z M21,41.4h3.2v0.1L21,41.4L21,41.4z M16.4,41.5h3.5v0.1L16.4,41.5L16.4,41.5z M20.9,41.5h3.5v0.1L20.9,41.5L20.9,41.5
				z M16.2,41.6h3.7v0.1L16.2,41.6L16.2,41.6z M25.9,41.6L25.9,41.6L25.9,41.6L25.9,41.6L25.9,41.6z M14.7,41.6L14.7,41.6L14.7,41.6
				L14.7,41.6L14.7,41.6z M20.8,41.6h3.7v0.1L20.8,41.6L20.8,41.6z M15.6,41.7H20v0.1L15.6,41.7L15.6,41.7z M20.8,41.7h4.3v0.1
				L20.8,41.7L20.8,41.7z M25.5,41.7H26v0.1L25.5,41.7L25.5,41.7z M14.7,41.7h0.5v0.1L14.7,41.7L14.7,41.7z M14.7,41.8h3.5v0.1
				L14.7,41.8L14.7,41.8z M18.5,41.8H20v0.1L18.5,41.8L18.5,41.8z M20.7,41.8h1.5v0.1L20.7,41.8L20.7,41.8z M22.5,41.8h3.4v0.1
				L22.5,41.8L22.5,41.8z M20.6,41.9h1.5V42L20.6,41.9L20.6,41.9z M22.8,41.9h3.1V42L22.8,41.9L22.8,41.9z M14.8,41.9h3.3V42
				L14.8,41.9L14.8,41.9z M18.5,41.9h1.5V42L18.5,41.9L18.5,41.9z M14.8,42H18V42L14.8,42L14.8,42z M18.5,42h1.6V42L18.5,42L18.5,42
				z M20.5,42h1.6V42L20.5,42L20.5,42z M23,42h2.8V42L23,42L23,42z M14.9,42h2.9v0.1L14.9,42L14.9,42z M18.6,42h1.6v0.1L18.6,42
				L18.6,42z M23.3,42h2.5v0.1L23.3,42L23.3,42z M20.5,42h1.6v0.1L20.5,42L20.5,42z M15,42.1h2.7v0.1L15,42.1L15,42.1z M18.7,42.1
				h1.5v0.1L18.7,42.1L18.7,42.1z M20.5,42.1H22v0.1L20.5,42.1L20.5,42.1z M23.5,42.1h2v0.1L23.5,42.1L23.5,42.1z M15.1,42.2h2.5
				v0.1L15.1,42.2L15.1,42.2z M23.8,42.2h1.6v0.1L23.8,42.2L23.8,42.2z M15.2,42.3h2.2v0.1L15.2,42.3L15.2,42.3z M18.8,42.2h3.1v0.2
				h-3.1L18.8,42.2z M24.3,42.3h0.8v0.1L24.3,42.3L24.3,42.3z M15.3,42.4h2v0.1L15.3,42.4L15.3,42.4z M18.9,42.4h2.9v0.1L18.9,42.4
				L18.9,42.4z M15.5,42.5h1.6v0.1L15.5,42.5L15.5,42.5z M19,42.5h2.7v0.1L19,42.5L19,42.5z M15.6,42.6h1.3v0.1L15.6,42.6L15.6,42.6
				z M19.1,42.6h2.5v0.1L19.1,42.6L19.1,42.6z M15.9,42.7h0.7v0.1L15.9,42.7L15.9,42.7z M19.2,42.7h2.5v0.1L19.2,42.7L19.2,42.7z
				 M19.2,42.8h2.4v0.1L19.2,42.8L19.2,42.8z M19.3,42.9h2.2V43L19.3,42.9L19.3,42.9z M19.4,43h2V43L19.4,43L19.4,43z M19.5,43h1.8
				v0.2h-1.8V43z M19.5,43.2h1.6v0.1L19.5,43.2L19.5,43.2z M19.6,43.3h1.5v0.1L19.6,43.3L19.6,43.3z M19.5,43.4h1.6v0.1L19.5,43.4
				L19.5,43.4z M19.5,43.5h1.7v0.2h-1.7L19.5,43.5z M19.5,43.7h1.9v0.2h-1.9V43.7z M19.5,43.9h2V44h-2L19.5,43.9z M19.4,44h2.1v0.1
				L19.4,44L19.4,44z M19.4,44.1h2.2v0.3h-2.2V44.1z M19.3,44.4h2.3v0.1L19.3,44.4L19.3,44.4z M20.4,44.5h1.3v0.2h-1.3V44.5z
				 M19.3,44.5h1v0.2h-1V44.5z M19.3,44.7h0.9v0.1L19.3,44.7L19.3,44.7z M20.5,44.7h1.2v0.2h-1.2V44.7z M19.2,44.8h1V45h-1V44.8z
				 M20.5,44.9h1.2V45h-1.2V44.9z M19.2,45h0.9v0.2h-0.9V45z M20.6,45h1.1v0.3h-1.1V45z M19.1,45.1h1v0.2h-1V45.1z M19.1,45.3H20
				v0.2h-0.9V45.3z M19,45.5h1v0.1L19,45.5L19,45.5z M20.7,45.3h1.1v0.4h-1.1V45.3z M19,45.6h0.9v0.3H19L19,45.6z M18.9,45.9h1V46
				L18.9,45.9L18.9,45.9z M20.8,45.7h1V46h-1V45.7z M18.9,46h0.9v0.3h-0.9L18.9,46z M20.8,46h1.1v0.5h-1.1L20.8,46z M18.8,46.2h1
				v0.2h-1V46.2z M18.8,46.4h0.9v0.3h-0.9V46.4z M18.7,46.7h1v0.2h-1V46.7z M18.7,46.9h0.9V47h-0.9V46.9z M20.9,46.4h1V47h-1V46.4z
				 M18.6,47h1v0.3h-1V47z M20.9,47h0.9v0.4h-0.9V47z M18.6,47.3h0.9v0.3h-0.9V47.3z M20.8,47.4h1v0.3h-1V47.4z M20.8,47.7h0.9v0.6
				h-0.9V47.7z M18.5,47.6h1v0.7h-1V47.6z M18.5,48.3h0.9v0.2h-0.9V48.3z M20.7,48.3h0.9v0.3h-0.9V48.3z M20.7,48.6h0.8v0.3h-0.8
				V48.6z M20.7,48.9h0.7V49L20.7,48.9L20.7,48.9z M20.6,49h0.8v0.2h-0.8V49z M20.6,49.1h0.7v0.3h-0.7V49.1z M20.6,49.4h0.6v0.1
				L20.6,49.4L20.6,49.4z M20.5,49.5h0.7v0.1L20.5,49.5L20.5,49.5z M20.5,49.6h0.6v0.2h-0.6V49.6z M20.5,49.8h0.5v0.1L20.5,49.8
				L20.5,49.8z M20.5,49.9h0.6V50L20.5,49.9L20.5,49.9z M20.5,50H21V50L20.5,50L20.5,50z M20.5,50h0.5v0.2h-0.5V50z M18.5,48.5h1
				v1.8h-1V48.5z M20.5,50.2h0.4v0.1L20.5,50.2L20.5,50.2z M20.4,50.3h0.4v0.1L20.4,50.3L20.4,50.3z M20.4,50.4h0.3v0.1L20.4,50.4
				L20.4,50.4z M20.4,50.5h0.2v0.1L20.4,50.5L20.4,50.5z M20.4,50.6L20.4,50.6L20.4,50.6L20.4,50.6L20.4,50.6z M18.5,50.3h0.9v0.4
				h-0.9V50.3z M18.5,50.7h1v0.5h-1V50.7z M18.5,51.1h1.1v0.2h-1.1V51.1z M18.6,51.3h1v0.2h-1L18.6,51.3z M18.6,51.5h1.1v0.2h-1.1
				V51.5z M18.7,51.7h1.1v0.2h-1.1V51.7z M18.7,51.9h1.2V52L18.7,51.9L18.7,51.9z M18.8,52h1.1V52L18.8,52L18.8,52z M18.8,52H20v0.1
				L18.8,52L18.8,52z M18.8,52.1h1.3v0.1L18.8,52.1L18.8,52.1z M18.9,52.2h1.3v0.1L18.9,52.2L18.9,52.2z M18.9,52.3h1.4v0.1
				L18.9,52.3L18.9,52.3z M19,52.4h1.4v0.1L19,52.4L19,52.4z M19,52.5h1.5v0.1L19,52.5L19,52.5z M19.1,52.6h1.5v0.1L19.1,52.6
				L19.1,52.6z M19.1,52.7h1.7v0.1L19.1,52.7L19.1,52.7z M19.2,52.8H21v0.1L19.2,52.8L19.2,52.8z M19.3,52.9h2.1V53L19.3,52.9
				L19.3,52.9z M19.4,53h2.4V53L19.4,53L19.4,53z M19.5,53h2.3v0.1L19.5,53L19.5,53z M19.5,53.1h2.1v0.1L19.5,53.1L19.5,53.1z
				 M19.7,53.2h1.6v0.1L19.7,53.2L19.7,53.2z M19.9,53.3h1.2v0.1L19.9,53.3L19.9,53.3z"/>
		</defs>
		<clipPath id="SVGID_00000009560185621561375790000003397134527433845168_">
			<use xlink:href="#SVGID_1_"  style="overflow:visible;"/>
		</clipPath>
		<g style="clip-path:url(#SVGID_00000009560185621561375790000003397134527433845168_);">
			<g>
				<defs>
					<path id="SVGID_00000161594077355657152290000004178381542050921887_" d="M24.1,34.8c-0.7,0.6-1.2,1.1-1.8,1.6
						c-0.3-0.3-0.6-0.6-1-1c0.5-0.5,1-1,1.5-1.5C23.3,34.2,23.7,34.5,24.1,34.8z M23.3,39c-0.3,0.3-0.6,0.6-1,0.9
						c-0.4-0.3-0.7-0.6-1.1-1c0.4-0.3,0.7-0.6,1-0.9C22.6,38.3,22.9,38.6,23.3,39z M20.4,42.4c-0.4-0.5-0.7-0.9-1.2-1.5
						c0.4-0.4,0.8-0.8,1.1-1.1c0.4,0.4,0.7,0.7,1.2,1.1C21.1,41.4,20.8,41.9,20.4,42.4z M17.4,39c0.4-0.4,0.7-0.7,1-1
						c0.3,0.3,0.6,0.6,1,0.9c-0.4,0.4-0.7,0.6-1,1C18.2,39.7,17.9,39.4,17.4,39z M16.6,34.8c0.5-0.3,0.9-0.6,1.3-0.9
						c0.5,0.5,0.9,0.9,1.5,1.4c-0.3,0.4-0.6,0.7-0.9,1C17.8,35.9,17.3,35.4,16.6,34.8z M21.4,37.1c-0.4,0.4-0.7,0.7-1,1.1
						c-0.3-0.3-0.6-0.6-1.1-1c0.4-0.4,0.7-0.7,1-1C20.7,36.5,21,36.8,21.4,37.1z M20.4,32.1c0.5,0.3,1,0.7,1.6,1.1
						c-0.6,0.5-1,1-1.6,1.4c-0.5-0.5-1-0.9-1.6-1.4C19.4,32.9,19.8,32.5,20.4,32.1z M18.8,29.5c0.6-0.5,1-1,1.6-1.4
						c0.5,0.4,1,0.9,1.6,1.4c-0.6,0.4-1.1,0.8-1.6,1.1C19.8,30.3,19.4,30,18.8,29.5z M28.8,33.5c0.3,0.4,0.4,0.9-0.2,1.2
						c-0.5,0.4-1.4,0.3-2.4-0.2C26.7,34.1,28.3,32.9,28.8,33.5z M27.4,39.5c0.1,0.7-1.7,0.4-2.4-0.4C26,38.1,27.3,38.8,27.4,39.5z
						 M13.5,39.4c0.1-1.1,1.6-0.3,2-0.2C14.8,40,13.5,40.4,13.5,39.4z M12.4,35c-0.2-0.1-0.9-0.9-0.3-1.3c0.6-0.3,1.5,0.4,2.1,0.8
						C13.7,34.7,12.9,35.2,12.4,35z M35.4,30.7c-0.3-0.8-0.8-1.3-1.3-1.7c-1.4-1.1-3-1.4-4.6-1c-1.9,0.5-3.6,1.7-5.3,3.1
						c-0.4,0.4-0.9,0.8-1.4,1.2c-0.4-0.3-0.8-0.6-1.3-1c0.8-0.6,1.5-1.1,2.3-1.7c-0.8-0.7-1.4-1.3-2.1-1.9c-0.4-0.4-0.8-0.8-1.2-1.2
						c-0.1,0-0.2,0-0.3,0c-0.4,0.4-0.8,0.8-1.2,1.2c-0.7,0.6-1.3,1.2-2.1,1.9c0.8,0.6,1.5,1.1,2.3,1.7c-0.5,0.4-0.9,0.7-1.3,1
						c-0.2-0.2-0.4-0.4-0.6-0.5c-1-0.8-2-1.7-3.1-2.4c-1.5-1-3.1-1.8-4.9-1.5C8.2,28.1,7,28.5,6,29.7c-1.2,1.4-1.3,3.5-0.3,5.2
						c0.1,0.2,0.3,0.4,0.4,0.6c1.8,2,3.7,2.4,5.8,1.5c0.1-0.1,0.3-0.2,0.4-0.3c-0.4-0.1-0.7-0.1-1.1-0.1C10.1,36.5,9,36.2,8,35.3
						c-0.6-0.5-1.1-1.3-1.4-2.3c-0.2-0.6-0.2-1.3,0.1-1.8c0.2-0.3,0.4-0.6,0.6-0.8c1.1-1,2.3-1.2,3.6-1c2,0.4,3.8,1.7,5.5,3.3
						c0.1,0.1,0.2,0.2,0.3,0.4c-0.5,0.3-0.9,0.5-1.1,0.7c-0.9-0.5-1.6-0.9-2.4-1.3c-0.6-0.3-1.3-0.3-1.9,0.4
						c-0.6,0.8-0.6,1.8,0.1,2.5c0.4,0.4,0.9,0.6,1.5,0.6c0.9,0.1,1.7-0.2,2.5-0.7c0.7,0.6,1.3,1.2,2.1,1.8c-0.4,0.4-0.7,0.7-1,1
						c-0.4-0.1-0.7-0.2-1-0.3c-0.7-0.2-1.4-0.3-2.1,0c-0.6,0.3-1,1-0.9,1.9c0.1,0.8,0.4,1.2,1.1,1.3c0.8,0.1,1.5-0.2,2.2-0.6
						c0.3-0.2,0.6-0.3,0.8-0.5c0.3,0.3,0.5,0.5,0.8,0.8c-0.9,1-1.8,1.2-2.7,0.9c0.1,0.7,1.4,1.4,2.3,0.8c0.4-0.3,0.8-0.5,1.3-0.8
						c0.4,0.6,0.9,1.1,1.3,1.7c-0.1,0.3-0.2,0.5-0.2,0.8c-0.3,1.1-0.6,2.3-0.8,3.4c-0.2,1.3-0.3,2.6,0,3.9c0.2,1,0.7,1.7,1.4,1.9
						c0.5,0.1,1.1,0.1,1.6-0.3c-0.8-0.2-1.7-0.3-2.1-1.7c-0.1-0.4-0.1-0.7-0.2-0.8c-0.2-2.4,0.2-4.2,0.8-6.2
						c1.4,1.5,0.1,6.2,0.1,6.2c0.1-0.1,0.2-0.2,0.3-0.4c0.8-1,1.3-3.1,1-4.7c-0.1-0.8-0.2-0.7-0.3-1.5c0-0.2-0.3-0.5-0.3-0.7
						c0.4-0.6,0.8-1.1,1.3-1.6c2.5,1.2,3.4,0.6,3.6,0c-0.9,0.3-1.8,0-2.7-0.9c0.3-0.3,0.6-0.6,0.8-0.8c0.2,0.1,0.4,0.3,0.6,0.4
						c0.9,0.6,1.8,0.9,2.8,0.7c0.8-0.2,1.1-1.5,0.6-2.4c-0.2-0.3-0.6-0.7-0.9-0.8c-0.4-0.2-0.8-0.3-1.2-0.3
						c-0.6,0.1-0.9,0.2-1.8,0.7c-0.3-0.3-0.6-0.6-1-0.9c0.7-0.7,1.4-1.2,2.1-1.8c0.2,0.1,0.3,0.1,0.5,0.2c0.7,0.4,1.4,0.5,2.1,0.4
						c0.5-0.1,1.1-0.2,1.5-0.7c0.5-0.6,0.6-1.5,0.1-2.2c-0.3-0.5-0.7-0.7-1.1-0.7c-0.6-0.1-1.2,0.1-1.7,0.5c-0.5,0.3-1,0.6-1.6,1
						c-0.4-0.2-0.7-0.5-1.2-0.7c0.2-0.2,0.2-0.4,0.3-0.4c1.1-0.8,2.1-1.7,3.2-2.4c1.1-0.7,2.3-1.1,3.5-1c0.9,0.1,1.8,0.5,2.6,1.3
						c0.7,0.7,0.8,1.6,0.4,2.7c-0.5,1.3-1.2,2.1-2.1,2.5C31,36.4,30,36.6,29,36.6c-0.2,0-0.4,0-0.6,0c2,1.5,4.7,0.9,6.3-1.3
						c0.3-0.4,0.5-0.9,0.7-1.4C35.9,32.9,35.8,31.7,35.4,30.7z"/>
				</defs>
				<clipPath id="SVGID_00000021094515041583086290000009931570866667686538_">
					<use xlink:href="#SVGID_00000161594077355657152290000004178381542050921887_"  style="overflow:visible;"/>
				</clipPath>
				<g style="clip-path:url(#SVGID_00000021094515041583086290000009931570866667686538_);">
					
						<linearGradient id="SVGID_00000106863219363130041230000017768885187751654040_" gradientUnits="userSpaceOnUse" x1="-232.1452" y1="430.0462" x2="-231.2826" y2="430.0462" gradientTransform="matrix(0 -31.0904 -31.0904 0 13390.7178 -7164.0781)">
						<stop  offset="0" style="stop-color:#9AB822"/>
						<stop  offset="7.812500e-03" style="stop-color:#9AB822"/>
						<stop  offset="1.562500e-02" style="stop-color:#99B722"/>
						<stop  offset="2.343750e-02" style="stop-color:#99B622"/>
						<stop  offset="3.125000e-02" style="stop-color:#99B622"/>
						<stop  offset="3.515620e-02" style="stop-color:#98B523"/>
						<stop  offset="3.906250e-02" style="stop-color:#97B423"/>
						<stop  offset="4.296880e-02" style="stop-color:#97B323"/>
						<stop  offset="4.687500e-02" style="stop-color:#96B223"/>
						<stop  offset="5.078120e-02" style="stop-color:#96B223"/>
						<stop  offset="5.468750e-02" style="stop-color:#96B223"/>
						<stop  offset="6.250000e-02" style="stop-color:#96B123"/>
						<stop  offset="7.031250e-02" style="stop-color:#95B023"/>
						<stop  offset="7.812500e-02" style="stop-color:#94AF24"/>
						<stop  offset="8.593750e-02" style="stop-color:#94AF24"/>
						<stop  offset="9.375000e-02" style="stop-color:#93AE24"/>
						<stop  offset="0.1016" style="stop-color:#93AD24"/>
						<stop  offset="0.1094" style="stop-color:#92AC24"/>
						<stop  offset="0.1172" style="stop-color:#92AB24"/>
						<stop  offset="0.125" style="stop-color:#91AA24"/>
						<stop  offset="0.1328" style="stop-color:#91AA24"/>
						<stop  offset="0.1406" style="stop-color:#90A925"/>
						<stop  offset="0.1484" style="stop-color:#90A825"/>
						<stop  offset="0.1562" style="stop-color:#8FA725"/>
						<stop  offset="0.1641" style="stop-color:#8FA625"/>
						<stop  offset="0.1719" style="stop-color:#8EA525"/>
						<stop  offset="0.1797" style="stop-color:#8DA425"/>
						<stop  offset="0.1875" style="stop-color:#8CA325"/>
						<stop  offset="0.1953" style="stop-color:#8BA225"/>
						<stop  offset="0.2031" style="stop-color:#8BA125"/>
						<stop  offset="0.2109" style="stop-color:#8AA026"/>
						<stop  offset="0.2188" style="stop-color:#899F26"/>
						<stop  offset="0.2266" style="stop-color:#899E26"/>
						<stop  offset="0.2344" style="stop-color:#889D26"/>
						<stop  offset="0.2422" style="stop-color:#889C26"/>
						<stop  offset="0.25" style="stop-color:#879B26"/>
						<stop  offset="0.2578" style="stop-color:#869A26"/>
						<stop  offset="0.2656" style="stop-color:#859926"/>
						<stop  offset="0.2734" style="stop-color:#859826"/>
						<stop  offset="0.2812" style="stop-color:#859726"/>
						<stop  offset="0.2891" style="stop-color:#849626"/>
						<stop  offset="0.2969" style="stop-color:#849526"/>
						<stop  offset="0.3047" style="stop-color:#839426"/>
						<stop  offset="0.3125" style="stop-color:#829326"/>
						<stop  offset="0.3203" style="stop-color:#819226"/>
						<stop  offset="0.3281" style="stop-color:#819126"/>
						<stop  offset="0.3359" style="stop-color:#809026"/>
						<stop  offset="0.3438" style="stop-color:#808F26"/>
						<stop  offset="0.3516" style="stop-color:#7F8E26"/>
						<stop  offset="0.3594" style="stop-color:#7F8D26"/>
						<stop  offset="0.3672" style="stop-color:#7E8C26"/>
						<stop  offset="0.375" style="stop-color:#7D8B26"/>
						<stop  offset="0.3828" style="stop-color:#7D8A26"/>
						<stop  offset="0.3906" style="stop-color:#7C8A26"/>
						<stop  offset="0.3984" style="stop-color:#7C8925"/>
						<stop  offset="0.4062" style="stop-color:#7B8825"/>
						<stop  offset="0.4141" style="stop-color:#7A8725"/>
						<stop  offset="0.4219" style="stop-color:#7A8625"/>
						<stop  offset="0.4297" style="stop-color:#798525"/>
						<stop  offset="0.4375" style="stop-color:#788425"/>
						<stop  offset="0.4453" style="stop-color:#788325"/>
						<stop  offset="0.4531" style="stop-color:#778225"/>
						<stop  offset="0.4609" style="stop-color:#768125"/>
						<stop  offset="0.4688" style="stop-color:#768025"/>
						<stop  offset="0.4766" style="stop-color:#757F25"/>
						<stop  offset="0.4805" style="stop-color:#757F25"/>
						<stop  offset="0.4844" style="stop-color:#747E25"/>
						<stop  offset="0.4883" style="stop-color:#747E25"/>
						<stop  offset="0.4922" style="stop-color:#737D25"/>
						<stop  offset="0.4961" style="stop-color:#737C25"/>
						<stop  offset="0.5" style="stop-color:#737C25"/>
						<stop  offset="0.5078" style="stop-color:#727B25"/>
						<stop  offset="0.5156" style="stop-color:#727A24"/>
						<stop  offset="0.5234" style="stop-color:#717924"/>
						<stop  offset="0.5312" style="stop-color:#717924"/>
						<stop  offset="0.5391" style="stop-color:#707824"/>
						<stop  offset="0.5469" style="stop-color:#707724"/>
						<stop  offset="0.5547" style="stop-color:#6F7624"/>
						<stop  offset="0.5625" style="stop-color:#6E7524"/>
						<stop  offset="0.5664" style="stop-color:#6E7424"/>
						<stop  offset="0.5703" style="stop-color:#6D7424"/>
						<stop  offset="0.5742" style="stop-color:#6D7323"/>
						<stop  offset="0.5781" style="stop-color:#6D7323"/>
						<stop  offset="0.582" style="stop-color:#6D7223"/>
						<stop  offset="0.5859" style="stop-color:#6C7123"/>
						<stop  offset="0.5938" style="stop-color:#6C7123"/>
						<stop  offset="0.6016" style="stop-color:#6B7023"/>
						<stop  offset="0.6094" style="stop-color:#6B6F23"/>
						<stop  offset="0.6172" style="stop-color:#6A6E23"/>
						<stop  offset="0.6211" style="stop-color:#6A6D23"/>
						<stop  offset="0.625" style="stop-color:#6A6D23"/>
						<stop  offset="0.6289" style="stop-color:#696C22"/>
						<stop  offset="0.6328" style="stop-color:#696C22"/>
						<stop  offset="0.6406" style="stop-color:#696B22"/>
						<stop  offset="0.6484" style="stop-color:#686A22"/>
						<stop  offset="0.6523" style="stop-color:#676922"/>
						<stop  offset="0.6562" style="stop-color:#676922"/>
						<stop  offset="0.6602" style="stop-color:#676822"/>
						<stop  offset="0.6641" style="stop-color:#666822"/>
						<stop  offset="0.668" style="stop-color:#666822"/>
						<stop  offset="0.6719" style="stop-color:#666722"/>
						<stop  offset="0.6797" style="stop-color:#666721"/>
						<stop  offset="0.6836" style="stop-color:#656621"/>
						<stop  offset="0.6875" style="stop-color:#656521"/>
						<stop  offset="0.6914" style="stop-color:#646521"/>
						<stop  offset="0.6953" style="stop-color:#646421"/>
						<stop  offset="0.6992" style="stop-color:#646321"/>
						<stop  offset="0.7031" style="stop-color:#636321"/>
						<stop  offset="0.7109" style="stop-color:#636321"/>
						<stop  offset="0.7148" style="stop-color:#636221"/>
						<stop  offset="0.7188" style="stop-color:#636121"/>
						<stop  offset="0.7227" style="stop-color:#626121"/>
						<stop  offset="0.7266" style="stop-color:#626020"/>
						<stop  offset="0.7305" style="stop-color:#626020"/>
						<stop  offset="0.7344" style="stop-color:#615F20"/>
						<stop  offset="0.7422" style="stop-color:#615F20"/>
						<stop  offset="0.75" style="stop-color:#615E20"/>
						<stop  offset="0.7539" style="stop-color:#605D20"/>
						<stop  offset="0.7578" style="stop-color:#605D20"/>
						<stop  offset="0.7617" style="stop-color:#605C20"/>
						<stop  offset="0.7656" style="stop-color:#5F5C1F"/>
						<stop  offset="0.7695" style="stop-color:#5F5B1F"/>
						<stop  offset="0.7734" style="stop-color:#5F5B1F"/>
						<stop  offset="0.7773" style="stop-color:#5F5A1F"/>
						<stop  offset="0.7812" style="stop-color:#5E5A1F"/>
						<stop  offset="0.7852" style="stop-color:#5E591F"/>
						<stop  offset="0.7891" style="stop-color:#5E591F"/>
						<stop  offset="0.7969" style="stop-color:#5E591F"/>
						<stop  offset="0.8008" style="stop-color:#5D581E"/>
						<stop  offset="0.8047" style="stop-color:#5D571E"/>
						<stop  offset="0.8086" style="stop-color:#5D571E"/>
						<stop  offset="0.8125" style="stop-color:#5C561E"/>
						<stop  offset="0.8164" style="stop-color:#5C561E"/>
						<stop  offset="0.8203" style="stop-color:#5C551E"/>
						<stop  offset="0.8242" style="stop-color:#5B551E"/>
						<stop  offset="0.8281" style="stop-color:#5B541E"/>
						<stop  offset="0.832" style="stop-color:#5B541E"/>
						<stop  offset="0.8359" style="stop-color:#5B541D"/>
						<stop  offset="0.8398" style="stop-color:#5A531D"/>
						<stop  offset="0.8438" style="stop-color:#5A531D"/>
						<stop  offset="0.8477" style="stop-color:#5A521D"/>
						<stop  offset="0.8516" style="stop-color:#59521D"/>
						<stop  offset="0.8555" style="stop-color:#59511D"/>
						<stop  offset="0.8594" style="stop-color:#59511D"/>
						<stop  offset="0.8633" style="stop-color:#59501D"/>
						<stop  offset="0.8672" style="stop-color:#58501C"/>
						<stop  offset="0.875" style="stop-color:#58501C"/>
						<stop  offset="0.8828" style="stop-color:#584F1C"/>
						<stop  offset="0.8867" style="stop-color:#574E1C"/>
						<stop  offset="0.8906" style="stop-color:#574D1C"/>
						<stop  offset="0.8945" style="stop-color:#574D1C"/>
						<stop  offset="0.8984" style="stop-color:#564C1C"/>
						<stop  offset="0.9023" style="stop-color:#564C1C"/>
						<stop  offset="0.9062" style="stop-color:#564C1B"/>
						<stop  offset="0.9102" style="stop-color:#564B1B"/>
						<stop  offset="0.9141" style="stop-color:#564B1B"/>
						<stop  offset="0.918" style="stop-color:#554A1B"/>
						<stop  offset="0.9219" style="stop-color:#554A1B"/>
						<stop  offset="0.9258" style="stop-color:#55491B"/>
						<stop  offset="0.9297" style="stop-color:#54491B"/>
						<stop  offset="0.9336" style="stop-color:#54481A"/>
						<stop  offset="0.9375" style="stop-color:#53481A"/>
						<stop  offset="0.9414" style="stop-color:#53471A"/>
						<stop  offset="0.9453" style="stop-color:#53471A"/>
						<stop  offset="0.9492" style="stop-color:#52471A"/>
						<stop  offset="0.9531" style="stop-color:#52461A"/>
						<stop  offset="0.957" style="stop-color:#52461A"/>
						<stop  offset="0.9609" style="stop-color:#52451A"/>
						<stop  offset="0.9648" style="stop-color:#514519"/>
						<stop  offset="0.9688" style="stop-color:#514419"/>
						<stop  offset="0.9727" style="stop-color:#514419"/>
						<stop  offset="0.9766" style="stop-color:#504319"/>
						<stop  offset="0.9805" style="stop-color:#504319"/>
						<stop  offset="0.9844" style="stop-color:#504219"/>
						<stop  offset="0.9883" style="stop-color:#4F4219"/>
						<stop  offset="0.9922" style="stop-color:#4F4219"/>
						<stop  offset="0.9961" style="stop-color:#4F4118"/>
						<stop  offset="1" style="stop-color:#4F4118"/>
					</linearGradient>
					<path style="fill:url(#SVGID_00000106863219363130041230000017768885187751654040_);" d="M5,53.4h30.8V26.6H5V53.4z"/>
				</g>
			</g>
		</g>
	</g>
	<g>
		<path class="st3" d="M37.6,47.5l1.3-5.8h0.4c-0.1,0.6-0.1,1-0.1,1.4c0,1.1,0.3,1.9,1,2.6c0.7,0.7,1.6,1,2.7,1c1,0,1.8-0.3,2.3-0.9
			c0.5-0.6,0.8-1.3,0.8-2.2c0-0.5-0.1-1-0.4-1.4c-0.4-0.6-1.3-1.8-2.9-3.4C42,38,41.5,37.4,41.3,37c-0.4-0.6-0.5-1.3-0.5-2
			c0-1.1,0.4-2,1.2-2.8c0.8-0.8,1.9-1.2,3.2-1.2c0.4,0,0.8,0,1.2,0.1c0.2,0,0.7,0.2,1.3,0.5c0.4,0.2,0.7,0.3,0.7,0.3
			c0.1,0,0.2,0,0.4,0c0.2,0,0.4-0.1,0.6-0.2c0.2-0.1,0.4-0.4,0.6-0.7h0.4l-1.2,5.2h-0.4c0-0.5,0-0.8,0-1.1c0-0.9-0.3-1.7-0.9-2.3
			c-0.6-0.6-1.4-0.9-2.5-0.9c-0.8,0-1.5,0.2-2,0.7s-0.8,1-0.8,1.6c0,0.5,0.2,1.1,0.5,1.6c0.3,0.5,1.1,1.3,2.2,2.4
			c1.2,1.1,1.9,2,2.2,2.6c0.3,0.6,0.5,1.3,0.5,2c0,0.8-0.2,1.6-0.6,2.3c-0.4,0.7-1,1.3-1.8,1.7c-0.8,0.4-1.7,0.6-2.6,0.6
			c-0.5,0-0.9,0-1.3-0.1c-0.4-0.1-1-0.3-1.9-0.6c-0.3-0.1-0.6-0.2-0.8-0.2c-0.5,0-0.8,0.3-1.1,0.9L37.6,47.5z"/>
		<path class="st3" d="M50.6,37.3l4-0.6l-1.7,5.6c1.4-2.3,2.6-3.9,3.7-4.9c0.6-0.5,1.1-0.8,1.5-0.8c0.3,0,0.5,0.1,0.6,0.2
			c0.1,0.2,0.2,0.4,0.2,0.7c0,0.5-0.1,1-0.4,1.5c-0.2,0.3-0.5,0.5-0.8,0.5c-0.2,0-0.3-0.1-0.5-0.2c-0.1-0.1-0.2-0.3-0.2-0.5
			c0-0.1,0-0.2-0.1-0.3c-0.1-0.1-0.1-0.1-0.2-0.1c-0.1,0-0.3,0-0.4,0.1c-0.2,0.1-0.5,0.4-0.9,0.9c-0.6,0.8-1.3,1.7-2.1,3
			c-0.3,0.5-0.6,1.1-0.8,1.7C52.2,45,52,45.5,52,45.7l-0.4,1.5h-1.8L52,40c0.2-0.8,0.4-1.4,0.4-1.8c0-0.1-0.1-0.3-0.2-0.4
			c-0.2-0.1-0.4-0.2-0.6-0.2c-0.2,0-0.5,0-0.9,0.1L50.6,37.3z"/>
		<path class="st3" d="M63.9,32c0.3,0,0.6,0.1,0.8,0.3c0.2,0.2,0.3,0.5,0.3,0.8c0,0.3-0.1,0.6-0.3,0.8c-0.2,0.2-0.5,0.3-0.8,0.3
			c-0.3,0-0.6-0.1-0.8-0.3c-0.2-0.2-0.3-0.5-0.3-0.8c0-0.3,0.1-0.6,0.3-0.8C63.3,32.2,63.6,32,63.9,32z M64.1,36.7l-2.3,8.1
			c-0.2,0.6-0.2,0.9-0.2,1c0,0.1,0,0.2,0.1,0.3c0.1,0.1,0.2,0.1,0.3,0.1c0.1,0,0.3-0.1,0.4-0.2c0.4-0.4,0.9-0.8,1.3-1.5l0.4,0.3
			c-0.5,0.8-1.1,1.5-1.9,2c-0.5,0.4-1,0.6-1.5,0.6c-0.3,0-0.6-0.1-0.8-0.3c-0.2-0.2-0.3-0.4-0.3-0.7s0.1-0.8,0.3-1.4l1.5-5.2
			c0.2-0.9,0.4-1.4,0.4-1.6c0-0.2-0.1-0.3-0.2-0.4c-0.1-0.1-0.3-0.2-0.5-0.2c-0.2,0-0.5,0-1.1,0.1v-0.5L64.1,36.7z"/>
		<path class="st3" d="M75.2,36.7l0.8,8.7c1.3-1.6,2.4-3.1,3.2-4.4c0.5-0.8,0.7-1.4,0.7-1.8c0-0.2,0-0.3-0.1-0.5
			c0-0.1-0.2-0.2-0.4-0.3c-0.2-0.1-0.4-0.3-0.4-0.4c-0.1-0.1-0.1-0.3-0.1-0.5c0-0.2,0.1-0.4,0.3-0.6c0.2-0.2,0.4-0.3,0.7-0.3
			c0.3,0,0.6,0.1,0.8,0.4c0.2,0.2,0.3,0.6,0.3,0.9c0,0.4-0.1,0.8-0.2,1.1c-0.2,0.7-0.7,1.5-1.4,2.6c-0.8,1.3-1.7,2.4-2.5,3.5
			C76,46.3,75.4,47,75,47.5h-0.4l-0.8-8l-4.8,8h-0.5c-0.1-3.3-0.2-5.9-0.5-7.8c-0.1-0.8-0.3-1.3-0.6-1.6c-0.2-0.2-0.5-0.3-0.9-0.3
			c-0.2,0-0.5,0-0.9,0.1v-0.4l3.3-0.8c0.5,1.3,0.8,3.3,0.9,6c0,1,0.1,1.7,0.1,1.9l4.8-7.9L75.2,36.7z"/>
		<path class="st3" d="M86.4,32c0.3,0,0.6,0.1,0.8,0.3c0.2,0.2,0.3,0.5,0.3,0.8c0,0.3-0.1,0.6-0.3,0.8c-0.2,0.2-0.5,0.3-0.8,0.3
			s-0.6-0.1-0.8-0.3c-0.2-0.2-0.3-0.5-0.3-0.8c0-0.3,0.1-0.6,0.3-0.8C85.8,32.2,86.1,32,86.4,32z M86.6,36.7l-2.3,8.1
			c-0.2,0.6-0.2,0.9-0.2,1c0,0.1,0,0.2,0.1,0.3c0.1,0.1,0.2,0.1,0.3,0.1c0.1,0,0.3-0.1,0.4-0.2c0.4-0.4,0.9-0.8,1.3-1.5l0.4,0.3
			c-0.5,0.8-1.1,1.5-1.9,2c-0.5,0.4-1,0.6-1.5,0.6c-0.3,0-0.6-0.1-0.8-0.3c-0.2-0.2-0.3-0.4-0.3-0.7s0.1-0.8,0.3-1.4l1.5-5.2
			c0.2-0.9,0.4-1.4,0.4-1.6c0-0.2-0.1-0.3-0.2-0.4c-0.1-0.1-0.3-0.2-0.5-0.2c-0.2,0-0.5,0-1.1,0.1v-0.5L86.6,36.7z"/>
		<path class="st3" d="M93.2,32.1c0.3,0,0.6,0.1,0.8,0.3s0.3,0.5,0.3,0.8c0,0.3-0.1,0.6-0.3,0.8c-0.2,0.2-0.5,0.3-0.8,0.3
			c-0.3,0-0.6-0.1-0.8-0.3c-0.2-0.2-0.3-0.5-0.3-0.8c0-0.3,0.1-0.6,0.3-0.8S92.8,32.1,93.2,32.1z M93.4,36.7l-3,10.4
			c-0.5,1.9-1.3,3.2-2.2,4c-0.9,0.8-1.9,1.2-3,1.2c-0.5,0-0.9-0.1-1.1-0.3c-0.3-0.2-0.4-0.5-0.4-0.8c0-0.2,0.1-0.5,0.3-0.6
			c0.2-0.2,0.4-0.3,0.7-0.3c0.2,0,0.4,0.1,0.6,0.2c0.1,0.1,0.2,0.2,0.2,0.4c0,0.2-0.1,0.4-0.3,0.5c-0.1,0.1-0.2,0.2-0.2,0.2l0,0.1
			c0,0,0.1,0.1,0.1,0.1c0,0,0.1,0,0.2,0c0.6,0,1.2-0.2,1.6-0.6c0.4-0.4,0.8-1.2,1.2-2.4l2.6-8.9c0.3-0.9,0.4-1.4,0.4-1.5
			c0-0.2-0.1-0.4-0.2-0.5c-0.2-0.1-0.4-0.2-0.6-0.2c-0.1,0-0.2,0-0.3,0c-0.1,0-0.2,0-0.4,0.1v-0.4L93.4,36.7z"/>
		<path class="st3" d="M101.4,37.3c-0.5,0-1,0.2-1.6,0.7c-0.8,0.7-1.5,1.6-2.1,2.9c-0.6,1.3-0.9,2.5-0.9,3.5c0,0.5,0.1,0.9,0.4,1.2
			c0.3,0.3,0.6,0.5,0.9,0.5c0.8,0,1.8-0.6,2.8-1.9c1.3-1.7,2-3.4,2-5.1c0-0.7-0.1-1.1-0.4-1.4C102.2,37.4,101.8,37.3,101.4,37.3z
			 M105.5,36.7l-2.3,7.9l-0.3,1.1c0,0.1,0,0.2,0,0.3c0,0.1,0,0.2,0.1,0.3c0.1,0.1,0.1,0.1,0.2,0.1c0.1,0,0.2-0.1,0.4-0.2
			c0.3-0.2,0.7-0.7,1.2-1.4l0.4,0.3c-0.5,0.8-1.1,1.4-1.7,1.8c-0.6,0.4-1.1,0.6-1.6,0.6c-0.3,0-0.6-0.1-0.7-0.2
			c-0.2-0.2-0.3-0.4-0.3-0.7c0-0.4,0.1-0.9,0.3-1.5l0.2-0.9c-1,1.3-1.9,2.2-2.8,2.8c-0.6,0.4-1.2,0.6-1.8,0.6
			c-0.6,0-1.1-0.2-1.5-0.7c-0.4-0.5-0.6-1.1-0.6-1.9c0-1.2,0.4-2.5,1.1-3.9c0.7-1.4,1.7-2.5,2.8-3.3c0.9-0.6,1.7-1,2.5-1
			c0.5,0,0.9,0.1,1.2,0.4c0.3,0.2,0.6,0.7,0.7,1.2l0.4-1.3L105.5,36.7z"/>
		<path class="st3" d="M110,36.7c0.3,0.5,0.4,0.9,0.5,1.3c0.1,0.4,0.2,1.2,0.3,2.3l0.5,5.7c0.5-0.6,1.1-1.4,2-2.6
			c0.4-0.6,1-1.4,1.6-2.4c0.4-0.6,0.6-1.1,0.7-1.3c0-0.1,0.1-0.3,0.1-0.4c0-0.1,0-0.2-0.1-0.2c-0.1-0.1-0.2-0.1-0.4-0.2
			s-0.4-0.2-0.6-0.4c-0.2-0.2-0.2-0.4-0.2-0.7c0-0.3,0.1-0.6,0.3-0.8c0.2-0.2,0.4-0.3,0.7-0.3c0.3,0,0.6,0.1,0.9,0.4
			c0.2,0.3,0.4,0.7,0.4,1.2c0,0.6-0.2,1.3-0.6,2.1c-0.4,0.8-1.2,2-2.4,3.6c-1.2,1.6-2.6,3.4-4.3,5.3c-1.2,1.3-2,2.2-2.6,2.5
			c-0.6,0.3-1.1,0.5-1.5,0.5c-0.2,0-0.5-0.1-0.6-0.3c-0.2-0.2-0.3-0.4-0.3-0.6c0-0.3,0.1-0.6,0.4-0.8c0.3-0.2,0.5-0.4,0.8-0.4
			c0.2,0,0.3,0,0.4,0.1c0.1,0,0.1,0.1,0.2,0.3c0.1,0.2,0.1,0.3,0.2,0.4c0,0,0.1,0.1,0.1,0.1c0,0,0.1,0,0.2-0.1
			c0.4-0.3,0.9-0.7,1.5-1.3c0.7-0.8,1.3-1.4,1.6-1.9l-0.6-7.4c-0.1-1.2-0.3-2-0.5-2.2c-0.2-0.3-0.6-0.4-1.1-0.4
			c-0.2,0-0.5,0-0.9,0.1l-0.1-0.4L110,36.7z"/>
		<path class="st3" d="M123.8,37.3c-0.5,0-1,0.2-1.6,0.7c-0.8,0.7-1.5,1.6-2.1,2.9c-0.6,1.3-0.9,2.5-0.9,3.5c0,0.5,0.1,0.9,0.4,1.2
			c0.3,0.3,0.6,0.5,0.9,0.5c0.8,0,1.8-0.6,2.8-1.9c1.3-1.7,2-3.4,2-5.1c0-0.7-0.1-1.1-0.4-1.4C124.6,37.4,124.3,37.3,123.8,37.3z
			 M128,36.7l-2.3,7.9l-0.3,1.1c0,0.1,0,0.2,0,0.3c0,0.1,0,0.2,0.1,0.3c0.1,0.1,0.1,0.1,0.2,0.1c0.1,0,0.2-0.1,0.4-0.2
			c0.3-0.2,0.7-0.7,1.2-1.4l0.4,0.3c-0.5,0.8-1.1,1.4-1.6,1.8c-0.6,0.4-1.1,0.6-1.6,0.6c-0.3,0-0.6-0.1-0.7-0.2
			c-0.2-0.2-0.2-0.4-0.2-0.7c0-0.4,0.1-0.9,0.3-1.5l0.2-0.9c-1,1.3-1.9,2.2-2.8,2.8c-0.6,0.4-1.2,0.6-1.8,0.6
			c-0.6,0-1.1-0.2-1.5-0.7c-0.4-0.5-0.6-1.1-0.6-1.9c0-1.2,0.4-2.5,1.1-3.9c0.7-1.4,1.7-2.5,2.8-3.3c0.9-0.6,1.7-1,2.5-1
			c0.5,0,0.9,0.1,1.2,0.4c0.3,0.2,0.6,0.7,0.7,1.2l0.4-1.3L128,36.7z"/>
		<path class="st3" d="M144.2,34.9l-4.6,6.2h4L144.2,34.9z M146.5,31.1l-1.2,13.1c-0.1,0.6-0.1,1-0.1,1.2c0,0.3,0.1,0.5,0.2,0.7
			c0.1,0.2,0.3,0.4,0.6,0.5c0.3,0.1,0.7,0.2,1.3,0.2l-0.1,0.4h-6.2l0.1-0.4h0.3c0.5,0,0.9-0.1,1.2-0.3c0.2-0.1,0.4-0.4,0.5-0.7
			c0.1-0.2,0.2-0.8,0.2-1.7l0.2-2H139l-1.6,2.2c-0.4,0.5-0.6,0.8-0.7,1.1c-0.1,0.2-0.1,0.4-0.1,0.6c0,0.2,0.1,0.5,0.3,0.6
			c0.2,0.2,0.5,0.3,1,0.3l-0.1,0.4h-4.7l0.1-0.4c0.6,0,1.1-0.2,1.5-0.6c0.4-0.4,1.1-1.1,2-2.3l9.4-12.8L146.5,31.1z"/>
		<path class="st3" d="M154.1,32c0.3,0,0.6,0.1,0.8,0.3c0.2,0.2,0.3,0.5,0.3,0.8c0,0.3-0.1,0.6-0.3,0.8c-0.2,0.2-0.5,0.3-0.8,0.3
			c-0.3,0-0.6-0.1-0.8-0.3c-0.2-0.2-0.3-0.5-0.3-0.8c0-0.3,0.1-0.6,0.3-0.8C153.5,32.2,153.8,32,154.1,32z M154.2,36.7l-2.3,8.1
			c-0.2,0.6-0.2,0.9-0.2,1c0,0.1,0,0.2,0.1,0.3c0.1,0.1,0.2,0.1,0.3,0.1c0.1,0,0.3-0.1,0.4-0.2c0.4-0.4,0.9-0.8,1.3-1.5l0.4,0.3
			c-0.5,0.8-1.1,1.5-1.9,2c-0.5,0.4-1,0.6-1.5,0.6c-0.3,0-0.6-0.1-0.8-0.3c-0.2-0.2-0.3-0.4-0.3-0.7s0.1-0.8,0.3-1.4l1.5-5.2
			c0.2-0.9,0.4-1.4,0.4-1.6c0-0.2-0.1-0.3-0.2-0.4c-0.1-0.1-0.3-0.2-0.5-0.2c-0.2,0-0.5,0-1.1,0.1v-0.5L154.2,36.7z"/>
		<path class="st3" d="M156.6,37.3l4-0.6l-1.7,5.6c1.4-2.3,2.6-3.9,3.7-4.9c0.6-0.5,1.1-0.8,1.5-0.8c0.3,0,0.5,0.1,0.6,0.2
			c0.1,0.2,0.2,0.4,0.2,0.7c0,0.5-0.1,1-0.4,1.5c-0.2,0.3-0.5,0.5-0.8,0.5c-0.2,0-0.3-0.1-0.5-0.2c-0.1-0.1-0.2-0.3-0.2-0.5
			c0-0.1,0-0.2-0.1-0.3c-0.1-0.1-0.1-0.1-0.2-0.1c-0.1,0-0.3,0-0.4,0.1c-0.2,0.1-0.5,0.4-0.9,0.9c-0.6,0.8-1.3,1.7-2.1,3
			c-0.3,0.5-0.6,1.1-0.8,1.7c-0.3,0.9-0.5,1.4-0.6,1.6l-0.4,1.5h-1.8L158,40c0.2-0.8,0.4-1.4,0.4-1.8c0-0.1-0.1-0.3-0.2-0.4
			c-0.2-0.1-0.4-0.2-0.6-0.2c-0.2,0-0.5,0-0.9,0.1L156.6,37.3z"/>
	</g>
</g>
</svg>
