<?xml version="1.0" encoding="utf-8"?>
<!-- Generator: Adobe Illustrator 26.3.1, SVG Export Plug-In . SVG Version: 6.00 Build 0)  -->
<svg version="1.1" id="Layer_1" xmlns="http://www.w3.org/2000/svg" xmlns:xlink="http://www.w3.org/1999/xlink" x="0px" y="0px"
	 viewBox="0 0 170 80" style="enable-background:new 0 0 170 80;" xml:space="preserve">
<style type="text/css">
	.st0{fill:#F9A91D;}
	.st1{clip-path:url(#SVGID_00000085222522698784360760000011160736107512693651_);}
	.st2{fill:#28458A;}
</style>
<g>
	<path class="st0" d="M12.6,63.4h100.2l-2,3.1H12.6V63.4z"/>
	<path class="st0" d="M131.1,62h-3.7l7.4-11.7c0,0,1.1-2.4-0.3-5l-10.4-17.2c0,0-0.9-1.6,0-3.1l3.1-4.6l12.2,19.9
		c0,0,3.1,4.2-0.3,9.3L131.1,62z"/>
	<g>
		<defs>
			<rect id="SVGID_1_" x="118.8" y="13.5" width="38.6" height="53.1"/>
		</defs>
		<clipPath id="SVGID_00000096031518264799847550000008085352871353713331_">
			<use xlink:href="#SVGID_1_"  style="overflow:visible;"/>
		</clipPath>
		<g style="clip-path:url(#SVGID_00000096031518264799847550000008085352871353713331_);">
			<path class="st0" d="M140,58.4l4.5-6.9c0,0,1.3-2.8,4.7-2.8h4.8l3.3,5.3c0,0-2.6-0.3-3.8,1.6l-4.9,7.4c0,0-1.6,3.5-5.9,3.5h-23.2
				l8.8-13.6c0,0,1.3-1.6-0.5-4.2l-7.9-12.6c0,0-1.9-1.9,0.1-5.1l2.3-3.5l10.9,17.7c0,0,1.9,2.4,0,5.3L125,63.4h17.3
				c0,0,2,0.4,3.6-2.1l4.3-6.6c0,0,1-2.2,3.1-3.1h-3.5c0,0-1.8,0.1-3.2,2.2l-3.8,5.9c0,0-1.4,2.5-4.5,2.5h-6.1l7.3-11.3
				c0,0,4-5.2,1.2-10l-12.1-20c0,0-0.9-1.7,0.1-3.3l2.6-4l13.8,22.2c0,0,2,3.3,2,5.9c0,2.6-1.6,5.5-2.5,7l-6.1,9.5
				c0,0-0.7,0.9-0.2,1.3C139.1,59.6,139.6,58.9,140,58.4"/>
		</g>
	</g>
	<g>
		<path class="st2" d="M63.1,48.8h2.1v8.5h5.2v1.8h-7.4V48.8z"/>
		<path class="st2" d="M72.1,59.1h2.1V48.8h-2.1V59.1z"/>
		<path class="st2" d="M46,59.1h2.1V48.8H46V59.1z"/>
		<path class="st2" d="M89.4,48.8h8.1v1.7h-5.9V53h5v1.9h-5v2.5h5.9v1.7h-8.1V48.8z"/>
		<path class="st2" d="M100.8,35h8.1v1.7h-5.9v2.5h5.1V41h-5.1v2.5h5.9v1.7h-8.1V35z"/>
		<path class="st2" d="M51.4,59.1V48.8h6.1c0,0,2.9,0.1,2.9,3c0,0,0.3,2.5-2.2,3.4l3.1,3.9h-2.6l-4.3-5.3h2.2c0,0,1.6,0,1.6-1.6
			c0-1.5-1.3-1.6-1.7-1.6h-3v8.6H51.4z"/>
		<path class="st2" d="M89,45.2V35h6.1c0,0,2.9,0,2.9,3c0,0,0.3,2.4-2.2,3.4l3.1,3.8h-2.6l-4.3-5.3h2.2c0,0,1.6,0,1.6-1.6
			c0-1.5-1.3-1.6-1.7-1.6h-3v8.6H89z"/>
		<path class="st2" d="M46.2,43.4h2.9v-4.7h2.1v6.5h-5.4c-0.8,0-4.7-0.9-4.7-5c0-4.1,3.5-5.3,4.9-5.3h5.3v1.8h-4.8
			c0,0-3.2,0-3.2,3.4C43.2,42.8,45.8,43.4,46.2,43.4"/>
		<path class="st2" d="M77,48.8h2.2v1.6l1.4-1.6h2.6c0,0,3.5-0.2,3.5,3.5v6.8h-2.2V52c0,0-0.1-1.4-1.5-1.4h-3.7v8.5H77V48.8z"/>
		<path class="st2" d="M29.5,35h2.1v1.6L33,35h2.6c0,0,3.5-0.2,3.5,3.5v6.7h-2.2v-7c0,0-0.1-1.4-1.6-1.4h-3.7v8.5h-2.1V35z"/>
		<path class="st2" d="M24.4,45.2h2.1V35h-2.1V45.2z"/>
		<path class="st2" d="M99.8,59.1v-1.7h6c0,0,1.2,0.2,1.2-1.2c0-1.4-0.9-1.3-1.2-1.3h-3.4c0,0-2.7,0.2-2.7-2.9
			c0-3.1,2.6-3.1,2.6-3.1h6.5v1.8h-5.7c0,0-1.3,0-1.3,1.2c0,1.2,0.8,1.4,1.6,1.4h3.1c0,0,2.6-0.3,2.6,2.8c0,3.1-2.7,3.1-2.7,3.1
			H99.8z"/>
		<path class="st2" d="M12.8,45.2v-1.7h6c0,0,1.2,0.2,1.2-1.2c0-1.4-0.9-1.3-1.2-1.3h-3.4c0,0-2.7,0.2-2.7-2.9
			c0-3.1,2.6-3.1,2.6-3.1h6.5v1.8h-5.7c0,0-1.3,0-1.3,1.2c0,1.2,0.9,1.4,1.6,1.4h3.1c0,0,2.6-0.3,2.6,2.8c0,3.1-2.7,3.1-2.7,3.1
			H12.8z"/>
		<path class="st2" d="M81.7,43.5c-1.9,0-3.5-1.6-3.5-3.5c0-1.9,1.6-3.5,3.5-3.5c2,0,3.6,1.6,3.6,3.5C85.3,41.9,83.7,43.5,81.7,43.5
			 M81.7,34.3c-3.1,0-5.6,2.5-5.6,5.6c0,3.1,2.5,5.6,5.6,5.6c3.1,0,5.6-2.5,5.6-5.6C87.3,36.8,84.8,34.3,81.7,34.3"/>
		<path class="st2" d="M56.8,40.8l1.7-4.2l1.7,4.2L56.8,40.8z M59.6,35h-2.3l-4.9,10.3h2.4l1.3-3h4.7l1.3,3h2.4"/>
		<path class="st2" d="M36.7,54.6l1.7-4.2l1.7,4.2L36.7,54.6z M39.6,48.8h-2.3l-4.9,10.3h2.4l1.3-3h4.7l1.3,3h2.4"/>
		<path class="st2" d="M71.5,40.1h-3.4v-3.2h3.4c0.8,0,1.3,0.9,1.3,1.6C72.8,39.3,72.3,40.1,71.5,40.1 M71.6,35h-5.7v10.3h2.2v-5
			l1.3,1.7h2.2c2,0,3.3-1.6,3.3-3.5C74.9,36.6,73.5,35,71.6,35"/>
	</g>
</g>
</svg>
