<?xml version="1.0" encoding="utf-8"?>
<!-- Generator: Adobe Illustrator 26.3.1, SVG Export Plug-In . SVG Version: 6.00 Build 0)  -->
<svg version="1.1" id="Layer_1" xmlns="http://www.w3.org/2000/svg" xmlns:xlink="http://www.w3.org/1999/xlink" x="0px" y="0px"
	 viewBox="0 0 170 80" style="enable-background:new 0 0 170 80;" xml:space="preserve">
<style type="text/css">
	.st0{fill-rule:evenodd;clip-rule:evenodd;fill:#BB931F;}
	.st1{fill-rule:evenodd;clip-rule:evenodd;fill:#2F3579;}
	.st2{clip-path:url(#SVGID_00000049926351599166600380000006012621456431452549_);}
</style>
<g>
	<g>
		<path class="st0" d="M62.1,50.6C62.1,50.6,62.1,50.6,62.1,50.6C62.1,50.5,62.1,50.5,62.1,50.6c-0.1-0.1-0.1-0.1-0.1,0
			c-3.9,6.8-11.1,11.3-19.5,11.3c-12.4,0-22.4-10-22.4-22.4c0-4.1,1.1-7.9,3-11.2h0c0,0,0,0,0,0c0,0,0-0.1-0.1-0.1c0,0,0,0,0,0h0
			c-2.5,3.6-3.9,8-3.9,12.7c0,12.5,10.1,22.5,22.6,22.5C50.7,63.5,58.5,58.3,62.1,50.6C62.1,50.6,62.1,50.6,62.1,50.6"/>
		<path class="st0" d="M42.5,43.8l0.6-0.4l0.6-3.9h-0.4l0.5-3.9h-0.4l0.5-3.9h-0.5l0.5-3.9c1.5,2,2.5,6,2.8,9
			c1.3-2.4,0.8-7.7-0.5-10c2.4,1.3,5,4.9,6.5,8.5c0.8-3.4-1.8-8.3-4.6-10.4c2.7,0.5,6.3,2.6,9.7,6.7c-1.1-5.4-6.5-8.7-9.7-9.4
			c3.5-0.4,6.9,0.8,10,2.3c-3.4-3.9-8.4-5.3-11.8-4.9c0.6-0.6,1.1-0.9,2-1.2c-1.4-0.7-3.6-0.3-4.5,0.7c0,0-0.2-1.8-1.2-2.5V43.8z"/>
		<path class="st0" d="M42.5,43.8l-0.6-0.4l-0.6-3.9h0.4l-0.5-3.9h0.4l-0.5-3.9h0.5l-0.5-3.9c-1.5,2-2.5,6-2.8,9
			c-1.3-2.4-0.9-7.7,0.5-10c-2.4,1.3-5,4.9-6.5,8.5c-0.8-3.4,1.8-8.3,4.6-10.4c-2.7,0.5-6.3,2.6-9.7,6.7c1.1-5.4,6.5-8.7,9.7-9.4
			c-3.5-0.4-6.9,0.8-10,2.3c3.4-3.9,8.4-5.3,11.8-4.9c-0.6-0.6-1.1-0.9-2-1.2c1.4-0.7,3.6-0.3,4.5,0.7c0,0,0.2-1.8,1.2-2.5
			L42.5,43.8z"/>
		<path class="st0" d="M43.1,43.4l-0.6,0.4l-0.6-0.4l-1.8,0.9v0.1h4.8v-0.1L43.1,43.4z"/>
		<path class="st0" d="M35.6,52.6c2.3-1.5,5-3.5,8-5.3c6.1-3.6,14.3-7.8,18.6-3.4c-7.3-2.9-20,6.7-25.4,9.9
			C36.6,53.6,35.9,52.9,35.6,52.6"/>
		<path class="st0" d="M40.2,55.2c0-0.3-0.3-0.6-0.6-0.6c-0.3,0-0.6,0.2-0.6,0.6v0.1c-0.5-0.4-1-1-2.3-2.4C34,50,33,50.4,32.8,50.5
			c-0.2,0.1-0.4,0.3-0.4,0.5c0,0.3,0.2,0.6,0.6,0.6c0.3,0,0.6-0.3,0.6-0.6c0,0,0-0.1,0-0.1c0.6,0.4,1.2,0.9,2.7,2.4
			c2.4,2.5,2.9,2.4,3.3,2.4C39.9,55.8,40.2,55.5,40.2,55.2"/>
		<path class="st0" d="M29.5,54.7c0.1-0.1,0.3,0,0.5,0c1.1,0.4,2.9-0.4,5.1-1.8l1.1,1.2c-4.2,2.4-5.8,1.9-6.6,1
			C29.5,55,29.5,54.8,29.5,54.7"/>
		<path class="st0" d="M49.4,52.6c-2.3-1.5-5-3.5-8-5.3c-6-3.6-14.3-7.8-18.6-3.4c7.3-2.9,20,6.7,25.4,9.9
			C48.4,53.6,49.1,52.9,49.4,52.6"/>
		<path class="st0" d="M44.9,55.2c0-0.3,0.3-0.6,0.6-0.6c0.3,0,0.6,0.3,0.6,0.6v0.1c0.5-0.4,1-1.1,2.3-2.4c2.7-2.8,3.6-2.4,3.8-2.3
			c0.2,0.1,0.4,0.3,0.4,0.5c0,0.3-0.2,0.6-0.6,0.6c-0.3,0-0.6-0.3-0.6-0.6c0,0,0-0.1,0-0.1c-0.6,0.4-1.2,0.9-2.7,2.4
			c-2.4,2.5-2.9,2.4-3.3,2.4C45.1,55.8,44.9,55.5,44.9,55.2"/>
		<path class="st0" d="M55.5,54.7c-0.1-0.1-0.3,0-0.5,0c-1.1,0.4-2.9-0.4-5.1-1.8l-1.1,1.2c4.2,2.3,5.8,1.9,6.6,1
			C55.5,55,55.6,54.8,55.5,54.7"/>
		<path class="st1" d="M104.2,62.2c-2.2,0-3.8-0.5-4.9-1.4c-0.9-0.8-1.3-1.8-1.3-3.7v-7.9h2.4v8.3c0,1.2,0.2,1.9,0.8,2.5
			c0.6,0.7,1.7,1,3,1c1.3,0,2.4-0.4,3-1c0.6-0.6,0.8-1.3,0.8-2.5v-8.3h2.4v7.9c0,1.9-0.4,2.8-1.3,3.7
			C108.1,61.7,106.4,62.2,104.2,62.2"/>
		<path class="st1" d="M80.3,47.4c-0.7-0.4-2.6-1-4.8-1c-3.4,0-5.9,1.6-5.9,4.1c0,5.2,9.1,3.7,9.4,7.5c0.1,1.3-0.8,2.9-3.5,2.9
			c-3.3,0-5.6-2.1-5.6-2.1L69.2,61c2.1,0.8,4,1.2,5.6,1.2c2.4,0,4.1-0.6,4.9-1.3c0.9-0.7,1.7-1.9,1.7-3.4c0-4.5-5.8-4.6-8.3-6.1
			c-0.7-0.4-1.1-0.8-1.1-1.8c0.1-1.6,1.5-2.2,3.4-2.2c2.3,0,4.2,1.4,4.2,1.4L80.3,47.4z"/>
		<path class="st1" d="M119.8,60.8c-0.5,0-1.5,0-2-0.4c-0.4-0.3-0.4-0.8-0.4-1.6V50c3.7-0.3,7.7,0.8,7.7,5.6
			C125.2,59.4,122.7,60.8,119.8,60.8z M119.3,48.9c-1.2,0-4.1,0.2-6.2,0.8l0.2,0.9c0.6-0.2,1.1-0.3,1.7-0.4v11.7
			c3.4,0.1,4.8,0.1,6.6-0.1c3.1-0.4,6-2.7,6-6.3C127.7,50.5,123.2,48.8,119.3,48.9"/>
		<path class="st1" d="M131,61.9h2.4V49.2H131V61.9z"/>
		<path class="st1" d="M86.7,56.4c1.2,0,3.5,0.2,5.1,1.5l-2.9-6L86.7,56.4z M96.5,61.9h-2.7c-1-1.9-3.5-4.7-7.6-4.5L84,61.9h-1.7
			l6.7-13h0.9L96.5,61.9z"/>
	</g>
	<g>
		<defs>
			<rect id="SVGID_1_" x="136" y="48.4" width="14.9" height="14.3"/>
		</defs>
		<clipPath id="SVGID_00000143580187093518377030000000253311799158547377_">
			<use xlink:href="#SVGID_1_"  style="overflow:visible;"/>
		</clipPath>
		<g style="clip-path:url(#SVGID_00000143580187093518377030000000253311799158547377_);">
			<path class="st1" d="M141.1,56.4c1.2,0,3.5,0.2,5.1,1.5l-2.9-6L141.1,56.4z M150.9,61.9h-2.7c-1-1.9-3.5-4.7-7.6-4.5l-2.2,4.5
				h-1.7l6.7-13h0.9L150.9,61.9z"/>
		</g>
	</g>
	<path class="st1" d="M149.1,18.4h-2.2v15.1h2.2V18.4z"/>
	<path class="st1" d="M89.2,24V26h2.7c2.1,0,4.2,0.1,4.2,2.8c0,2.4-1.6,2.9-4.4,2.9h-5.4v1.9h5.8c3.5,0,5.2-1.2,5.2-4.8
		c0-3.6-2-4.7-4.9-4.7H89.2z"/>
	<path class="st1" d="M75.7,31.6h-4.6v-0.3c0-4.3,3-7,4.6-7.5V31.6z M81.4,23.2v8.4c0,0.6-0.1,1.1-0.3,1.5c-0.2,0.4-0.6,0.8-1.4,0.8
		c-0.8,0-1.2-0.4-1.5-0.8c-0.2-0.4-0.3-0.9-0.3-1.5v-9.4c-5.4,0.6-8.8,5.2-8.8,11.3H76c0.1,0.2,0.2,0.5,0.4,0.7
		c0.7,1,1.9,1.5,3.3,1.5c1.4,0,2.6-0.5,3.3-1.5c0.6-0.9,0.6-1.8,0.6-2.8v-8.2L81.4,23.2z"/>
	<path class="st1" d="M82.7,38.5L81.4,37l-1.3,1.5l1.3,1.5L82.7,38.5z"/>
	<path class="st1" d="M79.3,38.5L78,37l-1.3,1.5L78,40L79.3,38.5z"/>
	<path class="st1" d="M78,19.7l-1.3-1.5l-1.3,1.5l1.3,1.5L78,19.7z"/>
	<path class="st1" d="M74.6,19.7l-1.3-1.5l-1.3,1.5l1.3,1.5L74.6,19.7z"/>
	<path class="st1" d="M106.2,31.6h-4.6v-0.4c0-4.3,3.1-6.9,4.6-7.4V31.6z M141.4,18.4v13.3c0,0.6-0.1,1.1-0.2,1.5
		c-0.2,0.4-0.7,0.8-1.5,0.8c-0.8,0-1.2-0.4-1.5-0.8c-0.2-0.4-0.2-0.9-0.2-1.5v-7.6h-2.3v7.6h-2.8v-7.6h-2.2v7.6h-2.8v-7.6h-2.2v7.6
		h-8.7c-2.5-0.2-3.1-1.7-3.1-3c0-1.9,1.5-2.7,3.2-2.7h3.7v-1.9h-3.3c-2.7,0-4.9,1.2-4.9,4.2c0,2,0.8,2.9,1.5,3.3h-5.7v-9.4
		c-4.9,0.7-8.8,4.7-8.8,11.3h6.6v2.3c0,0.9,0.1,2.6-1.1,2.9v1c0.8-0.1,2.2-0.7,2.8-1.8c0.5-0.9,0.6-1.6,0.6-3.4v-1H136
		c0.1,0.2,0.2,0.5,0.4,0.7c0.7,1,1.9,1.5,3.3,1.5c1.4,0,2.6-0.5,3.3-1.5c0.6-0.9,0.6-1.8,0.6-2.8v-13H141.4z"/>
</g>
</svg>
