<?xml version="1.0" encoding="utf-8"?>
<!-- Generator: Adobe Illustrator 26.3.1, SVG Export Plug-In . SVG Version: 6.00 Build 0)  -->
<svg version="1.1" id="Layer_1" xmlns="http://www.w3.org/2000/svg" xmlns:xlink="http://www.w3.org/1999/xlink" x="0px" y="0px"
	 viewBox="0 0 170 80" style="enable-background:new 0 0 170 80;" xml:space="preserve">
<style type="text/css">
	.st0{clip-path:url(#SVGID_00000109004062663071411410000017352946652279469973_);}
	.st1{fill-rule:evenodd;clip-rule:evenodd;fill:#FBC708;}
	.st2{fill-rule:evenodd;clip-rule:evenodd;fill:#37286C;}
	.st3{fill-rule:evenodd;clip-rule:evenodd;fill:#C40B8C;}
</style>
<g>
	<g>
		<defs>
			<rect id="SVGID_1_" x="25.6" y="22.5" width="37.8" height="34.9"/>
		</defs>
		<clipPath id="SVGID_00000031174710902614678310000016907577676241493659_">
			<use xlink:href="#SVGID_1_"  style="overflow:visible;"/>
		</clipPath>
		<g style="clip-path:url(#SVGID_00000031174710902614678310000016907577676241493659_);">
			<path class="st1" d="M62.1,44.4c-0.3-0.7-0.7-1.4-1.2-2c-0.5-0.6-1-1.1-1.6-1.5c-0.3-0.2-0.6-0.4-1-0.6c-0.1-0.1-0.3-0.2-0.5-0.3
				c0.1,0,0.3-0.1,0.5-0.2c0.3-0.1,0.7-0.3,1-0.6c0.6-0.4,1.1-0.9,1.6-1.5c0.5-0.6,0.9-1.3,1.2-2s0.6-1.5,0.7-2.3
				c0-0.6,0.1-1.2,0.1-1.7c0-0.2,0-0.5,0-0.8c-0.1-0.7-0.2-1.4-0.4-2c-0.2-0.6-0.5-1.3-0.9-1.9c-0.4-0.6-0.8-1.2-1.4-1.7
				c-0.5-0.5-1.1-1-1.8-1.4c-0.7-0.4-1.4-0.7-2.1-0.9c-0.8-0.2-1.6-0.4-2.4-0.4c-0.8,0-1.6,0.1-2.4,0.2c-0.7,0.2-1.5,0.5-2.1,0.8
				c-0.7,0.3-1.3,0.8-1.8,1.3c-0.5,0.5-0.9,1.1-1.3,1.7c-0.3,0.6-0.6,1.3-0.7,2c-0.1,0.4-0.1,0.7-0.1,1.1c0,0.3,0,0.6,0.1,0.9
				c-0.7-0.4-1.4-0.7-2-0.9c-0.8-0.3-1.8-0.4-2.8-0.5c-0.9,0-1.8,0.1-2.6,0.3c-0.8,0.1-1.6,0.4-2.3,0.8c-0.6,0.3-1.3,0.8-1.9,1.3
				c-0.4,0.3-0.8,0.7-1.2,1.1c0,0-0.6,0.6-0.9,1c-0.3,0.3-0.7,0.8-1,1.2l-0.8,1c-0.2,0.3-0.4,0.5-0.6,0.8c-0.3,0.4-0.6,0.7-1,1.1
				c-0.6,0.6-1.2,1.1-1.9,1.6c-0.1,0.1-0.3,0.2-0.4,0.3c-0.1,0-0.2,0.1-0.3,0.1c-0.1,0.1-0.2,0.1-0.2,0.2c0,0.1,0.1,0.2,0.2,0.2
				c0.1,0.1,0.2,0.1,0.3,0.1c0.1,0.1,0.3,0.2,0.4,0.3c0.7,0.4,1.3,1,1.9,1.6c0.3,0.3,0.7,0.7,1,1.1c0.2,0.2,0.4,0.5,0.6,0.8l0.8,1
				c0.3,0.4,0.7,0.9,1,1.2c0.3,0.4,0.9,0.9,0.9,0.9c0.4,0.4,0.8,0.8,1.2,1.1c0.6,0.5,1.3,1,1.9,1.3c0.7,0.4,1.5,0.7,2.3,0.8
				c0.8,0.2,1.7,0.3,2.6,0.3c1,0,1.9-0.2,2.8-0.5c0.7-0.2,1.4-0.5,2-0.9c-0.1,0.3-0.1,0.6-0.1,0.9c0,0.4,0,0.7,0.1,1.1
				c0.1,0.7,0.3,1.4,0.7,2c0.3,0.6,0.8,1.2,1.3,1.7c0.5,0.5,1.1,1,1.8,1.3c0.6,0.3,1.4,0.6,2.1,0.8c0.8,0.1,1.6,0.2,2.4,0.2
				c0.9,0,1.7-0.1,2.4-0.4c0.8-0.2,1.5-0.5,2.1-0.9c0.6-0.4,1.2-0.9,1.8-1.4c0.5-0.5,1-1.1,1.4-1.7c0.4-0.6,0.7-1.3,0.9-1.9
				c0.2-0.7,0.4-1.4,0.4-2.1c0-0.2,0-0.5,0-0.7c0-0.5-0.1-1.1-0.1-1.7C62.6,45.9,62.4,45.1,62.1,44.4"/>
		</g>
	</g>
	<g>
		<path class="st2" d="M60,45.1c-0.3-0.6-0.6-1.2-1.1-1.8c-0.4-0.5-1-1-1.6-1.3c-0.6-0.4-1.3-0.7-1.9-0.8c-0.7-0.2-1.4-0.3-2.1-0.3
			c-0.8,0-1.5,0.1-2.3,0.3c-0.6,0.1-1.2,0.3-1.8,0.6c-0.5,0.2-1,0.6-1.5,0.9c-0.4,0.3-0.9,0.6-1.3,1c-0.4,0.3-0.8,0.6-1.3,0.9
			c-0.4,0.2-0.8,0.5-1.3,0.7c-0.5,0.1-1.1,0.2-1.6,0.2c-0.7,0-1.5-0.1-2.1-0.4c-0.7-0.3-1.3-0.7-1.8-1.2c-0.5-0.5-0.9-1.1-1.2-1.8
			c-0.3-0.6-0.4-1.4-0.4-2.1c0-0.7,0.1-1.4,0.4-2c0.2-0.7,0.6-1.3,1.2-1.8c0.5-0.5,1.1-0.9,1.8-1.2c0.7-0.3,1.4-0.4,2.1-0.4
			c0.5,0,1.1,0.1,1.6,0.2c0.5,0.2,0.9,0.4,1.3,0.7c0.4,0.3,0.8,0.6,1.3,0.9c0.4,0.3,0.8,0.6,1.3,1c0.4,0.3,0.9,0.6,1.5,0.9
			c0.6,0.3,1.2,0.5,1.8,0.6c0.8,0.2,1.5,0.3,2.3,0.3c0.7,0,1.5-0.1,2.1-0.3c0.7-0.2,1.3-0.5,1.9-0.9c0.6-0.3,1.1-0.8,1.6-1.3
			c0.5-0.5,0.8-1.1,1.1-1.8c0.3-0.7,0.5-1.4,0.6-2.1c0.1-0.8,0.1-1.6,0-2.3c-0.1-0.7-0.4-1.5-0.7-2.1c-0.3-0.6-0.8-1.2-1.3-1.7
			c-0.5-0.5-1.1-0.9-1.7-1.3c-0.6-0.3-1.3-0.5-2-0.7c-0.7-0.1-1.5-0.2-2.2-0.1c-0.7,0.1-1.4,0.3-2,0.6C50,25.6,49.4,26,49,26.5
			c-0.5,0.5-0.8,1.1-1.1,1.7c-0.2,0.6-0.4,1.3-0.5,2c0,0.7,0.1,1.4,0.3,2.1c0,0.1,0,0.2,0.1,0.3c0,0,0,0.1,0,0.1c0,0,0,0.1,0.1,0.1
			c0,0,0,0.1,0.1,0.1c0,0,0-0.1,0-0.1c0-0.1,0-0.2,0-0.3c0-0.4,0.1-0.7,0.3-1.1c0.3-0.6,0.7-1.2,1.3-1.6c0.6-0.3,1.3-0.5,1.9-0.6
			c0.7-0.1,1.5,0,2.1,0.4c0.6,0.3,1.1,0.8,1.4,1.4c0.3,0.6,0.5,1.3,0.5,2s-0.2,1.4-0.6,2c-0.3,0.6-0.9,1.1-1.5,1.4
			c-0.6,0.3-1.4,0.4-2,0.3c-0.5,0-1-0.2-1.4-0.4c-0.4-0.2-0.9-0.5-1.3-0.8c-0.4-0.3-0.9-0.7-1.3-1c-0.4-0.4-0.9-0.8-1.3-1.1
			c-0.5-0.4-1-0.7-1.5-1c-0.6-0.3-1.2-0.6-1.8-0.8c-0.7-0.2-1.4-0.3-2.1-0.3s-1.5,0-2.2,0.2c-0.6,0.1-1.2,0.3-1.8,0.6
			c-0.5,0.3-1,0.6-1.5,1c-0.4,0.3-0.8,0.8-1.2,1.2c-0.4,0.4-0.7,0.9-1.1,1.3c-0.4,0.4-0.7,0.9-1.1,1.4c-0.4,0.4-0.7,0.8-1.2,1.3
			c-0.4,0.4-0.8,0.7-1.3,1.1c-0.1,0.1-0.2,0.1-0.3,0.1c0,0-0.1,0.1-0.2,0.1c-0.1,0-0.1,0.1-0.1,0.1c0,0.1,0.1,0.1,0.1,0.2
			c0,0,0.1,0,0.2,0.1c0.1,0,0.2,0.1,0.3,0.2c0.5,0.3,0.9,0.6,1.3,1c0.4,0.4,0.8,0.8,1.2,1.3c0.3,0.4,0.7,0.9,1.1,1.4
			c0.3,0.4,0.7,0.9,1.1,1.3c0.4,0.4,0.8,0.9,1.2,1.2c0.5,0.4,1,0.7,1.5,1c0.6,0.3,1.2,0.5,1.8,0.6c0.7,0.2,1.5,0.2,2.2,0.2
			s1.5-0.1,2.1-0.3c0.6-0.2,1.2-0.4,1.8-0.7c0.5-0.3,1-0.6,1.5-1c0.4-0.3,0.9-0.7,1.3-1.1c0.4-0.4,0.8-0.7,1.3-1.1
			c0.4-0.3,0.8-0.6,1.3-0.8c0.4-0.2,0.9-0.3,1.4-0.4c0.7-0.1,1.4,0.1,2,0.3c0.6,0.3,1.2,0.8,1.5,1.4c0.4,0.6,0.6,1.3,0.6,2
			c0,0.7-0.1,1.4-0.5,2c-0.3,0.6-0.8,1.1-1.4,1.4c-0.6,0.3-1.4,0.4-2.1,0.4c-0.7,0-1.4-0.2-1.9-0.6c-0.5-0.4-1-0.9-1.3-1.6
			c-0.1-0.3-0.2-0.7-0.3-1.1c0-0.1,0-0.2,0-0.3c0-0.1,0-0.1,0-0.1c-0.1,0-0.1,0-0.1,0c-0.1,0.1-0.1,0.1-0.1,0.1c0,0,0,0.1,0,0.1
			c-0.1,0.1-0.1,0.2-0.1,0.3c-0.2,0.7-0.3,1.4-0.3,2.1c0.1,0.7,0.2,1.4,0.5,2c0.3,0.6,0.6,1.2,1.1,1.7c0.4,0.5,1,0.9,1.6,1.2
			c0.6,0.3,1.4,0.5,2,0.6c0.7,0.1,1.5,0,2.2-0.1c0.7-0.1,1.4-0.4,2-0.7c0.6-0.3,1.2-0.8,1.7-1.3c0.5-0.5,0.9-1,1.3-1.7
			s0.6-1.4,0.7-2.1c0.1-0.8,0.1-1.6,0-2.3C60.5,46.5,60.3,45.8,60,45.1"/>
		<path class="st3" d="M49.6,40L49.6,40c-0.9-0.2-1.7-0.7-2.4-1.2c-0.8-0.6-1.5-1.2-2.2-1.7c-0.8-0.5-1.7-1-2.6-1
			c-0.7-0.1-1.5,0.1-2.1,0.5c-0.6,0.3-1.1,0.8-1.4,1.4c-0.4,0.6-0.5,1.4-0.5,2V40c0,0.7,0.1,1.4,0.5,2c0.3,0.6,0.8,1.1,1.4,1.4
			c0.6,0.3,1.4,0.5,2.1,0.5c0.9-0.1,1.8-0.5,2.6-1c0.7-0.5,1.5-1.1,2.2-1.7C47.9,40.8,48.7,40.3,49.6,40C49.6,40.1,49.6,40,49.6,40"
			/>
		<path class="st2" d="M128.2,50.7h8.6c-1.7-1-2.2-2-3.3-4.5c-5.9-13.7-8-18.4-8-18.4s-1.3,2.2-5.5,3c0.3,0.2,0.6,0.7,0.6,1.3
			c0,0.4-0.1,0.9-0.3,1.5l-5.6,12.6c-1.2,2.6-1.9,3.8-3.6,4.3c-1.3-0.7-1.6-1.5-1.6-4.1v-13c0-2.7,0.2-3.4,1.7-4.2h-7.6
			c1.4,0.8,1.7,1.5,1.7,4.2v4.4H94.5v-4.4c0-2.7,0.3-3.4,1.7-4.2h-7.7c1.5,0.8,1.7,1.5,1.7,4.2v13c0,2.7-0.2,3.4-1.7,4.2h7.7
			c-1.4-0.8-1.7-1.5-1.7-4.2V41h10.7v5.5c0,2.7-0.3,3.4-1.7,4.2h15.1c-0.7-0.4-1.3-1.1-1.3-1.9c0-0.6,0.2-1,0.7-2l1.2-2.9h8.5
			l1.3,3.3c0.4,0.8,0.5,1.2,0.5,1.8C129.5,49.7,128.8,50.3,128.2,50.7z M120.3,41.3l3.3-7.7l3.1,7.7H120.3z"/>
		<path class="st2" d="M142.8,46.5v-13c0-2.7,0.2-3.4,1.6-4.2h-7.6c1.4,0.8,1.7,1.5,1.7,4.2v13c0,2.7-0.3,3.4-1.7,4.2h7.6
			C143,49.9,142.8,49.2,142.8,46.5"/>
		<path class="st2" d="M87.8,27.8c-0.8,0.7-2,1.5-5.4,1.5h-9.6c-1.9,0-2.7-1.1-3-1.8c-0.7,1.7-2.6,4-3.7,4.9h9v1.1v12.7
			c0,2.8-0.4,3.6-1.7,4.5H81c-1.4-0.8-1.6-1.5-1.6-4.2v-13c0-0.4,0-0.6,0-1.1h1.3c1.9,0,2.9-0.2,3.7-0.5
			C86.4,31.2,87.7,29.7,87.8,27.8"/>
	</g>
</g>
</svg>
