<?xml version="1.0" encoding="utf-8"?>
<!-- Generator: Adobe Illustrator 26.3.1, SVG Export Plug-In . SVG Version: 6.00 Build 0)  -->
<svg version="1.1" id="Layer_1" xmlns="http://www.w3.org/2000/svg" xmlns:xlink="http://www.w3.org/1999/xlink" x="0px" y="0px"
	 viewBox="0 0 170 80" style="enable-background:new 0 0 170 80;" xml:space="preserve">
<style type="text/css">
	.st0{clip-path:url(#SVGID_00000021080901030507200080000001456165674526565302_);}
	.st1{fill:#FFFFFF;}
	.st2{fill:#E41F25;}
	.st3{fill:#26489C;}
</style>
<g>
	<g>
		<g>
			<defs>
				<rect id="SVGID_1_" x="68.4" y="12.6" width="36.2" height="35.8"/>
			</defs>
			<clipPath id="SVGID_00000174597339096078706180000009555674122988759431_">
				<use xlink:href="#SVGID_1_"  style="overflow:visible;"/>
			</clipPath>
			<g style="clip-path:url(#SVGID_00000174597339096078706180000009555674122988759431_);">
				<path class="st1" d="M68.8,30.5c0-9.9,8-17.9,17.9-17.9c9.9,0,17.9,8,17.9,17.9c0,9.9-8,17.9-17.9,17.9
					C76.8,48.4,68.8,40.4,68.8,30.5"/>
			</g>
		</g>
		<path class="st2" d="M70.5,30.5c0-8.9,7.2-16.1,16.1-16.1c8.9,0,16.1,7.2,16.1,16.1c0,8.9-7.2,16.1-16.1,16.1
			C77.8,46.6,70.5,39.4,70.5,30.5"/>
		<path class="st2" d="M102.4,30.5c0,8.7-7,15.7-15.7,15.7c-8.7,0-15.7-7-15.7-15.7c0-8.7,7-15.7,15.7-15.7
			C95.3,14.8,102.4,21.8,102.4,30.5"/>
		<path class="st1" d="M100,33.3L73,39c0,0,0,0-0.1,0c-0.2-0.3-0.3-0.6-0.5-0.9c0,0,0.1,0,0.1,0c4.4-0.8,8.4-2.7,10.1-7.7
			c1.8-5.3,0.6-11.1-3.2-14.3c0,0,0,0-0.1-0.1c0.4-0.2,0.7-0.4,1.1-0.5c0,0,0.1,0.1,0.1,0.1C88.1,18.7,92,23,92,27.2
			c0,2.5-1.3,4.3-3,5.7h11C100.3,32.8,100.4,33.2,100,33.3"/>
	</g>
	<g>
		<path class="st3" d="M97.9,67.2l-4.4-11.7h-3.8l-4.4,11.7h3.4l0.6-1.7h4.6l0.6,1.7H97.9z M93,62.9h-3l1.5-4.4L93,62.9z"/>
		<path class="st3" d="M99.1,55.5h3v11.7h-3V55.5z"/>
		<path class="st3" d="M114.6,67.2l-2.4-4.3c1.1-0.4,2.3-1.5,2.3-3.5c0-2.2-1.5-3.9-4.1-3.9h-5.9v11.7h3v-3.9h1.6l2,3.9H114.6z
			 M110,60.6h-2.4v-2.5h2.4c0.8,0,1.5,0.4,1.5,1.3C111.5,60.2,110.8,60.6,110,60.6"/>
		<path class="st3" d="M124.2,67.2v-2.6h-4.7v-9.1h-3v11.7H124.2z"/>
		<path class="st3" d="M126.2,55.5h3v11.7h-3V55.5z"/>
		<path class="st3" d="M142.6,67.2V55.5h-3v6.5l-4.8-6.5h-3.1v11.7h3v-6.8l5,6.8H142.6z"/>
		<path class="st3" d="M153.6,67.2v-2.6h-5.6v-2h5.5v-2.6h-5.5v-1.8h5.6v-2.6H145v11.7H153.6z"/>
		<path class="st3" d="M160.1,67.4c3.1,0,4.9-1.6,4.9-3.9c0-4.4-6.6-3.3-6.6-4.7c0-0.5,0.4-0.8,1.3-0.8c1.2,0,2.5,0.4,3.4,1.2
			l1.7-2.3c-1.3-1.1-2.9-1.6-4.8-1.6c-3,0-4.7,1.8-4.7,3.7c0,4.5,6.6,3.2,6.6,4.8c0,0.6-0.6,0.9-1.7,0.9c-1.6,0-2.9-0.7-3.8-1.5
			l-1.6,2.4C156.1,66.7,157.7,67.4,160.1,67.4"/>
		<path class="st3" d="M11.3,67.2v-9.1h3.3v-2.6H5v2.6h3.3v9.1H11.3z"/>
		<path class="st3" d="M21.9,67.4c3.8,0,5.5-2.1,5.5-5v-7h-3.1v6.9c0,1.4-0.8,2.4-2.5,2.4c-1.6,0-2.5-1-2.5-2.4v-6.9h-3.1v7
			C16.4,65.3,18.2,67.4,21.9,67.4"/>
		<path class="st3" d="M40,67.2l-2.4-4.3c1.1-0.4,2.3-1.5,2.3-3.5c0-2.2-1.5-3.9-4.1-3.9h-5.9v11.7h3v-3.9h1.6l2,3.9H40z M35.4,60.6
			H33v-2.5h2.4c0.8,0,1.5,0.4,1.5,1.3C36.8,60.2,36.2,60.6,35.4,60.6"/>
		<path class="st3" d="M52.5,67.2L47.7,61l4.6-5.5h-3.7L45,60.3v-4.8h-3v11.7h3v-3.4l0.8-1l3.1,4.4H52.5z"/>
		<path class="st3" d="M53.8,55.5h3v11.7h-3V55.5z"/>
		<path class="st3" d="M63.7,67.4c3.1,0,4.9-1.6,4.9-3.9c0-4.4-6.6-3.3-6.6-4.7c0-0.5,0.4-0.8,1.3-0.8c1.2,0,2.4,0.4,3.4,1.2
			l1.7-2.3c-1.3-1.1-2.9-1.6-4.8-1.6c-3,0-4.7,1.8-4.7,3.7c0,4.5,6.6,3.2,6.6,4.8c0,0.6-0.6,0.9-1.7,0.9c-1.6,0-2.9-0.7-3.8-1.5
			l-1.6,2.4C59.6,66.7,61.3,67.4,63.7,67.4"/>
		<path class="st3" d="M81.2,67.2V55.5h-3v4.4h-4.9v-4.4h-3v11.7h3v-4.7h4.9v4.7H81.2z"/>
	</g>
</g>
</svg>
