<?xml version="1.0" encoding="utf-8"?>
<!-- Generator: Adobe Illustrator 26.3.1, SVG Export Plug-In . SVG Version: 6.00 Build 0)  -->
<svg version="1.1" id="Layer_1" xmlns="http://www.w3.org/2000/svg" xmlns:xlink="http://www.w3.org/1999/xlink" x="0px" y="0px"
	 viewBox="0 0 170 80" style="enable-background:new 0 0 170 80;" xml:space="preserve">
<style type="text/css">
	.st0{fill:#FFE900;}
	.st1{fill:#1D1D1B;}
</style>
<g>
	<path class="st0" d="M80.8,71.6c17.4,0,31.6-14.1,31.6-31.6c0-17.4-14.1-31.6-31.6-31.6C63.4,8.4,49.2,22.5,49.2,40
		S63.3,71.6,80.8,71.6"/>
	<g>
		<path class="st1" d="M110.8,38.4l3-0.8l2.4,9.8l4.6-1.1l-0.1-2.7l-1.3,0.3l-1.8-7.2l3.2-0.8l-0.8-3.6l-3.2,0.8l-1-4l-3.5,2.4
			l0.6,2.5l-3,0.8l0.8,3.6"/>
		<path class="st1" d="M110.3,35.1c-1.2-1.2-2.9-2-5.1-2c-4.8,0-7.1,3.8-7.1,7s2.3,7,7.1,7s7.1-3.8,7.1-7c0-1.4-0.4-2.8-1.2-4
			L110.3,35.1z M108.3,40.1c0,1.9-1.4,3.3-3.2,3.3c-1.7,0-3.2-1.4-3.2-3.3c0-1.9,1.4-3.3,3.2-3.3S108.3,38.2,108.3,40.1 M98,40.1
			c0-3.2-2.3-7-7.1-7c-4.8,0-7.1,3.8-7.1,7s2.3,7,7.1,7C95.7,47.1,98,43.3,98,40.1 M94.1,40.1c0,1.9-1.4,3.3-3.2,3.3
			c-1.7,0-3.2-1.4-3.2-3.3c0-1.9,1.4-3.3,3.2-3.3C92.6,36.8,94.1,38.2,94.1,40.1 M79.9,38.6h4c-0.7-3.2-3.5-5.5-7-5.5
			c-3.9,0-6.9,3.1-6.9,7s3.1,7,7,7c3.6,0,6.2-2.4,6.9-5.4h-4c-0.4,0.8-1.2,1.8-2.8,1.8c-1.9,0-3.1-1.4-3.1-3.3
			c0-0.9,0.3-1.8,0.9-2.4c0.6-0.6,1.4-1,2.3-0.9C78.6,36.7,79.4,37.7,79.9,38.6 M65.8,37.2h3.9c-0.3-3.5-3.3-4.1-5.1-4.1
			c-2.7,0-5.1,1.7-5.1,4.5c0,1.8,1.4,2.9,3.1,3.4c2.5,1,3.5,1.1,3.5,2c0,0.6-0.7,1-1.4,1c-0.2,0-1.3,0-1.5-1.2h-3.9
			c0.4,3.5,3.4,4.4,5.4,4.4c2.9,0,5.4-1.7,5.4-4.6c0-2.8-2.4-3.5-4.6-4.1c-1-0.3-2-0.7-2-1.3c0-0.4,0.3-0.9,1.1-0.9
			C65.7,36.2,65.8,36.9,65.8,37.2"/>
	</g>
</g>
</svg>
