<?xml version="1.0" encoding="utf-8"?>
<!-- Generator: Adobe Illustrator 26.3.1, SVG Export Plug-In . SVG Version: 6.00 Build 0)  -->
<svg version="1.1" id="Layer_1" xmlns="http://www.w3.org/2000/svg" xmlns:xlink="http://www.w3.org/1999/xlink" x="0px" y="0px"
	 viewBox="0 0 170 80" style="enable-background:new 0 0 170 80;" xml:space="preserve">
<style type="text/css">
	.st0{clip-path:url(#SVGID_00000021101782678472103820000011253397898663436190_);}
	.st1{fill:#CB951A;}
	.st2{fill-rule:evenodd;clip-rule:evenodd;fill:#1A699E;}
</style>
<g>
	<g>
		<defs>
			<rect id="SVGID_1_" x="66.4" y="18.3" width="37.2" height="21.7"/>
		</defs>
		<clipPath id="SVGID_00000034054553347567656400000002189682444890182808_">
			<use xlink:href="#SVGID_1_"  style="overflow:visible;"/>
		</clipPath>
		<g style="clip-path:url(#SVGID_00000034054553347567656400000002189682444890182808_);">
			<path class="st1" d="M84.5,38c-0.3,0.2-2.6,2.1-7.1,2.1c-3.8,0-7.9-1.9-9.1-1.9c-0.4,0-0.8,0.1-1.1,0.2c-0.5,0.2-0.9-0.1-0.8-0.4
				c0-0.3,0.5-0.9,0.8-1.3c0.4-0.5,1-1.1,1.6-1.5c1.8-1.2,3.5-1.3,4.2-1.1c0.1,0,0.4,0,0.9,0.5c1.2,1.2,3.4,2.7,5.1,3
				c0.2,0,1,0.1,1-0.1c0-0.1-0.2-0.2-0.3-0.2c-2.7-0.6-4.3-2-5.8-3.3c-1.2-1.1-2.2-2.5-2.9-3.8c-0.6-1.1-1.3-3.2-2.7-3.9
				c-0.3-0.2-0.3-0.7,0.3-0.9c0.5-0.1,3.3-0.4,6.6,1.4c1.3,0.7,1.7,1.5,1.8,1.7c0,0,0.1,0,0.1,0.4c0.2,4.8,2.3,6.4,3.3,7.1
				c0.4,0.3,0.9,0.5,1.1,0.3c0.1-0.1-0.1-0.2-0.2-0.3c-2.9-1.9-3.5-4.5-3.7-7.2c-0.2-2.7,1-5,1.7-6.9c0.1-0.3,0.5-1.5,0.2-2.5
				c-0.2-0.7,0-0.9,0.4-0.9c0.4-0.1,1,0.8,1.2,1c0.2,0.2,0.7,0.8,1.5,2.4c1.6,3.1,1.6,6.6,1.6,7c0,2.2-0.4,2.4-1.5,2.9
				c-0.9,0.3-1.4,1.1-1.4,1.8c0,0.7,0.5,1.2,1.5,1.6c0.1,0,0.2,0.1,0.2,0.1c0.4,0.1,0.8,0,0.8-0.1c0-0.1-0.4-0.2-0.4-0.2
				c-0.9-0.2-1.6-0.8-1.6-1.4c0-0.8,1.2-1.7,2.6-1.7h0.2c1.5,0,2.6,0.8,2.6,1.7c0,0.6-0.6,1.1-1.6,1.4c0,0-0.4,0.1-0.4,0.2
				c0,0.2,0.3,0.3,0.8,0.1c0.1,0,0.2,0,0.2-0.1c1-0.4,1.5-0.9,1.5-1.6c0-0.7-0.5-1.4-1.4-1.8c-1.1-0.5-1.5-0.7-1.5-2.9
				c0-0.4,0-3.8,1.6-7c0.8-1.6,1.3-2.2,1.5-2.4c0.2-0.3,0.8-1.1,1.2-1c0.4,0.1,0.6,0.2,0.4,0.9c-0.3,1,0.1,2.3,0.2,2.5
				c0.7,1.9,1.9,4.3,1.7,6.9c-0.2,2.7-0.7,5.2-3.7,7.2c-0.1,0.1-0.3,0.2-0.2,0.3c0.1,0.1,0.7,0,1.1-0.3c1-0.7,3.1-2.3,3.3-7.1
				c0-0.3,0.1-0.4,0.1-0.4c0-0.2,0.5-1,1.8-1.7c3.3-1.8,6.1-1.5,6.6-1.4c0.7,0.2,0.6,0.7,0.3,0.9c-1.4,0.7-2.2,2.8-2.7,3.9
				c-0.7,1.4-1.6,2.7-2.9,3.9c-1.5,1.4-3.1,2.7-5.8,3.3c-0.1,0-0.3,0.1-0.3,0.2c0,0.2,0.8,0.1,1,0.1c1.7-0.3,3.9-1.8,5.1-3
				c0.5-0.5,0.8-0.5,0.9-0.5c0.7-0.1,2.4-0.1,4.2,1.1c0.6,0.4,1.3,1,1.6,1.5c0.3,0.4,0.8,1,0.8,1.3c0,0.3-0.3,0.6-0.8,0.4
				c-0.3-0.1-0.6-0.2-1.1-0.2c-1.3,0-5.3,1.9-9.1,1.9C87.1,40.1,84.9,38.1,84.5,38"/>
		</g>
	</g>
	<g>
		<path class="st2" d="M19.6,47.2h-1.3l-5,10.9L8.2,47.2H5c0.9,1,1.2,1.2,1.7,2.3l5.6,12h0.4l5.6-12.4
			C18.8,48.3,19.1,47.9,19.6,47.2"/>
		<path class="st2" d="M23,61.3c-0.4-0.9-0.4-1.5-0.4-2.2v-5.7c0-0.7,0-1.3,0.4-2.2h-3c0.4,0.9,0.4,1.5,0.4,2.2v5.7
			c0,1.1,0,1.3-0.4,2.2H23z M22.8,48.5c0-0.7-0.6-1.2-1.4-1.2c-0.7,0-1.3,0.6-1.3,1.2c0,0.6,0.6,1.2,1.3,1.2
			C22.2,49.7,22.8,49.2,22.8,48.5"/>
		<path class="st2" d="M33.3,54.5h-5.7c0.3-1.5,1.4-2.6,3.1-2.7C31.4,51.7,33.2,51.8,33.3,54.5z M36,55.3c-0.4-4-3.6-4.5-5.6-4.3
			c-4.4,0.5-5.9,3.9-5.5,6c0.2,1.1,0.8,2.4,2.1,3.4c1.2,0.9,4.7,2.2,8-0.2l-0.4-0.5c-0.8,0.7-2.3,1-3.3,1c-2.2-0.1-4.1-2.1-3.8-5.5
			L36,55.3z"/>
		<path class="st2" d="M44.7,59.2c-1,1.1-1.8,1.7-2.9,1.6c-1.2,0-2.2-0.7-2.2-2.1V52h4.5v-0.8h-4.5v-1.8L37.2,50
			c0.2,0.6,0.2,0.6,0.2,1.3h-0.6V52h0.7v6.5c0,2.4,2.2,3,3.6,3c1,0,2.1-0.1,3.3-0.9L44.7,59.2z"/>
		<path class="st2" d="M56.9,61.3c-0.4-0.9-0.4-1.9-0.4-2.2v-4.9c0-1.5-0.2-1.8-0.9-2.4c-0.8-0.7-2.4-0.8-3.1-0.8
			c-1.5,0.1-2.9,0.8-4.2,2.3c0-1.2-0.1-1.8-0.3-2.1c-0.7,0-2.1,0-2.7,0c0.8,1.1,0.7,2.5,0.7,2.6v5.3c0,1,0,1.3-0.4,2.2h3
			c-0.4-0.9-0.4-1.8-0.4-2.2v-3.3c0-1.8,1.9-3.9,3.9-3.9c1.9-0.1,2.1,0.9,2.1,3.4v3.8c0,1,0,1.3-0.4,2.2H56.9z"/>
		<path class="st2" d="M66.3,56.5c0,2.6-2.1,4-3.4,4c-1.8-0.1-3.1-1.7-1.8-3.5c0.3-0.5,1.3-1.1,2.7-1.3c0.3-0.1,1.3-0.2,2.4-0.7
			V56.5z M69.5,61.3c-0.9-1.2-1-2.1-1-2.7v-3.4c0-0.6,0.1-1.4-0.2-2c-0.8-2.3-4.7-2.6-6.9-2.1c-0.8,0.2-1.3,0.4-2.3,0.8L59,53.5
			c1.4-1.3,2.9-1.7,4.1-1.7c2.5-0.1,3.3,0.9,3.2,1.7c-0.1,1.6-2.6,1.5-4.4,1.8c-2.6,0.5-3.8,1.5-3.8,3.1c0,1.5,1.4,3.1,3.9,3.2
			c1.3,0.1,2.8-0.5,4.3-2.3c0.1,1.1,0.1,1.6,0.4,2.1H69.5z"/>
		<path class="st2" d="M87.3,61.3c-0.4-0.9-0.4-1.9-0.4-2.2v-4.9c0-2.7-1.2-3.3-2.5-3.2c-1.4,0.1-2.9,0.8-4.2,2.4
			c-0.3-2-1.4-2.4-2.5-2.4c-1.5,0.1-2.8,0.8-4.1,2.3c0-1.2-0.1-1.8-0.3-2.1c-0.7,0-2.1,0-2.7,0c0.7,1.1,0.7,2.5,0.7,2.6v5.3
			c0,1,0,1.3-0.4,2.2h3c-0.4-0.9-0.4-1.8-0.4-2.2v-3.3c0-1.4,1.1-2.9,2.5-3.6c2.1-1,2,2.7,2,3v3.8c0,1,0,1.3-0.4,2.2h3
			c-0.4-0.9-0.4-1.8-0.4-2.2v-3.2c0-1.4,1.1-3,2.5-3.6c2.1-1,2,2.7,2,3v3.8c0,1,0,1.3-0.4,2.2H87.3z"/>
		<path class="st2" d="M99.5,55.1h-4.3l2.1-4.7L99.5,55.1z M105.7,61.4c-0.9-1-1.2-1.2-1.7-2.3l-5.6-12h-0.4l-5.7,12.4
			c-0.4,0.9-0.6,1.3-1.2,2h1.3l2.4-5.3h5.3l2.4,5.3H105.7z"/>
		<path class="st2" d="M109.5,61.3c-0.4-0.9-0.4-1.5-0.4-2.2v-5.7c0-0.7,0-1.3,0.4-2.2h-3c0.4,0.9,0.4,1.5,0.4,2.2v5.7
			c0,1.1,0,1.3-0.4,2.2H109.5z M109.3,48.5c0-0.7-0.6-1.2-1.4-1.2c-0.7,0-1.3,0.6-1.3,1.2c0,0.6,0.6,1.2,1.3,1.2
			C108.7,49.7,109.3,49.2,109.3,48.5"/>
		<path class="st2" d="M120.3,51.1c-3.4-0.6-5.1,1-6.1,2.3c0-1.2-0.1-1.7-0.3-2.1c-0.7,0-2.1,0-2.7,0c0.8,1.1,0.7,2.5,0.7,2.6v5.3
			c0,1,0,1.3-0.4,2.2h3c-0.4-0.9-0.4-1.5-0.4-2.2v-3.3c0-1.7,2-5,4.9-3.4L120.3,51.1z"/>
		<path class="st2" d="M123.7,61.3c-0.4-0.9-0.4-1.2-0.4-2.2V48.4c0-1.1,0-1.3,0.4-2.3h-3c0.4,0.9,0.4,1.2,0.4,2.3v10.7
			c0,0.7,0,1.3-0.4,2.2H123.7z"/>
		<path class="st2" d="M128.9,61.3c-0.4-0.9-0.4-1.5-0.4-2.2v-5.7c0-0.7,0-1.3,0.4-2.2h-3c0.4,0.9,0.4,1.5,0.4,2.2v5.7
			c0,1.1,0,1.3-0.4,2.2H128.9z M128.7,48.5c0-0.7-0.6-1.2-1.4-1.2c-0.7,0-1.3,0.6-1.3,1.2c0,0.6,0.6,1.2,1.3,1.2
			C128,49.7,128.7,49.2,128.7,48.5"/>
		<path class="st2" d="M142.2,61.3c-0.4-0.9-0.4-1.9-0.4-2.2v-4.9c0-1.5-0.2-1.8-0.9-2.4c-0.8-0.7-2.4-0.8-3.1-0.8
			c-1.5,0.1-2.9,0.8-4.2,2.3c0-1.2-0.1-1.8-0.3-2.1c-0.7,0-2.1,0-2.7,0c0.7,1.1,0.7,2.5,0.7,2.6v5.3c0,1,0,1.3-0.4,2.2h3
			c-0.4-0.9-0.4-1.8-0.4-2.2v-3.3c0-1.8,1.9-3.9,3.9-3.9c1.9-0.1,2.1,0.9,2.1,3.4v3.8c0,1,0,1.3-0.4,2.2H142.2z"/>
		<path class="st2" d="M152.4,54.5h-5.7c0.3-1.5,1.4-2.6,3.1-2.7C150.5,51.7,152.3,51.8,152.4,54.5z M155.1,55.3
			c-0.4-4-3.6-4.5-5.6-4.3c-4.4,0.5-5.9,3.9-5.5,6c0.2,1.1,0.8,2.4,2.1,3.4c1.2,0.9,4.7,2.2,8-0.2l-0.4-0.5c-0.8,0.7-2.3,1-3.3,1
			c-2.2-0.1-4.1-2.1-3.8-5.5L155.1,55.3z"/>
		<path class="st2" d="M165,58.6c0.3-2.1-3.3-3.3-4.5-3.7c-1.8-0.7-2.4-1.1-2.4-2c0-0.7,0.9-1.2,1.9-1.2c0.9,0,2.5,0.3,4.2,1.7
			l-0.2-1.4c-2-1-3.6-1-4.1-1c-2.2,0.1-3.6,1-3.8,2c-0.5,2.3,1.8,3.1,3.6,3.8c5.1,1.9,2.6,4.2,0.1,4.2c-1.9,0-3.7-1.3-4.3-1.8
			l0.2,1.4c1.5,0.9,3,1.1,4,1.1C162.4,61.7,164.8,60.5,165,58.6"/>
	</g>
</g>
</svg>
